<svg xmlns="http://www.w3.org/2000/svg" xmlns:xlink="http://www.w3.org/1999/xlink" width="110" height="110" viewBox="0 0 110 110">
  <defs>
    <filter id="Trazado_982547" x="0" y="0" width="110" height="110" filterUnits="userSpaceOnUse">
      <feOffset dy="3" input="SourceAlpha"/>
      <feGaussianBlur stdDeviation="3" result="blur"/>
      <feFlood flood-opacity="0.161"/>
      <feComposite operator="in" in2="blur"/>
      <feComposite in="SourceGraphic"/>
    </filter>
  </defs>
  <g id="Grupo_1163972" data-name="Grupo 1163972" transform="translate(932 -1977)">
    <g id="Grupo_1161861" data-name="Grupo 1161861" transform="translate(-923 1983)">
      <g id="Grupo_1160931" data-name="Grupo 1160931" transform="translate(0 0)">
        <g id="Grupo_1160749" data-name="Grupo 1160749">
          <g id="Grupo_1158891" data-name="Grupo 1158891" transform="translate(0 0)">
            <g id="Grupo_1157406" data-name="Grupo 1157406" transform="translate(0 0)">
              <g id="Grupo_1155793" data-name="Grupo 1155793">
                <g id="Grupo_1154704" data-name="Grupo 1154704">
                  <g id="Grupo_1150790" data-name="Grupo 1150790">
                    <g id="Grupo_1154214" data-name="Grupo 1154214">
                      <g id="Grupo_1152583" data-name="Grupo 1152583">
                        <g id="Grupo_1146973" data-name="Grupo 1146973">
                          <g id="Grupo_1146954" data-name="Grupo 1146954">
                            <g transform="matrix(1, 0, 0, 1, -9, -6)" filter="url(#Trazado_982547)">
                              <g id="Trazado_982547-2" data-name="Trazado 982547" transform="translate(9 6)" fill="#fcebe9">
                                <path d="M 46 90.49987030029297 C 39.99187850952148 90.49987030029297 34.16426849365234 89.32350921630859 28.67905426025391 87.00345611572266 C 23.38019943237305 84.76224517822266 18.62104034423828 81.55341339111328 14.53374671936035 77.46613311767578 C 10.44646644592285 73.37885284423828 7.237639904022217 68.61969757080078 4.996413230895996 63.32085418701172 C 2.676359891891479 57.83565521240234 1.5 52.008056640625 1.5 45.99993515014648 C 1.5 39.99181365966797 2.676359891891479 34.16421508789062 4.996413230895996 28.67901420593262 C 7.237639904022217 23.38017463684082 10.44646644592285 18.62101554870605 14.53374671936035 14.53373527526855 C 18.62104034423828 10.44645500183105 23.38019943237305 7.23762845993042 28.67905426025391 4.996415138244629 C 34.16426849365234 2.676361799240112 39.99187850952148 1.500001788139343 46 1.500001788139343 C 52.00812149047852 1.500001788139343 57.83573150634766 2.676361799240112 63.32094573974609 4.996415138244629 C 68.61979675292969 7.23762845993042 73.37895965576172 10.44645500183105 77.46625518798828 14.53373527526855 C 81.55353546142578 18.62101554870605 84.76235961914062 23.38017463684082 87.00358581542969 28.67901420593262 C 89.32363891601562 34.16421508789062 90.5 39.99181365966797 90.5 45.99993515014648 C 90.5 52.008056640625 89.32363891601562 57.83565521240234 87.00358581542969 63.32085418701172 C 84.76235961914062 68.61969757080078 81.55353546142578 73.37885284423828 77.46625518798828 77.46613311767578 C 73.37895965576172 81.55341339111328 68.61979675292969 84.76224517822266 63.32094573974609 87.00345611572266 C 57.83573150634766 89.32350921630859 52.00812149047852 90.49987030029297 46 90.49987030029297 Z" stroke="none"/>
                                <path d="M 46 2.999992370605469 C 40.1937141418457 2.999992370605469 34.56269836425781 4.136489868164062 29.26337051391602 6.377906799316406 C 24.14332580566406 8.543502807617188 19.54441070556641 11.64437866210938 15.59439849853516 15.59437561035156 C 11.64440155029297 19.54439544677734 8.54351806640625 24.14329528808594 6.377914428710938 29.26333618164062 C 4.136497497558594 34.56264877319336 3 40.19366455078125 3 45.99993515014648 C 3 51.80620574951172 4.136497497558594 57.43720626831055 6.377914428710938 62.73651885986328 C 8.54351806640625 67.8565673828125 11.64440155029297 72.45545959472656 15.59439849853516 76.40547943115234 C 19.54441070556641 80.35547637939453 24.14332580566406 83.45635223388672 29.26337051391602 85.6219482421875 C 34.56269836425781 87.86336517333984 40.1937141418457 88.99986267089844 46 88.99986267089844 C 51.8062858581543 88.99986267089844 57.43730163574219 87.86336517333984 62.73661422729492 85.6219482421875 C 67.85667419433594 83.45635223388672 72.45557403564453 80.35547637939453 76.40558624267578 76.40547943115234 C 80.35559844970703 72.45545959472656 83.45647430419922 67.8565673828125 85.6220703125 62.73651885986328 C 87.86350250244141 57.43720626831055 89 51.80620574951172 89 45.99993515014648 C 89 40.19366455078125 87.86350250244141 34.56264877319336 85.6220703125 29.26333618164062 C 83.45647430419922 24.14329528808594 80.35559844970703 19.54439544677734 76.40558624267578 15.59437561035156 C 72.45557403564453 11.64437866210938 67.85667419433594 8.543502807617188 62.73661422729492 6.377906799316406 C 57.43730163574219 4.136489868164062 51.8062858581543 2.999992370605469 46 2.999992370605469 M 46 -7.62939453125e-06 C 71.40509033203125 -7.62939453125e-06 92 20.59486389160156 92 45.99993515014648 C 92 71.40499114990234 71.40509033203125 91.99986267089844 46 91.99986267089844 C 20.59490203857422 91.99986267089844 0 71.40499114990234 0 45.99993515014648 C 0 20.59486389160156 20.59490203857422 -7.62939453125e-06 46 -7.62939453125e-06 Z" stroke="none" fill="#e44b36"/>
                              </g>
                            </g>
                          </g>
                        </g>
                      </g>
                    </g>
                  </g>
                </g>
              </g>
            </g>
          </g>
        </g>
      </g>
    </g>
    <g id="Artboard211" transform="translate(-923.341 1990)">
      <g id="Grupo_1163971" data-name="Grupo 1163971" transform="translate(15.341 7)">
        <g id="Grupo_1163970" data-name="Grupo 1163970" transform="translate(1.19 0.961)">
          <g id="Grupo_1163967" data-name="Grupo 1163967" transform="translate(10.231 8.046)">
            <g id="Grupo_1163966" data-name="Grupo 1163966">
              <path id="Trazado_1016077" data-name="Trazado 1016077" d="M140.98,107.589a2.258,2.258,0,0,1,2.252,2.255V151.3a2.256,2.256,0,0,1-2.252,2.252h-34.7a2.258,2.258,0,0,1-2.255-2.252V109.844a2.261,2.261,0,0,1,2.255-2.255Z" transform="translate(-104.024 -103.642)" fill="#837683" fill-rule="evenodd"/>
              <path id="Trazado_1016078" data-name="Trazado 1016078" d="M372.552,107.589a2.258,2.258,0,0,1,2.252,2.255V151.3a2.256,2.256,0,0,1-2.252,2.252h-2.727V107.589Z" transform="translate(-335.595 -103.642)" fill="#685e68" fill-rule="evenodd"/>
              <path id="Trazado_1016079" data-name="Trazado 1016079" d="M160.3,131.944H129.4a1.019,1.019,0,0,0-1.017,1.017v37.661a1.02,1.02,0,0,0,1.017,1.02h30.9a1.02,1.02,0,0,0,1.02-1.02V132.961A1.02,1.02,0,0,0,160.3,131.944Z" transform="translate(-125.243 -124.86)" fill="#eceff1" fill-rule="evenodd"/>
              <path id="Trazado_1016080" data-name="Trazado 1016080" d="M370.65,131.944h-.825v39.7h.825a1.02,1.02,0,0,0,1.02-1.02V132.961a1.02,1.02,0,0,0-1.02-1.017Z" transform="translate(-335.595 -124.86)" fill="#d1d1d6" fill-rule="evenodd"/>
              <path id="Trazado_1016081" data-name="Trazado 1016081" d="M189.918,79.869h3.935a3.83,3.83,0,0,1,7.446,0h3.932a1.02,1.02,0,0,1,1.02,1.017v3.823a1.02,1.02,0,0,1-1.02,1.017H189.918a1.019,1.019,0,0,1-1.017-1.017V80.886A1.019,1.019,0,0,1,189.918,79.869Z" transform="translate(-177.971 -76.939)" fill="#e3a76f" fill-rule="evenodd"/>
              <path id="Trazado_1016082" data-name="Trazado 1016082" d="M205.232,99.692a1.02,1.02,0,0,1,1.02,1.017v3.823a1.02,1.02,0,0,1-1.02,1.017H189.918a1.019,1.019,0,0,1-1.017-1.017h15.314a1.022,1.022,0,0,0,1.017-1.02Z" transform="translate(-177.971 -96.762)" fill="#c48958" fill-rule="evenodd"/>
              <g id="Grupo_1163963" data-name="Grupo 1163963" transform="translate(8.072 13.922)">
                <path id="Trazado_1016083" data-name="Trazado 1016083" d="M167.443,185.046h5.633a.739.739,0,0,1,.737.737v5.633a.737.737,0,0,1-.737.737h-5.633a.737.737,0,0,1-.737-.737v-5.633A.739.739,0,0,1,167.443,185.046Z" transform="translate(-166.706 -185.046)" fill="#8ac9fe" fill-rule="evenodd"/>
                <path id="Trazado_1016084" data-name="Trazado 1016084" d="M206.924,185.046h1.191a.739.739,0,0,1,.737.737v5.633a.737.737,0,0,1-.737.737h-1.191a.739.739,0,0,0,.737-.737v-5.633A.741.741,0,0,0,206.924,185.046Z" transform="translate(-201.745 -185.046)" fill="#60b7ff" fill-rule="evenodd"/>
              </g>
              <g id="Grupo_1163964" data-name="Grupo 1163964" transform="translate(7.759 24.76)">
                <path id="Trazado_1016085" data-name="Trazado 1016085" d="M165.01,269.2h5.633a.739.739,0,0,1,.737.737v5.636a.737.737,0,0,1-.737.734H165.01a.737.737,0,0,1-.737-.734v-5.636A.739.739,0,0,1,165.01,269.2Z" transform="translate(-164.273 -269.202)" fill="#ffe177" fill-rule="evenodd"/>
                <path id="Trazado_1016086" data-name="Trazado 1016086" d="M204.491,269.2h1.191a.739.739,0,0,1,.737.737v5.636a.737.737,0,0,1-.737.734h-1.191a.739.739,0,0,0,.737-.734v-5.636A.741.741,0,0,0,204.491,269.2Z" transform="translate(-199.312 -269.202)" fill="#ffd064" fill-rule="evenodd"/>
              </g>
              <g id="Grupo_1163965" data-name="Grupo 1163965" transform="translate(8.072 35.597)">
                <path id="Trazado_1016087" data-name="Trazado 1016087" d="M167.443,353.359h5.633a.739.739,0,0,1,.737.737v5.636a.736.736,0,0,1-.737.734h-5.633a.737.737,0,0,1-.737-.734V354.1A.739.739,0,0,1,167.443,353.359Z" transform="translate(-166.706 -353.359)" fill="#fe646f" fill-rule="evenodd"/>
                <path id="Trazado_1016088" data-name="Trazado 1016088" d="M206.924,353.359h1.191a.739.739,0,0,1,.737.737v5.636a.736.736,0,0,1-.737.734h-1.191a.738.738,0,0,0,.737-.734V354.1A.741.741,0,0,0,206.924,353.359Z" transform="translate(-201.745 -353.359)" fill="#fd4755" fill-rule="evenodd"/>
              </g>
            </g>
          </g>
          <g id="Grupo_1163968" data-name="Grupo 1163968" transform="translate(30.264 35.993)">
            <path id="Trazado_1016089" data-name="Trazado 1016089" d="M277.381,295.747a3.575,3.575,0,0,0-6.192,0L260.068,315.01a3.575,3.575,0,0,0,3.1,5.361h22.244a3.575,3.575,0,0,0,3.1-5.361Z" transform="translate(-259.584 -293.959)" fill="#ffe177" fill-rule="evenodd"/>
            <path id="Trazado_1016090" data-name="Trazado 1016090" d="M371.752,295.747a3.542,3.542,0,0,0-3.1-1.788,3.6,3.6,0,0,0-.752.079,3.534,3.534,0,0,1,2.343,1.709l11.123,19.264a3.575,3.575,0,0,1-3.1,5.361h1.5a3.575,3.575,0,0,0,3.1-5.361Z" transform="translate(-353.956 -293.959)" fill="#ffd064" fill-rule="evenodd"/>
            <path id="Trazado_1016091" data-name="Trazado 1016091" d="M359.965,351.768a1.7,1.7,0,1,1-1.7,1.7A1.7,1.7,0,0,1,359.965,351.768Zm-.065-1.6a1.329,1.329,0,0,1-1.328-1.282l-.337-8.351a1.328,1.328,0,0,1,1.328-1.378h.672a1.328,1.328,0,0,1,1.328,1.378l-.335,8.351A1.331,1.331,0,0,1,359.9,350.171Z" transform="translate(-345.529 -333.338)" fill="#fe646f" fill-rule="evenodd"/>
          </g>
          <g id="Grupo_1163969" data-name="Grupo 1163969">
            <path id="Trazado_1016092" data-name="Trazado 1016092" d="M39.783,16.565a10.808,10.808,0,0,1,3.169,1.313l2.059-.913,2.426,2.426-.913,2.059a10.807,10.807,0,0,1,1.313,3.169l2.1.809v3.432l-2.1.809a10.814,10.814,0,0,1-1.313,3.167l.913,2.059-2.426,2.427-2.059-.915a10.808,10.808,0,0,1-3.169,1.315l-.809,2.1H35.542l-.809-2.1a10.812,10.812,0,0,1-3.167-1.313l-2.059.915L27.08,34.894,28,32.836a10.844,10.844,0,0,1-1.315-3.169l-2.1-.809V25.427l2.1-.809A10.811,10.811,0,0,1,28,21.45l-.915-2.059,2.427-2.426,2.058.913a10.843,10.843,0,0,1,3.169-1.313l.809-2.1h3.432Z" transform="translate(-24.581 -14.464)" fill="#9facba" fill-rule="evenodd"/>
            <path id="Trazado_1016093" data-name="Trazado 1016093" d="M75.572,17.272l.692-.307,2.426,2.426-.913,2.059a10.807,10.807,0,0,1,1.313,3.169l2.1.809v3.432l-2.1.809a10.814,10.814,0,0,1-1.313,3.167l.913,2.059-2.426,2.427-.692-.307,2.12-2.12-.915-2.059a10.814,10.814,0,0,0,1.313-3.167l2.1-.809V25.427l-2.1-.809a10.807,10.807,0,0,0-1.313-3.169l.915-2.059Zm-15.118,0,.307-.307,2.058.913c-.145.081-.289.165-.43.253Zm10.583-.707a10.808,10.808,0,0,1,3.169,1.313l-.568.253a14.141,14.141,0,0,0-3.6-1.566l-.809-2.1h1ZM62.82,36.406l-2.059.915-.307-.307,1.935-.86Q62.6,36.285,62.82,36.406Zm11.385,0a10.808,10.808,0,0,1-3.169,1.315l-.809,2.1h-1l.809-2.1a14.175,14.175,0,0,0,3.6-1.566Z" transform="translate(-55.834 -14.464)" fill="#8d9ca8" fill-rule="evenodd"/>
            <path id="Trazado_1016094" data-name="Trazado 1016094" d="M80.86,64.51a6.233,6.233,0,1,1-6.233,6.234A6.234,6.234,0,0,1,80.86,64.51Z" transform="translate(-68.182 -58.065)" fill="#eceff1" fill-rule="evenodd"/>
            <path id="Trazado_1016095" data-name="Trazado 1016095" d="M80.86,64.51c.142,0,.282.005.423.015a6.233,6.233,0,0,0,0,12.438c-.141.009-.281.014-.423.014a6.233,6.233,0,0,1,0-12.467Z" transform="translate(-68.182 -58.065)" fill="#d1d1d6" fill-rule="evenodd"/>
          </g>
        </g>
        <path id="Trazado_1016096" data-name="Trazado 1016096" d="M25.848,32.388l-.093-.242a11.888,11.888,0,0,1-2.462-1.02l-1.578.7a1.03,1.03,0,0,1-1.146-.214l-2.425-2.425a1.03,1.03,0,0,1-.213-1.147l.7-1.576A11.873,11.873,0,0,1,17.611,24L16,23.385a1.03,1.03,0,0,1-.66-.962v-3.43a1.03,1.03,0,0,1,.66-.961l1.609-.619a11.884,11.884,0,0,1,1.021-2.462l-.7-1.576a1.03,1.03,0,0,1,.213-1.147L20.568,9.8a1.03,1.03,0,0,1,1.147-.213l1.576.7a11.82,11.82,0,0,1,2.46-1.019l.622-1.612A1.03,1.03,0,0,1,27.335,7h3.43a1.03,1.03,0,0,1,.962.661l.619,1.611A11.819,11.819,0,0,1,34.8,10.291l1.576-.7a1.03,1.03,0,0,1,1.147.213l2.425,2.425a1.03,1.03,0,0,1,.214,1.146l-.7,1.577a11.792,11.792,0,0,1,1.02,2.464L42.014,18a4.835,4.835,0,0,1,8.768.221h4.18a1.03,1.03,0,0,1,1.03,1.03v.322h7.584a3.278,3.278,0,0,1,3.269,3.269V48.5l9.72,16.831h0a3.644,3.644,0,0,1,0,3.693v0a3.647,3.647,0,0,1-3.2,1.844H49.013a3.644,3.644,0,0,1-3.2-1.847h0a3.7,3.7,0,0,1-.5-1.743h-16.2a3.275,3.275,0,0,1-3.269-3.266ZM42.755,20.277v2.147a1.03,1.03,0,0,1-.66.962L40.487,24l-.011.037H53.932V20.283H50.045a1.03,1.03,0,0,1-1-.789,2.775,2.775,0,0,0-5.393,0,1.03,1.03,0,0,1-.9.783Zm-3.1,5.824q-.093.182-.192.361l.7,1.578a1.031,1.031,0,0,1-.1,1.006h.106a2.324,2.324,0,0,1,2.32,2.319v3.9a2.327,2.327,0,0,1-2.32,2.319h-3.9a2.327,2.327,0,0,1-2.317-2.319V31.555a11.808,11.808,0,0,1-1.609.591l-.619,1.608a1.03,1.03,0,0,1-.7.627v27.73H47.678l2.369-4.1H46.839a1.03,1.03,0,0,1,0-2.06h4.4l.836-1.448H46.839a1.03,1.03,0,0,1,0-2.06h6.423l4.73-8.193a3.638,3.638,0,0,1,3.2-1.848,3.85,3.85,0,0,1,.481.03V24.749H55.992v.322a1.03,1.03,0,0,1-1.03,1.03Zm-1.627,5.006-.5.5a1.03,1.03,0,0,1-1.146.214l-.367-.163v3.609a.259.259,0,0,0,.256.259h3.9a.26.26,0,0,0,.259-.259v-3.9a.26.26,0,0,0-.259-.259Zm-9.069,3.307H27.908v29.6a1.21,1.21,0,0,0,1.209,1.206H45.881l.607-1.051h-16.5a1.03,1.03,0,0,1-1.03-1.03Zm27.03-12.78v1.054H62.7a1.03,1.03,0,0,1,1.03,1.03V43.405a3.763,3.763,0,0,1,.655.84h0l.4.69V22.843a1.212,1.212,0,0,0-1.209-1.209ZM62.6,45.274a1.63,1.63,0,0,0-2.824,0L47.6,66.364a1.633,1.633,0,0,0,1.412,2.45H73.366a1.633,1.633,0,0,0,1.414-2.45L62.6,45.275Zm-.385,16.283a2.552,2.552,0,1,1-2.054,0,2.215,2.215,0,0,1-1.189-1.888l-.3-8.322v0a2.161,2.161,0,0,1,.621-1.615l0,0a2.144,2.144,0,0,1,1.6-.677h.6a2.22,2.22,0,0,1,2.219,2.3l-.3,8.319A2.217,2.217,0,0,1,62.216,61.558Zm-1.027,2.828a.492.492,0,1,0-.492-.492A.493.493,0,0,0,61.189,64.385Zm0-4.637a.159.159,0,0,0,.16-.153l.3-8.32h0a.151.151,0,0,0-.045-.115l0,0a.15.15,0,0,0-.112-.046h-.6a.157.157,0,0,0-.116.049.167.167,0,0,0-.044.12l.3,8.315h0a.158.158,0,0,0,.157.152ZM30.611,10.5,30.057,9.06H28.041L27.484,10.5a1.03,1.03,0,0,1-.723.631A9.756,9.756,0,0,0,23.9,12.323a1.03,1.03,0,0,1-.959.064l-1.412-.628L20.1,13.184l.628,1.412a1.03,1.03,0,0,1-.064.959,9.846,9.846,0,0,0-1.191,2.871,1.03,1.03,0,0,1-.632.721L17.4,19.7v2.015l1.44.554a1.03,1.03,0,0,1,.632.72,9.82,9.82,0,0,0,1.191,2.867,1.031,1.031,0,0,1,.065.96L20.1,28.23l1.425,1.425,1.413-.626a1.03,1.03,0,0,1,.955.063,9.833,9.833,0,0,0,2.87,1.189,1.031,1.031,0,0,1,.724.632l.554,1.44h2.015l.554-1.44a1.03,1.03,0,0,1,.723-.632A9.716,9.716,0,0,0,34.2,29.095a1.03,1.03,0,0,1,.959-.066l1.413.626L38,28.229l-.626-1.413a1.03,1.03,0,0,1,.063-.955,9.853,9.853,0,0,0,1.189-2.868,1.03,1.03,0,0,1,.632-.723l1.44-.554V19.7l-1.44-.554a1.031,1.031,0,0,1-.633-.724,9.737,9.737,0,0,0-1.187-2.868,1.03,1.03,0,0,1-.065-.958L38,13.185,36.571,11.76l-1.412.628a1.03,1.03,0,0,1-.959-.064,9.755,9.755,0,0,0-2.865-1.187A1.03,1.03,0,0,1,30.611,10.5Zm-1.563,3.191a7.015,7.015,0,1,1-7.013,7.013A7.014,7.014,0,0,1,29.048,13.694Zm0,2.06A4.954,4.954,0,1,0,34,20.707a4.951,4.951,0,0,0-4.956-4.952Zm17.3,4.713a1.005,1.005,0,1,1,1.007-1A1.005,1.005,0,0,1,46.345,20.467Zm.493,21.967a1.03,1.03,0,0,1,0-2.06h9.207a1.03,1.03,0,0,1,0,2.06Zm0-9.841a1.03,1.03,0,1,1,0-2.06h9.207a1.03,1.03,0,1,1,0,2.06ZM36.271,40h3.9a2.324,2.324,0,0,1,2.32,2.319v3.9a2.324,2.324,0,0,1-2.32,2.317h-3.9a2.324,2.324,0,0,1-2.317-2.317v-3.9A2.324,2.324,0,0,1,36.271,40Zm0,2.06a.258.258,0,0,0-.256.259v3.9a.257.257,0,0,0,.256.256h3.9a.258.258,0,0,0,.259-.256v-3.9a.26.26,0,0,0-.259-.259ZM46.839,36.1a1.03,1.03,0,0,1,0-2.06h4.6a1.03,1.03,0,0,1,0,2.06Zm0,9.841a1.03,1.03,0,0,1,0-2.06h4.6a1.03,1.03,0,0,1,0,2.06ZM36.271,50.953h3.9A2.324,2.324,0,0,1,42.5,53.27v3.9a2.324,2.324,0,0,1-2.32,2.32h-3.9a2.324,2.324,0,0,1-2.317-2.32v-3.9A2.324,2.324,0,0,1,36.271,50.953Zm0,2.06a.257.257,0,0,0-.256.256v3.9a.258.258,0,0,0,.256.259h3.9a.26.26,0,0,0,.259-.259v-3.9a.258.258,0,0,0-.259-.256Z" transform="translate(-15.341 -7)" fill-rule="evenodd"/>
      </g>
    </g>
  </g>
</svg>
