<svg xmlns="http://www.w3.org/2000/svg" xmlns:xlink="http://www.w3.org/1999/xlink" width="400" height="379" viewBox="0 0 400 379">
  <defs>
    <clipPath id="clip-path">
      <rect id="Rectángulo_413221" data-name="Rectángulo 413221" width="400" height="379" transform="translate(285 1301)" fill="#fff" stroke="#707070" stroke-width="1" opacity="0.58"/>
    </clipPath>
  </defs>
  <g id="Enmascarar_grupo_1098795" data-name="Enmascarar grupo 1098795" transform="translate(-285 -1301)" clip-path="url(#clip-path)">
    <g id="Grupo_1163948" data-name="Grupo 1163948" transform="translate(-7.775 611.014)">
      <path id="Trazado_1015250" data-name="Trazado 1015250" d="M1923,1327.735c19.111-101.976,14.792-164.746-93.159-221.228-57.444-30.054-129.613-2.394-149.328,55.587-19.916,58.54-46.143,65.925-85.461,105.355-80.717,80.985,5.617,151.364,128.83,167.611,134.714,17.768,181.462-13,199.118-107.325Z" transform="translate(-1270.865 -401.043)" fill="#f1d8c3" fill-rule="evenodd"/>
      <path id="Trazado_1015251" data-name="Trazado 1015251" d="M1758.152,3332.935a.875.875,0,0,0,1.723-.2c-.022-.09-.022-.135-.045-.224a32.524,32.524,0,0,1-.649-3.335.873.873,0,0,0-1.723-.022,1.072,1.072,0,0,0,0,.269,31.408,31.408,0,0,0,.694,3.513Zm2.484,2.216a.866.866,0,0,0-1.678.358.655.655,0,0,0,.045.224,25.344,25.344,0,0,0,1.41,3.312.865.865,0,0,0,1.634-.515,1.273,1.273,0,0,0-.089-.268,29.632,29.632,0,0,1-1.32-3.11Zm3.961,7.452a.875.875,0,0,0-1.5.873.671.671,0,0,0,.089.179,30.014,30.014,0,0,0,2.305,2.752.872.872,0,0,0,1.3-1.164,31.248,31.248,0,0,1-2.193-2.64Zm5.93,6.02a.877.877,0,0,0-1.253,1.186,2.058,2.058,0,0,0,.2.224,33.1,33.1,0,0,0,3,1.991.876.876,0,0,0,1.141-1.275,1.29,1.29,0,0,0-.269-.224,29.972,29.972,0,0,1-2.819-1.9Zm7.408,4.1a.867.867,0,0,0-.806,1.521.9.9,0,0,0,.2.112,30.362,30.362,0,0,0,3.424,1.074.873.873,0,0,0,.582-1.634.242.242,0,0,0-.156-.067c-1.12-.292-2.194-.627-3.245-1.007Zm8.257,1.789a.873.873,0,0,0-.246,1.723.279.279,0,0,0,.134.023,31.789,31.789,0,0,0,3.58.044.875.875,0,0,0,.156-1.723.914.914,0,0,0-.246-.022,28.113,28.113,0,0,1-3.379-.045Zm8.415-.626a.869.869,0,0,0,.022,1.7,1.071,1.071,0,0,0,.38,0,31.69,31.69,0,0,0,3.446-.985.877.877,0,0,0-.336-1.7,1.036,1.036,0,0,0-.246.067,33.675,33.675,0,0,1-3.267.918Zm7.9-3a.874.874,0,0,0,.626,1.611.663.663,0,0,0,.224-.089,33.384,33.384,0,0,0,3.043-1.925.879.879,0,0,0-.85-1.522c-.067.045-.112.067-.179.112a31.279,31.279,0,0,1-2.864,1.813Zm6.713-5.147a.88.88,0,0,0,1.119,1.343c.045-.045.089-.067.134-.112a34.361,34.361,0,0,0,2.349-2.73.868.868,0,0,0-1.253-1.186l-.134.134a30.221,30.221,0,0,1-2.216,2.551Zm4.968-6.825a.868.868,0,0,0,1.432.962.4.4,0,0,0,.112-.156,28.634,28.634,0,0,0,1.477-3.267.869.869,0,0,0-1.567-.739.172.172,0,0,0-.045.112,32.2,32.2,0,0,1-1.41,3.088Zm2.819-7.967a.875.875,0,0,0,1.611.6.636.636,0,0,0,.089-.269,27.733,27.733,0,0,0,.493-3.558.873.873,0,0,0-1.7-.336.621.621,0,0,0-.022.2,28.732,28.732,0,0,1-.47,3.356Zm.426-8.436a.873.873,0,0,0,1.7.179.967.967,0,0,0,.022-.358,31.31,31.31,0,0,0-.537-3.536.881.881,0,0,0-1.723,0,.966.966,0,0,0,.022.358,33.943,33.943,0,0,1,.515,3.356Zm-2.014-8.213a.872.872,0,0,0,1.678-.381,1.125,1.125,0,0,0-.045-.269,27.086,27.086,0,0,0-1.544-3.268.875.875,0,0,0-1.589.716l.067.135a22.531,22.531,0,0,1,1.432,3.066Zm-4.252-7.3a.875.875,0,0,0,1.522-.783.6.6,0,0,0-.157-.313,27.118,27.118,0,0,0-2.394-2.663.873.873,0,0,0-1.41.985.854.854,0,0,0,.179.246,26.776,26.776,0,0,1,2.26,2.529Zm-6.154-5.773a.871.871,0,0,0,1.074-1.365.3.3,0,0,0-.089-.067,28.917,28.917,0,0,0-3.066-1.88.816.816,0,0,0-.6-.089.881.881,0,0,0-.2,1.634,27.818,27.818,0,0,1,2.887,1.768Zm-7.564-3.781a.877.877,0,0,0,.783-1.544.494.494,0,0,0-.246-.112,22.576,22.576,0,0,0-3.469-.94.867.867,0,1,0-.336,1.7,27.169,27.169,0,0,1,3.267.9Zm-8.325-1.477a.885.885,0,0,0,.358-1.7,1.525,1.525,0,0,0-.313-.045,31.932,31.932,0,0,0-3.58.09.875.875,0,0,0-.112,1.723,1.1,1.1,0,0,0,.268.022,28.3,28.3,0,0,1,3.379-.09Zm-8.392.962a.877.877,0,0,0-.2-1.723.949.949,0,0,0-.246.045,26.274,26.274,0,0,0-3.4,1.119.873.873,0,0,0,.425,1.678c.089-.022.134-.045.2-.067a33.7,33.7,0,0,1,3.223-1.052Zm-7.765,3.312a.877.877,0,0,0-.694-1.589.688.688,0,0,0-.224.112,26.565,26.565,0,0,0-2.954,2.036.868.868,0,0,0,.761,1.522.525.525,0,0,0,.313-.156,29.514,29.514,0,0,1,2.8-1.925Zm-6.49,5.393a.881.881,0,0,0-1.1-1.343,1.987,1.987,0,0,0-.224.179,34.318,34.318,0,0,0-2.238,2.82.87.87,0,0,0,1.343,1.1.223.223,0,0,0,.089-.112,29.909,29.909,0,0,1,2.126-2.64Zm-4.7,7.027a.879.879,0,0,0-1.5-.9c-.022.045-.067.112-.09.157a30.586,30.586,0,0,0-1.343,3.334.865.865,0,0,0,1.522.783c.067-.09.089-.157.134-.224a27.386,27.386,0,0,1,1.276-3.155Zm-2.506,8.078a.867.867,0,0,0-1.7-.336,24.571,24.571,0,0,0-.381,3.648,1,1,0,0,0,.157.515.87.87,0,0,0,1.589-.469c.089-1.164.157-2.193.336-3.357Z" transform="translate(-1444.173 -2370.93)" fill="#fae9dc"/>
      <path id="Trazado_1015252" data-name="Trazado 1015252" d="M2990.313,1026.29a1.182,1.182,0,0,0-.291,2.327,1.539,1.539,0,0,0,.291.045,39.888,39.888,0,0,1,4.632.269,1.2,1.2,0,0,0,.6-2.283,1.484,1.484,0,0,0-.335-.089,44.532,44.532,0,0,0-4.9-.268Zm-3.76,2.551a1.2,1.2,0,0,0,.112-2.372,1.684,1.684,0,0,0-.336,0,35.558,35.558,0,0,0-4.833.739,1.194,1.194,0,0,0,.112,2.35,2.144,2.144,0,0,0,.38-.023,35.06,35.06,0,0,1,4.565-.694Zm-11.189,2.708a1.193,1.193,0,0,0-.626-2.282,1.255,1.255,0,0,0-.268.089,39.886,39.886,0,0,0-4.431,2.081,1.186,1.186,0,0,0,1.1,2.1c1.41-.739,2.753-1.387,4.23-1.992Zm-9.958,5.818a1.194,1.194,0,0,0-1.141-2.059,1.036,1.036,0,0,0-.335.2,42.065,42.065,0,0,0-3.648,3.267,1.19,1.19,0,0,0,1.275,1.947.987.987,0,0,0,.4-.268,40.477,40.477,0,0,1,3.446-3.088Zm-7.877,8.392a1.193,1.193,0,0,0-1.768-1.567,2.01,2.01,0,0,0-.2.224,44.2,44.2,0,0,0-2.574,4.162,1.2,1.2,0,0,0,1.97,1.343,1.97,1.97,0,0,0,.135-.224,39.662,39.662,0,0,1,2.439-3.938Zm-5.17,10.316a1.2,1.2,0,0,0-2.216-.9,1.182,1.182,0,0,0-.067.157c-.492,1.567-.917,3.11-1.253,4.722a1.2,1.2,0,0,0,2.238.783,1.669,1.669,0,0,0,.09-.313,38.509,38.509,0,0,1,1.208-4.453Zm-2.013,11.345a1.194,1.194,0,0,0-2.26-.559,1.314,1.314,0,0,0-.112.492,39.785,39.785,0,0,0,.134,4.9,1.189,1.189,0,0,0,2.349.134,1.8,1.8,0,0,0,.022-.336,40.051,40.051,0,0,1-.134-4.632Zm1.3,11.458a1.184,1.184,0,0,0-2.327.268,1.579,1.579,0,0,0,.022.336,37.8,37.8,0,0,0,1.544,4.655,1.188,1.188,0,0,0,2.283-.6l-.067-.269a38.4,38.4,0,0,1-1.455-4.386Zm4.542,10.584a1.2,1.2,0,0,0-2.148,1.029.715.715,0,0,0,.112.224,41.764,41.764,0,0,0,2.8,4.028,1.189,1.189,0,0,0,1.992-1.276,1.033,1.033,0,0,0-.135-.2,41.17,41.17,0,0,1-2.618-3.8Zm7.363,8.885a1.2,1.2,0,0,0-1.768,1.589,1.133,1.133,0,0,0,.156.179c1.231,1.1,2.507,2.1,3.827,3.066a1.187,1.187,0,0,0,1.522-1.813l-.135-.134a40.662,40.662,0,0,1-3.6-2.887Zm9.578,6.4a1.21,1.21,0,0,0-1.365,1.947,1.755,1.755,0,0,0,.336.224,40.163,40.163,0,0,0,4.543,1.835,1.185,1.185,0,0,0,1.007-2.126c-.09-.045-.156-.089-.246-.134a37.412,37.412,0,0,1-4.274-1.745Zm11.01,3.423a1.187,1.187,0,0,0-.828,2.171,1.869,1.869,0,0,0,.448.179,44.972,44.972,0,0,0,4.878.47,1.187,1.187,0,0,0,.559-2.26,1.141,1.141,0,0,0-.47-.135,39.138,39.138,0,0,1-4.587-.425Zm11.524.112a1.2,1.2,0,0,0-.089,2.35,2.571,2.571,0,0,0,.4.022,35.151,35.151,0,0,0,4.812-.94,1.2,1.2,0,0,0-.381-2.35c-.067.022-.134.022-.2.045a31.775,31.775,0,0,1-4.542.873Zm11.078-3.155a1.182,1.182,0,0,0,.514,2.26,1.1,1.1,0,0,0,.47-.089,42.342,42.342,0,0,0,4.341-2.283,1.193,1.193,0,0,0-.828-2.193,1.5,1.5,0,0,0-.4.156,39.426,39.426,0,0,1-4.095,2.149Zm9.712-6.221a1.194,1.194,0,0,0,1.432,1.9.465.465,0,0,0,.134-.09,46,46,0,0,0,3.514-3.424,1.158,1.158,0,0,0,.313-.783,1.2,1.2,0,0,0-2.081-.806,37.193,37.193,0,0,1-3.312,3.2Zm7.564-8.706a1.186,1.186,0,0,0,1.768,1.544,1.173,1.173,0,0,0,.223-.246,40.236,40.236,0,0,0,2.417-4.274,1.2,1.2,0,0,0-2.148-1.052,33.848,33.848,0,0,1-2.26,4.028Zm4.744-10.5a1.187,1.187,0,1,0,2.282.649,34.9,34.9,0,0,0,1.074-4.767,1.18,1.18,0,0,0-2.215-.738,1.159,1.159,0,0,0-.134.358,38.688,38.688,0,0,1-1.007,4.5Zm1.544-11.412a1.2,1.2,0,0,0,2.35.313,1.722,1.722,0,0,0,.045-.336,44.7,44.7,0,0,0-.336-4.9,1.2,1.2,0,0,0-2.372.022,1.372,1.372,0,0,0,.022.291,39.639,39.639,0,0,1,.291,4.61Zm-1.745-11.39a1.192,1.192,0,0,0,2.327-.38.9.9,0,0,0-.067-.336,37.725,37.725,0,0,0-1.7-4.588,1.194,1.194,0,0,0-2.283.492,1.593,1.593,0,0,0,.112.47,37.448,37.448,0,0,1,1.611,4.341Zm-4.946-10.406a1.191,1.191,0,0,0,2.126-1.007.761.761,0,0,0-.156-.336,38.162,38.162,0,0,0-2.954-3.916,1.188,1.188,0,0,0-1.9,1.41.686.686,0,0,0,.112.156,41.545,41.545,0,0,1,2.775,3.692Zm-7.7-8.593a1.185,1.185,0,0,0,1.678-1.656,1.39,1.39,0,0,0-.179-.179,42.681,42.681,0,0,0-3.938-2.909,1.188,1.188,0,0,0-1.544,1.768,2.5,2.5,0,0,0,.247.246,39.727,39.727,0,0,1,3.737,2.73Zm-9.825-6.02a1.188,1.188,0,0,0,1.007-2.148,33.559,33.559,0,0,0-4.7-1.7,1.05,1.05,0,0,0-.738.022,1.192,1.192,0,0,0,.067,2.26c1.522.492,2.887.94,4.364,1.567Z" transform="translate(-2510.402 -340.204)" fill="#fff"/>
      <path id="Trazado_1015253" data-name="Trazado 1015253" d="M4306.445,2394.62a.966.966,0,0,0-.224,1.9c.09,0,.157.022.224.022a34.92,34.92,0,0,1,3.737.2.963.963,0,0,0,.492-1.835c-.112-.022-.179-.044-.292-.067a33.123,33.123,0,0,0-3.938-.224Zm-3.022,2.059a.963.963,0,0,0,.09-1.9,1.052,1.052,0,0,0-.269,0,32.136,32.136,0,0,0-3.893.581.966.966,0,0,0,.089,1.9,1.5,1.5,0,0,0,.313-.022,29.05,29.05,0,0,1,3.669-.56Zm-9.018,2.193a.958.958,0,0,0-.492-1.835.662.662,0,0,0-.224.045,34.887,34.887,0,0,0-3.58,1.7.961.961,0,0,0,.895,1.7,33.773,33.773,0,0,1,3.4-1.611Zm-8.011,4.677a.961.961,0,0,0-.917-1.656,1.184,1.184,0,0,0-.291.156,32.934,32.934,0,0,0-2.932,2.641.958.958,0,0,0,1.029,1.566,1.1,1.1,0,0,0,.336-.224,32.268,32.268,0,0,1,2.775-2.484Zm-6.356,6.758a.951.951,0,0,0-1.41-1.253.616.616,0,0,0-.156.179,32.178,32.178,0,0,0-2.081,3.357.966.966,0,0,0,1.589,1.074.768.768,0,0,1,.111-.179,31.223,31.223,0,0,1,1.947-3.178Zm-4.163,8.3a.956.956,0,0,0-1.768-.716l-.067.134a36.44,36.44,0,0,0-1.007,3.8.958.958,0,0,0,1.79.626,1.075,1.075,0,0,0,.089-.246,33.158,33.158,0,0,1,.962-3.6Zm-1.611,9.153a.954.954,0,0,0-1.812-.448,1.208,1.208,0,0,0-.112.381,39.016,39.016,0,0,0,.112,3.961.963.963,0,0,0,1.9.089.542.542,0,0,0,0-.268,34.311,34.311,0,0,1-.09-3.715Zm1.052,9.22a.968.968,0,0,0-1.9.224,1.1,1.1,0,0,0,.045.268,30.4,30.4,0,0,0,1.23,3.737.955.955,0,0,0,1.835-.492c-.022-.067-.022-.134-.045-.2a28.654,28.654,0,0,1-1.163-3.535Zm3.648,8.526a.962.962,0,0,0-1.724.828.458.458,0,0,0,.09.179,32.167,32.167,0,0,0,2.237,3.245.962.962,0,0,0,1.611-1.03.68.68,0,0,0-.112-.157,32.351,32.351,0,0,1-2.1-3.065Zm5.93,7.16a.958.958,0,0,0-1.3,1.41,36.511,36.511,0,0,0,3.088,2.484.958.958,0,0,0,1.208-1.477.22.22,0,0,0-.112-.09,36.627,36.627,0,0,1-2.887-2.328Zm7.7,5.148a.965.965,0,0,0-1.075,1.566.81.81,0,0,0,.269.179,34.3,34.3,0,0,0,3.647,1.477.954.954,0,0,0,.828-1.7,1.05,1.05,0,0,0-.223-.112,32.936,32.936,0,0,1-3.446-1.409Zm8.86,2.751a.965.965,0,0,0-.648,1.768,2.3,2.3,0,0,0,.358.134,33.487,33.487,0,0,0,3.939.358.955.955,0,0,0,.447-1.812.735.735,0,0,0-.381-.09c-1.253-.066-2.462-.178-3.715-.358Zm9.288.09a.966.966,0,0,0-.044,1.9.746.746,0,0,0,.313,0,29.5,29.5,0,0,0,3.872-.739.968.968,0,0,0-.314-1.9c-.044.022-.111.022-.157.044a29.353,29.353,0,0,1-3.67.694Zm8.928-2.55a.962.962,0,0,0,.425,1.834.921.921,0,0,0,.358-.067,34.934,34.934,0,0,0,3.513-1.834.963.963,0,0,0-.671-1.768.754.754,0,0,0-.312.112,27.38,27.38,0,0,1-3.312,1.723Zm7.833-4.991a.963.963,0,0,0,1.142,1.544.388.388,0,0,1,.112-.089c1.007-.873,1.924-1.79,2.842-2.752a.967.967,0,0,0-1.432-1.3,29.094,29.094,0,0,1-2.663,2.6Zm6.087-7a.953.953,0,0,0,1.432,1.23,1.72,1.72,0,0,0,.179-.2,32.419,32.419,0,0,0,1.925-3.447.956.956,0,1,0-1.724-.828,30.784,30.784,0,0,1-1.812,3.245Zm3.826-8.459a.96.96,0,0,0,1.7.828,1.328,1.328,0,0,0,.135-.313,37,37,0,0,0,.873-3.849.966.966,0,0,0-1.812-.582,1.12,1.12,0,0,0-.09.291,32.691,32.691,0,0,1-.806,3.625Zm1.23-9.2a.959.959,0,0,0,1.88.246.565.565,0,0,0,.045-.268,28.843,28.843,0,0,0-.269-3.938.957.957,0,0,0-1.9.022v.224a29.656,29.656,0,0,1,.246,3.715Zm-1.409-9.175a.959.959,0,1,0,1.835-.56,35.016,35.016,0,0,0-1.365-3.714.961.961,0,0,0-1.835.4,1.123,1.123,0,0,0,.068.381,28.5,28.5,0,0,1,1.3,3.491Zm-3.983-8.392a.958.958,0,0,0,1.723-.784.692.692,0,0,0-.134-.291,35.069,35.069,0,0,0-2.372-3.133.956.956,0,0,0-1.544,1.119c.044.045.067.09.089.112a35.515,35.515,0,0,1,2.238,2.977Zm-6.2-6.892a.963.963,0,0,0,1.365-1.343l-.134-.135a35.313,35.313,0,0,0-3.178-2.35.953.953,0,0,0-1.254,1.41.85.85,0,0,0,.2.2,28.471,28.471,0,0,1,3,2.216Zm-7.9-4.857a.952.952,0,0,0,.806-1.722,27.154,27.154,0,0,0-3.782-1.388.942.942,0,0,0-.6.022.955.955,0,0,0,.067,1.813c1.231.4,2.306.761,3.514,1.275Z" transform="translate(-3696.272 -1565.429)" fill="#fae9dc"/>
      <path id="Trazado_1015254" data-name="Trazado 1015254" d="M3348.485,3450.78a1.455,1.455,0,0,0-.335,2.865,1.735,1.735,0,0,0,.335.045,52.1,52.1,0,0,1,5.617.313,1.444,1.444,0,0,0,.761-2.753,1.472,1.472,0,0,0-.425-.112,58.28,58.28,0,0,0-5.953-.358Zm-4.565,3.111a1.45,1.45,0,0,0,.134-2.865,1.211,1.211,0,0,0-.4,0,47.2,47.2,0,0,0-5.885.9,1.44,1.44,0,0,0,.135,2.842,1.1,1.1,0,0,0,.469-.022,46.814,46.814,0,0,1,5.55-.85Zm-13.607,3.312a1.452,1.452,0,0,0-.76-2.775,1.848,1.848,0,0,0-.336.09,49.357,49.357,0,0,0-5.393,2.551,1.452,1.452,0,0,0,1.343,2.573,49.174,49.174,0,0,1,5.146-2.439Zm-12.106,7.071a1.455,1.455,0,0,0-1.388-2.506,1.327,1.327,0,0,0-.425.246,49.905,49.905,0,0,0-4.431,3.984,1.436,1.436,0,0,0,1.544,2.35,1.972,1.972,0,0,0,.515-.313,44.582,44.582,0,0,1,4.185-3.76Zm-9.6,10.206a1.437,1.437,0,0,0-2.126-1.9.709.709,0,0,0-.246.269,51.282,51.282,0,0,0-3.133,5.057,1.459,1.459,0,0,0,2.394,1.634,2.907,2.907,0,0,0,.157-.269,52.845,52.845,0,0,1,2.953-4.788Zm-6.289,12.531a1.439,1.439,0,0,0-2.663-1.074.673.673,0,0,0-.09.179,55.84,55.84,0,0,0-1.544,5.751,1.459,1.459,0,0,0,2.73.94,1.7,1.7,0,0,0,.112-.358,55.588,55.588,0,0,1,1.454-5.438Zm-2.416,13.807a1.452,1.452,0,0,0-2.753-.672,1.429,1.429,0,0,0-.156.6,58.975,58.975,0,0,0,.156,5.952,1.449,1.449,0,0,0,2.864.135,1.186,1.186,0,0,0,.022-.4,46.7,46.7,0,0,1-.134-5.617Zm1.565,13.941a1.444,1.444,0,0,0-2.842.314,2.757,2.757,0,0,0,.045.425,46.474,46.474,0,0,0,1.857,5.662,1.449,1.449,0,0,0,2.775-.761,1.669,1.669,0,0,0-.089-.313,45.111,45.111,0,0,1-1.746-5.326Zm5.506,12.867a1.45,1.45,0,0,0-2.6,1.253.758.758,0,0,0,.134.268,49.14,49.14,0,0,0,3.4,4.9,1.442,1.442,0,0,0,2.417-1.544.917.917,0,0,0-.157-.246,51.647,51.647,0,0,1-3.2-4.632Zm8.951,10.787a1.452,1.452,0,0,0-2.148,1.924,2.2,2.2,0,0,0,.224.247,57.017,57.017,0,0,0,4.632,3.715,1.451,1.451,0,0,0,1.857-2.215c-.067-.045-.112-.09-.179-.135a50.715,50.715,0,0,1-4.386-3.536Zm11.659,7.81a1.449,1.449,0,0,0-1.634,2.349,1.639,1.639,0,0,0,.38.269,52.027,52.027,0,0,0,5.528,2.238,1.448,1.448,0,0,0,1.231-2.6.957.957,0,0,0-.314-.135,47.69,47.69,0,0,1-5.191-2.125Zm13.381,4.14a1.448,1.448,0,0,0-.985,2.663,1.56,1.56,0,0,0,.537.2,52.622,52.622,0,0,0,5.93.559,1.445,1.445,0,0,0,.672-2.753,1.15,1.15,0,0,0-.56-.134,51.946,51.946,0,0,1-5.594-.537Zm14.009.134a1.457,1.457,0,0,0-.089,2.865,1.822,1.822,0,0,0,.492.022,40.179,40.179,0,0,0,5.84-1.141,1.446,1.446,0,0,0-.47-2.842.93.93,0,0,0-.246.045,38.894,38.894,0,0,1-5.527,1.052Zm13.493-3.826a1.438,1.438,0,0,0,.6,2.752,1.685,1.685,0,0,0,.582-.112,51.608,51.608,0,0,0,5.281-2.775,1.449,1.449,0,0,0-1.007-2.663,1.838,1.838,0,0,0-.493.179,45.528,45.528,0,0,1-4.968,2.618Zm11.793-7.564a1.46,1.46,0,0,0,1.746,2.327c.044-.045.112-.09.156-.134a49.789,49.789,0,0,0,4.274-4.14,1.412,1.412,0,0,0,.38-.962,1.44,1.44,0,0,0-2.506-.985,50.942,50.942,0,0,1-4.051,3.894Zm9.2-10.585a1.451,1.451,0,0,0,2.171,1.88,1.808,1.808,0,0,0,.269-.313,45.368,45.368,0,0,0,2.909-5.192,1.429,1.429,0,0,0-.2-1.589,1.455,1.455,0,0,0-2.394.314,40.25,40.25,0,0,1-2.753,4.9Zm5.774-12.755a1.456,1.456,0,0,0,2.573,1.253,3,3,0,0,0,.224-.47,56.119,56.119,0,0,0,1.3-5.819,1.453,1.453,0,0,0-2.73-.873,1.359,1.359,0,0,0-.135.425,46.233,46.233,0,0,1-1.231,5.483Zm1.879-13.9a1.454,1.454,0,0,0,2.842.4,1.417,1.417,0,0,0,.067-.425,52.858,52.858,0,0,0-.4-5.952,1.456,1.456,0,0,0-2.887.022,1.59,1.59,0,0,0,.022.335,52.325,52.325,0,0,1,.358,5.617Zm-2.126-13.851a1.442,1.442,0,0,0,2.82-.447,1.165,1.165,0,0,0-.067-.4,53.836,53.836,0,0,0-2.059-5.594,1.454,1.454,0,0,0-2.775.6,1.289,1.289,0,0,0,.112.582,47.406,47.406,0,0,1,1.969,5.259Zm-6.019-12.644a1.46,1.46,0,0,0,2.417-1.634,49.825,49.825,0,0,0-3.6-4.744,1.446,1.446,0,0,0-2.327,1.7,1.263,1.263,0,0,0,.134.179,43.713,43.713,0,0,1,3.379,4.5Zm-9.354-10.428a1.441,1.441,0,0,0,2.036-2.014.969.969,0,0,0-.2-.224,52.833,52.833,0,0,0-4.789-3.535,1.453,1.453,0,0,0-1.9,2.148,1.274,1.274,0,0,0,.336.269,50.569,50.569,0,0,1,4.52,3.357Zm-11.95-7.34a1.448,1.448,0,0,0,1.231-2.618,41.315,41.315,0,0,0-5.707-2.081,1.608,1.608,0,0,0-.918.045,1.453,1.453,0,0,0,.112,2.753c1.835.6,3.491,1.142,5.281,1.9Z" transform="translate(-2822.922 -2511.131)" fill="#fff"/>
      <path id="Trazado_1015255" data-name="Trazado 1015255" d="M1933.517,2657.38a1.342,1.342,0,0,0-.336,2.641,1.722,1.722,0,0,0,.336.045,44.971,44.971,0,0,1,5.192.291,1.338,1.338,0,0,0,.694-2.551,1.225,1.225,0,0,0-.381-.112,50.487,50.487,0,0,0-5.5-.313Zm-4.229,2.865a1.334,1.334,0,0,0,.112-2.641,2.061,2.061,0,0,0-.358-.022,49.349,49.349,0,0,0-5.46.828,1.341,1.341,0,0,0,.134,2.641.9.9,0,0,0,.425-.022,43.6,43.6,0,0,1,5.147-.783Zm-12.6,3.065a1.345,1.345,0,0,0-.693-2.574,1.3,1.3,0,0,0-.313.09,44.276,44.276,0,0,0-4.99,2.372,1.342,1.342,0,0,0,1.253,2.372,46.026,46.026,0,0,1,4.744-2.26Zm-11.211,6.534a1.336,1.336,0,0,0-1.276-2.3,1.42,1.42,0,0,0-.4.224,48.776,48.776,0,0,0-4.095,3.67,1.339,1.339,0,0,0,1.432,2.193,1.122,1.122,0,0,0,.47-.291,47.229,47.229,0,0,1,3.872-3.491Zm-8.862,9.466a1.353,1.353,0,0,0-1.991-1.791,1.3,1.3,0,0,0-.224.269,47.686,47.686,0,0,0-2.887,4.677,1.343,1.343,0,0,0,2.193,1.522,1.527,1.527,0,0,0,.157-.246,47.065,47.065,0,0,1,2.752-4.431ZM1890.8,2690.9a1.344,1.344,0,0,0-2.484-1.007.575.575,0,0,0-.067.179,49.2,49.2,0,0,0-1.432,5.326,1.342,1.342,0,0,0,2.506.873,1.179,1.179,0,0,0,.112-.335,42.745,42.745,0,0,1,1.365-5.035Zm-2.261,12.777a1.344,1.344,0,0,0-2.551-.626,1.469,1.469,0,0,0-.134.559,50.4,50.4,0,0,0,.156,5.5,1.336,1.336,0,0,0,2.641.135,1.091,1.091,0,0,0,.022-.38,44.956,44.956,0,0,1-.134-5.192Zm1.455,12.89a1.331,1.331,0,0,0-2.618.314.93.93,0,0,0,.045.358,42.382,42.382,0,0,0,1.7,5.259,1.343,1.343,0,0,0,2.574-.694c-.022-.112-.045-.2-.067-.291a42.759,42.759,0,0,1-1.634-4.946Zm5.1,11.928a1.345,1.345,0,0,0-2.417,1.141l.134.269a52.444,52.444,0,0,0,3.133,4.52,1.346,1.346,0,0,0,2.26-1.432.8.8,0,0,0-.157-.224,47.01,47.01,0,0,1-2.954-4.274Zm8.28,9.981a1.34,1.34,0,0,0-1.992,1.768,2.049,2.049,0,0,0,.2.223,49.026,49.026,0,0,0,4.3,3.446,1.347,1.347,0,0,0,1.723-2.059c-.067-.045-.112-.089-.157-.112a48.272,48.272,0,0,1-4.073-3.267Zm10.786,7.206a1.346,1.346,0,0,0-1.522,2.171,1.362,1.362,0,0,0,.358.268,53.319,53.319,0,0,0,5.125,2.081,1.348,1.348,0,0,0,1.141-2.417c-.089-.045-.179-.089-.291-.134a42.612,42.612,0,0,1-4.811-1.969Zm12.376,3.826a1.351,1.351,0,0,0-.9,2.484,1.848,1.848,0,0,0,.493.179c1.835.269,3.647.448,5.482.537a1.341,1.341,0,0,0,.626-2.551,1.036,1.036,0,0,0-.515-.134,44.74,44.74,0,0,1-5.192-.515Zm12.979.157a1.341,1.341,0,0,0-.089,2.641,1.527,1.527,0,0,0,.448,0,40.584,40.584,0,0,0,5.415-1.03,1.344,1.344,0,0,0-.425-2.641.959.959,0,0,0-.246.045,39.55,39.55,0,0,1-5.1.985Zm12.464-3.558a1.337,1.337,0,0,0,.582,2.551,1.44,1.44,0,0,0,.537-.112,43.961,43.961,0,0,0,4.879-2.551,1.351,1.351,0,0,0-.94-2.484,1.758,1.758,0,0,0-.426.179,50.38,50.38,0,0,1-4.632,2.417Zm10.943-6.982a1.338,1.338,0,0,0,1.611,2.126.591.591,0,0,0,.134-.112,49.331,49.331,0,0,0,3.961-3.827,1.376,1.376,0,0,0,.358-.9,1.339,1.339,0,0,0-2.328-.917,47.644,47.644,0,0,1-3.737,3.625Zm8.5-9.8a1.331,1.331,0,0,0,1.992,1.723,1.124,1.124,0,0,0,.268-.291,42.21,42.21,0,0,0,2.708-4.811,1.341,1.341,0,0,0-2.417-1.164,37.588,37.588,0,0,1-2.551,4.542Zm5.349-11.815a1.337,1.337,0,0,0,2.372,1.141,1.363,1.363,0,0,0,.2-.4,45.658,45.658,0,0,0,1.208-5.393,1.337,1.337,0,0,0-2.506-.828,1.681,1.681,0,0,0-.134.4,49.161,49.161,0,0,1-1.141,5.079Zm1.745-12.845a1.339,1.339,0,0,0,2.618.358,1.31,1.31,0,0,0,.045-.4,45.181,45.181,0,0,0-.358-5.5,1.343,1.343,0,0,0-2.663.022v.313a45.327,45.327,0,0,1,.358,5.214Zm-1.969-12.823a1.342,1.342,0,0,0,2.618-.426,2.285,2.285,0,0,0-.067-.38,47.906,47.906,0,0,0-1.924-5.169,1.346,1.346,0,0,0-2.573.559,2.07,2.07,0,0,0,.112.537,42.743,42.743,0,0,1,1.835,4.879Zm-5.572-11.726a1.338,1.338,0,0,0,2.394-1.119,1.455,1.455,0,0,0-.179-.38,49.01,49.01,0,0,0-3.312-4.386,1.333,1.333,0,0,0-2.148,1.567.4.4,0,0,0,.112.157,50.731,50.731,0,0,1,3.133,4.162Zm-8.683-9.645a1.337,1.337,0,0,0,1.9-1.858.525.525,0,0,0-.179-.2,52.782,52.782,0,0,0-4.431-3.29,1.348,1.348,0,0,0-1.768,1.991,1.663,1.663,0,0,0,.291.269,38.031,38.031,0,0,1,4.185,3.088Zm-11.055-6.78a1.343,1.343,0,0,0,1.164-2.417,39.5,39.5,0,0,0-5.3-1.925,1.31,1.31,0,0,0-.828.022,1.344,1.344,0,0,0,.089,2.552c1.7.56,3.223,1.051,4.879,1.768Z" transform="translate(-1559.365 -1800.708)" fill="#fae9dc"/>
      <path id="Trazado_1015256" data-name="Trazado 1015256" d="M3635.176,1397.52c-8.3,8.034-29.807,17.343-61.248,15.217-.246,26.853,0,50.619,0,78.009,0,20.856,23.206,44.442,61.248,66.261,38.065-21.818,61.271-45.4,61.271-66.261,0-27.391.224-51.156,0-78.009-31.441,2.126-52.969-7.183-61.271-15.217Z" transform="translate(-3070.81 -672.609)" fill="#e89b59" fill-rule="evenodd"/>
      <path id="Trazado_1015257" data-name="Trazado 1015257" d="M3737.464,1546.02c-6.668,6.467-24.011,13.964-49.321,12.263-.2,21.617,0,40.75,0,62.815,0,16.806,18.686,35.8,49.321,53.371,30.658-17.567,49.344-36.566,49.344-53.371,0-22.065.179-41.2,0-62.815-25.332,1.7-42.652-5.8-49.344-12.263Z" transform="translate(-3173.099 -805.579)" fill="#eaae65" fill-rule="evenodd"/>
      <path id="Trazado_1015258" data-name="Trazado 1015258" d="M3857.205,1768.98l17.722,10.226,17.7,10.227v40.906l-17.7,10.228-17.722,10.226-17.7-10.226-17.724-10.228v-40.906l17.724-10.227Z" transform="translate(-3292.839 -1005.221)" fill="#b34429" fill-rule="evenodd"/>
      <path id="Trazado_1015259" data-name="Trazado 1015259" d="M3889.211,1976.091a5.376,5.376,0,1,1,7.877-7.318l16.358,17.522,21.841-26.808a5.368,5.368,0,1,1,8.325,6.78l-25.578,31.418a4.065,4.065,0,0,1-.649.739,5.4,5.4,0,0,1-7.609-.268Z" transform="translate(-3351.923 -1174.021)" fill="#fefefe"/>
      <path id="Trazado_1015260" data-name="Trazado 1015260" d="M2138.852,3189.739c12.218-21.371,11.748-32.986,9.175-48.761-5.684-11.659-12.509-29.472-24.817-43.48,5.281-6.311,18.529-15.4,31.105-28.576-8.839-5.281-17.679-14.165-27.928-23.833-16.783,19.693-27.57,31.508-29.159,44.845-2.551,21.527,17.478,37.08,37.908,54.916-5.908,8.571-8.3,13.36-7.071,17.858,2.573,9.309,5.55,19.268,10.786,27.032Z" transform="translate(-1748.452 -2147.868)" fill="#ebb4af" fill-rule="evenodd"/>
      <path id="Trazado_1015261" data-name="Trazado 1015261" d="M2758.079,1946.626c7.586-14.1-3.826-22.579-6.288-35.223-2.148-11.01-7.854-17.141-18.529-11.883-15.4-12.6-29.315,8.078-32.918,14.143-2.283,3.849-.671,6.668-2.462,10.383-3.424,7.072-9.533,13.382-1.88,26.943,1.5,2.641-11.547,10.048-11.345,14.12.559,12.062,5.594,23.631-3.76,20.543,21.281,27.055,74.921,27.01,95.576,2.484-9.667.224-7.407-8.884-8.638-22.826-.469-5.438-13.091-12.487-9.757-18.685Z" transform="translate(-2271.276 -1118.531)" fill="#241e24" fill-rule="evenodd"/>
      <path id="Trazado_1015262" data-name="Trazado 1015262" d="M2895.918,2015.9c5.035,16.291,9.712,15.888,12.04,22.982,7.183-6.266,7.608,14.143-1.141,15.172-1.3,6.266-4.319,13.4-8.75,16.784a16.648,16.648,0,0,1-14.389,2.708c-11.7-3.267-15.15-10.294-16.537-17.589-9.869-1.5-9.958-21.953-1.858-15.463,3.961-13.65,13.561-16.493,30.635-24.593Z" transform="translate(-2431.156 -1226.317)" fill="#ebb4af" fill-rule="evenodd"/>
      <path id="Trazado_1015263" data-name="Trazado 1015263" d="M2971.693,2395.69c-8.66,11.054-20.409,8.526-30.658,13.114,1.074,8.817-1.477,18.238-6.4,18.193-3.826,15.284,32.9,17.9,45.293,1.23-13.092-2.729-11.972-16.29-8.235-32.537Z" transform="translate(-2498.227 -1566.386)" fill="#ebb4af" fill-rule="evenodd"/>
      <path id="Trazado_1015264" data-name="Trazado 1015264" d="M3078.02,2281.65c.627,6.02-2.1,7.877-2.082,8.951.023,1.388.627,1.947,3.044,1.992-2.708.672-4.364-.537-3.514-2.506,1.1-2.573,2.238-2.82,2.551-8.436Z" transform="translate(-2624.38 -1464.273)" fill="#241e24"/>
      <path id="Trazado_1015265" data-name="Trazado 1015265" d="M3167.484,2178.333c-6.042-1.455-12.823-2.1-14.568-.089.761-6.848,10.473-4.007,14.568.089Z" transform="translate(-2693.928 -1367.983)" fill="#241e24"/>
      <path id="Trazado_1015266" data-name="Trazado 1015266" d="M2998.21,2486.976c10.182,6.423,15.665,11.1,29-3.983-7.989,11.01-15.329,19.267-29,3.983Z" transform="translate(-2555.401 -1644.559)" fill="#241e24" fill-rule="evenodd"/>
      <path id="Trazado_1015267" data-name="Trazado 1015267" d="M3161.007,2242.77q3.021-6.377,11.547.179c-1.275,1.141-7.273,4.43-11.726,1.924a10.035,10.035,0,0,1,.179-2.1Z" transform="translate(-2701.012 -1426.646)" fill="#fefefe" fill-rule="evenodd"/>
      <path id="Trazado_1015268" data-name="Trazado 1015268" d="M3173.514,2245.1c-5.706-4.341-10.786-3.871-11.614.112,2.26-1.3,6.177-1.566,11.614-.112Z" transform="translate(-2701.972 -1428.797)" fill="#ccc" fill-rule="evenodd"/>
      <path id="Trazado_1015269" data-name="Trazado 1015269" d="M3172.939,2235.831c-5.057-2.372-9.219-4.364-11.681.873.224-8.011,9.219-4.677,13.785-2.014a3.323,3.323,0,0,1-2.1,1.141Z" transform="translate(-2701.398 -1419.528)" fill="#241e24"/>
      <path id="Trazado_1015270" data-name="Trazado 1015270" d="M3184.454,2235.528c1.768,1.253,1.186,5.863-1.813,5.93-2.886.067-3.961-3.133-2.573-5.617a6.729,6.729,0,0,1,2.35-1.052Z" transform="translate(-2717.701 -1422.313)" fill="#241e24"/>
      <path id="Trazado_1015271" data-name="Trazado 1015271" d="M3114.244,2372.817c-.291.559.962.157,1.9.9-.4-1.029-1.477-1.455-1.9-.9Z" transform="translate(-2659.262 -1545.684)" fill="#241e24" fill-rule="evenodd"/>
      <path id="Trazado_1015272" data-name="Trazado 1015272" d="M2965.469,2245.833c-2.014-4.229-5.863-4.184-11.547.179,1.276,1.164,7.273,4.431,11.748,1.947a10.064,10.064,0,0,0-.2-2.126Z" transform="translate(-2515.746 -1429.396)" fill="#fefefe" fill-rule="evenodd"/>
      <path id="Trazado_1015273" data-name="Trazado 1015273" d="M2953.92,2248.089c5.729-4.342,10.786-3.872,11.636.112-2.259-1.3-6.2-1.566-11.636-.112Z" transform="translate(-2515.744 -1431.474)" fill="#ccc" fill-rule="evenodd"/>
      <path id="Trazado_1015274" data-name="Trazado 1015274" d="M2935.909,2238.841c5.058-2.372,9.22-4.364,11.7.872-.223-8.011-9.219-4.677-13.807-1.992a3.477,3.477,0,0,0,2.1,1.119Z" transform="translate(-2497.733 -1422.225)" fill="#241e24"/>
      <path id="Trazado_1015275" data-name="Trazado 1015275" d="M2991.419,2238.518c-1.768,1.253-1.186,5.863,1.813,5.952,2.865.067,3.939-3.155,2.552-5.639a7.532,7.532,0,0,0-2.328-1.052Z" transform="translate(-2548.431 -1424.991)" fill="#241e24"/>
      <path id="Trazado_1015276" data-name="Trazado 1015276" d="M2931.67,2181.115c6.064-1.455,12.845-2.126,14.59-.089-.761-6.848-10.473-4.005-14.59.089Z" transform="translate(-2495.821 -1370.475)" fill="#241e24"/>
      <path id="Trazado_1015277" data-name="Trazado 1015277" d="M3061.55,2425.3c2.372,6.311,8.951,7.318,13.024-.269-2.954-.9-3.894-3.043-6.758-3.021-2.954,0-3.715,2.238-6.266,3.29Z" transform="translate(-2612.117 -1589.957)" fill="#de7d74" fill-rule="evenodd"/>
      <path id="Trazado_1015278" data-name="Trazado 1015278" d="M3062.6,2443.62c-5.908,5.527-11.01,5.259-15.821.313,1.969,1.3,5.1-.022,7.452-.112,3.716-.134,5.08,1.32,8.369-.2Z" transform="translate(-2598.895 -1609.304)" fill="#241e24"/>
      <path id="Trazado_1015279" data-name="Trazado 1015279" d="M3072.335,2449.844c-2.529,1.7-4.542,2.775-7.273,2.641a10.955,10.955,0,0,1-5.863-2.216c1.813.426,3.4-.447,6.534-.447,2.908-.022,3.782.649,6.6.022Z" transform="translate(-2610.013 -1614.857)" fill="#fff"/>
      <path id="Trazado_1015280" data-name="Trazado 1015280" d="M3144.051,2450.066c1.007-.76.873-.985,0-.56a16.246,16.246,0,0,1-4.184.94,8.844,8.844,0,0,0,4.184-.38Z" transform="translate(-2682.244 -1614.385)" fill="#241e24" fill-rule="evenodd"/>
      <path id="Trazado_1015281" data-name="Trazado 1015281" d="M3057.286,2452.39c-1.007-.739-.851-.962,0-.537a17.423,17.423,0,0,0,4.184.917,8.563,8.563,0,0,1-4.184-.38Z" transform="translate(-2607.674 -1616.484)" fill="#241e24" fill-rule="evenodd"/>
      <path id="Trazado_1015282" data-name="Trazado 1015282" d="M2946.061,2313.96a5.2,5.2,0,1,1-5.192,5.192,5.2,5.2,0,0,1,5.192-5.192Z" transform="translate(-2504.058 -1493.204)" fill="#e6a19a" fill-rule="evenodd"/>
      <path id="Trazado_1015283" data-name="Trazado 1015283" d="M3203.041,2308.82a5.2,5.2,0,1,1-5.192,5.214,5.2,5.2,0,0,1,5.192-5.214Z" transform="translate(-2734.161 -1488.602)" fill="#e6a19a" fill-rule="evenodd"/>
      <path id="Trazado_1015284" data-name="Trazado 1015284" d="M2839.377,1872.618a368.8,368.8,0,0,0,58.406,0c-.694-11.883-3.177-21.505-13.024-27.458a31.653,31.653,0,0,0-32.359,0c-9.846,5.952-13.225,15.552-13.024,27.458Z" transform="translate(-2413.172 -1069.451)" fill="#e89b59" fill-rule="evenodd"/>
      <path id="Trazado_1015285" data-name="Trazado 1015285" d="M2985.079,1841.152a31.586,31.586,0,0,0-21.1,4.073q12.655,3.558,13.158,27.01,9.2,1.477,14.836,0,2.552-18.395-6.892-31.083Z" transform="translate(-2524.748 -1069.516)" fill="#f7ad6c" fill-rule="evenodd"/>
      <path id="Trazado_1015286" data-name="Trazado 1015286" d="M3304.467,1965.221a1.11,1.11,0,0,1,.247-1.611,1.307,1.307,0,0,1,1.745.224,18.124,18.124,0,0,1,3.021,5.572,27.886,27.886,0,0,1,1.365,7.116,1.2,1.2,0,0,1-1.186,1.231,1.225,1.225,0,0,1-1.32-1.074,26.824,26.824,0,0,0-1.253-6.579,15.941,15.941,0,0,0-2.619-4.879Z" transform="translate(-2829.413 -1179.286)" fill="#fff"/>
      <path id="Trazado_1015287" data-name="Trazado 1015287" d="M2789.13,2141.5h64.381a2.139,2.139,0,0,1,2.126,2.126h0a2.135,2.135,0,0,1-2.126,2.1H2789.13a2.115,2.115,0,0,1-2.1-2.1h0a2.12,2.12,0,0,1,2.1-2.126Z" transform="translate(-2366.305 -1338.781)" fill="#f7ad6c" fill-rule="evenodd"/>
      <path id="Trazado_1015288" data-name="Trazado 1015288" d="M3034.51,2137.271a.554.554,0,0,1-.559-.559.568.568,0,0,1,.559-.559h34.216a.569.569,0,0,1,.56.559.554.554,0,0,1-.56.559Z" transform="translate(-2587.405 -1333.992)" fill="#141515"/>
      <path id="Trazado_1015289" data-name="Trazado 1015289" d="M2817.265,2136.15a.568.568,0,0,1,.559.559.553.553,0,0,1-.559.559h-9.78a.554.554,0,0,1-.559-.559.568.568,0,0,1,.559-.559Z" transform="translate(-2384.123 -1333.99)" fill="#141515"/>
      <path id="Trazado_1015290" data-name="Trazado 1015290" d="M2964.883,1872.039a.533.533,0,0,1-.426.649.566.566,0,0,1-.671-.425c-.985-4.856-2.462-8.683-4.454-11.435a12.519,12.519,0,0,0-7.362-5.147l-1.253-.313,1.074-.716a24.132,24.132,0,0,1,2.484-1.343c1.007-.47,2.148-.94,3.469-1.432a.545.545,0,0,1,.716.313.589.589,0,0,1-.313.739c-1.3.47-2.439.94-3.379,1.387-.47.224-.9.425-1.276.649a13.727,13.727,0,0,1,6.736,5.192,30.8,30.8,0,0,1,4.655,11.883Z" transform="translate(-2512.876 -1079.412)" fill="#241e24"/>
      <path id="Trazado_1015291" data-name="Trazado 1015291" d="M3129.05,1837.029a.548.548,0,1,1,.022-1.1c.448,0,.962.045,1.544.089.56.067,1.187.134,1.88.224l.224.045.135.179c.492.671.962,1.32,1.365,1.969.425.627.806,1.276,1.186,1.925a.561.561,0,1,1-.985.537c-.335-.6-.716-1.231-1.141-1.857-.358-.582-.761-1.141-1.164-1.723-.6-.067-1.142-.134-1.611-.179-.559-.045-1.03-.089-1.455-.112Z" transform="translate(-2672.075 -1065.17)" fill="#241e24"/>
      <path id="Trazado_1015292" data-name="Trazado 1015292" d="M3201.819,1911.458a.547.547,0,0,1,.335-.716.556.556,0,0,1,.716.336,57.343,57.343,0,0,1,2.73,10.182,32.718,32.718,0,0,1,.313,8.906.551.551,0,1,1-1.1-.112,31.526,31.526,0,0,0-.336-8.616,55.143,55.143,0,0,0-2.663-9.981Z" transform="translate(-2737.684 -1132.124)" fill="#241e24"/>
      <path id="Trazado_1015293" data-name="Trazado 1015293" d="M2435.586,2757.067c-12.823,6.8-31.575,10.2-39.452,11.815-3.156-3.6-4.163-6.6-7.475-11.5-26.652-2.037-73.086,1.992-93.808-1.746-3.469,4.3-10.63,10.809-14.21,13.069-16.515-5.594-24.325-14.21-33.03-25.869,3.469-8.526,19.223-27.324,34.618-37.819,13.942-9.51,27.145-11.211,38.333-10.988,6.109,12.2,32.851,10.763,40.907.179,9.443-.112,19.8.067,30.9,5.08,17.947,8.145,31.4,31.194,43.212,57.78Z" transform="translate(-1883.305 -1833.507)" fill="#fefefe" fill-rule="evenodd"/>
      <path id="Trazado_1015294" data-name="Trazado 1015294" d="M2496.933,2898.507a166.8,166.8,0,0,1,17.387-91.123c5.17-10.339,5.685-20.632,2.506-33.679-4.475-18.282-.649-33.231,6.468-44.442,1.387-7.609,1.656-17.925.738-31.441a51.578,51.578,0,0,1,11.256-1.9,117.491,117.491,0,0,1,.47,26.384c19.021-.09,38.692-.4,53.282.246-.738-9.421-.873-19.178,1.007-26.652a52.185,52.185,0,0,1,11.906,1.074c-1.947,7.721-2.148,23.989-.067,31.329,7.586,10.988,11.838,27.861,7.855,42.406-3.692,13.45-5.349,26.787-.716,35.357,13,23.967,18.708,54.49,15.553,92.443Z" transform="translate(-2105.906 -1835.197)" fill="#97afcb" fill-rule="evenodd"/>
      <path id="Trazado_1015295" data-name="Trazado 1015295" d="M2515.047,3940.009c-4.14-9.4-1.969-16.716,3.088-23.631q13.594,28.9,8.212,34.574c-1.723,1.007-2.976-1.544-5.348-7.922-1.567-4.252-4.32-5.84-5.952-3.021Z" transform="translate(-2120.82 -2928.035)" fill="#ebb4af" fill-rule="evenodd"/>
      <path id="Trazado_1015296" data-name="Trazado 1015296" d="M2698.838,3712.68a175.1,175.1,0,0,0,44.756,5.863,177.849,177.849,0,0,0,44.98-5.863l.2.716a178.455,178.455,0,0,1-45.181,5.908,175.546,175.546,0,0,1-44.935-5.908Z" transform="translate(-2287.179 -2745.64)" fill="#5e7691"/>
      <path id="Trazado_1015297" data-name="Trazado 1015297" d="M2675.746,3743.71a180.6,180.6,0,0,0,47.105,6.49,175.379,175.379,0,0,0,46.658-6.289l.2.739a175.945,175.945,0,0,1-46.86,6.288,181.164,181.164,0,0,1-47.307-6.49Z" transform="translate(-2266.482 -2773.425)" fill="#5e7691"/>
      <path id="Trazado_1015298" data-name="Trazado 1015298" d="M3365.22,3790.99a48.973,48.973,0,0,0,13.2,19.043,48.366,48.366,0,0,0,20.521,10.406l.2.873a50.891,50.891,0,0,1-21.214-10.7,49.89,49.89,0,0,1-13.4-19.357Z" transform="translate(-2883.407 -2815.76)" fill="#5e7691"/>
      <path id="Trazado_1015299" data-name="Trazado 1015299" d="M2642.337,3790.172a36.162,36.162,0,0,1-12.151,17.365c-5.773,4.565-10.025,6.2-16.426,8.414l-.268-.693c5.662-2.328,10.54-3.8,16.224-8.3a35.187,35.187,0,0,0,11.905-17.029Z" transform="translate(-2210.919 -2814.807)" fill="#5e7691"/>
      <path id="Trazado_1015300" data-name="Trazado 1015300" d="M2897.795,3059.639h48.067v51.447q-12.419,5.874-24.884,11.748-11.782-5.874-23.542-11.771v-51.425Zm47.329.761h-46.949v50.216l22.8,11.39,24.146-11.413Z" transform="translate(-2465.168 -2160.897)" fill="#5e7691"/>
      <path id="Trazado_1015301" data-name="Trazado 1015301" d="M2925.2,3095.8h-.38v1.5a.431.431,0,0,0,.313.381.4.4,0,0,0,.447-.381v-.738h1.119a.387.387,0,0,0,.38-.313.373.373,0,0,0-.38-.447h-1.5Zm.381,3.76a.385.385,0,0,0-.313-.381.4.4,0,0,0-.447.381v1.5a.408.408,0,0,0,.313.381.4.4,0,0,0,.448-.381Zm0,3.76a.4.4,0,0,0-.313-.38.4.4,0,0,0-.447.38v1.5a.408.408,0,0,0,.313.38.384.384,0,0,0,.448-.38Zm0,3.76a.4.4,0,0,0-.313-.38.4.4,0,0,0-.447.38v1.5a.38.38,0,1,0,.76,0Zm0,3.759a.362.362,0,0,0-.313-.358.369.369,0,0,0-.447.358v1.5a.387.387,0,0,0,.313.38.373.373,0,0,0,.448-.38Zm0,3.76a.361.361,0,0,0-.313-.358.369.369,0,0,0-.447.358v1.5a.388.388,0,0,0,.313.38.373.373,0,0,0,.448-.38Zm0,3.76a.362.362,0,0,0-.313-.358.369.369,0,0,0-.447.358v1.5a.388.388,0,0,0,.313.381.374.374,0,0,0,.448-.381Zm0,3.759a.361.361,0,0,0-.313-.358.369.369,0,0,0-.447.358v1.522a.382.382,0,0,0,.313.358.369.369,0,0,0,.448-.358Zm0,3.76a.361.361,0,0,0-.313-.358.369.369,0,0,0-.447.358v1.521a.383.383,0,0,0,.313.358.369.369,0,0,0,.448-.358Zm0,3.76a.362.362,0,0,0-.313-.358.369.369,0,0,0-.447.358v1.522a.382.382,0,0,0,.313.358.369.369,0,0,0,.448-.358Zm0,3.759a.361.361,0,0,0-.313-.358.369.369,0,0,0-.447.358v1.521a.383.383,0,0,0,.313.358.369.369,0,0,0,.448-.358Zm0,3.783a.368.368,0,0,0-.313-.381.373.373,0,0,0-.447.381v1.5a.383.383,0,0,0,.313.358.369.369,0,0,0,.448-.358Zm-.135,3.378a.375.375,0,0,0-.336.672l1.343.671a.375.375,0,0,0,.336-.671Zm3.357,1.679a.375.375,0,1,0-.336.671l1.343.672a.376.376,0,0,0,.336-.672Zm3.379,1.679a.375.375,0,0,0-.336.671l1.343.671a.375.375,0,0,0,.336-.671Zm3.356,1.678a.375.375,0,0,0-.336.671l1.343.671a.375.375,0,1,0,.336-.671Zm3.357,1.678a.375.375,0,1,0-.336.671l1.343.672a.375.375,0,0,0,.335-.672Zm3.379,1.677c-.448-.2-.783.47-.336.672l1.343.694a.386.386,0,0,0,.336-.694Zm3.312,1.678a.377.377,0,0,0-.291.694l.291.135,1.387-.671a.371.371,0,1,0-.313-.672Zm3.111-1.477a.37.37,0,1,0,.313.671l1.365-.649a.37.37,0,1,0-.313-.671Zm3.4-1.611a.37.37,0,1,0,.313.671l1.365-.626a.381.381,0,0,0-.313-.694Zm3.4-1.611a.381.381,0,0,0,.313.694l1.365-.649a.381.381,0,0,0-.313-.694Zm3.4-1.611a.38.38,0,0,0,.313.693l1.365-.649a.37.37,0,1,0-.313-.671Zm3.4-1.589a.37.37,0,1,0,.313.671l1.365-.649a.371.371,0,1,0-.313-.672Zm3.4-1.612a.371.371,0,1,0,.314.671l1.5-.694v-.336a.388.388,0,0,0-.313-.381.376.376,0,0,0-.4.224Zm1.052-2.617a.362.362,0,0,0,.313.358.369.369,0,0,0,.448-.358V3137a.388.388,0,0,0-.313-.381.373.373,0,0,0-.448.381Zm0-3.76a.362.362,0,0,0,.313.358.369.369,0,0,0,.448-.358v-1.5a.388.388,0,0,0-.313-.381.374.374,0,0,0-.448.381Zm0-3.759a.361.361,0,0,0,.313.358.369.369,0,0,0,.448-.358v-1.522a.383.383,0,0,0-.313-.358.369.369,0,0,0-.448.358Zm0-3.76a.362.362,0,0,0,.313.358.369.369,0,0,0,.448-.358V3125.7a.383.383,0,0,0-.313-.358.369.369,0,0,0-.448.358Zm0-3.76a.362.362,0,0,0,.313.358.37.37,0,0,0,.448-.358v-1.522a.383.383,0,0,0-.313-.358.369.369,0,0,0-.448.358Zm0-3.76a.361.361,0,0,0,.313.358.369.369,0,0,0,.448-.358v-1.522a.382.382,0,0,0-.313-.358.369.369,0,0,0-.448.358Zm0-3.782a.368.368,0,0,0,.313.38.373.373,0,0,0,.448-.38v-1.5a.382.382,0,0,0-.313-.358.369.369,0,0,0-.448.358Zm0-3.759a.368.368,0,0,0,.313.38.373.373,0,0,0,.448-.38v-1.5a.383.383,0,0,0-.313-.358.369.369,0,0,0-.448.358Zm0-3.76a.368.368,0,0,0,.313.38.373.373,0,0,0,.448-.38v-1.5a.383.383,0,0,0-.313-.358.369.369,0,0,0-.448.358Zm0-3.76a.368.368,0,0,0,.313.38.384.384,0,0,0,.448-.38v-1.5a.431.431,0,0,0-.313-.38.4.4,0,0,0-.448.38Zm0-3.759a.38.38,0,1,0,.76,0v-1.5a.432.432,0,0,0-.313-.381.4.4,0,0,0-.448.381Zm0-3.76a.385.385,0,0,0,.313.381.4.4,0,0,0,.448-.381v-1.32h-.94a.385.385,0,0,0-.38.313.4.4,0,0,0,.38.448h.179Zm-2.439-.559a.431.431,0,0,0,.38-.313.4.4,0,0,0-.38-.448h-1.5a.38.38,0,1,0,0,.761Zm-3.76,0a.431.431,0,0,0,.381-.313.4.4,0,0,0-.381-.448h-1.5a.368.368,0,0,0-.38.313.384.384,0,0,0,.38.448Zm-3.759,0a.382.382,0,0,0,.358-.313.369.369,0,0,0-.358-.448h-1.5a.368.368,0,0,0-.38.313.373.373,0,0,0,.38.448Zm-3.76,0a.382.382,0,0,0,.358-.313.369.369,0,0,0-.358-.448h-1.5a.368.368,0,0,0-.381.313.373.373,0,0,0,.381.448Zm-3.76,0a.383.383,0,0,0,.358-.313.369.369,0,0,0-.358-.448h-1.5a.368.368,0,0,0-.38.313.373.373,0,0,0,.38.448Zm-3.758,0a.382.382,0,0,0,.358-.313.369.369,0,0,0-.358-.448H2944a.362.362,0,0,0-.358.313.369.369,0,0,0,.358.448Zm-3.76,0a.383.383,0,0,0,.358-.313.37.37,0,0,0-.358-.448h-1.522a.362.362,0,0,0-.358.313.369.369,0,0,0,.358.448Zm-3.76,0a.382.382,0,0,0,.358-.313.369.369,0,0,0-.358-.448h-1.521a.362.362,0,0,0-.358.313.369.369,0,0,0,.358.448Zm-3.76,0a.382.382,0,0,0,.358-.313.369.369,0,0,0-.358-.448h-1.522a.362.362,0,0,0-.358.313.369.369,0,0,0,.358.448Zm-3.782,0a.388.388,0,0,0,.38-.313.373.373,0,0,0-.38-.448h-1.5a.362.362,0,0,0-.358.313.369.369,0,0,0,.358.448Z" transform="translate(-2489.69 -2193.276)" fill="#5e7691"/>
      <path id="Trazado_1015302" data-name="Trazado 1015302" d="M3086.127,4234.668c-.492-15.486-1.052-31.441-1.343-46.547-2.775,16.292-3.043,32.2-3.334,46.547Z" transform="translate(-2629.936 -3171.358)" fill="#5e7691" fill-rule="evenodd"/>
      <path id="Trazado_1015303" data-name="Trazado 1015303" d="M2225.78,3139.463a28.394,28.394,0,0,1,3.692-6q13.863,19.5,34.35,26.741a14.22,14.22,0,0,1-5.236,5.483c-15.284-5.551-26.965-14.613-32.806-26.227Z" transform="translate(-1863.756 -2227.003)" fill="#e7e7e6" fill-rule="evenodd"/>
      <path id="Trazado_1015304" data-name="Trazado 1015304" d="M3111.19,3480.52q5.807,18.864,16.985,9.264-6.512-3.659-16.985-9.264Z" transform="translate(-2656.565 -2537.76)" fill="#ebb4af" fill-rule="evenodd"/>
      <path id="Trazado_1015305" data-name="Trazado 1015305" d="M2545.88,3284.917q5.5,8.66,18.618,81.031,26.283-.47,59.055,0c-15.6-63.217-8.01-86.894-35-83.939q-42.663,2.888-42.675,2.909Z" transform="translate(-2150.378 -2359.792)" fill="#fefefe" fill-rule="evenodd"/>
      <path id="Trazado_1015306" data-name="Trazado 1015306" d="M2322.893,3280.23c27.39-.023,50.8-1.208,59.3-.448-3.088.38-10.719,3.133-12.912,7.81q-33.869-.5-59.413.9c2.752-5.595,6.758-7.452,13.024-8.257Z" transform="translate(-1939.05 -2357.789)" fill="#c9c9c9" fill-rule="evenodd"/>
      <path id="Trazado_1015307" data-name="Trazado 1015307" d="M2975.523,3310.2c3.6,7.206,5.863,12.688,8.436,24.347,12.464,56.572-48.739,25.376-81.254,21.192-9.69-1.23-20.208,5.057-26.72,3.334a44.646,44.646,0,0,1-10.406-4.028c-5.437-3.177-10.942-7.027-7.989-8.1-2.3-1.1-5.483-6.736-1.164-6-2.462-2.909-2.193-6.2,3.29-4.319-.358-2.238-.694-4.521,4.319-2.685,4.251,1.544,10,4.542,17.947,5.3,6.6.627,13.4-2.215,20.364-2.327,17.566-.335,40.638,2.148,47.71,2.327-2.238-7.25-5.819-12.308-8.437-20.319,8.414-.85,27.368-5.258,33.9-8.727Z" transform="translate(-2426.531 -2385.253)" fill="#ebb4af" fill-rule="evenodd"/>
      <path id="Trazado_1015308" data-name="Trazado 1015308" d="M3638.261,3272.577a58.046,58.046,0,0,1-3.916-7.854c16.381-2.573,28.174-5.5,41.645-11.435a28.642,28.642,0,0,1,2.573,8.19c-13.874,6.041-25.219,8.861-40.3,11.1Z" transform="translate(-3125.007 -2334.293)" fill="#e7e7e6" fill-rule="evenodd"/>
      <rect id="Rectángulo_413215" data-name="Rectángulo 413215" width="75.458" height="46.322" transform="translate(322.438 787.054)" fill="#afa766"/>
      <path id="Trazado_1015309" data-name="Trazado 1015309" d="M2137.747,2088.43H2153.5v27.637h-16.09V2088.43Zm15.06.671h-14.7v26.272h14.7Z" transform="translate(-1784.629 -1291.261)" fill="#fefefe"/>
      <path id="Trazado_1015310" data-name="Trazado 1015310" d="M2140.62,2091.64h7.049v21.416l-7.049,5.527Z" transform="translate(-1787.502 -1294.135)" fill="#fefefe" fill-rule="evenodd"/>
      <path id="Trazado_1015311" data-name="Trazado 1015311" d="M2330.513,2105.444c-1.857,1.3-2.8,2.618-3.647,5.572-.268.985-.985,2.484-.738,3.267.179.649,1.141.94,2.215-.939.806-1.365,1.052-2.932,1.32-2.708.716.6.134,6.982.067,9.4-.134,4.5,0,6.646,1.208,6.579.873-.045.962-1.365,1.253-4.05.134-1.231.179-2.573.358-4.453s.246-2.573.828-1.03a18.716,18.716,0,0,0,2.126,3.759c.962,1.477,4.408,2.909,5.617,2.954.515.022.851-.291.56-1.1-.291-.739-3.088-1.88-3.984-3.133-1.32-1.857-1.723-5.035-1.947-10.115-.045-.627-.022-.694.47.089,1.432,2.3.269,3.67,1.41,4.028,1.9.626,1.768-3.8.515-5.908a5.1,5.1,0,0,0-4.3-2.73c.716-3.021-.917-4.386-2.327-4.319-1.767.09-3.2,2.708-1.007,4.834Z" transform="translate(-1953.563 -1302.164)" fill="#fefefe" fill-rule="evenodd"/>
      <path id="Trazado_1015312" data-name="Trazado 1015312" d="M1924.961,2163.281H1915.2v3.536l-9.734-7.094,9.734-7.093v3.558h9.757Z" transform="translate(-1576.945 -1348.747)" fill="#fffdfb"/>
      <path id="Trazado_1015313" data-name="Trazado 1015313" d="M1876.065,2019.11h69.17q-.033,20.308,0,40.616H1875.73V2019.11Zm68.477.672h-68.119v39.251h68.118v-39.251Z" transform="translate(-1550.315 -1229.191)" fill="#fefefe"/>
      <path id="Trazado_1015314" data-name="Trazado 1015314" d="M1805.973,4618.607a1.913,1.913,0,1,1,0-3.827h149.8a1.913,1.913,0,1,1,0,3.827Z" transform="translate(-1486.13 -3553.395)" fill="#241e24"/>
      <path id="Trazado_1015315" data-name="Trazado 1015315" d="M3569.494,4614.78a1.924,1.924,0,0,1,0,3.826H3380.378a1.924,1.924,0,0,1,0-3.826Z" transform="translate(-2896.058 -3553.394)" fill="#241e24"/>
      <path id="Trazado_1015316" data-name="Trazado 1015316" d="M4326.745,3443.29h14.435a21.24,21.24,0,0,1,21.169,21.169v92.868a8.49,8.49,0,0,1-8.481,8.481h-39.833a8.486,8.486,0,0,1-8.458-8.481v-92.868a21.239,21.239,0,0,1,21.169-21.169Z" transform="translate(-3726.038 -2504.424)" fill="#b34429" fill-rule="evenodd"/>
      <path id="Trazado_1015317" data-name="Trazado 1015317" d="M4519.75,3185.24h11.972v5.751h5.975v8.213h-5.975v5.751H4519.75Z" transform="translate(-3917.813 -2273.362)" fill="#e89b59" fill-rule="evenodd"/>
      <path id="Trazado_1015318" data-name="Trazado 1015318" d="M4194.683,3006.318c-14.679-1.656-29.337-3.693-44.062-4.946-1.746-.157-1.678,2.014-.157,2.461,11.077,3.245,22.6,4.9,33.545,8.5,1.543.515,2.193,2.976-.515,3.222-10.585,1.007-21.125,1.9-31.732,3.021-2.752.291-3.088,2.954-.022,2.954l50.149-.179a1.285,1.285,0,0,0,1.253-1.276v-5.3c0-4.655-3.828-7.944-8.459-8.458Z" transform="translate(-3586.121 -2108.718)" fill="#b34429" fill-rule="evenodd"/>
      <path id="Trazado_1015319" data-name="Trazado 1015319" d="M4723.459,3245.37h14.681c1.275.022,1.611.268,2.014,1.03l10.227,19.245-6.11,3.222-8.347-15.776c-.224-.381-.4-.761-1.566-.806h-10.9Z" transform="translate(-4100.217 -2327.204)" fill="#96aeca" fill-rule="evenodd"/>
      <path id="Trazado_1015320" data-name="Trazado 1015320" d="M4907.089,3430.974l8.212-4.1a.9.9,0,0,1,1.164.381l40.436,60.331a.832.832,0,0,1-.379,1.164l-24.1,12.04a.828.828,0,0,1-1.164-.38l-24.549-68.275a.945.945,0,0,1,.381-1.164Z" transform="translate(-4264.244 -2489.646)" fill="#241e24" fill-rule="evenodd"/>
      <rect id="Rectángulo_413216" data-name="Rectángulo 413216" width="34.842" height="35.111" transform="translate(584.528 964.489)" fill="#fff"/>
      <rect id="Rectángulo_413217" data-name="Rectángulo 413217" width="34.842" height="5.55" transform="translate(584.528 962.049)" fill="#e89b59"/>
      <rect id="Rectángulo_413218" data-name="Rectángulo 413218" width="17.477" height="3.446" transform="translate(593.032 969.39)" fill="#241e24"/>
      <path id="Trazado_1015321" data-name="Trazado 1015321" d="M4745.28,3864.563a3.167,3.167,0,1,1,6.333,0v59.391a3.167,3.167,0,1,1-6.333,0Z" transform="translate(-4119.756 -2878.794)" fill="#fefefe"/>
      <path id="Trazado_1015322" data-name="Trazado 1015322" d="M4751.609,3617.335a3.167,3.167,0,1,1-6.333,0v-15.306a3.167,3.167,0,1,1,6.333,0Z" transform="translate(-4119.752 -2643.716)" fill="#fefefe"/>
      <path id="Trazado_1015323" data-name="Trazado 1015323" d="M4460.2,3811.278c.873-7.318-7.586-5.617-5.8.045-5.236-1.343-6.78-9.869-2.059-13.807a4.8,4.8,0,0,0,1.678,2.036c1.32-.716,2.26-3.178,1.276-5.594,3.6-.112,5.415,2.417,5.773,7.183a2.578,2.578,0,0,0,1.79-2.417c3.782,2.439,4.185,11.01-2.662,12.554Z" transform="translate(-3854.93 -2818.414)" fill="#b34429" fill-rule="evenodd"/>
      <path id="Trazado_1015324" data-name="Trazado 1015324" d="M4684.145,3209.85h4.252a.946.946,0,0,1,.939.939v12.688a.946.946,0,0,1-.939.94h-4.252a.926.926,0,0,1-.917-.94V3210.79a.927.927,0,0,1,.917-.939Z" transform="translate(-4064.192 -2295.398)" fill="#241e24" fill-rule="evenodd"/>
      <rect id="Rectángulo_413219" data-name="Rectángulo 413219" width="17.611" height="9.443" transform="translate(599.118 930.945)" fill="#b34429"/>
      <path id="Trazado_1015325" data-name="Trazado 1015325" d="M2940,2689.576a.557.557,0,0,1,.962-.56,14.62,14.62,0,0,0,8.481,6.759c3.961,1.365,9,1.79,15.15,1.253a.556.556,0,0,1,.6.515.539.539,0,0,1-.492.6q-9.465.806-15.62-1.3a15.68,15.68,0,0,1-9.085-7.273Z" transform="translate(-2503.21 -1828.787)" fill="#241e24"/>
      <path id="Trazado_1015326" data-name="Trazado 1015326" d="M3232.058,2698.208a.575.575,0,0,1-.716-.336.556.556,0,0,1,.336-.716,31.627,31.627,0,0,0,6.333-3.021,13.275,13.275,0,0,0,3.827-3.469.562.562,0,1,1,.917.649,14.511,14.511,0,0,1-4.14,3.76,32.551,32.551,0,0,1-6.557,3.133Z" transform="translate(-2764.12 -1830.302)" fill="#241e24"/>
      <path id="Trazado_1015327" data-name="Trazado 1015327" d="M2267.86,2736.7a.571.571,0,0,1,.537,1.007,114.316,114.316,0,0,0-26.944,19.648,122,122,0,0,0-20.408,26.809c.6,1.142,1.231,2.238,1.88,3.267q1.074,1.679,2.215,3.155a.52.52,0,0,1-.089.761.543.543,0,0,1-.783-.09,34.885,34.885,0,0,1-2.283-3.245c-.716-1.119-1.41-2.327-2.059-3.6l-.134-.269.134-.269a123.191,123.191,0,0,1,20.744-27.323,116.021,116.021,0,0,1,27.189-19.849Z" transform="translate(-1858.394 -1871.684)" fill="#241e24"/>
      <path id="Trazado_1015328" data-name="Trazado 1015328" d="M2305.622,3289.187a.555.555,0,0,1-.761.246.567.567,0,0,1-.224-.761,15.045,15.045,0,0,1,13.494-8.548h.023c2.35,0,4.565-.022,6.624-.022,2.081-.022,4.006-.044,5.818-.067a.554.554,0,0,1,.56.56.523.523,0,0,1-.537.56c-1.813.022-3.737.045-5.818.067-2.081,0-4.274.022-6.624.022a13.979,13.979,0,0,0-12.554,7.944Z" transform="translate(-1934.311 -2358.243)" fill="#141515"/>
      <path id="Trazado_1015329" data-name="Trazado 1015329" d="M2623.068,3276.428a.585.585,0,0,1-.582-.537.573.573,0,0,1,.559-.582l22.893-.425a.523.523,0,0,1,.559.537.535.535,0,0,1-.537.56Z" transform="translate(-2218.974 -2353.629)" fill="#241e24"/>
      <path id="Trazado_1015330" data-name="Trazado 1015330" d="M2903.545,3560.618a.262.262,0,0,1-.09-.38.266.266,0,0,1,.38-.089,52.2,52.2,0,0,0,11.838,5.415,30.523,30.523,0,0,0,10.719,1.365.248.248,0,0,1,.291.246.277.277,0,0,1-.269.291,30.453,30.453,0,0,1-10.9-1.365,53.46,53.46,0,0,1-11.972-5.483Z" transform="translate(-2470.515 -2609.019)" fill="#141515"/>
      <path id="Trazado_1015331" data-name="Trazado 1015331" d="M2872.179,3602.119a.314.314,0,0,1-.09-.4.308.308,0,0,1,.4-.068,53.382,53.382,0,0,0,12.04,6,33.4,33.4,0,0,0,11.39,1.835.289.289,0,0,1,.268.268.277.277,0,0,1-.268.291,33.92,33.92,0,0,1-11.57-1.879,53.481,53.481,0,0,1-12.174-6.042Z" transform="translate(-2442.439 -2646.178)" fill="#141515"/>
      <path id="Trazado_1015332" data-name="Trazado 1015332" d="M2883.435,3659.268a.285.285,0,1,1,.246-.515,97.929,97.929,0,0,0,14.456,6.087c3.983,1.23,7.139,1.678,9.488,1.32a.291.291,0,0,1,.313.246.278.278,0,0,1-.246.313c-2.417.358-5.661-.089-9.712-1.343a101.569,101.569,0,0,1-14.545-6.109Z" transform="translate(-2452.486 -2697.33)" fill="#141515"/>
      <path id="Trazado_1015333" data-name="Trazado 1015333" d="M2094.209,3393.112a.563.563,0,1,1,1.052.4,30.739,30.739,0,0,0-1.164,19.335q2.551,9.667,11.435,19.29a.562.562,0,1,1-.828.761q-9.063-9.835-11.7-19.76a32.114,32.114,0,0,1,1.208-20.028Z" transform="translate(-1743.911 -2459.168)" fill="#241e24"/>
      <path id="Trazado_1015334" data-name="Trazado 1015334" d="M2305.1,3352.31a.56.56,0,1,1-.045-1.119c7.138-.335,13.807-.6,20.005-.761q9.266-.268,17.119-.246a.548.548,0,1,1,0,1.1q-7.822,0-17.1.246c-6.154.179-12.823.425-19.983.783Z" transform="translate(-1934.255 -2421.053)" fill="#241e24"/>
      <path id="Trazado_1015335" data-name="Trazado 1015335" d="M2633.709,3643.7a.56.56,0,1,1,1.1-.223q1.443,6.915,2.6,12.688c.761,3.782,1.41,7.072,1.924,9.8a.589.589,0,0,1-.448.649.563.563,0,0,1-.649-.448c-.537-2.842-1.186-6.109-1.924-9.8-.739-3.647-1.589-7.877-2.6-12.666Z" transform="translate(-2229.01 -2683.264)" fill="#241e24"/>
      <path id="Trazado_1015336" data-name="Trazado 1015336" d="M3696.768,2781.351a.558.558,0,0,1,.694-.873,97.19,97.19,0,0,1,12.353,12.04,80.844,80.844,0,0,1,9.264,13.315.531.531,0,0,1-.224.761.522.522,0,0,1-.738-.2,80.285,80.285,0,0,0-9.153-13.158,96.076,96.076,0,0,0-12.2-11.883Z" transform="translate(-3180.716 -1910.827)" fill="#241e24"/>
      <path id="Trazado_1015337" data-name="Trazado 1015337" d="M3833.832,3273.76a.555.555,0,0,1-.693-.38.566.566,0,0,1,.38-.694c5.281-1.455,9.846-2.842,13.651-4.14a92.637,92.637,0,0,0,8.75-3.424,31.505,31.505,0,0,0-.806-3.446,21.853,21.853,0,0,0-1.187-3.177.575.575,0,0,1,.291-.739.565.565,0,0,1,.739.269,26.043,26.043,0,0,1,1.231,3.334c.358,1.23.649,2.551.917,3.983l.067.425-.381.179a87.249,87.249,0,0,1-9.264,3.648q-5.74,1.946-13.7,4.162Z" transform="translate(-3302.989 -2338.25)" fill="#241e24"/>
      <path id="Trazado_1015338" data-name="Trazado 1015338" d="M3380.89,3561.45a.535.535,0,0,1-.537-.559.573.573,0,0,1,.582-.56c13.852.47,25.466,1.007,35.111,2.014,9.668,1.007,17.321,2.484,23.251,4.811a.553.553,0,0,1-.4,1.029c-5.818-2.282-13.4-3.737-22.982-4.722-9.6-1.007-21.192-1.544-35.021-2.014Z" transform="translate(-2897.577 -2609.225)" fill="#241e24"/>
      <path id="Trazado_1015339" data-name="Trazado 1015339" d="M2304.3,3540.908a.566.566,0,0,1-1.03.47q-8.056-17.891-14.881-27.435-6.747-9.4-12.219-10.607a.566.566,0,0,1-.425-.671.578.578,0,0,1,.671-.425q5.874,1.308,12.867,11.055,6.914,9.633,15.016,27.614Z" transform="translate(-1908.481 -2557.197)" fill="#241e24"/>
      <path id="Trazado_1015340" data-name="Trazado 1015340" d="M4320.034,3438.527a.563.563,0,0,1,.649.47.522.522,0,0,1-.448.626q-8.257,1.477-12.979,5.952a20.389,20.389,0,0,0-5.953,11.883q-.133,8.525-.179,17.723c-.044,6.177-.044,12.554,0,19.178a.569.569,0,0,1-.559.559.554.554,0,0,1-.559-.559c-.022-6.624-.045-13,0-19.178q.033-9.23.179-17.79v-.045l.022-.045a21.338,21.338,0,0,1,6.289-12.531c3.311-3.132,7.809-5.213,13.538-6.244Z" transform="translate(-3721.027 -2500.154)" fill="#241e24"/>
      <path id="Trazado_1015341" data-name="Trazado 1015341" d="M4541.71,3128.915a.548.548,0,1,1,0-1.1l10.987-.045a1.069,1.069,0,0,0,.559-.247.709.709,0,0,0,.18-.514l.022-3.156-.022-2.462a.568.568,0,0,1,.56-.559.553.553,0,0,1,.559.559v5.684a1.775,1.775,0,0,1-.514,1.23,1.979,1.979,0,0,1-1.232.56l-.021.022Z" transform="translate(-3936.975 -2215.695)" fill="#241e24"/>
      <path id="Trazado_1015342" data-name="Trazado 1015342" d="M4844.18,4176.552a.56.56,0,0,1-1.12,0V4135.4a.56.56,0,0,1,1.12,0Z" transform="translate(-4207.309 -3123.649)" fill="#241e24"/>
      <path id="Trazado_1015343" data-name="Trazado 1015343" d="M4844.18,3765.441a.56.56,0,0,1-1.12,0V3736.35a.56.56,0,0,1,1.12,0Z" transform="translate(-4207.309 -2766.333)" fill="#241e24"/>
      <path id="Trazado_1015344" data-name="Trazado 1015344" d="M4156.105,2173.321a.557.557,0,0,1-.56-.962l35.134-20.3v-22.847a.56.56,0,0,1,1.119,0v23.5Z" transform="translate(-3591.449 -1327.279)" fill="#241e24"/>
      <path id="Trazado_1015345" data-name="Trazado 1015345" d="M3875.166,1799.161a.557.557,0,0,1-.559-.963l25.824-14.9a.557.557,0,0,1,.56.962Z" transform="translate(-3339.891 -1017.969)" fill="#241e24"/>
      <path id="Trazado_1015346" data-name="Trazado 1015346" d="M2274.271,1987.491a.559.559,0,1,1,0-1.119h30.859v26.943a.559.559,0,1,1-1.119,0v-25.824Z" transform="translate(-1906.674 -1199.877)" fill="#241e24"/>
      <path id="Trazado_1015347" data-name="Trazado 1015347" d="M2043.4,2430.411a.56.56,0,0,1,0-1.119h42.652a.56.56,0,1,1,0,1.119Z" transform="translate(-1699.949 -1596.474)" fill="#241e24"/>
      <path id="Trazado_1015348" data-name="Trazado 1015348" d="M3828.852,2686.717a.567.567,0,0,1,.2.761.552.552,0,0,1-.761.2q-11.446-6.545-21.036-13.292a179.952,179.952,0,0,1-17.275-13.718.542.542,0,0,1-.045-.783.562.562,0,0,1,.784-.045,181.285,181.285,0,0,0,17.186,13.628q9.533,6.713,20.946,13.248Z" transform="translate(-3264.196 -1802.788)" fill="#241e24"/>
      <path id="Trazado_1015349" data-name="Trazado 1015349" d="M3583.487,1952.966a.569.569,0,0,1-.067.806.545.545,0,0,1-.784-.067,68.412,68.412,0,0,1-9.287-13.2,40.589,40.589,0,0,1-4.364-12.867l-.022-.067q-.2-12.89-.313-24.5-.1-11.581-.067-21.841a.548.548,0,1,1,1.1,0c-.023,6.825,0,14.12.067,21.841q.1,11.547.336,24.437a39.442,39.442,0,0,0,4.274,12.487,65.839,65.839,0,0,0,9.131,12.979Z" transform="translate(-3066.115 -1105.223)" fill="#241e24"/>
      <path id="Trazado_1015350" data-name="Trazado 1015350" d="M2492.839,4239.253a.554.554,0,1,1,1.1.157,153.378,153.378,0,0,0-1.678,16.694c-.269,5.706-.269,11.591.044,17.656a.565.565,0,0,1-.515.582.59.59,0,0,1-.6-.537c-.313-6.087-.313-12-.045-17.768a150.09,150.09,0,0,1,1.7-16.784Z" transform="translate(-2101.186 -3216.715)" fill="#241e24"/>
      <path id="Trazado_1015351" data-name="Trazado 1015351" d="M2719.12,4080.4a.523.523,0,0,1-.56-.537.549.549,0,0,1,.537-.559c7.765-.112,14.747-.179,20.99-.224q9.331-.033,16.381.022a.549.549,0,1,1,0,1.1q-7.049-.034-16.381,0-9.333.068-20.968.2Z" transform="translate(-2304.999 -3073.708)" fill="#241e24"/>
    </g>
  </g>
</svg>
