<svg xmlns="http://www.w3.org/2000/svg" xmlns:xlink="http://www.w3.org/1999/xlink" width="110" height="110" viewBox="0 0 110 110">
  <defs>
    <filter id="Trazado_982547" x="0" y="0" width="110" height="110" filterUnits="userSpaceOnUse">
      <feOffset dy="3" input="SourceAlpha"/>
      <feGaussianBlur stdDeviation="3" result="blur"/>
      <feFlood flood-opacity="0.161"/>
      <feComposite operator="in" in2="blur"/>
      <feComposite in="SourceGraphic"/>
    </filter>
  </defs>
  <g id="Grupo_1163990" data-name="Grupo 1163990" transform="translate(-378 -628)">
    <g id="Grupo_1162174" data-name="Grupo 1162174" transform="translate(0 -1338)">
      <g id="Grupo_1160920" data-name="Grupo 1160920" transform="translate(0 -678)">
        <g id="Grupo_1160748" data-name="Grupo 1160748" transform="translate(0 315)">
          <g id="Grupo_1158890" data-name="Grupo 1158890" transform="translate(-423 -1476)">
            <g id="Grupo_1157405" data-name="Grupo 1157405" transform="translate(1 3016)">
              <g id="Grupo_1155792" data-name="Grupo 1155792" transform="translate(-1 -3894.666)">
                <g id="Grupo_1154703" data-name="Grupo 1154703" transform="translate(0 1465.666)">
                  <g id="Grupo_1150789" data-name="Grupo 1150789" transform="translate(3 2320)">
                    <g id="Grupo_1154212" data-name="Grupo 1154212" transform="translate(-236 -5809)">
                      <g id="Grupo_1152583" data-name="Grupo 1152583" transform="translate(1043 6713)">
                        <g id="Grupo_1146973" data-name="Grupo 1146973" transform="translate(0 0)">
                          <g id="Grupo_1146954" data-name="Grupo 1146954">
                            <g transform="matrix(1, 0, 0, 1, -9, -6)" filter="url(#Trazado_982547)">
                              <g id="Trazado_982547-2" data-name="Trazado 982547" transform="translate(9 6)" fill="#fcebe9">
                                <path d="M 46 90.49987030029297 C 39.99187850952148 90.49987030029297 34.16426849365234 89.32350921630859 28.67905426025391 87.00345611572266 C 23.38019943237305 84.76224517822266 18.62104034423828 81.55341339111328 14.53374671936035 77.46613311767578 C 10.44646644592285 73.37885284423828 7.237639904022217 68.61969757080078 4.996413230895996 63.32085418701172 C 2.676359891891479 57.83565521240234 1.5 52.008056640625 1.5 45.99993515014648 C 1.5 39.99181365966797 2.676359891891479 34.16421508789062 4.996413230895996 28.67901420593262 C 7.237639904022217 23.38017463684082 10.44646644592285 18.62101554870605 14.53374671936035 14.53373527526855 C 18.62104034423828 10.44645500183105 23.38019943237305 7.23762845993042 28.67905426025391 4.996415138244629 C 34.16426849365234 2.676361799240112 39.99187850952148 1.500001788139343 46 1.500001788139343 C 52.00812149047852 1.500001788139343 57.83573150634766 2.676361799240112 63.32094573974609 4.996415138244629 C 68.61979675292969 7.23762845993042 73.37895965576172 10.44645500183105 77.46625518798828 14.53373527526855 C 81.55353546142578 18.62101554870605 84.76235961914062 23.38017463684082 87.00358581542969 28.67901420593262 C 89.32363891601562 34.16421508789062 90.5 39.99181365966797 90.5 45.99993515014648 C 90.5 52.008056640625 89.32363891601562 57.83565521240234 87.00358581542969 63.32085418701172 C 84.76235961914062 68.61969757080078 81.55353546142578 73.37885284423828 77.46625518798828 77.46613311767578 C 73.37895965576172 81.55341339111328 68.61979675292969 84.76224517822266 63.32094573974609 87.00345611572266 C 57.83573150634766 89.32350921630859 52.00812149047852 90.49987030029297 46 90.49987030029297 Z" stroke="none"/>
                                <path d="M 46 2.999992370605469 C 40.1937141418457 2.999992370605469 34.56269836425781 4.136489868164062 29.26337051391602 6.377906799316406 C 24.14332580566406 8.543502807617188 19.54441070556641 11.64437866210938 15.59439849853516 15.59437561035156 C 11.64440155029297 19.54439544677734 8.54351806640625 24.14329528808594 6.377914428710938 29.26333618164062 C 4.136497497558594 34.56264877319336 3 40.19366455078125 3 45.99993515014648 C 3 51.80620574951172 4.136497497558594 57.43720626831055 6.377914428710938 62.73651885986328 C 8.54351806640625 67.8565673828125 11.64440155029297 72.45545959472656 15.59439849853516 76.40547943115234 C 19.54441070556641 80.35547637939453 24.14332580566406 83.45635223388672 29.26337051391602 85.6219482421875 C 34.56269836425781 87.86336517333984 40.1937141418457 88.99986267089844 46 88.99986267089844 C 51.8062858581543 88.99986267089844 57.43730163574219 87.86336517333984 62.73661422729492 85.6219482421875 C 67.85667419433594 83.45635223388672 72.45557403564453 80.35547637939453 76.40558624267578 76.40547943115234 C 80.35559844970703 72.45545959472656 83.45647430419922 67.8565673828125 85.6220703125 62.73651885986328 C 87.86350250244141 57.43720626831055 89 51.80620574951172 89 45.99993515014648 C 89 40.19366455078125 87.86350250244141 34.56264877319336 85.6220703125 29.26333618164062 C 83.45647430419922 24.14329528808594 80.35559844970703 19.54439544677734 76.40558624267578 15.59437561035156 C 72.45557403564453 11.64437866210938 67.85667419433594 8.543502807617188 62.73661422729492 6.377906799316406 C 57.43730163574219 4.136489868164062 51.8062858581543 2.999992370605469 46 2.999992370605469 M 46 -7.62939453125e-06 C 71.40509033203125 -7.62939453125e-06 92 20.59486389160156 92 45.99993515014648 C 92 71.40499114990234 71.40509033203125 91.99986267089844 46 91.99986267089844 C 20.59490203857422 91.99986267089844 0 71.40499114990234 0 45.99993515014648 C 0 20.59486389160156 20.59490203857422 -7.62939453125e-06 46 -7.62939453125e-06 Z" stroke="none" fill="#e44b36"/>
                              </g>
                            </g>
                          </g>
                        </g>
                      </g>
                    </g>
                  </g>
                </g>
              </g>
            </g>
          </g>
        </g>
      </g>
    </g>
    <g id="cumplimiento" transform="translate(385.205 632.4)">
      <path id="Trazado_1016181" data-name="Trazado 1016181" d="M96.042,59.567c-.018-.016-.035-.032-.052-.049l-.535-.59h14.623a.353.353,0,0,0,0-.705H92.535l-5.772-5.774.1-.223a1.986,1.986,0,0,0-3.209-2.233L80.52,53.127V30.775A3.179,3.179,0,0,1,83.695,27.6h30.024a3.179,3.179,0,0,1,3.175,3.175V71.3a3.179,3.179,0,0,1-3.175,3.175h-6.942V73.114a.352.352,0,0,0-.353-.353h-2.661V70.668h6.315a.353.353,0,1,0,0-.705h-6.617l-.1-.154a2.336,2.336,0,0,0-1.931-1.023H89.37a2.344,2.344,0,0,0-2.34,2.34v1.635H84.368a.352.352,0,0,0-.353.353v1.367l-.391-.043c-1.818-.2-3.1-1.177-3.1-3.134V68.575l6.217-6.219,1.892,1.888-.1.223a1.984,1.984,0,0,0,3.2,2.233l3.573-3.573h14.773a.353.353,0,1,0,0-.705H96.136l.268-.515a2.012,2.012,0,0,0,.225-.929,1.967,1.967,0,0,0-.578-1.4Z" transform="translate(-52.705 -7.942)" fill="#f1f1f2" fill-rule="evenodd"/>
      <path id="Trazado_1016182" data-name="Trazado 1016182" d="M211.424,88.21l6.888.919a3.18,3.18,0,0,1,2.727,3.566l-5.352,40.174a3.184,3.184,0,0,1-3.568,2.727l-25.279-3.368.043-.658h13.365a.354.354,0,0,0,.353-.353V128.67h6.942a3.886,3.886,0,0,0,3.88-3.88V88.21Z" transform="translate(-146.528 -61.428)" fill="#60b7ff" fill-rule="evenodd"/>
      <path id="Trazado_1016183" data-name="Trazado 1016183" d="M32.255,312.788a1.465,1.465,0,0,1-1.948.1l-.055-.045-.034-.063c-.024-.045-.058-.089-.086-.133-.456-.7-.582-1.278.061-1.921l9.186-9.187,2.064,2.06Z" transform="translate(-7.903 -249.684)" fill="#968996" fill-rule="evenodd"/>
      <path id="Trazado_1016184" data-name="Trazado 1016184" d="M168.2,54.378a32.728,32.728,0,0,1-.394,8.458,18.337,18.337,0,0,1-2.191,5.933,17.387,17.387,0,0,1-7.44,6.563l-.161.082-.161-.082a17.387,17.387,0,0,1-7.44-6.563,18.327,18.327,0,0,1-2.191-5.933,32.678,32.678,0,0,1-.394-8.458l.021-.309.309-.019a17.831,17.831,0,0,0,9.646-3.348l.208-.153.208.153a17.84,17.84,0,0,0,9.646,3.348l.309.019Z" transform="translate(-112.01 -28.195)" fill="#f1f1f2" fill-rule="evenodd"/>
      <path id="Trazado_1016185" data-name="Trazado 1016185" d="M163.567,47.7a.351.351,0,0,0-.341-.323,17.243,17.243,0,0,1-10.285-3.55.351.351,0,0,0-.434,0,17.222,17.222,0,0,1-10.285,3.55.351.351,0,0,0-.336.324c-.417,5.054-.113,10.54,2.437,15.05a18.308,18.308,0,0,0,8.244,7.376.343.343,0,0,0,.16.036.371.371,0,0,0,.155-.036,18.314,18.314,0,0,0,8.244-7.376c2.551-4.51,2.854-10,2.44-15.051Z" transform="translate(-106.722 -22.196)" fill="#60b7ff" fill-rule="evenodd"/>
      <path id="Trazado_1016186" data-name="Trazado 1016186" d="M105.788,249.442l.823.823-3.963,3.968-6.777-6.776,3.969-3.967,5.949,5.951Z" transform="translate(-66.25 -198.457)" fill="#968996" fill-rule="evenodd"/>
      <path id="Trazado_1016187" data-name="Trazado 1016187" d="M157.776,301.065a1.277,1.277,0,0,1,1.808,0,1.287,1.287,0,0,1,0,1.811l-4.316,4.32a1.282,1.282,0,0,1-1.811-1.814Z" transform="translate(-116.738 -248.933)" fill="#968996" fill-rule="evenodd"/>
      <path id="Trazado_1016188" data-name="Trazado 1016188" d="M80.54,286.288v-4.75l.333-.019a1.967,1.967,0,0,0,.717-.177l.222-.1,1.892,1.887Z" transform="translate(-52.722 -231.77)" fill="#f1f1f2" fill-rule="evenodd"/>
      <path id="Trazado_1016189" data-name="Trazado 1016189" d="M73.73,225.681a1.281,1.281,0,1,1-1.814-1.81l4.32-4.318a1.277,1.277,0,0,1,2.182.906,1.255,1.255,0,0,1-.374.906Z" transform="translate(-44.782 -177.004)" fill="#968996" fill-rule="evenodd"/>
      <path id="Trazado_1016190" data-name="Trazado 1016190" d="M180.405,98.913a12.314,12.314,0,0,1-5.216-4.651,13.043,13.043,0,0,1-1.543-4.173,23.055,23.055,0,0,1-.3-5.9l.02-.308.307-.022a12.885,12.885,0,0,0,6.693-2.328l.206-.147.206.147a12.867,12.867,0,0,0,6.693,2.328l.307.022.02.308a23.053,23.053,0,0,1-.3,5.9,13.1,13.1,0,0,1-1.543,4.173,12.321,12.321,0,0,1-5.216,4.651L180.57,99Z" transform="translate(-134.563 -55.401)" fill="#f1f1f2" fill-rule="evenodd"/>
      <path id="Trazado_1016191" data-name="Trazado 1016191" d="M183.144,77.508a.353.353,0,0,0-.342-.323,12.137,12.137,0,0,1-7.327-2.527.351.351,0,0,0-.434,0,12.133,12.133,0,0,1-7.324,2.528.353.353,0,0,0-.342.323,24.454,24.454,0,0,0,.275,6.723,13.735,13.735,0,0,0,1.744,4.583,13.3,13.3,0,0,0,5.7,4.893.358.358,0,0,0,.16.036.375.375,0,0,0,.155-.036,13.325,13.325,0,0,0,5.707-4.894,13.73,13.73,0,0,0,1.747-4.583A24.409,24.409,0,0,0,183.144,77.508Z" transform="translate(-129.255 -49.402)" fill="#ffd064" fill-rule="evenodd"/>
      <path id="Trazado_1016192" data-name="Trazado 1016192" d="M116.27,417.83h21.352v3.912H116.27Z" transform="translate(-84.253 -352.305)" fill="#87d4ed" fill-rule="evenodd"/>
      <path id="Trazado_1016193" data-name="Trazado 1016193" d="M141.91,387.28v-1.635a1.637,1.637,0,0,1,1.634-1.635H155.6a1.637,1.637,0,0,1,1.634,1.635v1.635Z" transform="translate(-106.879 -322.46)" fill="#87d4ed" fill-rule="evenodd"/>
      <path id="Trazado_1016194" data-name="Trazado 1016194" d="M48.693,59.036a.706.706,0,0,1,.705-.705h7.976a.705.705,0,1,1,0,1.41H49.4A.705.705,0,0,1,48.693,59.036Zm1.339-27.021a.7.7,0,0,1,0,1l-4.5,4.5a.7.7,0,0,1-.994,0l-2.567-2.564a.705.705,0,1,1,1-1l2.069,2.065,4-4A.7.7,0,0,1,50.032,32.015ZM46,43.2c3.792-1.962,7.453-5.289,6.873-14.393A13.206,13.206,0,0,1,46,26.414a13.21,13.21,0,0,1-6.873,2.393C38.551,37.91,42.213,41.237,46,43.2Zm7.554-15.769a11.769,11.769,0,0,1-7.122-2.453.7.7,0,0,0-.869,0,11.761,11.761,0,0,1-7.118,2.453.705.705,0,0,0-.682.646c-.883,10.73,3.767,14.477,7.919,16.545A.713.713,0,0,0,46,44.7a.686.686,0,0,0,.311-.074c4.151-2.068,8.807-5.816,7.923-16.545A.7.7,0,0,0,53.559,27.431ZM46,46.825c5.442-2.782,10.741-7.493,9.833-20.616A18.146,18.146,0,0,1,46,22.794a18.146,18.146,0,0,1-9.833,3.415C35.264,39.331,40.563,44.042,46,46.825Zm10.51-22a16.864,16.864,0,0,1-10.079-3.474.7.7,0,0,0-.869,0,16.839,16.839,0,0,1-10.079,3.474.705.705,0,0,0-.677.648c-.528,6.381.288,11.37,2.481,15.253a18.553,18.553,0,0,0,8.393,7.518A.713.713,0,0,0,46,48.32a.686.686,0,0,0,.311-.074,18.542,18.542,0,0,0,8.393-7.518c2.2-3.882,3.009-8.872,2.486-15.253a.7.7,0,0,0-.678-.648ZM74.162,31.22a2.824,2.824,0,0,0-2.424-3.17l-6.489-.865V63.362a4.239,4.239,0,0,1-4.233,4.233H54.428v2.194a.706.706,0,0,1-.705.705H40.687l24.951,3.324a2.828,2.828,0,0,0,3.172-2.424ZM32.37,65.878H53.017v3.206H32.37ZM50,63.184v1.282H35.384V63.184A1.284,1.284,0,0,1,36.665,61.9H48.721A1.284,1.284,0,0,1,50,63.184ZM30.958,65.172a.705.705,0,0,1,.705-.705h2.308V63.185a2.7,2.7,0,0,1,2.693-2.693H48.721a2.691,2.691,0,0,1,2.223,1.177h6.431a.705.705,0,0,1,0,1.41h-5.96v1.388h2.308a.705.705,0,0,1,.705.705v1.012h6.589a2.826,2.826,0,0,0,2.822-2.822V22.833a2.826,2.826,0,0,0-2.822-2.822H30.993a2.826,2.826,0,0,0-2.822,2.822v21.5L30.7,41.8a2.34,2.34,0,0,1,3.778,2.632l5.495,5.5h17.4a.705.705,0,1,1,0,1.41H43.547c.014.016.034.029.048.046a2.315,2.315,0,0,1,.682,1.654,2.359,2.359,0,0,1-.264,1.092H57.374a.705.705,0,0,1,0,1.41H42.746l-3.47,3.47A2.335,2.335,0,0,1,35.5,56.379l-1.468-1.465L28.17,60.781v2.581c0,2.05,1.526,2.643,2.788,2.783Zm-6.853-2.319a1.105,1.105,0,0,1-.783.321,1.094,1.094,0,0,1-.7-.244c-.028-.054-.067-.106-.1-.159-.384-.589-.484-.979.014-1.479l8.937-8.938,1.564,1.562ZM28.17,50.1a2.329,2.329,0,0,0,.845-.209l1.468,1.465L28.17,53.669Zm4.843-5.993L28.7,48.428a.929.929,0,0,1-1.315-1.312L31.7,42.8a.931.931,0,0,1,1.309,0,.935.935,0,0,1,0,1.312Zm6.172,7.021h0l.677.677L36.4,55.277,30.119,49l3.47-3.469ZM42.6,53.694l-4.315,4.318A.929.929,0,0,1,36.968,56.7l4.32-4.318a.925.925,0,0,1,1.309,0,.935.935,0,0,1,0,1.313ZM71.926,26.651l-6.676-.889v-2.93A4.238,4.238,0,0,0,61.017,18.6H30.993a4.238,4.238,0,0,0-4.233,4.233V45.743l-.375.374a2.347,2.347,0,0,0,0,3.308,2.554,2.554,0,0,0,.375.3v5.35l-5.216,5.216a2.35,2.35,0,0,0-.2,3.245.415.415,0,0,0,.039.055.65.65,0,0,0,.163.255,2.517,2.517,0,0,0,3.552,0l1.661-1.66v1.171c0,2.4,1.594,3.965,4.2,4.2v2.226a.706.706,0,0,0,.705.705h2.126a4.2,4.2,0,0,0,1.905.757l29.756,3.966a4.408,4.408,0,0,0,.562.038,4.241,4.241,0,0,0,4.195-3.674l5.356-40.174a4.248,4.248,0,0,0-3.643-4.754Z" fill-rule="evenodd"/>
    </g>
  </g>
</svg>
