<svg xmlns="http://www.w3.org/2000/svg" xmlns:xlink="http://www.w3.org/1999/xlink" width="110" height="110" viewBox="0 0 110 110">
  <defs>
    <filter id="Trazado_982547" x="0" y="0" width="110" height="110" filterUnits="userSpaceOnUse">
      <feOffset dy="3" input="SourceAlpha"/>
      <feGaussianBlur stdDeviation="3" result="blur"/>
      <feFlood flood-opacity="0.161"/>
      <feComposite operator="in" in2="blur"/>
      <feComposite in="SourceGraphic"/>
    </filter>
  </defs>
  <g id="Grupo_1164036" data-name="Grupo 1164036" transform="translate(-4367 -624)">
    <g id="Grupo_1162176" data-name="Grupo 1162176" transform="translate(3989 -1342)">
      <g id="Grupo_1160920" data-name="Grupo 1160920" transform="translate(0 -678)">
        <g id="Grupo_1160748" data-name="Grupo 1160748" transform="translate(0 315)">
          <g id="Grupo_1158890" data-name="Grupo 1158890" transform="translate(-423 -1476)">
            <g id="Grupo_1157405" data-name="Grupo 1157405" transform="translate(1 3016)">
              <g id="Grupo_1155792" data-name="Grupo 1155792" transform="translate(-1 -3894.666)">
                <g id="Grupo_1154703" data-name="Grupo 1154703" transform="translate(0 1465.666)">
                  <g id="Grupo_1150789" data-name="Grupo 1150789" transform="translate(3 2320)">
                    <g id="Grupo_1154212" data-name="Grupo 1154212" transform="translate(-236 -5809)">
                      <g id="Grupo_1152583" data-name="Grupo 1152583" transform="translate(1043 6713)">
                        <g id="Grupo_1146973" data-name="Grupo 1146973" transform="translate(0 0)">
                          <g id="Grupo_1146954" data-name="Grupo 1146954">
                            <g transform="matrix(1, 0, 0, 1, -9, -6)" filter="url(#Trazado_982547)">
                              <g id="Trazado_982547-2" data-name="Trazado 982547" transform="translate(9 6)" fill="#fcebe9">
                                <path d="M 46 90.49987030029297 C 39.99187850952148 90.49987030029297 34.16426849365234 89.32350921630859 28.67905426025391 87.00345611572266 C 23.38019943237305 84.76224517822266 18.62104034423828 81.55341339111328 14.53374671936035 77.46613311767578 C 10.44646644592285 73.37885284423828 7.237639904022217 68.61969757080078 4.996413230895996 63.32085418701172 C 2.676359891891479 57.83565521240234 1.5 52.008056640625 1.5 45.99993515014648 C 1.5 39.99181365966797 2.676359891891479 34.16421508789062 4.996413230895996 28.67901420593262 C 7.237639904022217 23.38017463684082 10.44646644592285 18.62101554870605 14.53374671936035 14.53373527526855 C 18.62104034423828 10.44645500183105 23.38019943237305 7.23762845993042 28.67905426025391 4.996415138244629 C 34.16426849365234 2.676361799240112 39.99187850952148 1.500001788139343 46 1.500001788139343 C 52.00812149047852 1.500001788139343 57.83573150634766 2.676361799240112 63.32094573974609 4.996415138244629 C 68.61979675292969 7.23762845993042 73.37895965576172 10.44645500183105 77.46625518798828 14.53373527526855 C 81.55353546142578 18.62101554870605 84.76235961914062 23.38017463684082 87.00358581542969 28.67901420593262 C 89.32363891601562 34.16421508789062 90.5 39.99181365966797 90.5 45.99993515014648 C 90.5 52.008056640625 89.32363891601562 57.83565521240234 87.00358581542969 63.32085418701172 C 84.76235961914062 68.61969757080078 81.55353546142578 73.37885284423828 77.46625518798828 77.46613311767578 C 73.37895965576172 81.55341339111328 68.61979675292969 84.76224517822266 63.32094573974609 87.00345611572266 C 57.83573150634766 89.32350921630859 52.00812149047852 90.49987030029297 46 90.49987030029297 Z" stroke="none"/>
                                <path d="M 46 2.999992370605469 C 40.1937141418457 2.999992370605469 34.56269836425781 4.136489868164062 29.26337051391602 6.377906799316406 C 24.14332580566406 8.543502807617188 19.54441070556641 11.64437866210938 15.59439849853516 15.59437561035156 C 11.64440155029297 19.54439544677734 8.54351806640625 24.14329528808594 6.377914428710938 29.26333618164062 C 4.136497497558594 34.56264877319336 3 40.19366455078125 3 45.99993515014648 C 3 51.80620574951172 4.136497497558594 57.43720626831055 6.377914428710938 62.73651885986328 C 8.54351806640625 67.8565673828125 11.64440155029297 72.45545959472656 15.59439849853516 76.40547943115234 C 19.54441070556641 80.35547637939453 24.14332580566406 83.45635223388672 29.26337051391602 85.6219482421875 C 34.56269836425781 87.86336517333984 40.1937141418457 88.99986267089844 46 88.99986267089844 C 51.8062858581543 88.99986267089844 57.43730163574219 87.86336517333984 62.73661422729492 85.6219482421875 C 67.85667419433594 83.45635223388672 72.45557403564453 80.35547637939453 76.40558624267578 76.40547943115234 C 80.35559844970703 72.45545959472656 83.45647430419922 67.8565673828125 85.6220703125 62.73651885986328 C 87.86350250244141 57.43720626831055 89 51.80620574951172 89 45.99993515014648 C 89 40.19366455078125 87.86350250244141 34.56264877319336 85.6220703125 29.26333618164062 C 83.45647430419922 24.14329528808594 80.35559844970703 19.54439544677734 76.40558624267578 15.59437561035156 C 72.45557403564453 11.64437866210938 67.85667419433594 8.543502807617188 62.73661422729492 6.377906799316406 C 57.43730163574219 4.136489868164062 51.8062858581543 2.999992370605469 46 2.999992370605469 M 46 -7.62939453125e-06 C 71.40509033203125 -7.62939453125e-06 92 20.59486389160156 92 45.99993515014648 C 92 71.40499114990234 71.40509033203125 91.99986267089844 46 91.99986267089844 C 20.59490203857422 91.99986267089844 0 71.40499114990234 0 45.99993515014648 C 0 20.59486389160156 20.59490203857422 -7.62939453125e-06 46 -7.62939453125e-06 Z" stroke="none" fill="#e44b36"/>
                              </g>
                            </g>
                          </g>
                        </g>
                      </g>
                    </g>
                  </g>
                </g>
              </g>
            </g>
          </g>
        </g>
      </g>
    </g>
    <g id="la-seguridad" transform="translate(4376.896 632)">
      <g id="Grupo_1164035" data-name="Grupo 1164035" transform="translate(17.018 16.956)">
        <g id="Grupo_1164024" data-name="Grupo 1164024" transform="translate(17.229 0)">
          <g id="Grupo_1164020" data-name="Grupo 1164020">
            <path id="Trazado_1016223" data-name="Trazado 1016223" d="M169.911,424h34.4a1.911,1.911,0,0,1,1.911,1.911v5.733H168v-5.733A1.911,1.911,0,0,1,169.911,424Z" transform="translate(-168 -376.224)" fill="#f98800"/>
            <path id="Trazado_1016224" data-name="Trazado 1016224" d="M218.4,71.776H184l2.675-9.555,2.675-9.555,2.675-9.555,2.675-9.555L197.377,24h7.644l2.675,9.555,2.675,9.555,2.676,9.555,2.675,9.555Z" transform="translate(-182.089 -24)" fill="#f98800"/>
            <g id="Grupo_1164019" data-name="Grupo 1164019" transform="translate(4.587 9.555)">
              <path id="Trazado_1016225" data-name="Trazado 1016225" d="M269.546,113.555H251.2L253.875,104h13Z" transform="translate(-245.849 -104)" fill="#dff1fc"/>
              <path id="Trazado_1016226" data-name="Trazado 1016226" d="M235.448,273.555H206.4L209.076,264h23.7Z" transform="translate(-206.4 -244.889)" fill="#dff1fc"/>
            </g>
          </g>
          <g id="Grupo_1164023" data-name="Grupo 1164023">
            <g id="Grupo_1164022" data-name="Grupo 1164022" transform="translate(11.466)">
              <g id="Grupo_1164021" data-name="Grupo 1164021">
                <path id="Trazado_1016227" data-name="Trazado 1016227" d="M362.676,33.555,360,24v9.555Z" transform="translate(-348.534 -24)" fill="#f05a29"/>
                <path id="Trazado_1016228" data-name="Trazado 1016228" d="M286.168,344H275.307A11.469,11.469,0,0,1,264,353.555h24.844Z" transform="translate(-264 -305.779)" fill="#f05a29"/>
                <path id="Trazado_1016229" data-name="Trazado 1016229" d="M360,193.555h8.026L365.351,184H360Z" transform="translate(-348.534 -164.889)" fill="#f05a29"/>
              </g>
              <path id="Trazado_1016230" data-name="Trazado 1016230" d="M360,113.555h5.351L362.676,104H360Z" transform="translate(-348.534 -94.445)" fill="#aedef8"/>
              <path id="Trazado_1016231" data-name="Trazado 1016231" d="M358.826,271.644a11.536,11.536,0,0,1-.159,1.91h10.861L366.852,264h-8.026Z" transform="translate(-347.359 -235.334)" fill="#aedef8"/>
            </g>
            <path id="Trazado_1016232" data-name="Trazado 1016232" d="M204.31,424h-2.867a3.822,3.822,0,0,1-3.822,3.822H168v3.822h38.221v-5.733A1.911,1.911,0,0,0,204.31,424Z" transform="translate(-168 -376.224)" fill="#f05a29"/>
          </g>
        </g>
        <g id="Grupo_1164026" data-name="Grupo 1164026" transform="translate(0.985 36.31)">
          <path id="Trazado_1016233" data-name="Trazado 1016233" d="M63.532,350.333a14.333,14.333,0,0,0-28.666,0h-.956a1.911,1.911,0,0,0,0,3.822H64.488a1.911,1.911,0,0,0,0-3.822Z" transform="translate(-32 -335.045)" fill="#ffec00"/>
          <g id="Grupo_1164025" data-name="Grupo 1164025" transform="translate(0 8.764)">
            <path id="Trazado_1016234" data-name="Trazado 1016234" d="M33.911,473.911H64.488A1.911,1.911,0,0,0,66.4,472H32A1.911,1.911,0,0,0,33.911,473.911Z" transform="translate(-32 -463.565)" fill="#fcc200"/>
            <path id="Trazado_1016235" data-name="Trazado 1016235" d="M200,407.9h11.466a14.273,14.273,0,0,0-1.568-6.525C206.017,407.9,200,407.9,200,407.9Z" transform="translate(-179.934 -401.375)" fill="#ffce00"/>
          </g>
          <path id="Trazado_1016236" data-name="Trazado 1016236" d="M81.222,338.626a6.747,6.747,0,0,1-.828,2.7,11.226,11.226,0,0,1-4.031,3.92,20.805,20.805,0,0,1-17.423,1.9,14.335,14.335,0,0,1,22.282-8.523Z" transform="translate(-55.722 -335.025)" fill="#ff0"/>
          <path id="Trazado_1016237" data-name="Trazado 1016237" d="M202.991,339.37,200,343.855V338.41a14.08,14.08,0,0,1,2.991.96Z" transform="translate(-179.934 -337.167)" fill="#ffce00"/>
          <path id="Trazado_1016238" data-name="Trazado 1016238" d="M152,328h5.733v6.689H152Z" transform="translate(-137.667 -328)" fill="#ffec00"/>
          <path id="Trazado_1016239" data-name="Trazado 1016239" d="M54.689,449.911H48.956a.956.956,0,1,1,0-1.911h5.733a.956.956,0,1,1,0,1.911Z" transform="translate(-46.089 -433.667)" fill="#fcc200"/>
          <path id="Trazado_1016240" data-name="Trazado 1016240" d="M246.689,449.911h-5.733a.956.956,0,1,1,0-1.911h5.733a.956.956,0,0,1,0,1.911Z" transform="translate(-215.156 -433.667)" fill="#fff"/>
          <circle id="Elipse_11871" data-name="Elipse 11871" cx="2.867" cy="2.867" r="2.867" transform="translate(15.288 9.555)" fill="#ffce00"/>
          <path id="Trazado_1016241" data-name="Trazado 1016241" d="M112.955,366.178a.956.956,0,0,1-.516-1.76c.333-.213.679-.414,1.029-.6a.956.956,0,0,1,.884,1.695c-.3.156-.6.328-.882.511A.952.952,0,0,1,112.955,366.178Z" transform="translate(-102.443 -359.448)" fill="#fff"/>
          <path id="Trazado_1016242" data-name="Trazado 1016242" d="M72.96,389.725a.956.956,0,0,1-.881-1.324,13.333,13.333,0,0,1,2.695-4.107.956.956,0,1,1,1.379,1.323,11.432,11.432,0,0,0-2.31,3.52A.956.956,0,0,1,72.96,389.725Z" transform="translate(-67.227 -377.311)" fill="#fff"/>
          <circle id="Elipse_11872" data-name="Elipse 11872" cx="2.867" cy="2.867" r="2.867" transform="translate(14.333 9.555)" fill="#dff1fc"/>
          <circle id="Elipse_11873" data-name="Elipse 11873" cx="1.911" cy="1.911" r="1.911" transform="translate(15.288 10.511)" fill="#aedef8"/>
        </g>
        <g id="Grupo_1164028" data-name="Grupo 1164028" transform="translate(0 28.314)">
          <path id="Trazado_1016243" data-name="Trazado 1016243" d="M54.5,282.959a14.333,14.333,0,1,0-28.227,5l-.941.167A1.911,1.911,0,1,0,26,291.886l30.109-5.33a1.911,1.911,0,1,0-.666-3.763Z" transform="translate(-23.753 -269.92)" fill="#ffec00"/>
          <g id="Grupo_1164027" data-name="Grupo 1164027" transform="translate(0.029 6.888)">
            <path id="Trazado_1016244" data-name="Trazado 1016244" d="M26.215,389.345l30.109-5.33a1.911,1.911,0,0,0,1.549-2.214L24,387.8A1.911,1.911,0,0,0,26.215,389.345Z" transform="translate(-24 -374.266)" fill="#fcc200"/>
            <path id="Trazado_1016245" data-name="Trazado 1016245" d="M186.639,326.874l11.291-2a14.271,14.271,0,0,0-2.681-6.151C192.564,325.824,186.639,326.874,186.639,326.874Z" transform="translate(-167.213 -318.724)" fill="#ffce00"/>
          </g>
          <path id="Trazado_1016246" data-name="Trazado 1016246" d="M63.575,272.5a6.746,6.746,0,0,1-.344,2.8,11.228,11.228,0,0,1-3.286,4.563A20.805,20.805,0,0,1,43.12,284.78,14.335,14.335,0,0,1,63.575,272.5Z" transform="translate(-40.807 -269.921)" fill="#ff0"/>
          <path id="Trazado_1016247" data-name="Trazado 1016247" d="M169.254,271.593l-2.163,4.938-.949-5.362A14.08,14.08,0,0,1,169.254,271.593Z" transform="translate(-149.135 -269.961)" fill="#ffce00"/>
          <path id="Trazado_1016248" data-name="Trazado 1016248" d="M0,0H5.733V6.689H0Z" transform="matrix(0.985, -0.174, 0.174, 0.985, 11.139, 0.998)" fill="#ffec00"/>
          <path id="Trazado_1016249" data-name="Trazado 1016249" d="M43.607,397.589l-5.645,1a.956.956,0,0,1-.333-1.882l5.645-1a.956.956,0,1,1,.333,1.882Z" transform="translate(-35.276 -379.611)" fill="#fff"/>
          <path id="Trazado_1016250" data-name="Trazado 1016250" d="M232.672,364.119l-5.645,1a.956.956,0,0,1-.333-1.882l5.645-1a.956.956,0,1,1,.333,1.882Z" transform="translate(-201.759 -350.139)" fill="#fcc200"/>
          <circle id="Elipse_11874" data-name="Elipse 11874" cx="2.867" cy="2.867" r="2.867" transform="translate(14.207 9.682)" fill="#ffce00"/>
          <path id="Trazado_1016251" data-name="Trazado 1016251" d="M87.1,311.123a.956.956,0,0,1-.815-1.643c.291-.268.6-.526.91-.766a.956.956,0,1,1,1.165,1.515c-.268.206-.53.427-.779.657A.951.951,0,0,1,87.1,311.123Z" transform="translate(-78.545 -302.847)" fill="#fff"/>
          <path id="Trazado_1016252" data-name="Trazado 1016252" d="M56,339.293a.956.956,0,0,1-1.1-1.15,13.336,13.336,0,0,1,1.938-4.514.956.956,0,0,1,1.589,1.063,11.435,11.435,0,0,0-1.661,3.87A.956.956,0,0,1,56,339.293Z" transform="translate(-51.164 -324.587)" fill="#fff"/>
          <circle id="Elipse_11875" data-name="Elipse 11875" cx="2.867" cy="2.867" r="2.867" transform="translate(13.266 9.848)" fill="#dff1fc"/>
          <circle id="Elipse_11876" data-name="Elipse 11876" cx="1.911" cy="1.911" r="1.911" transform="translate(14.222 10.804)" fill="#aedef8"/>
        </g>
        <g id="Grupo_1164030" data-name="Grupo 1164030" transform="translate(0.484 17.925)">
          <path id="Trazado_1016253" data-name="Trazado 1016253" d="M59.238,200.929a14.333,14.333,0,0,0-28.265-4.778l-.942-.159a1.911,1.911,0,0,0-.637,3.769l30.149,5.1a1.911,1.911,0,0,0,.637-3.769Z" transform="translate(-27.802 -182.995)" fill="#ffec00"/>
          <g id="Grupo_1164029" data-name="Grupo 1164029" transform="translate(0 11.239)">
            <path id="Trazado_1016254" data-name="Trazado 1016254" d="M29.395,298.2l30.149,5.1a1.911,1.911,0,0,0,2.2-1.566L27.829,296a1.911,1.911,0,0,0,1.566,2.2Z" transform="translate(-27.802 -292.677)" fill="#fcc200"/>
            <path id="Trazado_1016255" data-name="Trazado 1016255" d="M196.345,272.959l11.306,1.911a14.271,14.271,0,0,0-.458-6.694C202.278,273.961,196.345,272.959,196.345,272.959Z" transform="translate(-176.214 -268.176)" fill="#ffce00"/>
          </g>
          <path id="Trazado_1016256" data-name="Trazado 1016256" d="M85.064,188.4a6.747,6.747,0,0,1-1.266,2.525,11.232,11.232,0,0,1-4.628,3.193,20.8,20.8,0,0,1-17.5-1.028,14.335,14.335,0,0,1,23.391-4.69Z" transform="translate(-57.627 -182.994)" fill="#ff0"/>
          <path id="Trazado_1016257" data-name="Trazado 1016257" d="M212.041,193.723l-3.7,3.924.908-5.369a14.086,14.086,0,0,1,2.789,1.445Z" transform="translate(-186.781 -190.104)" fill="#ffce00"/>
          <path id="Trazado_1016258" data-name="Trazado 1016258" d="M0,0H6.689V5.733H0Z" transform="matrix(0.167, -0.986, 0.986, 0.167, 15.917, 6.595)" fill="#ffec00"/>
          <path id="Trazado_1016259" data-name="Trazado 1016259" d="M52.807,279.076l-5.653-.956a.956.956,0,1,1,.318-1.884l5.653.956a.956.956,0,0,1-.319,1.884Z" transform="translate(-44.141 -264.022)" fill="#fcc200"/>
          <path id="Trazado_1016260" data-name="Trazado 1016260" d="M242.122,311.076l-5.653-.956a.956.956,0,0,1,.319-1.884l5.653.956a.956.956,0,1,1-.319,1.884Z" transform="translate(-210.844 -292.2)" fill="#fcc200"/>
          <circle id="Elipse_11877" data-name="Elipse 11877" cx="2.867" cy="2.867" r="2.867" transform="translate(15.858 10.011)" fill="#ffce00"/>
          <path id="Trazado_1016261" data-name="Trazado 1016261" d="M123.535,207.4a.956.956,0,0,1-.216-1.822c.364-.155.739-.295,1.114-.416a.956.956,0,0,1,.588,1.818c-.322.1-.643.224-.955.357A.952.952,0,0,1,123.535,207.4Z" transform="translate(-111.398 -201.408)" fill="#fff"/>
          <path id="Trazado_1016262" data-name="Trazado 1016262" d="M76.16,225.852a.956.956,0,0,1-.649-1.453,13.336,13.336,0,0,1,3.342-3.6.956.956,0,1,1,1.139,1.535,11.431,11.431,0,0,0-2.865,3.086A.955.955,0,0,1,76.16,225.852Z" transform="translate(-69.683 -215.053)" fill="#fff"/>
          <circle id="Elipse_11878" data-name="Elipse 11878" cx="2.867" cy="2.867" r="2.867" transform="translate(14.916 9.852)" fill="#dff1fc"/>
          <circle id="Elipse_11879" data-name="Elipse 11879" cx="1.911" cy="1.911" r="1.911" transform="translate(15.871 10.807)" fill="#aedef8"/>
        </g>
        <g id="Grupo_1164032" data-name="Grupo 1164032" transform="translate(1.933 8.864)">
          <path id="Trazado_1016263" data-name="Trazado 1016263" d="M71.2,120.9a14.333,14.333,0,1,0-28.562,2.441l-.952.081a1.911,1.911,0,0,0,.325,3.808l30.466-2.6a1.911,1.911,0,0,0-.325-3.808Z" transform="translate(-39.941 -106.646)" fill="#ffec00"/>
          <g id="Grupo_1164031" data-name="Grupo 1164031" transform="translate(0.007 7.89)">
            <path id="Trazado_1016264" data-name="Trazado 1016264" d="M42.066,236.15l30.466-2.6a1.911,1.911,0,0,0,1.741-2.066L40,234.409A1.911,1.911,0,0,0,42.066,236.15Z" transform="translate(-40 -223.452)" fill="#fcc200"/>
            <path id="Trazado_1016265" data-name="Trazado 1016265" d="M206.027,171.614l11.425-.976a14.271,14.271,0,0,0-2.118-6.367C212.022,171.1,206.027,171.614,206.027,171.614Z" transform="translate(-186.197 -164.27)" fill="#ffce00"/>
          </g>
          <path id="Trazado_1016266" data-name="Trazado 1016266" d="M84.7,109.763a6.747,6.747,0,0,1-.595,2.761,11.223,11.223,0,0,1-3.683,4.249,20.805,20.805,0,0,1-17.2,3.379A14.334,14.334,0,0,1,84.7,109.764Z" transform="translate(-60.443 -106.637)" fill="#ff0"/>
          <path id="Trazado_1016267" data-name="Trazado 1016267" d="M199.079,109.292l-2.6,4.723-.464-5.426A14.078,14.078,0,0,1,199.079,109.292Z" transform="translate(-177.376 -107.35)" fill="#ffce00"/>
          <path id="Trazado_1016268" data-name="Trazado 1016268" d="M0,0H5.733V6.689H0Z" transform="translate(12.815 0.487) rotate(-4.878)" fill="#ffec00"/>
          <path id="Trazado_1016269" data-name="Trazado 1016269" d="M61.3,227.836l-5.712.488a.955.955,0,1,1-.163-1.9l5.712-.488a.956.956,0,1,1,.163,1.9Z" transform="translate(-52.805 -210.674)" fill="#fff"/>
          <path id="Trazado_1016270" data-name="Trazado 1016270" d="M252.6,211.486l-5.712.488a.956.956,0,0,1-.163-1.9l5.713-.488a.956.956,0,1,1,.163,1.9Z" transform="translate(-221.258 -196.277)" fill="#fcc200"/>
          <circle id="Elipse_11880" data-name="Elipse 11880" cx="2.867" cy="2.867" r="2.867" transform="translate(14.823 9.674)" fill="#ffce00"/>
          <path id="Trazado_1016271" data-name="Trazado 1016271" d="M112.572,142.445a.956.956,0,0,1-.664-1.71c.313-.241.641-.47.975-.682a.956.956,0,0,1,1.024,1.613c-.286.181-.566.378-.835.584A.952.952,0,0,1,112.572,142.445Z" transform="translate(-102.983 -134.924)" fill="#fff"/>
          <path id="Trazado_1016272" data-name="Trazado 1016272" d="M76.764,168.34a.956.956,0,0,1-.991-1.244,13.34,13.34,0,0,1,2.335-4.321.956.956,0,1,1,1.486,1.2,11.432,11.432,0,0,0-2,3.7A.956.956,0,0,1,76.764,168.34Z" transform="translate(-71.452 -154.75)" fill="#fff"/>
          <circle id="Elipse_11881" data-name="Elipse 11881" cx="2.867" cy="2.867" r="2.867" transform="translate(13.871 9.755)" fill="#dff1fc"/>
          <circle id="Elipse_11882" data-name="Elipse 11882" cx="1.911" cy="1.911" r="1.911" transform="translate(14.826 10.711)" fill="#aedef8"/>
        </g>
        <g id="Grupo_1164034" data-name="Grupo 1164034" transform="translate(0.985 0)">
          <path id="Trazado_1016273" data-name="Trazado 1016273" d="M63.532,46.333a14.333,14.333,0,1,0-28.666,0h-.956a1.911,1.911,0,1,0,0,3.822H64.488a1.911,1.911,0,1,0,0-3.822Z" transform="translate(-32 -31.044)" fill="#ffec00"/>
          <g id="Grupo_1164033" data-name="Grupo 1164033" transform="translate(0 8.764)">
            <path id="Trazado_1016274" data-name="Trazado 1016274" d="M33.911,169.911H64.488A1.911,1.911,0,0,0,66.4,168H32A1.911,1.911,0,0,0,33.911,169.911Z" transform="translate(-32 -159.564)" fill="#fcc200"/>
            <path id="Trazado_1016275" data-name="Trazado 1016275" d="M200,103.9h11.466a14.273,14.273,0,0,0-1.568-6.524C206.017,103.9,200,103.9,200,103.9Z" transform="translate(-179.934 -97.375)" fill="#ffce00"/>
          </g>
          <path id="Trazado_1016276" data-name="Trazado 1016276" d="M81.222,34.626a6.747,6.747,0,0,1-.828,2.7,11.226,11.226,0,0,1-4.031,3.92,20.805,20.805,0,0,1-17.423,1.9,14.335,14.335,0,0,1,22.282-8.523Z" transform="translate(-55.722 -31.025)" fill="#ff0"/>
          <path id="Trazado_1016277" data-name="Trazado 1016277" d="M202.991,35.37,200,39.855V34.41a14.082,14.082,0,0,1,2.991.96Z" transform="translate(-179.934 -33.167)" fill="#ffce00"/>
          <path id="Trazado_1016278" data-name="Trazado 1016278" d="M152,24h5.733v6.689H152Z" transform="translate(-137.667 -24)" fill="#ffec00"/>
          <path id="Trazado_1016279" data-name="Trazado 1016279" d="M54.689,145.911H48.956a.956.956,0,1,1,0-1.911h5.733a.956.956,0,0,1,0,1.911Z" transform="translate(-46.089 -129.667)" fill="#fff"/>
          <path id="Trazado_1016280" data-name="Trazado 1016280" d="M246.689,145.911h-5.733a.956.956,0,0,1,0-1.911h5.733a.956.956,0,0,1,0,1.911Z" transform="translate(-215.156 -129.667)" fill="#fcc200"/>
          <circle id="Elipse_11883" data-name="Elipse 11883" cx="2.867" cy="2.867" r="2.867" transform="translate(15.288 9.555)" fill="#ffce00"/>
          <path id="Trazado_1016281" data-name="Trazado 1016281" d="M112.955,62.178a.956.956,0,0,1-.516-1.76c.333-.213.679-.414,1.029-.6a.956.956,0,1,1,.884,1.695c-.3.156-.6.328-.882.511a.952.952,0,0,1-.515.151Z" transform="translate(-102.443 -55.448)" fill="#fff"/>
          <path id="Trazado_1016282" data-name="Trazado 1016282" d="M72.96,85.725a.956.956,0,0,1-.881-1.324,13.334,13.334,0,0,1,2.694-4.107.956.956,0,1,1,1.379,1.323,11.434,11.434,0,0,0-2.31,3.52A.956.956,0,0,1,72.96,85.725Z" transform="translate(-67.227 -73.311)" fill="#fff"/>
          <circle id="Elipse_11884" data-name="Elipse 11884" cx="2.867" cy="2.867" r="2.867" transform="translate(14.333 9.555)" fill="#dff1fc"/>
          <circle id="Elipse_11885" data-name="Elipse 11885" cx="1.911" cy="1.911" r="1.911" transform="translate(15.288 10.511)" fill="#aedef8"/>
        </g>
      </g>
      <path id="Trazado_1016283" data-name="Trazado 1016283" d="M71.31,63.877,58.1,16.7a.956.956,0,0,0-.92-.7H49.535a.956.956,0,0,0-.92.7l-1.627,5.811a15.357,15.357,0,0,0-7.964-5.071v-.482A.956.956,0,0,0,38.069,16H32.336a.956.956,0,0,0-.956.956v.484A15.34,15.34,0,0,0,19.944,31.288a2.867,2.867,0,0,0-.03,5.733H21.5a15.356,15.356,0,0,0-.725,4.917,2.868,2.868,0,0,0-1.591,5.093,2.87,2.87,0,0,0-.277,5.682l1.871.328a15.342,15.342,0,0,0-2.262,9.707,2.87,2.87,0,0,0-.473,5.548,2.87,2.87,0,0,0,1.872,5.035c12.808,0,39.932,0,52.554,0a.956.956,0,0,0,.956-.956V66.643A2.871,2.871,0,0,0,71.31,63.877Zm-21.584-.1c-.045-.138-.091-.277-.141-.414a2.872,2.872,0,0,0,.726-5.435,2.877,2.877,0,0,0,1.907-1.8H67.156l2.14,7.644Zm-.2-17.2H64.481l2.14,7.644h-14.4a2.865,2.865,0,0,0-2.237-1.873,15.28,15.28,0,0,0-.456-5.771Zm4.782-4.429A2.883,2.883,0,0,0,51.2,39.521a15.272,15.272,0,0,0-.573-2.5H61.806l2.14,7.644H53.177a2.867,2.867,0,0,0,1.132-2.518ZM52.517,32.126a2.855,2.855,0,0,0-2.056-.838,15.132,15.132,0,0,0-.733-3.822h9.4l2.14,7.644H53.193a2.875,2.875,0,0,0-.676-2.984ZM50.26,17.911h6.195l2.14,7.644H48.952q-.254-.521-.546-1.02ZM19.239,34.832a.962.962,0,0,1,.675-1.633H26.6a.956.956,0,1,0,0-1.911h-4.74A13.425,13.425,0,0,1,31.38,19.42v4.224a.956.956,0,0,0,1.911,0s0-5.444,0-5.448v-.286h3.822v5.733a.956.956,0,0,0,1.911,0V19.422a13.447,13.447,0,0,1,9.521,11.866H43.8a.956.956,0,0,0,0,1.911h6.689a.956.956,0,0,1,0,1.911H19.914a.951.951,0,0,1-.675-.278Zm18.5,3.84A1.911,1.911,0,1,1,35.2,37.022h1.263A1.92,1.92,0,0,1,37.739,38.673ZM20.245,44.179c.309-.435,1.144-.344,1.6-.408l5.716-.454a.956.956,0,0,0-.151-1.9l-4.729.376a13.147,13.147,0,0,1,.836-4.766h8.947a3.82,3.82,0,1,0,6.732,0h9.4a13.324,13.324,0,0,1,.683,2.652l-4.727.376a.956.956,0,0,0,.151,1.905l6.658-.529A.962.962,0,0,1,52.179,43a.949.949,0,0,1-.651.332c-2.622.208-30.466,2.429-30.564,2.425a.963.963,0,0,1-.719-1.576Zm16.923,3.979a1.912,1.912,0,1,1-3.395-1.5l2.819-.224a1.912,1.912,0,0,1,.576,1.725ZM18.446,49.891a.959.959,0,0,1,1.122-.942l.941.165,5.647.991a.956.956,0,0,0,.33-1.882l-3.87-.679L31.6,46.83a3.821,3.821,0,1,0,7.173-.57l8.4-.668a13.3,13.3,0,0,1,.923,6.424l-4.671-.82a.956.956,0,0,0-.33,1.882l6.587,1.157a.956.956,0,0,1-.33,1.883L47.533,55.8c.005.005-5.758-1.014-5.76-1.011-2.314-.4-20.735-3.641-22.534-3.956A.954.954,0,0,1,18.446,49.891ZM33.564,60.231a1.911,1.911,0,1,1,1.569-2.2A1.918,1.918,0,0,1,33.564,60.231Zm-15.384,4.8c.271-.46,1.109-.442,1.56-.545l5.657-.946a.956.956,0,0,0-.315-1.885l-4.677.783a13.419,13.419,0,0,1,2.43-9.03l8.7,1.527a3.822,3.822,0,1,0,4.49.788l10.582,1.857q.063.225.118.453l-4.677.783a.956.956,0,1,0,.315,1.885l6.6-1.1a.961.961,0,0,1,.935,1.5.95.95,0,0,1-.62.387L37.61,63.429,20.749,66.25l-1.634.273a.955.955,0,0,1-.934-1.5Zm18.933.661a1.913,1.913,0,0,1-3.781.395l3.766-.63A1.935,1.935,0,0,1,37.113,65.687ZM19.239,71.142a.962.962,0,0,1,.675-1.633H26.6a.956.956,0,1,0,0-1.911H24.272l7.176-1.2a3.822,3.822,0,0,0,7.535-1.261l8.68-1.453a13.2,13.2,0,0,1,.882,3.914H43.8a.956.956,0,1,0,0,1.911h5.733c.454.028,1.288-.13,1.631.278a.962.962,0,0,1-.675,1.633H19.914a.951.951,0,0,1-.675-.278Zm52.274.278H53.193A2.879,2.879,0,0,0,50.461,67.6a15.3,15.3,0,0,0-.24-1.911H70.557a.957.957,0,0,1,.956.956ZM35.2,33.2a3.822,3.822,0,0,0,0-7.644A3.822,3.822,0,0,0,35.2,33.2Zm0-5.733a1.911,1.911,0,0,1,0,3.822A1.911,1.911,0,0,1,35.2,27.466Z" transform="translate(0 0)"/>
    </g>
  </g>
</svg>
