<svg xmlns="http://www.w3.org/2000/svg" xmlns:xlink="http://www.w3.org/1999/xlink" width="110" height="110" viewBox="0 0 110 110">
  <defs>
    <filter id="Trazado_982547" x="0" y="0" width="110" height="110" filterUnits="userSpaceOnUse">
      <feOffset dy="3" input="SourceAlpha"/>
      <feGaussianBlur stdDeviation="3" result="blur"/>
      <feFlood flood-opacity="0.161"/>
      <feComposite operator="in" in2="blur"/>
      <feComposite in="SourceGraphic"/>
    </filter>
  </defs>
  <g id="Grupo_1164037" data-name="Grupo 1164037" transform="translate(-4682 -625)">
    <g id="Grupo_1162177" data-name="Grupo 1162177" transform="translate(3989 -1342)">
      <g id="Grupo_1160931" data-name="Grupo 1160931" transform="translate(0 -678)">
        <g id="Grupo_1160749" data-name="Grupo 1160749" transform="translate(0 315)">
          <g id="Grupo_1158891" data-name="Grupo 1158891" transform="translate(-423 -1476)">
            <g id="Grupo_1157406" data-name="Grupo 1157406" transform="translate(1 3016)">
              <g id="Grupo_1155793" data-name="Grupo 1155793" transform="translate(-0.999 -3894)">
                <g id="Grupo_1154704" data-name="Grupo 1154704" transform="translate(0 1466)">
                  <g id="Grupo_1150790" data-name="Grupo 1150790" transform="translate(3 2320)">
                    <g id="Grupo_1154214" data-name="Grupo 1154214" transform="translate(79 -5809)">
                      <g id="Grupo_1152583" data-name="Grupo 1152583" transform="translate(1043 6713)">
                        <g id="Grupo_1146973" data-name="Grupo 1146973" transform="translate(0 0)">
                          <g id="Grupo_1146954" data-name="Grupo 1146954">
                            <g transform="matrix(1, 0, 0, 1, -9, -6)" filter="url(#Trazado_982547)">
                              <g id="Trazado_982547-2" data-name="Trazado 982547" transform="translate(9 6)" fill="#fcebe9">
                                <path d="M 46 90.49987030029297 C 39.99187850952148 90.49987030029297 34.16426849365234 89.32350921630859 28.67905426025391 87.00345611572266 C 23.38019943237305 84.76224517822266 18.62104034423828 81.55341339111328 14.53374671936035 77.46613311767578 C 10.44646644592285 73.37885284423828 7.237639904022217 68.61969757080078 4.996413230895996 63.32085418701172 C 2.676359891891479 57.83565521240234 1.5 52.008056640625 1.5 45.99993515014648 C 1.5 39.99181365966797 2.676359891891479 34.16421508789062 4.996413230895996 28.67901420593262 C 7.237639904022217 23.38017463684082 10.44646644592285 18.62101554870605 14.53374671936035 14.53373527526855 C 18.62104034423828 10.44645500183105 23.38019943237305 7.23762845993042 28.67905426025391 4.996415138244629 C 34.16426849365234 2.676361799240112 39.99187850952148 1.500001788139343 46 1.500001788139343 C 52.00812149047852 1.500001788139343 57.83573150634766 2.676361799240112 63.32094573974609 4.996415138244629 C 68.61979675292969 7.23762845993042 73.37895965576172 10.44645500183105 77.46625518798828 14.53373527526855 C 81.55353546142578 18.62101554870605 84.76235961914062 23.38017463684082 87.00358581542969 28.67901420593262 C 89.32363891601562 34.16421508789062 90.5 39.99181365966797 90.5 45.99993515014648 C 90.5 52.008056640625 89.32363891601562 57.83565521240234 87.00358581542969 63.32085418701172 C 84.76235961914062 68.61969757080078 81.55353546142578 73.37885284423828 77.46625518798828 77.46613311767578 C 73.37895965576172 81.55341339111328 68.61979675292969 84.76224517822266 63.32094573974609 87.00345611572266 C 57.83573150634766 89.32350921630859 52.00812149047852 90.49987030029297 46 90.49987030029297 Z" stroke="none"/>
                                <path d="M 46 2.999992370605469 C 40.1937141418457 2.999992370605469 34.56269836425781 4.136489868164062 29.26337051391602 6.377906799316406 C 24.14332580566406 8.543502807617188 19.54441070556641 11.64437866210938 15.59439849853516 15.59437561035156 C 11.64440155029297 19.54439544677734 8.54351806640625 24.14329528808594 6.377914428710938 29.26333618164062 C 4.136497497558594 34.56264877319336 3 40.19366455078125 3 45.99993515014648 C 3 51.80620574951172 4.136497497558594 57.43720626831055 6.377914428710938 62.73651885986328 C 8.54351806640625 67.8565673828125 11.64440155029297 72.45545959472656 15.59439849853516 76.40547943115234 C 19.54441070556641 80.35547637939453 24.14332580566406 83.45635223388672 29.26337051391602 85.6219482421875 C 34.56269836425781 87.86336517333984 40.1937141418457 88.99986267089844 46 88.99986267089844 C 51.8062858581543 88.99986267089844 57.43730163574219 87.86336517333984 62.73661422729492 85.6219482421875 C 67.85667419433594 83.45635223388672 72.45557403564453 80.35547637939453 76.40558624267578 76.40547943115234 C 80.35559844970703 72.45545959472656 83.45647430419922 67.8565673828125 85.6220703125 62.73651885986328 C 87.86350250244141 57.43720626831055 89 51.80620574951172 89 45.99993515014648 C 89 40.19366455078125 87.86350250244141 34.56264877319336 85.6220703125 29.26333618164062 C 83.45647430419922 24.14329528808594 80.35559844970703 19.54439544677734 76.40558624267578 15.59437561035156 C 72.45557403564453 11.64437866210938 67.85667419433594 8.543502807617188 62.73661422729492 6.377906799316406 C 57.43730163574219 4.136489868164062 51.8062858581543 2.999992370605469 46 2.999992370605469 M 46 -7.62939453125e-06 C 71.40509033203125 -7.62939453125e-06 92 20.59486389160156 92 45.99993515014648 C 92 71.40499114990234 71.40509033203125 91.99986267089844 46 91.99986267089844 C 20.59490203857422 91.99986267089844 0 71.40499114990234 0 45.99993515014648 C 0 20.59486389160156 20.59490203857422 -7.62939453125e-06 46 -7.62939453125e-06 Z" stroke="none" fill="#e44b36"/>
                              </g>
                            </g>
                          </g>
                        </g>
                      </g>
                    </g>
                  </g>
                </g>
              </g>
            </g>
          </g>
        </g>
      </g>
    </g>
    <g id="Page-1" transform="translate(4703.982 645)">
      <g id="_033---Insurance" data-name="033---Insurance" transform="translate(0.017 0.001)">
        <path id="Shape" d="M47.569,8.426v16.73a10.849,10.849,0,0,1-4.505,8.8L31.817,42.081a.913.913,0,0,1-1.064,0l-1.1-.793L19.505,33.96A10.849,10.849,0,0,1,15,25.155V8.426a.5.5,0,0,1,.3-.467l14.352-6.3,1.422-.619a.543.543,0,0,1,.413,0L47.265,7.959A.5.5,0,0,1,47.569,8.426Z" transform="translate(1.266 0.085)" fill="#6a1b9a"/>
        <path id="Shape-2" data-name="Shape" d="M44.312,8.374V25.1a10.849,10.849,0,0,1-4.505,8.8L29.656,41.236,19.505,33.908A10.849,10.849,0,0,1,15,25.1V8.374a.5.5,0,0,1,.3-.467l14.352-6.3,14.352,6.3A.5.5,0,0,1,44.312,8.374Z" transform="translate(1.266 0.137)" fill="#9d27b0"/>
        <path id="Shape-3" data-name="Shape" d="M21.728,29.777A6.652,6.652,0,0,1,19,24.419V10.275L30.942,5l11.942,5.275V24.419a6.645,6.645,0,0,1-2.728,5.358l-9.214,6.707Z" transform="translate(1.608 0.428)" fill="#e91e63"/>
        <path id="Shape-4" data-name="Shape" d="M15.456,42.982,10.5,38.022a11.833,11.833,0,0,1-2.508-3.7l-2.43-5.666a2.374,2.374,0,1,0-4.343,1.919l4.255,9.36a10.524,10.524,0,0,0,2.137,3.083l7.848,7.85H25.969V47.76a10.264,10.264,0,0,0-2.141-6.432,6.783,6.783,0,0,0-3.115-2.287,23.293,23.293,0,0,1-6.571-4.188,3.891,3.891,0,0,0-5.252.243" transform="translate(0.067 2.33)" fill="#ffe0b2"/>
        <path id="Shape-5" data-name="Shape" d="M46.511,42.982l4.96-4.96a11.834,11.834,0,0,0,2.508-3.7l2.431-5.666a2.374,2.374,0,1,1,4.343,1.919L56.5,39.932a10.523,10.523,0,0,1-2.137,3.083l-7.85,7.85H36V47.76a10.265,10.265,0,0,1,2.142-6.432,6.783,6.783,0,0,1,3.115-2.287,23.29,23.29,0,0,0,6.57-4.188,3.893,3.893,0,0,1,5.253.243" transform="translate(3.064 2.33)" fill="#ffe0b2"/>
        <path id="Shape-6" data-name="Shape" d="M60.4,29.588a2.325,2.325,0,0,1-.217.988l-4.256,9.358a10.473,10.473,0,0,1-2.139,3.083l-7.849,7.849H42.68l7.849-7.849a10.473,10.473,0,0,0,2.139-3.083l4.256-9.358a2.325,2.325,0,0,0,.217-.988,2.388,2.388,0,0,0-.749-1.726,2.335,2.335,0,0,1,1.628-.651A2.388,2.388,0,0,1,60.4,29.588Z" transform="translate(3.636 2.33)" fill="#dfc49c"/>
        <rect id="Rectangle-path" width="14.113" height="10.856" rx="1" transform="translate(36.893 53.196)" fill="#283593"/>
        <rect id="Rectangle-path-2" data-name="Rectangle-path" width="10.856" height="10.856" rx="1" transform="translate(36.893 53.196)" fill="#3f51b5"/>
        <rect id="Rectangle-path-3" data-name="Rectangle-path" width="14.113" height="10.856" rx="1" transform="translate(14.093 53.196)" fill="#3f51b5"/>
        <path id="Shape-7" data-name="Shape" d="M31.37,43.426a1.986,1.986,0,0,1-1.165-.378L18.951,34.931A11.957,11.957,0,0,1,14,25.26V8.214a1.086,1.086,0,0,1,.651-.994L30.936.091a1.086,1.086,0,0,1,.869,0L48.089,7.219a1.086,1.086,0,0,1,.651.994V25.259A11.957,11.957,0,0,1,43.79,34.93l-11.255,8.12A1.993,1.993,0,0,1,31.37,43.426Zm-15.2-34.5V25.26a9.781,9.781,0,0,0,4.049,7.91l11.15,8.041L42.52,33.17a9.781,9.781,0,0,0,4.049-7.91V8.924L31.37,2.271Z" transform="translate(1.18 -0.001)"/>
        <path id="Shape-8" data-name="Shape" d="M31.028,37.908a1.085,1.085,0,0,1-.635-.205l-9.244-6.668A7.6,7.6,0,0,1,18,24.886V10.68a1.086,1.086,0,0,1,.651-.994L30.593,4.457a1.086,1.086,0,0,1,.869,0L43.4,9.686a1.086,1.086,0,0,1,.651.994V24.886a7.6,7.6,0,0,1-3.148,6.149L31.663,37.7A1.085,1.085,0,0,1,31.028,37.908Zm-8.609-8.634,8.609,6.21,8.609-6.21a5.429,5.429,0,0,0,2.247-4.388v-13.5L31.028,6.637,20.171,11.389v13.5A5.429,5.429,0,0,0,22.419,29.274Z" transform="translate(1.523 0.373)"/>
        <path id="Shape-9" data-name="Shape" d="M26.054,52.034H15.542a1.086,1.086,0,0,1-.768-.318l-7.85-7.85a11.531,11.531,0,0,1-2.357-3.4L.312,31.1a3.461,3.461,0,0,1,6.333-2.8L8.993,33.8a4.994,4.994,0,0,1,5.933.314A21.475,21.475,0,0,0,21.141,38.1a7.817,7.817,0,0,1,3.618,2.639,11.375,11.375,0,0,1,2.38,7.106v3.106A1.086,1.086,0,0,1,26.054,52.034ZM15.991,49.863h8.977v-2.02a9.212,9.212,0,0,0-1.9-5.754,5.7,5.7,0,0,0-2.611-1.936,23.145,23.145,0,0,1-6.926-4.386,2.823,2.823,0,0,0-3.516-.059,10.708,10.708,0,0,0,1.339,1.628l4.959,4.96a1.086,1.086,0,1,1-1.535,1.535l-4.959-4.96a12.811,12.811,0,0,1-2.738-4.044L4.648,29.164a1.29,1.29,0,1,0-2.36,1.042l4.255,9.359a9.39,9.39,0,0,0,1.916,2.765Z" transform="translate(-0.017 2.247)"/>
        <path id="Shape-10" data-name="Shape" d="M26.113,61.028H14.171A2.171,2.171,0,0,1,12,58.856V50.171A2.171,2.171,0,0,1,14.171,48H26.113a2.171,2.171,0,0,1,2.171,2.171v8.685A2.171,2.171,0,0,1,26.113,61.028ZM14.171,50.171v8.685H26.113V50.171Z" transform="translate(1.009 4.11)"/>
        <path id="Shape-11" data-name="Shape" d="M22.171,55.171H21.086a1.086,1.086,0,1,1,0-2.171h1.086a1.086,1.086,0,1,1,0,2.171Z" transform="translate(1.694 4.539)"/>
        <path id="Shape-12" data-name="Shape" d="M46.6,52.038H36.086A1.086,1.086,0,0,1,35,50.953V47.847a11.375,11.375,0,0,1,2.38-7.111A7.817,7.817,0,0,1,41,38.1a21.475,21.475,0,0,0,6.215-3.989,5.007,5.007,0,0,1,5.94-.326L55.5,28.316a3.461,3.461,0,1,1,6.331,2.8l-4.255,9.359a11.53,11.53,0,0,1-2.357,3.4l-7.85,7.847A1.086,1.086,0,0,1,46.6,52.038Zm-9.427-2.171h8.977l7.532-7.532A9.389,9.389,0,0,0,55.6,39.57l4.255-9.359a1.29,1.29,0,1,0-2.36-1.043l-2.429,5.665a12.81,12.81,0,0,1-2.738,4.044l-4.959,4.96A1.086,1.086,0,0,1,45.83,42.3l4.959-4.96A10.645,10.645,0,0,0,52.135,35.7a2.823,2.823,0,0,0-3.523.068,23.135,23.135,0,0,1-6.928,4.386,5.707,5.707,0,0,0-2.606,1.936,9.212,9.212,0,0,0-1.907,5.755Z" transform="translate(2.979 2.243)"/>
        <path id="Shape-13" data-name="Shape" d="M47.113,61.028H35.171A2.171,2.171,0,0,1,33,58.856V50.171A2.171,2.171,0,0,1,35.171,48H47.113a2.171,2.171,0,0,1,2.171,2.171v8.685A2.171,2.171,0,0,1,47.113,61.028ZM35.171,50.171v8.685H47.113V50.171Z" transform="translate(2.807 4.11)"/>
        <path id="Shape-14" data-name="Shape" d="M39.171,55.171H38.086a1.086,1.086,0,0,1,0-2.171h1.086a1.086,1.086,0,1,1,0,2.171Z" transform="translate(3.15 4.539)"/>
        <path id="Shape-15" data-name="Shape" d="M28.428,27.2a1.086,1.086,0,0,1-.651-.217l-4.343-3.257a1.086,1.086,0,1,1,1.3-1.737l3.424,2.569L36.21,12.483a1.086,1.086,0,0,1,1.807,1.205L29.331,26.716a1.086,1.086,0,0,1-.72.468A1.167,1.167,0,0,1,28.428,27.2Z" transform="translate(1.951 1.027)"/>
      </g>
    </g>
  </g>
</svg>
