<svg xmlns="http://www.w3.org/2000/svg" xmlns:xlink="http://www.w3.org/1999/xlink" width="110" height="110" viewBox="0 0 110 110">
  <defs>
    <filter id="Trazado_982547" x="0" y="0" width="110" height="110" filterUnits="userSpaceOnUse">
      <feOffset dy="3" input="SourceAlpha"/>
      <feGaussianBlur stdDeviation="3" result="blur"/>
      <feFlood flood-opacity="0.161"/>
      <feComposite operator="in" in2="blur"/>
      <feComposite in="SourceGraphic"/>
    </filter>
  </defs>
  <g id="Grupo_1164039" data-name="Grupo 1164039" transform="translate(-4682 -979)">
    <g id="Grupo_1162179" data-name="Grupo 1162179" transform="translate(3989 -988)">
      <g id="Grupo_1160931" data-name="Grupo 1160931" transform="translate(0 -678)">
        <g id="Grupo_1160749" data-name="Grupo 1160749" transform="translate(0 315)">
          <g id="Grupo_1158891" data-name="Grupo 1158891" transform="translate(-423 -1476)">
            <g id="Grupo_1157406" data-name="Grupo 1157406" transform="translate(1 3016)">
              <g id="Grupo_1155793" data-name="Grupo 1155793" transform="translate(-0.999 -3894)">
                <g id="Grupo_1154704" data-name="Grupo 1154704" transform="translate(0 1466)">
                  <g id="Grupo_1150790" data-name="Grupo 1150790" transform="translate(3 2320)">
                    <g id="Grupo_1154214" data-name="Grupo 1154214" transform="translate(79 -5809)">
                      <g id="Grupo_1152583" data-name="Grupo 1152583" transform="translate(1043 6713)">
                        <g id="Grupo_1146973" data-name="Grupo 1146973" transform="translate(0 0)">
                          <g id="Grupo_1146954" data-name="Grupo 1146954">
                            <g transform="matrix(1, 0, 0, 1, -9, -6)" filter="url(#Trazado_982547)">
                              <g id="Trazado_982547-2" data-name="Trazado 982547" transform="translate(9 6)" fill="#fcebe9">
                                <path d="M 46 90.49987030029297 C 39.99187850952148 90.49987030029297 34.16426849365234 89.32350921630859 28.67905426025391 87.00345611572266 C 23.38019943237305 84.76224517822266 18.62104034423828 81.55341339111328 14.53374671936035 77.46613311767578 C 10.44646644592285 73.37885284423828 7.237639904022217 68.61969757080078 4.996413230895996 63.32085418701172 C 2.676359891891479 57.83565521240234 1.5 52.008056640625 1.5 45.99993515014648 C 1.5 39.99181365966797 2.676359891891479 34.16421508789062 4.996413230895996 28.67901420593262 C 7.237639904022217 23.38017463684082 10.44646644592285 18.62101554870605 14.53374671936035 14.53373527526855 C 18.62104034423828 10.44645500183105 23.38019943237305 7.23762845993042 28.67905426025391 4.996415138244629 C 34.16426849365234 2.676361799240112 39.99187850952148 1.500001788139343 46 1.500001788139343 C 52.00812149047852 1.500001788139343 57.83573150634766 2.676361799240112 63.32094573974609 4.996415138244629 C 68.61979675292969 7.23762845993042 73.37895965576172 10.44645500183105 77.46625518798828 14.53373527526855 C 81.55353546142578 18.62101554870605 84.76235961914062 23.38017463684082 87.00358581542969 28.67901420593262 C 89.32363891601562 34.16421508789062 90.5 39.99181365966797 90.5 45.99993515014648 C 90.5 52.008056640625 89.32363891601562 57.83565521240234 87.00358581542969 63.32085418701172 C 84.76235961914062 68.61969757080078 81.55353546142578 73.37885284423828 77.46625518798828 77.46613311767578 C 73.37895965576172 81.55341339111328 68.61979675292969 84.76224517822266 63.32094573974609 87.00345611572266 C 57.83573150634766 89.32350921630859 52.00812149047852 90.49987030029297 46 90.49987030029297 Z" stroke="none"/>
                                <path d="M 46 2.999992370605469 C 40.1937141418457 2.999992370605469 34.56269836425781 4.136489868164062 29.26337051391602 6.377906799316406 C 24.14332580566406 8.543502807617188 19.54441070556641 11.64437866210938 15.59439849853516 15.59437561035156 C 11.64440155029297 19.54439544677734 8.54351806640625 24.14329528808594 6.377914428710938 29.26333618164062 C 4.136497497558594 34.56264877319336 3 40.19366455078125 3 45.99993515014648 C 3 51.80620574951172 4.136497497558594 57.43720626831055 6.377914428710938 62.73651885986328 C 8.54351806640625 67.8565673828125 11.64440155029297 72.45545959472656 15.59439849853516 76.40547943115234 C 19.54441070556641 80.35547637939453 24.14332580566406 83.45635223388672 29.26337051391602 85.6219482421875 C 34.56269836425781 87.86336517333984 40.1937141418457 88.99986267089844 46 88.99986267089844 C 51.8062858581543 88.99986267089844 57.43730163574219 87.86336517333984 62.73661422729492 85.6219482421875 C 67.85667419433594 83.45635223388672 72.45557403564453 80.35547637939453 76.40558624267578 76.40547943115234 C 80.35559844970703 72.45545959472656 83.45647430419922 67.8565673828125 85.6220703125 62.73651885986328 C 87.86350250244141 57.43720626831055 89 51.80620574951172 89 45.99993515014648 C 89 40.19366455078125 87.86350250244141 34.56264877319336 85.6220703125 29.26333618164062 C 83.45647430419922 24.14329528808594 80.35559844970703 19.54439544677734 76.40558624267578 15.59437561035156 C 72.45557403564453 11.64437866210938 67.85667419433594 8.543502807617188 62.73661422729492 6.377906799316406 C 57.43730163574219 4.136489868164062 51.8062858581543 2.999992370605469 46 2.999992370605469 M 46 -7.62939453125e-06 C 71.40509033203125 -7.62939453125e-06 92 20.59486389160156 92 45.99993515014648 C 92 71.40499114990234 71.40509033203125 91.99986267089844 46 91.99986267089844 C 20.59490203857422 91.99986267089844 0 71.40499114990234 0 45.99993515014648 C 0 20.59486389160156 20.59490203857422 -7.62939453125e-06 46 -7.62939453125e-06 Z" stroke="none" fill="#e44b36"/>
                              </g>
                            </g>
                          </g>
                        </g>
                      </g>
                    </g>
                  </g>
                </g>
              </g>
            </g>
          </g>
        </g>
      </g>
    </g>
    <g id="seguro-medico" transform="translate(4707.001 1001)">
      <path id="Trazado_1016291" data-name="Trazado 1016291" d="M51.191,50.849V20.3L40.891,10H12.341A2.341,2.341,0,0,0,10,12.341V60.564a2.341,2.341,0,0,0,2.341,2.341H48.85a2.341,2.341,0,0,0,2.341-2.341Zm0,0" transform="translate(-8.83 -8.83)" fill="#fff"/>
      <path id="Trazado_1016292" data-name="Trazado 1016292" d="M284.218,20.3,273.918,10v8.12a2.18,2.18,0,0,0,2.18,2.18Zm0,0" transform="translate(-241.857 -8.83)" fill="#ffd89e"/>
      <path id="Trazado_1016293" data-name="Trazado 1016293" d="M291.109,238l13.11,4.093V253.04a16.148,16.148,0,0,1-13.109,15.86A16.149,16.149,0,0,1,278,253.04V242.093L291.11,238" transform="translate(-245.462 -210.143)" fill="#79b2ff"/>
      <path id="Trazado_1016294" data-name="Trazado 1016294" d="M318,282.537v7.5a11.483,11.483,0,0,0,8.427,11.057,11.483,11.483,0,0,0,8.427-11.057v-7.5l-8.427-2.631Zm0,0" transform="translate(-280.78 -247.144)" fill="#fff"/>
      <path id="Trazado_1016295" data-name="Trazado 1016295" d="M141.994,112.67h-4.682v-4.682h-5.618v4.682h-4.682v5.618h4.682v4.682h5.618v-4.682h4.682Zm0,0" transform="translate(-112.146 -95.348)" fill="#f5737f"/>
      <path id="Trazado_1016296" data-name="Trazado 1016296" d="M76.228,388.361a1.17,1.17,0,0,0,0-2.341H62.182a1.17,1.17,0,0,0,0,2.341Zm0,0" transform="translate(-53.871 -340.838)"/>
      <path id="Trazado_1016297" data-name="Trazado 1016297" d="M59.106,30.833,46.024,26.749a1.168,1.168,0,0,0-.376-.063h0a1.177,1.177,0,0,0-.375.062l-1.74.544V11.471a1.167,1.167,0,0,0-.343-.828L32.888.343A1.165,1.165,0,0,0,32.06,0H3.511A3.515,3.515,0,0,0,0,3.511V22.356a1.17,1.17,0,0,0,2.341,0V3.511a1.172,1.172,0,0,1,1.17-1.17H30.89v6.95a3.354,3.354,0,0,0,3.35,3.35h6.95V28.023l-9,2.81a1.171,1.171,0,0,0-.822,1.117v.118H8.311a1.17,1.17,0,1,0,0,2.341H31.368v4.216H8.311a1.17,1.17,0,0,0,0,2.341H31.368V42.9a17.271,17.271,0,0,0,3.193,10.008H3.511a1.172,1.172,0,0,1-1.17-1.17V32.89A1.17,1.17,0,1,0,0,32.89V51.735a3.515,3.515,0,0,0,3.511,3.511H36.552a17.266,17.266,0,0,0,8.875,4.661,1.165,1.165,0,0,0,.441,0A17.34,17.34,0,0,0,59.927,42.9V31.95a1.171,1.171,0,0,0-.822-1.117ZM34.24,10.3a1.01,1.01,0,0,1-1.009-1.01V4l6.3,6.3ZM57.586,42.9A15,15,0,0,1,45.648,57.564,15,15,0,0,1,33.709,42.9V32.811l11.939-3.728,11.939,3.728Zm0,0"/>
      <path id="Trazado_1016298" data-name="Trazado 1016298" d="M317.249,269.958l-8.427,2.631a1.17,1.17,0,0,0-.822,1.117v7.5a12.667,12.667,0,0,0,9.288,12.186,1.176,1.176,0,0,0,.62,0,12.667,12.667,0,0,0,9.288-12.185v-7.5a1.171,1.171,0,0,0-.822-1.117l-8.427-2.631A1.172,1.172,0,0,0,317.249,269.958Zm7.606,4.609v6.643a10.322,10.322,0,0,1-7.257,9.838,10.322,10.322,0,0,1-7.257-9.838v-6.643L317.6,272.3Zm0,0" transform="translate(-271.951 -238.313)"/>
      <path id="Trazado_1016299" data-name="Trazado 1016299" d="M350,339.94a1.17,1.17,0,0,0-1.655,1.655l2.7,2.7a1.17,1.17,0,0,0,1.655,0l4.794-4.794a1.171,1.171,0,0,0-1.656-1.656l-3.966,3.967Zm0,0" transform="translate(-307.268 -297.996)"/>
      <path id="Trazado_1016300" data-name="Trazado 1016300" d="M128.483,97.988h-5.618a1.171,1.171,0,0,0-1.17,1.17v3.511h-3.511a1.171,1.171,0,0,0-1.17,1.17v5.618a1.17,1.17,0,0,0,1.17,1.17h3.511v3.511a1.17,1.17,0,0,0,1.17,1.17h5.618a1.171,1.171,0,0,0,1.17-1.17v-3.511h3.511a1.171,1.171,0,0,0,1.17-1.17v-5.618a1.171,1.171,0,0,0-1.17-1.17h-3.511V99.159A1.171,1.171,0,0,0,128.483,97.988Zm3.511,7.023v3.277h-3.511a1.171,1.171,0,0,0-1.17,1.17v3.511h-3.277v-3.511a1.171,1.171,0,0,0-1.17-1.17h-3.511v-3.277h3.511a1.171,1.171,0,0,0,1.17-1.17v-3.511h3.277v3.511a1.17,1.17,0,0,0,1.17,1.17Zm0,0" transform="translate(-103.317 -86.519)"/>
      <path id="Trazado_1016301" data-name="Trazado 1016301" d="M1.17,228.341a1.17,1.17,0,1,0-.828-2,1.17,1.17,0,0,0,.828,2Zm0,0" transform="translate(-0.001 -199.547)"/>
    </g>
  </g>
</svg>
