<svg xmlns="http://www.w3.org/2000/svg" xmlns:xlink="http://www.w3.org/1999/xlink" width="110" height="110" viewBox="0 0 110 110">
  <defs>
    <filter id="Trazado_982547" x="0" y="0" width="110" height="110" filterUnits="userSpaceOnUse">
      <feOffset dy="3" input="SourceAlpha"/>
      <feGaussianBlur stdDeviation="3" result="blur"/>
      <feFlood flood-opacity="0.161"/>
      <feComposite operator="in" in2="blur"/>
      <feComposite in="SourceGraphic"/>
    </filter>
  </defs>
  <g id="Grupo_1163953" data-name="Grupo 1163953" transform="translate(-798 -2156)">
    <g id="Grupo_1161858" data-name="Grupo 1161858" transform="translate(807 2162)">
      <g id="Grupo_1160920" data-name="Grupo 1160920" transform="translate(0 0)">
        <g id="Grupo_1160748" data-name="Grupo 1160748">
          <g id="Grupo_1158890" data-name="Grupo 1158890" transform="translate(0 0)">
            <g id="Grupo_1157405" data-name="Grupo 1157405" transform="translate(0 0)">
              <g id="Grupo_1155792" data-name="Grupo 1155792">
                <g id="Grupo_1154703" data-name="Grupo 1154703">
                  <g id="Grupo_1150789" data-name="Grupo 1150789">
                    <g id="Grupo_1154212" data-name="Grupo 1154212">
                      <g id="Grupo_1152583" data-name="Grupo 1152583">
                        <g id="Grupo_1146973" data-name="Grupo 1146973">
                          <g id="Grupo_1146954" data-name="Grupo 1146954">
                            <g transform="matrix(1, 0, 0, 1, -9, -6)" filter="url(#Trazado_982547)">
                              <g id="Trazado_982547-2" data-name="Trazado 982547" transform="translate(9 6)" fill="#fcebe9">
                                <path d="M 46 90.49987030029297 C 39.99187850952148 90.49987030029297 34.16426849365234 89.32350921630859 28.67905426025391 87.00345611572266 C 23.38019943237305 84.76224517822266 18.62104034423828 81.55341339111328 14.53374671936035 77.46613311767578 C 10.44646644592285 73.37885284423828 7.237639904022217 68.61969757080078 4.996413230895996 63.32085418701172 C 2.676359891891479 57.83565521240234 1.5 52.008056640625 1.5 45.99993515014648 C 1.5 39.99181365966797 2.676359891891479 34.16421508789062 4.996413230895996 28.67901420593262 C 7.237639904022217 23.38017463684082 10.44646644592285 18.62101554870605 14.53374671936035 14.53373527526855 C 18.62104034423828 10.44645500183105 23.38019943237305 7.23762845993042 28.67905426025391 4.996415138244629 C 34.16426849365234 2.676361799240112 39.99187850952148 1.500001788139343 46 1.500001788139343 C 52.00812149047852 1.500001788139343 57.83573150634766 2.676361799240112 63.32094573974609 4.996415138244629 C 68.61979675292969 7.23762845993042 73.37895965576172 10.44645500183105 77.46625518798828 14.53373527526855 C 81.55353546142578 18.62101554870605 84.76235961914062 23.38017463684082 87.00358581542969 28.67901420593262 C 89.32363891601562 34.16421508789062 90.5 39.99181365966797 90.5 45.99993515014648 C 90.5 52.008056640625 89.32363891601562 57.83565521240234 87.00358581542969 63.32085418701172 C 84.76235961914062 68.61969757080078 81.55353546142578 73.37885284423828 77.46625518798828 77.46613311767578 C 73.37895965576172 81.55341339111328 68.61979675292969 84.76224517822266 63.32094573974609 87.00345611572266 C 57.83573150634766 89.32350921630859 52.00812149047852 90.49987030029297 46 90.49987030029297 Z" stroke="none"/>
                                <path d="M 46 2.999992370605469 C 40.1937141418457 2.999992370605469 34.56269836425781 4.136489868164062 29.26337051391602 6.377906799316406 C 24.14332580566406 8.543502807617188 19.54441070556641 11.64437866210938 15.59439849853516 15.59437561035156 C 11.64440155029297 19.54439544677734 8.54351806640625 24.14329528808594 6.377914428710938 29.26333618164062 C 4.136497497558594 34.56264877319336 3 40.19366455078125 3 45.99993515014648 C 3 51.80620574951172 4.136497497558594 57.43720626831055 6.377914428710938 62.73651885986328 C 8.54351806640625 67.8565673828125 11.64440155029297 72.45545959472656 15.59439849853516 76.40547943115234 C 19.54441070556641 80.35547637939453 24.14332580566406 83.45635223388672 29.26337051391602 85.6219482421875 C 34.56269836425781 87.86336517333984 40.1937141418457 88.99986267089844 46 88.99986267089844 C 51.8062858581543 88.99986267089844 57.43730163574219 87.86336517333984 62.73661422729492 85.6219482421875 C 67.85667419433594 83.45635223388672 72.45557403564453 80.35547637939453 76.40558624267578 76.40547943115234 C 80.35559844970703 72.45545959472656 83.45647430419922 67.8565673828125 85.6220703125 62.73651885986328 C 87.86350250244141 57.43720626831055 89 51.80620574951172 89 45.99993515014648 C 89 40.19366455078125 87.86350250244141 34.56264877319336 85.6220703125 29.26333618164062 C 83.45647430419922 24.14329528808594 80.35559844970703 19.54439544677734 76.40558624267578 15.59437561035156 C 72.45557403564453 11.64437866210938 67.85667419433594 8.543502807617188 62.73661422729492 6.377906799316406 C 57.43730163574219 4.136489868164062 51.8062858581543 2.999992370605469 46 2.999992370605469 M 46 -7.62939453125e-06 C 71.40509033203125 -7.62939453125e-06 92 20.59486389160156 92 45.99993515014648 C 92 71.40499114990234 71.40509033203125 91.99986267089844 46 91.99986267089844 C 20.59490203857422 91.99986267089844 0 71.40499114990234 0 45.99993515014648 C 0 20.59486389160156 20.59490203857422 -7.62939453125e-06 46 -7.62939453125e-06 Z" stroke="none" fill="#e44b36"/>
                              </g>
                            </g>
                          </g>
                        </g>
                      </g>
                    </g>
                  </g>
                </g>
              </g>
            </g>
          </g>
        </g>
      </g>
    </g>
    <g id="casco_3_" data-name="casco (3)" transform="translate(820 2145.692)">
      <g id="Grupo_1163952" data-name="Grupo 1163952" transform="translate(1.996 35.305)">
        <g id="Grupo_1163950" data-name="Grupo 1163950" transform="translate(0 0)">
          <path id="Trazado_1016036" data-name="Trazado 1016036" d="M32.8,101.246v-3.9a24.8,24.8,0,0,1,49.593,0v3.9Z" transform="translate(-29.838 -68.78)" fill="#ffda2d" fill-rule="evenodd"/>
          <path id="Trazado_1016037" data-name="Trazado 1016037" d="M220.718,72.586c.46-.026.923-.04,1.39-.04a24.869,24.869,0,0,1,24.8,24.8v3.9h-2.779v-3.9A24.876,24.876,0,0,0,220.718,72.586Z" transform="translate(-194.346 -68.78)" fill="#ffc700" fill-rule="evenodd"/>
          <path id="Trazado_1016038" data-name="Trazado 1016038" d="M205.28,75.6l-8.823-.507V44.9a2.6,2.6,0,0,1,2.594-2.594h3.635A2.6,2.6,0,0,1,205.28,44.9Z" transform="translate(-173.107 -42.308)" fill="#ffc700" fill-rule="evenodd"/>
          <path id="Trazado_1016039" data-name="Trazado 1016039" d="M231.937,75.6l-2.436-.14V44.9a2.6,2.6,0,0,0-2.594-2.594h2.436a2.6,2.6,0,0,1,2.594,2.594Z" transform="translate(-199.764 -42.308)" fill="#fdb800" fill-rule="evenodd"/>
          <path id="Trazado_1016040" data-name="Trazado 1016040" d="M12.019,285.037H61.5a3.028,3.028,0,0,1,3.019,3.019v1.078a3.028,3.028,0,0,1-3.019,3.019H12.019A3.028,3.028,0,0,1,9,289.134v-1.078a3.027,3.027,0,0,1,3.019-3.019Z" transform="translate(-9 -254.802)" fill="#ffda2d" fill-rule="evenodd"/>
          <path id="Trazado_1016041" data-name="Trazado 1016041" d="M64.424,289.9a3,3,0,0,0,.1-.762v-1.078a3.028,3.028,0,0,0-3.019-3.019H12.018A3.028,3.028,0,0,0,9,288.056v1.078a2.994,2.994,0,0,0,.1.762,3.031,3.031,0,0,1,2.921-2.257H61.5A3.031,3.031,0,0,1,64.424,289.9Z" transform="translate(-8.999 -254.802)" fill="#ffc700" fill-rule="evenodd"/>
        </g>
        <g id="Grupo_1163951" data-name="Grupo 1163951" transform="translate(37.477 24.815)">
          <path id="Trazado_1016042" data-name="Trazado 1016042" d="M333.927,245.581c-9.1-5.4-14.952-5.4-24.056,0v10.381a10.05,10.05,0,0,0,4.338,8.46l7.69,5.527,7.69-5.527a10.051,10.051,0,0,0,4.338-8.46Z" transform="translate(-309.871 -241.53)" fill="#72d561" fill-rule="evenodd"/>
          <path id="Trazado_1016043" data-name="Trazado 1016043" d="M364.408,266.642q-.957-.568-1.867-1.055v10.094a10.05,10.05,0,0,1-4.338,8.46l-7.69,5.527-5.824-4.186h0l7.69,5.527,7.69-5.527a10.051,10.051,0,0,0,4.338-8.46Z" transform="translate(-340.352 -262.59)" fill="#3cbe52" fill-rule="evenodd"/>
          <path id="Trazado_1016044" data-name="Trazado 1016044" d="M357.114,274.908c-6.135-3.259-10.228-3.259-16.363,0v8.136a6.214,6.214,0,0,0,2.736,5.337l5.445,3.914,5.445-3.914a6.215,6.215,0,0,0,2.736-5.337Z" transform="translate(-336.905 -268.611)" fill="#3cbe52" fill-rule="evenodd"/>
          <path id="Trazado_1016045" data-name="Trazado 1016045" d="M342.369,285.627q-.787.362-1.618.8v8.136a6.214,6.214,0,0,0,2.736,5.337l5.445,3.914,1.618-1.163-5.445-3.914a6.214,6.214,0,0,1-2.736-5.337Z" transform="translate(-336.905 -280.134)" fill="#30aa44" fill-rule="evenodd"/>
        </g>
      </g>
      <path id="Trazado_1016046" data-name="Trazado 1016046" d="M46.9,73.368a1,1,0,0,1,1.392-1.427l2.09,2.038L54.7,69.618a1,1,0,0,1,1.416,1.4L51.1,76.084a1,1,0,0,1-1.4.012Zm11.788-6.346c-5.367-2.735-9-2.735-14.371,0v7.531a5.248,5.248,0,0,0,2.322,4.528l4.863,3.5,4.864-3.5a5.247,5.247,0,0,0,2.321-4.528ZM42.853,65.537a.993.993,0,0,0-.529.879v8.137A7.206,7.206,0,0,0,45.474,80.7l5.446,3.914a1,1,0,0,0,1.162,0L57.528,80.7a7.206,7.206,0,0,0,3.151-6.145V66.416a.994.994,0,0,0-.529-.879,18.158,18.158,0,0,0-8.648-2.56h0A18.156,18.156,0,0,0,42.853,65.537Zm19.68,9.016V64.742c-8.38-4.856-13.684-4.856-22.063,0v9.811a9.087,9.087,0,0,0,3.923,7.65l7.11,5.109L58.61,82.2a9.085,9.085,0,0,0,3.923-7.65Zm-57.517-2.9a2.024,2.024,0,0,1-2.023-2.022V68.558a2.024,2.024,0,0,1,2.023-2.022h33.46v5.121H5.016ZM16.2,44.31l1.011,15.153a1,1,0,0,0,.994.93l.067,0a1,1,0,0,0,.928-1.06l-1.084-16.22a23.8,23.8,0,0,1,6.238-2.418V64.542H5.958v-.675A23.785,23.785,0,0,1,16.2,44.31ZM27.94,36.3h3.637a1.6,1.6,0,0,1,1.6,1.6V64.543h-6.83V37.9a1.6,1.6,0,0,1,1.6-1.6ZM41.4,43.109,40.32,59.33a1,1,0,0,0,.929,1.06l.067,0a1,1,0,0,0,.993-.93l1.013-15.155A23.763,23.763,0,0,1,53.1,59.2q-.8-.077-1.593-.077c-3.785,0-7.652,1.293-12.537,4.191a1,1,0,0,0-.488.857v.371H35.166V40.692A23.836,23.836,0,0,1,41.4,43.109ZM64.038,63.314a30.164,30.164,0,0,0-8.855-3.785A25.929,25.929,0,0,0,35.166,38.65V37.9a3.594,3.594,0,0,0-3.59-3.591H27.94A3.594,3.594,0,0,0,24.35,37.9v.752A25.889,25.889,0,0,0,3.965,63.868v.815A4.022,4.022,0,0,0,1,68.558v1.077a4.02,4.02,0,0,0,4.016,4.015h33.46v.9a11.007,11.007,0,0,0,4.753,9.269l7.691,5.528a1,1,0,0,0,1.162,0l7.69-5.528a11.007,11.007,0,0,0,4.753-9.269V64.171a1,1,0,0,0-.488-.857Z" fill-rule="evenodd"/>
    </g>
  </g>
</svg>
