<svg xmlns="http://www.w3.org/2000/svg" xmlns:xlink="http://www.w3.org/1999/xlink" width="110" height="110" viewBox="0 0 110 110">
  <defs>
    <filter id="Trazado_982547" x="0" y="0" width="110" height="110" filterUnits="userSpaceOnUse">
      <feOffset dy="3" input="SourceAlpha"/>
      <feGaussianBlur stdDeviation="3" result="blur"/>
      <feFlood flood-opacity="0.161"/>
      <feComposite operator="in" in2="blur"/>
      <feComposite in="SourceGraphic"/>
    </filter>
  </defs>
  <g id="Grupo_1163955" data-name="Grupo 1163955" transform="translate(-1113 -2157)">
    <g id="Grupo_1161859" data-name="Grupo 1161859" transform="translate(1122 2163)">
      <g id="Grupo_1160931" data-name="Grupo 1160931" transform="translate(0 0)">
        <g id="Grupo_1160749" data-name="Grupo 1160749">
          <g id="Grupo_1158891" data-name="Grupo 1158891" transform="translate(0 0)">
            <g id="Grupo_1157406" data-name="Grupo 1157406" transform="translate(0 0)">
              <g id="Grupo_1155793" data-name="Grupo 1155793">
                <g id="Grupo_1154704" data-name="Grupo 1154704">
                  <g id="Grupo_1150790" data-name="Grupo 1150790">
                    <g id="Grupo_1154214" data-name="Grupo 1154214">
                      <g id="Grupo_1152583" data-name="Grupo 1152583">
                        <g id="Grupo_1146973" data-name="Grupo 1146973">
                          <g id="Grupo_1146954" data-name="Grupo 1146954">
                            <g transform="matrix(1, 0, 0, 1, -9, -6)" filter="url(#Trazado_982547)">
                              <g id="Trazado_982547-2" data-name="Trazado 982547" transform="translate(9 6)" fill="#fcebe9">
                                <path d="M 46 90.49987030029297 C 39.99187850952148 90.49987030029297 34.16426849365234 89.32350921630859 28.67905426025391 87.00345611572266 C 23.38019943237305 84.76224517822266 18.62104034423828 81.55341339111328 14.53374671936035 77.46613311767578 C 10.44646644592285 73.37885284423828 7.237639904022217 68.61969757080078 4.996413230895996 63.32085418701172 C 2.676359891891479 57.83565521240234 1.5 52.008056640625 1.5 45.99993515014648 C 1.5 39.99181365966797 2.676359891891479 34.16421508789062 4.996413230895996 28.67901420593262 C 7.237639904022217 23.38017463684082 10.44646644592285 18.62101554870605 14.53374671936035 14.53373527526855 C 18.62104034423828 10.44645500183105 23.38019943237305 7.23762845993042 28.67905426025391 4.996415138244629 C 34.16426849365234 2.676361799240112 39.99187850952148 1.500001788139343 46 1.500001788139343 C 52.00812149047852 1.500001788139343 57.83573150634766 2.676361799240112 63.32094573974609 4.996415138244629 C 68.61979675292969 7.23762845993042 73.37895965576172 10.44645500183105 77.46625518798828 14.53373527526855 C 81.55353546142578 18.62101554870605 84.76235961914062 23.38017463684082 87.00358581542969 28.67901420593262 C 89.32363891601562 34.16421508789062 90.5 39.99181365966797 90.5 45.99993515014648 C 90.5 52.008056640625 89.32363891601562 57.83565521240234 87.00358581542969 63.32085418701172 C 84.76235961914062 68.61969757080078 81.55353546142578 73.37885284423828 77.46625518798828 77.46613311767578 C 73.37895965576172 81.55341339111328 68.61979675292969 84.76224517822266 63.32094573974609 87.00345611572266 C 57.83573150634766 89.32350921630859 52.00812149047852 90.49987030029297 46 90.49987030029297 Z" stroke="none"/>
                                <path d="M 46 2.999992370605469 C 40.1937141418457 2.999992370605469 34.56269836425781 4.136489868164062 29.26337051391602 6.377906799316406 C 24.14332580566406 8.543502807617188 19.54441070556641 11.64437866210938 15.59439849853516 15.59437561035156 C 11.64440155029297 19.54439544677734 8.54351806640625 24.14329528808594 6.377914428710938 29.26333618164062 C 4.136497497558594 34.56264877319336 3 40.19366455078125 3 45.99993515014648 C 3 51.80620574951172 4.136497497558594 57.43720626831055 6.377914428710938 62.73651885986328 C 8.54351806640625 67.8565673828125 11.64440155029297 72.45545959472656 15.59439849853516 76.40547943115234 C 19.54441070556641 80.35547637939453 24.14332580566406 83.45635223388672 29.26337051391602 85.6219482421875 C 34.56269836425781 87.86336517333984 40.1937141418457 88.99986267089844 46 88.99986267089844 C 51.8062858581543 88.99986267089844 57.43730163574219 87.86336517333984 62.73661422729492 85.6219482421875 C 67.85667419433594 83.45635223388672 72.45557403564453 80.35547637939453 76.40558624267578 76.40547943115234 C 80.35559844970703 72.45545959472656 83.45647430419922 67.8565673828125 85.6220703125 62.73651885986328 C 87.86350250244141 57.43720626831055 89 51.80620574951172 89 45.99993515014648 C 89 40.19366455078125 87.86350250244141 34.56264877319336 85.6220703125 29.26333618164062 C 83.45647430419922 24.14329528808594 80.35559844970703 19.54439544677734 76.40558624267578 15.59437561035156 C 72.45557403564453 11.64437866210938 67.85667419433594 8.543502807617188 62.73661422729492 6.377906799316406 C 57.43730163574219 4.136489868164062 51.8062858581543 2.999992370605469 46 2.999992370605469 M 46 -7.62939453125e-06 C 71.40509033203125 -7.62939453125e-06 92 20.59486389160156 92 45.99993515014648 C 92 71.40499114990234 71.40509033203125 91.99986267089844 46 91.99986267089844 C 20.59490203857422 91.99986267089844 0 71.40499114990234 0 45.99993515014648 C 0 20.59486389160156 20.59490203857422 -7.62939453125e-06 46 -7.62939453125e-06 Z" stroke="none" fill="#e44b36"/>
                              </g>
                            </g>
                          </g>
                        </g>
                      </g>
                    </g>
                  </g>
                </g>
              </g>
            </g>
          </g>
        </g>
      </g>
    </g>
    <g id="cumplimiento-normativo" transform="translate(1091.93 2164)">
      <g id="Grupo_1163954" data-name="Grupo 1163954" transform="translate(51.07 16)">
        <path id="Trazado_1016047" data-name="Trazado 1016047" d="M84.743,71.031H53.869a2.805,2.805,0,0,1-2.8-2.8V18.8a2.805,2.805,0,0,1,2.8-2.8H92.095a2.805,2.805,0,0,1,2.8,2.8V46.506a1.829,1.829,0,0,1,.2.084,2.646,2.646,0,0,1,1.084,1.188,2.281,2.281,0,0,0,.387.55,2.249,2.249,0,0,0,.618.257A2.174,2.174,0,0,1,99.044,50.9a2.32,2.32,0,0,0,.119.67,2.411,2.411,0,0,0,.456.505,2.707,2.707,0,0,1,.928,1.345,2.769,2.769,0,0,1-.224,1.617,1.487,1.487,0,0,0,0,1.446,2.771,2.771,0,0,1,.224,1.617,2.706,2.706,0,0,1-.928,1.345,2.414,2.414,0,0,0-.456.506,2.32,2.32,0,0,0-.119.67,2.174,2.174,0,0,1-1.862,2.318,2.249,2.249,0,0,0-.618.257.692.692,0,0,0-.1.106v9.925a.772.772,0,0,1-1.219.629L90.6,71.182,85.9,73.9a.769.769,0,0,1-1.152-.666h0Z" transform="translate(-51.07 -16)" fill="#121209" fill-rule="evenodd"/>
        <path id="Trazado_1016048" data-name="Trazado 1016048" d="M320.357,274.16c-.023,0-.047,0-.071,0h-.018c-.128.007-.276.026-.425.044a3.413,3.413,0,0,1-1.243,0,3.488,3.488,0,0,1-1.1-.536.934.934,0,0,0-1.468,0,3.5,3.5,0,0,1-1.1.536,3.413,3.413,0,0,1-1.243,0,1.855,1.855,0,0,0-.738-.015,1.791,1.791,0,0,0-.432.585,2.6,2.6,0,0,1-1.868,1.494,1.728,1.728,0,0,0-.653.29,1.747,1.747,0,0,0-.142.7,2.658,2.658,0,0,1-1.045,2.153,1.789,1.789,0,0,0-.488.579.964.964,0,0,0,.066.431.794.794,0,0,1,.028.087c.025.077.054.157.082.237a2.885,2.885,0,0,1,0,2.471,1.928,1.928,0,0,0-.177.748c0,.014.009.028.013.043a2.16,2.16,0,0,0,.476.543,2.658,2.658,0,0,1,1.045,2.153.779.779,0,0,0,.794.992,3.291,3.291,0,0,1,1.119.522,2.493,2.493,0,0,1,.523.6.782.782,0,0,1,.072.113c.053.085.1.172.154.259a1.775,1.775,0,0,0,.432.585,1.836,1.836,0,0,0,.738-.015,3.414,3.414,0,0,1,1.243,0,3.49,3.49,0,0,1,1.1.537.934.934,0,0,0,1.468,0,3.5,3.5,0,0,1,1.1-.537,3.414,3.414,0,0,1,1.243,0,1.851,1.851,0,0,0,.738.015,1.789,1.789,0,0,0,.432-.585c.051-.087.1-.173.154-.259a.776.776,0,0,1,.072-.113,2.489,2.489,0,0,1,.523-.6,3.29,3.29,0,0,1,1.118-.522.779.779,0,0,0,.795-.992,2.658,2.658,0,0,1,1.045-2.153,1.788,1.788,0,0,0,.488-.579,1.86,1.86,0,0,0-.176-.754,2.885,2.885,0,0,1,0-2.471,1.865,1.865,0,0,0,.176-.754,1.789,1.789,0,0,0-.488-.579,2.658,2.658,0,0,1-1.045-2.153.779.779,0,0,0-.795-.992,2.6,2.6,0,0,1-1.868-1.494,1.776,1.776,0,0,0-.432-.585.539.539,0,0,0-.224-.032Zm-.539,4.773a4.316,4.316,0,1,1-3.051-1.264A4.316,4.316,0,0,1,319.818,278.933Zm-6.245,3.771a.771.771,0,1,1,.953-1.212l1.641,1.29,2.734-3.159a.77.77,0,0,1,1.164,1.007l-3.187,3.681,0,.006a.771.771,0,0,1-1.082.13Zm3.193-6.579a5.859,5.859,0,1,1-4.143,1.716,5.859,5.859,0,0,1,4.143-1.716Z" transform="translate(-277.234 -242.221)" fill="#f8ae22" fill-rule="evenodd"/>
        <path id="Trazado_1016049" data-name="Trazado 1016049" d="M126.669,82.544V60.159A3.145,3.145,0,0,1,124.41,57.9H95.23a3.145,3.145,0,0,1-2.259,2.259v40.388A3.145,3.145,0,0,1,95.23,102.8h26.352v-2.664a.687.687,0,0,0-.1-.106,2.249,2.249,0,0,0-.618-.257A2.174,2.174,0,0,1,119,97.46a2.32,2.32,0,0,0-.119-.67,2.414,2.414,0,0,0-.456-.506,4.527,4.527,0,0,1-.627-.681H98.214a.772.772,0,0,1,0-1.544H117.5a5.7,5.7,0,0,1,.224-.736,2.573,2.573,0,0,0,.188-.723,1.772,1.772,0,0,0-.113-.508H98.214a.772.772,0,1,1,0-1.544h19.239a1.85,1.85,0,0,1,.044-.288,2.708,2.708,0,0,1,.928-1.345,2.41,2.41,0,0,0,.456-.505,2.32,2.32,0,0,0,.119-.67,2.174,2.174,0,0,1,1.862-2.318,2.25,2.25,0,0,0,.618-.257,2.28,2.28,0,0,0,.387-.55,2.2,2.2,0,0,1,2.684-1.323,2.439,2.439,0,0,0,.706.029,2.5,2.5,0,0,0,.618-.332,4.949,4.949,0,0,1,.794-.445ZM98.784,64.481a.772.772,0,0,1,.679-.4h9.585v-1.05a.772.772,0,1,1,1.544,0v1.05h9.585a.772.772,0,0,1,.679.4l3.537,5.665a.768.768,0,0,1,.143.447,4.358,4.358,0,1,1-8.717,0,.768.768,0,0,1,.143-.447l2.825-4.526h-8.194v6.6h.728a.772.772,0,0,1,.772.772v6.122h1.99a.772.772,0,0,1,.772.772V82.11h1.236a.772.772,0,0,1,.772.772v3a.772.772,0,0,1-.772.772H103.551a.772.772,0,0,1-.772-.772v-3a.772.772,0,0,1,.772-.772h1.236V79.883a.772.772,0,0,1,.772-.772h1.99V72.989a.772.772,0,0,1,.772-.772h.728v-6.6h-8.2l2.826,4.526a.768.768,0,0,1,.143.447,4.358,4.358,0,1,1-8.717,0,.768.768,0,0,1,.143-.447Z" transform="translate(-87.908 -52.837)" fill="#e6e4e5" fill-rule="evenodd"/>
        <path id="Trazado_1016050" data-name="Trazado 1016050" d="M168.652,82.544V60.159a3.145,3.145,0,0,1-2.259-2.259H141.676a38.766,38.766,0,0,0-.952,6.65l.043-.069a.772.772,0,0,1,.679-.4h9.585v-1.05a.772.772,0,1,1,1.544,0v1.05h9.585a.772.772,0,0,1,.679.4l3.537,5.665a.768.768,0,0,1,.143.447,4.358,4.358,0,1,1-8.717,0,.768.768,0,0,1,.143-.447l2.825-4.526h-8.194v6.6h.728a.772.772,0,0,1,.772.772v6.122h1.99a.772.772,0,0,1,.772.772V82.11h1.236a.772.772,0,0,1,.772.772v3a.772.772,0,0,1-.772.772H146.161a38.839,38.839,0,0,0,2.672,3.9h10.6a1.854,1.854,0,0,1,.044-.288,2.708,2.708,0,0,1,.928-1.345,2.411,2.411,0,0,0,.456-.505,2.32,2.32,0,0,0,.119-.67,2.174,2.174,0,0,1,1.862-2.318,2.249,2.249,0,0,0,.618-.257,2.279,2.279,0,0,0,.387-.55,2.2,2.2,0,0,1,2.684-1.323,2.44,2.44,0,0,0,.706.029,2.5,2.5,0,0,0,.618-.332,4.948,4.948,0,0,1,.794-.445Zm-5.087,19.575v-1.977a.688.688,0,0,0-.1-.106,2.249,2.249,0,0,0-.618-.257,2.174,2.174,0,0,1-1.862-2.318,2.321,2.321,0,0,0-.119-.67,2.413,2.413,0,0,0-.456-.506,4.527,4.527,0,0,1-.627-.681h-6.23a38.8,38.8,0,0,0,10.013,6.516Zm-11.64-8.06h7.556a5.707,5.707,0,0,1,.224-.736,2.572,2.572,0,0,0,.188-.723,1.773,1.773,0,0,0-.113-.508H150.1q.878,1.015,1.826,1.967Zm-7.163-9.95a38.49,38.49,0,0,1-3.227-9.157,4.359,4.359,0,0,0,4.27-4.358.769.769,0,0,0-.143-.447l-2.826-4.527h8.195v6.6H150.3a.772.772,0,0,0-.772.772v6.122h-1.99a.772.772,0,0,0-.772.772V82.11h-1.236a.772.772,0,0,0-.772.772Z" transform="translate(-129.891 -52.837)" fill="#fff" fill-rule="evenodd"/>
        <path id="Trazado_1016051" data-name="Trazado 1016051" d="M95.976,78.744H68.949a.772.772,0,0,1-.772-.772,1.59,1.59,0,0,0-1.584-1.585.772.772,0,0,1-.772-.772V33.879a.772.772,0,0,1,.772-.772,1.59,1.59,0,0,0,1.584-1.583.772.772,0,0,1,.772-.772H99.48a.772.772,0,0,1,.772.772,1.59,1.59,0,0,0,1.583,1.583.772.772,0,0,1,.772.772v23.06a4.954,4.954,0,0,1,.794.445,2.5,2.5,0,0,0,.618.332,1.884,1.884,0,0,0,.564-.012V30.031a1.261,1.261,0,0,0-1.255-1.255H65.1a1.261,1.261,0,0,0-1.255,1.255V79.464A1.261,1.261,0,0,0,65.1,80.719H95.976Z" transform="translate(-62.302 -27.232)" fill="#6ca5da" fill-rule="evenodd"/>
        <path id="Trazado_1016052" data-name="Trazado 1016052" d="M151.871,30.752h25a.772.772,0,0,1,.772.772,1.59,1.59,0,0,0,1.583,1.583.772.772,0,0,1,.772.772V56.939a4.954,4.954,0,0,1,.794.445,2.5,2.5,0,0,0,.618.332,1.884,1.884,0,0,0,.564-.012V30.031a1.261,1.261,0,0,0-1.255-1.255H152.475q-.328.976-.6,1.976Z" transform="translate(-139.691 -27.232)" fill="#80b6e3" fill-rule="evenodd"/>
        <path id="Trazado_1016053" data-name="Trazado 1016053" d="M342.517,423.327v5.16l3.922-2.262a.769.769,0,0,1,.776-.006l3.932,2.268V421.6a2.917,2.917,0,0,1-1.426.06,2.441,2.441,0,0,0-.706-.029,2.5,2.5,0,0,0-.618.331,2.332,2.332,0,0,1-3.132,0,2.5,2.5,0,0,0-.618-.331,2.441,2.441,0,0,0-.706.029,2.92,2.92,0,0,1-1.426-.06Z" transform="translate(-307.299 -372.589)" fill="#4276ba" fill-rule="evenodd"/>
        <path id="Trazado_1016054" data-name="Trazado 1016054" d="M351.147,424.836V421.6a2.917,2.917,0,0,1-1.426.06,2.436,2.436,0,0,0-.706-.029,2.5,2.5,0,0,0-.618.331,2.332,2.332,0,0,1-3.132,0,2.5,2.5,0,0,0-.618-.331,2.436,2.436,0,0,0-.706.029,2.92,2.92,0,0,1-1.426-.06v.924A38.486,38.486,0,0,0,351.147,424.836Z" transform="translate(-307.299 -372.589)" fill="#5284c3" fill-rule="evenodd"/>
        <path id="Trazado_1016055" data-name="Trazado 1016055" d="M304.334,130.966l-2.2-3.518-2.2,3.518Z" transform="translate(-269.869 -113.981)" fill="#fff" fill-rule="evenodd"/>
        <path id="Trazado_1016056" data-name="Trazado 1016056" d="M132.916,130.966l-2.2-3.518-2.2,3.518Z" transform="translate(-119.164 -113.981)" fill="#fff" fill-rule="evenodd"/>
        <path id="Trazado_1016057" data-name="Trazado 1016057" d="M298.418,169.342H295.71a2.815,2.815,0,0,0,5.415,0Z" transform="translate(-266.149 -150.813)" fill="#f4b664" fill-rule="evenodd"/>
        <path id="Trazado_1016058" data-name="Trazado 1016058" d="M127,169.342h-2.708a2.815,2.815,0,0,0,5.415,0Z" transform="translate(-115.445 -150.813)" fill="#e3a244" fill-rule="evenodd"/>
        <path id="Trazado_1016059" data-name="Trazado 1016059" d="M142.991,169.342h-.51q.122,1.026.3,2.035.106.008.214.008a2.816,2.816,0,0,0,2.707-2.042Z" transform="translate(-131.435 -150.813)" fill="#f4b664" fill-rule="evenodd"/>
        <path id="Trazado_1016060" data-name="Trazado 1016060" d="M203.534,247.666h6.978v-1.455h-6.978Z" transform="translate(-185.111 -218.393)" fill="#f4b664" fill-rule="evenodd"/>
        <path id="Trazado_1016061" data-name="Trazado 1016061" d="M197.912,272.485V271.03H186.918v1.455Z" transform="translate(-170.503 -240.214)" fill="#f4b664" fill-rule="evenodd"/>
      </g>
      <path id="Trazado_1016062" data-name="Trazado 1016062" d="M226.387,189.157h1.455v5.35h-1.455Z" transform="translate(-154.133 -152.234)" fill="#f4b664"/>
    </g>
  </g>
</svg>
