<svg xmlns="http://www.w3.org/2000/svg" xmlns:xlink="http://www.w3.org/1999/xlink" width="110" height="110" viewBox="0 0 110 110">
  <defs>
    <filter id="Trazado_982547" x="0" y="0" width="110" height="110" filterUnits="userSpaceOnUse">
      <feOffset dy="3" input="SourceAlpha"/>
      <feGaussianBlur stdDeviation="3" result="blur"/>
      <feFlood flood-opacity="0.161"/>
      <feComposite operator="in" in2="blur"/>
      <feComposite in="SourceGraphic"/>
    </filter>
  </defs>
  <g id="Grupo_1163962" data-name="Grupo 1163962" transform="translate(1247 -1976)">
    <g id="Grupo_1161860" data-name="Grupo 1161860" transform="translate(-1238 1982)">
      <g id="Grupo_1160920" data-name="Grupo 1160920" transform="translate(0 0)">
        <g id="Grupo_1160748" data-name="Grupo 1160748">
          <g id="Grupo_1158890" data-name="Grupo 1158890" transform="translate(0 0)">
            <g id="Grupo_1157405" data-name="Grupo 1157405" transform="translate(0 0)">
              <g id="Grupo_1155792" data-name="Grupo 1155792">
                <g id="Grupo_1154703" data-name="Grupo 1154703">
                  <g id="Grupo_1150789" data-name="Grupo 1150789">
                    <g id="Grupo_1154212" data-name="Grupo 1154212">
                      <g id="Grupo_1152583" data-name="Grupo 1152583">
                        <g id="Grupo_1146973" data-name="Grupo 1146973">
                          <g id="Grupo_1146954" data-name="Grupo 1146954">
                            <g transform="matrix(1, 0, 0, 1, -9, -6)" filter="url(#Trazado_982547)">
                              <g id="Trazado_982547-2" data-name="Trazado 982547" transform="translate(9 6)" fill="#fcebe9">
                                <path d="M 46 90.49987030029297 C 39.99187850952148 90.49987030029297 34.16426849365234 89.32350921630859 28.67905426025391 87.00345611572266 C 23.38019943237305 84.76224517822266 18.62104034423828 81.55341339111328 14.53374671936035 77.46613311767578 C 10.44646644592285 73.37885284423828 7.237639904022217 68.61969757080078 4.996413230895996 63.32085418701172 C 2.676359891891479 57.83565521240234 1.5 52.008056640625 1.5 45.99993515014648 C 1.5 39.99181365966797 2.676359891891479 34.16421508789062 4.996413230895996 28.67901420593262 C 7.237639904022217 23.38017463684082 10.44646644592285 18.62101554870605 14.53374671936035 14.53373527526855 C 18.62104034423828 10.44645500183105 23.38019943237305 7.23762845993042 28.67905426025391 4.996415138244629 C 34.16426849365234 2.676361799240112 39.99187850952148 1.500001788139343 46 1.500001788139343 C 52.00812149047852 1.500001788139343 57.83573150634766 2.676361799240112 63.32094573974609 4.996415138244629 C 68.61979675292969 7.23762845993042 73.37895965576172 10.44645500183105 77.46625518798828 14.53373527526855 C 81.55353546142578 18.62101554870605 84.76235961914062 23.38017463684082 87.00358581542969 28.67901420593262 C 89.32363891601562 34.16421508789062 90.5 39.99181365966797 90.5 45.99993515014648 C 90.5 52.008056640625 89.32363891601562 57.83565521240234 87.00358581542969 63.32085418701172 C 84.76235961914062 68.61969757080078 81.55353546142578 73.37885284423828 77.46625518798828 77.46613311767578 C 73.37895965576172 81.55341339111328 68.61979675292969 84.76224517822266 63.32094573974609 87.00345611572266 C 57.83573150634766 89.32350921630859 52.00812149047852 90.49987030029297 46 90.49987030029297 Z" stroke="none"/>
                                <path d="M 46 2.999992370605469 C 40.1937141418457 2.999992370605469 34.56269836425781 4.136489868164062 29.26337051391602 6.377906799316406 C 24.14332580566406 8.543502807617188 19.54441070556641 11.64437866210938 15.59439849853516 15.59437561035156 C 11.64440155029297 19.54439544677734 8.54351806640625 24.14329528808594 6.377914428710938 29.26333618164062 C 4.136497497558594 34.56264877319336 3 40.19366455078125 3 45.99993515014648 C 3 51.80620574951172 4.136497497558594 57.43720626831055 6.377914428710938 62.73651885986328 C 8.54351806640625 67.8565673828125 11.64440155029297 72.45545959472656 15.59439849853516 76.40547943115234 C 19.54441070556641 80.35547637939453 24.14332580566406 83.45635223388672 29.26337051391602 85.6219482421875 C 34.56269836425781 87.86336517333984 40.1937141418457 88.99986267089844 46 88.99986267089844 C 51.8062858581543 88.99986267089844 57.43730163574219 87.86336517333984 62.73661422729492 85.6219482421875 C 67.85667419433594 83.45635223388672 72.45557403564453 80.35547637939453 76.40558624267578 76.40547943115234 C 80.35559844970703 72.45545959472656 83.45647430419922 67.8565673828125 85.6220703125 62.73651885986328 C 87.86350250244141 57.43720626831055 89 51.80620574951172 89 45.99993515014648 C 89 40.19366455078125 87.86350250244141 34.56264877319336 85.6220703125 29.26333618164062 C 83.45647430419922 24.14329528808594 80.35559844970703 19.54439544677734 76.40558624267578 15.59437561035156 C 72.45557403564453 11.64437866210938 67.85667419433594 8.543502807617188 62.73661422729492 6.377906799316406 C 57.43730163574219 4.136489868164062 51.8062858581543 2.999992370605469 46 2.999992370605469 M 46 -7.62939453125e-06 C 71.40509033203125 -7.62939453125e-06 92 20.59486389160156 92 45.99993515014648 C 92 71.40499114990234 71.40509033203125 91.99986267089844 46 91.99986267089844 C 20.59490203857422 91.99986267089844 0 71.40499114990234 0 45.99993515014648 C 0 20.59486389160156 20.59490203857422 -7.62939453125e-06 46 -7.62939453125e-06 Z" stroke="none" fill="#e44b36"/>
                              </g>
                            </g>
                          </g>
                        </g>
                      </g>
                    </g>
                  </g>
                </g>
              </g>
            </g>
          </g>
        </g>
      </g>
    </g>
    <g id="salud-mental_3_" data-name="salud-mental (3)" transform="translate(-1224 1991.525)">
      <g id="Grupo_1163960" data-name="Grupo 1163960" transform="translate(0.912 7.387)">
        <path id="Trazado_1016063" data-name="Trazado 1016063" d="M255.988,471.453v-.03" transform="translate(-225.727 -415.715)" fill="#fd4755" stroke="#fe646f" stroke-miterlimit="10" stroke-width="1"/>
        <g id="Grupo_1163957" data-name="Grupo 1163957" transform="translate(0 0)">
          <path id="Trazado_1016064" data-name="Trazado 1016064" d="M208.948,13.964a4.332,4.332,0,0,1,4.332,4.332v.761h2.562a4.727,4.727,0,0,1,2.8,8.538h3.132a6.85,6.85,0,0,1,1.378,13.56,4.727,4.727,0,0,1-2.788,8.545h-3.744a6,6,0,1,1-12,0V18.3a4.332,4.332,0,0,1,4.332-4.332Z" transform="translate(-180.61 -13.964)" fill="#fe93bb"/>
          <path id="Trazado_1016065" data-name="Trazado 1016065" d="M212.307,55.459a6.006,6.006,0,0,1-7.691-5.759V18.3a4.334,4.334,0,0,1,6.023-3.99A4.333,4.333,0,0,0,208,18.3V49.7A6,6,0,0,0,212.307,55.459Z" transform="translate(-180.611 -13.963)" fill="#fe76a8"/>
          <path id="Trazado_1016066" data-name="Trazado 1016066" d="M31.494,18.3V49.7a6,6,0,0,1-12,0H15.747a4.727,4.727,0,0,1-2.788-8.545A6.85,6.85,0,0,1,14.337,27.6h3.132a4.728,4.728,0,0,1,2.8-8.539h2.562V18.3a4.332,4.332,0,1,1,8.665,0Z" transform="translate(-7.488 -13.964)" fill="#fe93bb"/>
          <g id="Grupo_1163956" data-name="Grupo 1163956" transform="translate(0 0)">
            <path id="Trazado_1016067" data-name="Trazado 1016067" d="M113.513,294.3a6.009,6.009,0,0,1-7.46-5.914V285.85h.288a2.627,2.627,0,0,1,2.627,2.627A6,6,0,0,0,113.513,294.3Z" transform="translate(-94.05 -252.741)" fill="#fe76a8"/>
            <path id="Trazado_1016068" data-name="Trazado 1016068" d="M14.423,135.931a3.531,3.531,0,0,0,3.531,3.531h-5a6.85,6.85,0,0,1,1.379-13.56h3.617a3.249,3.249,0,0,0,0,6.5A3.531,3.531,0,0,0,14.423,135.931Z" transform="translate(-7.488 -112.271)" fill="#fe76a8"/>
            <path id="Trazado_1016069" data-name="Trazado 1016069" d="M87.641,14.7a3.2,3.2,0,0,0-3.888,2.744q0,.019,0,.037a1.743,1.743,0,0,1-1.73,1.571h-.755a4.779,4.779,0,0,0-4.807,4.648,4.708,4.708,0,0,0,.526,2.248,4.76,4.76,0,0,0,1.4,1.642H75.53a4.759,4.759,0,0,1-1.4-1.642,4.728,4.728,0,0,1,4.2-6.9H80.89v-.681a4.384,4.384,0,0,1,4.27-4.411A4.3,4.3,0,0,1,87.641,14.7Z" transform="translate(-65.549 -13.964)" fill="#fe76a8"/>
            <path id="Trazado_1016070" data-name="Trazado 1016070" d="M46.159,245.8H41.21a4.727,4.727,0,0,1-2.788-8.545h4.949a4.727,4.727,0,0,0,2.788,8.545Z" transform="translate(-32.951 -210.063)" fill="#fe76a8"/>
          </g>
        </g>
        <g id="Grupo_1163958" data-name="Grupo 1163958" transform="translate(21.164 22.796)">
          <path id="Trazado_1016071" data-name="Trazado 1016071" d="M217.441,204.365a10.938,10.938,0,0,0-15.469,0l-1.007,1.007-1.007-1.007a10.938,10.938,0,0,0-15.469,15.469l12.659,12.659a5.4,5.4,0,0,0,7.633,0l12.659-12.659A10.938,10.938,0,0,0,217.441,204.365Z" transform="translate(-181.286 -201.161)" fill="#fd4755" stroke="#fe646f" stroke-miterlimit="10" stroke-width="1"/>
          <path id="Trazado_1016072" data-name="Trazado 1016072" d="M201.635,234.034a5.384,5.384,0,0,1-4.48-1.539L184.5,219.836A10.939,10.939,0,0,1,194.912,201.5a10.949,10.949,0,0,0-6.15,9.846,10.892,10.892,0,0,0,1.662,5.784l9.485,15.183A5.377,5.377,0,0,0,201.635,234.034Z" transform="translate(-181.293 -201.164)" fill="#fb2b3a"/>
        </g>
        <g id="Grupo_1163959" data-name="Grupo 1163959" transform="translate(7.217 37.424)">
          <path id="Trazado_1016073" data-name="Trazado 1016073" d="M76.38,342.8a3,3,0,0,1-2.421-1.232l-6.629-9.1a3,3,0,1,1,4.843-3.527l3.688,5.065L81.2,322.97a3,3,0,1,1,5.393,2.611l-7.521,15.532a3,3,0,0,1-2.429,1.678C76.558,342.8,76.468,342.8,76.38,342.8Z" transform="translate(-66.754 -321.279)" fill="#6fd7a3"/>
        </g>
      </g>
      <g id="Grupo_1163961" data-name="Grupo 1163961" transform="translate(0 6.475)">
        <path id="Trazado_1016074" data-name="Trazado 1016074" d="M67.572,99.429h-7.4a.913.913,0,1,0,0,1.827h7.4a5.929,5.929,0,1,0,0-11.857h-.466a.913.913,0,0,0,0,1.827h.466a4.1,4.1,0,1,1,0,8.2Z" transform="translate(-52.046 -79.301)"/>
        <path id="Trazado_1016075" data-name="Trazado 1016075" d="M233.061,95.325a5.935,5.935,0,0,0,5.929,5.929h7.4a.913.913,0,1,0,0-1.827h-7.4a4.1,4.1,0,1,1,0-8.2h.466a.913.913,0,1,0,0-1.827h-.466A5.936,5.936,0,0,0,233.061,95.325Z" transform="translate(-204.68 -79.298)"/>
        <path id="Trazado_1016076" data-name="Trazado 1016076" d="M61.338,36.332a.913.913,0,0,0-1.671.738,10.027,10.027,0,0,1-2.084,11.139L44.926,60.867a4.489,4.489,0,0,1-6.341,0l-10.3-10.3.511-1.056a3.907,3.907,0,0,0-5.28-5.189,10.125,10.125,0,0,1-.523-3.2A10.024,10.024,0,0,1,40.1,34.032l1.007,1.007a.913.913,0,0,0,1.291,0l1.007-1.007a10.026,10.026,0,0,1,14.015-.158.913.913,0,1,0,1.263-1.32,11.794,11.794,0,0,0-8.313-3.284c-.224,0-.447.012-.668.026a7.768,7.768,0,0,0-7.631-9.192H40.984q.091-.151.172-.308a5.64,5.64,0,0,0-5.012-8.23H34.493a5.243,5.243,0,0,0-9.575-2.8,5.244,5.244,0,0,0-9.576,2.8H13.691A5.654,5.654,0,0,0,9.527,13.4a.913.913,0,1,0,1.348,1.232,3.823,3.823,0,0,1,2.816-1.242h2.562a.913.913,0,0,0,.913-.913v-.76a3.419,3.419,0,0,1,6.839,0v4.494a3.714,3.714,0,0,1-2.795-3.593.913.913,0,1,0-1.827,0A5.542,5.542,0,0,0,24,18.079V31.661A5.555,5.555,0,0,0,20.3,30.228H19.64a.913.913,0,1,0,0,1.827H20.3a3.732,3.732,0,0,1,3.254,1.932,11.76,11.76,0,0,0-2.387,7.134,11.956,11.956,0,0,0,.88,4.487,3.908,3.908,0,0,0-.287.5l-.819,1.691a5.029,5.029,0,0,1-2.021.417,5.094,5.094,0,0,1-5.089-5.081s0,0,0-.006V40.5A.913.913,0,0,0,12,40.5V42.21H9.172A3.812,3.812,0,0,1,6.7,35.492h6.856a4.845,4.845,0,0,1,4.84,4.84V42.35a.913.913,0,0,0,1.827,0V40.332a6.674,6.674,0,0,0-6.666-6.666H6.485A5.936,5.936,0,0,1,7.763,21.933h5.988a.913.913,0,0,0,0-1.827H11.213a3.856,3.856,0,0,1-.913-1.148,3.744,3.744,0,0,1-.384-1.2.913.913,0,1,0-1.808.257A5.562,5.562,0,0,0,8.679,19.8q.081.157.172.308H7.763A7.763,7.763,0,0,0,4.677,34.992a5.657,5.657,0,0,0-1.146,3.4,5.64,5.64,0,0,0,5.64,5.64h2.89a6.893,6.893,0,0,0,7.824,5.93l-2.809,5.8-2.791-3.833a3.909,3.909,0,1,0-6.32,4.6l6.629,9.1a3.922,3.922,0,0,0,3.16,1.608c.122,0,.241-.005.348-.016a3.929,3.929,0,0,0,3.17-2.19l.392-.81a.913.913,0,0,0-1.644-.8l-.392.809a2.1,2.1,0,0,1-1.695,1.167c-.055.005-.116.008-.179.008a2.089,2.089,0,0,1-1.684-.857l-6.629-9.1a2.083,2.083,0,0,1,3.368-2.451L16.5,58.074a.913.913,0,0,0,1.56-.139L23.4,46.9a2.083,2.083,0,0,1,3.749,1.814l-5.278,10.9a.913.913,0,0,0,1.644.8l3.924-8.1,9.853,9.853a6.318,6.318,0,0,0,8.924,0L58.875,49.5a11.855,11.855,0,0,0,2.463-13.169ZM25.831,11.721a3.419,3.419,0,1,1,6.837,0v.761a.913.913,0,0,0,.913.913h2.562a3.819,3.819,0,0,1,3.815,3.814,3.761,3.761,0,0,1-.425,1.749,3.853,3.853,0,0,1-.913,1.148H36.085a.913.913,0,1,0,0,1.827h5.988a5.937,5.937,0,0,1,5.682,7.656,11.785,11.785,0,0,0-5.639,3.152l-.361.361-.361-.361A11.867,11.867,0,0,0,25.831,31.7V18.079a5.542,5.542,0,0,0,4.621-5.457.913.913,0,1,0-1.827,0,3.714,3.714,0,0,1-2.794,3.593Z" transform="translate(0 -6.475)"/>
      </g>
    </g>
  </g>
</svg>
