<svg xmlns="http://www.w3.org/2000/svg" xmlns:xlink="http://www.w3.org/1999/xlink" width="110" height="110" viewBox="0 0 110 110">
  <defs>
    <filter id="Trazado_982547" x="0" y="0" width="110" height="110" filterUnits="userSpaceOnUse">
      <feOffset dy="3" input="SourceAlpha"/>
      <feGaussianBlur stdDeviation="3" result="blur"/>
      <feFlood flood-opacity="0.161"/>
      <feComposite operator="in" in2="blur"/>
      <feComposite in="SourceGraphic"/>
    </filter>
  </defs>
  <g id="Grupo_1163983" data-name="Grupo 1163983" transform="translate(1247.381 -2332.354)">
    <g id="Grupo_1161862" data-name="Grupo 1161862" transform="translate(-1238.381 2338.354)">
      <g id="Grupo_1160920" data-name="Grupo 1160920" transform="translate(0 0)">
        <g id="Grupo_1160748" data-name="Grupo 1160748">
          <g id="Grupo_1158890" data-name="Grupo 1158890" transform="translate(0 0)">
            <g id="Grupo_1157405" data-name="Grupo 1157405" transform="translate(0 0)">
              <g id="Grupo_1155792" data-name="Grupo 1155792">
                <g id="Grupo_1154703" data-name="Grupo 1154703">
                  <g id="Grupo_1150789" data-name="Grupo 1150789">
                    <g id="Grupo_1154212" data-name="Grupo 1154212">
                      <g id="Grupo_1152583" data-name="Grupo 1152583">
                        <g id="Grupo_1146973" data-name="Grupo 1146973">
                          <g id="Grupo_1146954" data-name="Grupo 1146954">
                            <g transform="matrix(1, 0, 0, 1, -9, -6)" filter="url(#Trazado_982547)">
                              <g id="Trazado_982547-2" data-name="Trazado 982547" transform="translate(9 6)" fill="#fcebe9">
                                <path d="M 46 90.49987030029297 C 39.99187850952148 90.49987030029297 34.16426849365234 89.32350921630859 28.67905426025391 87.00345611572266 C 23.38019943237305 84.76224517822266 18.62104034423828 81.55341339111328 14.53374671936035 77.46613311767578 C 10.44646644592285 73.37885284423828 7.237639904022217 68.61969757080078 4.996413230895996 63.32085418701172 C 2.676359891891479 57.83565521240234 1.5 52.008056640625 1.5 45.99993515014648 C 1.5 39.99181365966797 2.676359891891479 34.16421508789062 4.996413230895996 28.67901420593262 C 7.237639904022217 23.38017463684082 10.44646644592285 18.62101554870605 14.53374671936035 14.53373527526855 C 18.62104034423828 10.44645500183105 23.38019943237305 7.23762845993042 28.67905426025391 4.996415138244629 C 34.16426849365234 2.676361799240112 39.99187850952148 1.500001788139343 46 1.500001788139343 C 52.00812149047852 1.500001788139343 57.83573150634766 2.676361799240112 63.32094573974609 4.996415138244629 C 68.61979675292969 7.23762845993042 73.37895965576172 10.44645500183105 77.46625518798828 14.53373527526855 C 81.55353546142578 18.62101554870605 84.76235961914062 23.38017463684082 87.00358581542969 28.67901420593262 C 89.32363891601562 34.16421508789062 90.5 39.99181365966797 90.5 45.99993515014648 C 90.5 52.008056640625 89.32363891601562 57.83565521240234 87.00358581542969 63.32085418701172 C 84.76235961914062 68.61969757080078 81.55353546142578 73.37885284423828 77.46625518798828 77.46613311767578 C 73.37895965576172 81.55341339111328 68.61979675292969 84.76224517822266 63.32094573974609 87.00345611572266 C 57.83573150634766 89.32350921630859 52.00812149047852 90.49987030029297 46 90.49987030029297 Z" stroke="none"/>
                                <path d="M 46 2.999992370605469 C 40.1937141418457 2.999992370605469 34.56269836425781 4.136489868164062 29.26337051391602 6.377906799316406 C 24.14332580566406 8.543502807617188 19.54441070556641 11.64437866210938 15.59439849853516 15.59437561035156 C 11.64440155029297 19.54439544677734 8.54351806640625 24.14329528808594 6.377914428710938 29.26333618164062 C 4.136497497558594 34.56264877319336 3 40.19366455078125 3 45.99993515014648 C 3 51.80620574951172 4.136497497558594 57.43720626831055 6.377914428710938 62.73651885986328 C 8.54351806640625 67.8565673828125 11.64440155029297 72.45545959472656 15.59439849853516 76.40547943115234 C 19.54441070556641 80.35547637939453 24.14332580566406 83.45635223388672 29.26337051391602 85.6219482421875 C 34.56269836425781 87.86336517333984 40.1937141418457 88.99986267089844 46 88.99986267089844 C 51.8062858581543 88.99986267089844 57.43730163574219 87.86336517333984 62.73661422729492 85.6219482421875 C 67.85667419433594 83.45635223388672 72.45557403564453 80.35547637939453 76.40558624267578 76.40547943115234 C 80.35559844970703 72.45545959472656 83.45647430419922 67.8565673828125 85.6220703125 62.73651885986328 C 87.86350250244141 57.43720626831055 89 51.80620574951172 89 45.99993515014648 C 89 40.19366455078125 87.86350250244141 34.56264877319336 85.6220703125 29.26333618164062 C 83.45647430419922 24.14329528808594 80.35559844970703 19.54439544677734 76.40558624267578 15.59437561035156 C 72.45557403564453 11.64437866210938 67.85667419433594 8.543502807617188 62.73661422729492 6.377906799316406 C 57.43730163574219 4.136489868164062 51.8062858581543 2.999992370605469 46 2.999992370605469 M 46 -7.62939453125e-06 C 71.40509033203125 -7.62939453125e-06 92 20.59486389160156 92 45.99993515014648 C 92 71.40499114990234 71.40509033203125 91.99986267089844 46 91.99986267089844 C 20.59490203857422 91.99986267089844 0 71.40499114990234 0 45.99993515014648 C 0 20.59486389160156 20.59490203857422 -7.62939453125e-06 46 -7.62939453125e-06 Z" stroke="none" fill="#e44b36"/>
                              </g>
                            </g>
                          </g>
                        </g>
                      </g>
                    </g>
                  </g>
                </g>
              </g>
            </g>
          </g>
        </g>
      </g>
    </g>
    <g id="proteccion" transform="translate(-1223.779 2353.646)">
      <g id="Grupo_1163981" data-name="Grupo 1163981" transform="translate(1.23 0.899)">
        <g id="Grupo_1163975" data-name="Grupo 1163975">
          <g id="Grupo_1163974" data-name="Grupo 1163974" transform="translate(2.876)">
            <path id="Trazado_1016097" data-name="Trazado 1016097" d="M88.44,55.284H41.846l0-5.659a23.3,23.3,0,1,1,46.594-.02Z" transform="translate(-40.548 -24.06)" fill="#ffb938"/>
            <path id="Trazado_1016098" data-name="Trazado 1016098" d="M204.545,38.718,204.533,8.71a10.724,10.724,0,0,0-9.927,0l.013,30h9.927Z" transform="translate(-174.987 -7.494)" fill="#ffe645"/>
            <path id="Trazado_1016099" data-name="Trazado 1016099" d="M223.376,8.716a10.723,10.723,0,0,0-7.358-.943,10.718,10.718,0,0,1,2.56.943l.013,30.008h4.8Z" transform="translate(-193.831 -7.501)" fill="#f5d60c"/>
            <g id="Grupo_1163973" data-name="Grupo 1163973" transform="translate(0 6.142)">
              <path id="Trazado_1016100" data-name="Trazado 1016100" d="M31.043,78.217l0,5.659H41.769l-.01-24.159a.907.907,0,0,0-1.471-.711A24.558,24.558,0,0,0,31.043,78.217Z" transform="translate(-31.043 -58.794)" fill="#ffe645"/>
              <path id="Trazado_1016101" data-name="Trazado 1016101" d="M85.185,59.717a.907.907,0,0,0-1.471-.711,24.808,24.808,0,0,0-3.326,3.218L80.4,83.876h4.8Z" transform="translate(-74.469 -58.794)" fill="#f5d60c"/>
              <path id="Trazado_1016102" data-name="Trazado 1016102" d="M351.632,59.614l.01,24.171h10.723l0-5.679A24.558,24.558,0,0,0,353.1,58.9.907.907,0,0,0,351.632,59.614Z" transform="translate(-313.178 -58.703)" fill="#ffe645"/>
              <path id="Trazado_1016103" data-name="Trazado 1016103" d="M362.362,78.106A24.557,24.557,0,0,0,353.1,58.9a.907.907,0,0,0-1.471.712v2.5a24.482,24.482,0,0,1,5.932,15.988l0,5.679h4.8Z" transform="translate(-313.177 -58.704)" fill="#f5d60c"/>
            </g>
          </g>
          <path id="Trazado_1016104" data-name="Trazado 1016104" d="M49.7,276.185l.844-.446a18.323,18.323,0,0,1,8.554-2.123,2.916,2.916,0,0,0,2.913-3.017,2.948,2.948,0,0,0-2.992-2.794H10.055a2.966,2.966,0,0,0-2.989,2.817,2.916,2.916,0,0,0,2.915,3.014,18.324,18.324,0,0,1,8.556,2.116l.844.445a18.325,18.325,0,0,0,8.556,2.116l13.2-.006a18.325,18.325,0,0,0,8.554-2.124Z" transform="translate(-7.064 -236.581)" fill="#ffe645"/>
          <path id="Trazado_1016105" data-name="Trazado 1016105" d="M214.181,270.6a2.948,2.948,0,0,0-2.992-2.794h-4.8a2.948,2.948,0,0,1,2.992,2.794,2.916,2.916,0,0,1-2.913,3.017,18.322,18.322,0,0,0-8.554,2.123l-.844.446a18.323,18.323,0,0,1-8.554,2.123l-8.539,0,.133,0,13.2-.006a18.323,18.323,0,0,0,8.554-2.123l.844-.446a18.323,18.323,0,0,1,8.554-2.123A2.916,2.916,0,0,0,214.181,270.6Z" transform="translate(-159.238 -236.581)" fill="#f5d60c"/>
        </g>
        <g id="Grupo_1163980" data-name="Grupo 1163980" transform="translate(12.982 36.68)">
          <g id="Grupo_1163979" data-name="Grupo 1163979">
            <g id="Grupo_1163976" data-name="Grupo 1163976" transform="translate(3.137)">
              <path id="Trazado_1016106" data-name="Trazado 1016106" d="M145.956,313.355a2.332,2.332,0,0,0-2.791,1.757l-1.613,7.093c-1.488,6.544,14.057,15.438,16.167,6.159l.333-1.466a2.728,2.728,0,0,1,5.321,1.21l-.333,1.466c-2.12,9.32,15.76,7.949,17.241,1.439l1.613-7.093a2.332,2.332,0,0,0-1.757-2.791Z" transform="translate(-141.451 -313.297)" fill="#9ef"/>
            </g>
            <g id="Grupo_1163977" data-name="Grupo 1163977" transform="translate(5.499 0)">
              <path id="Trazado_1016107" data-name="Trazado 1016107" d="M197.465,321.13l-34.181-7.773a2.329,2.329,0,0,0-2.143.6l31.526,7.17a2.332,2.332,0,0,1,1.757,2.791l-1.613,7.093c-.6,2.642-3.9,4.438-7.473,5.016,4.815.877,11.4-1.175,12.271-5.016l1.613-7.093A2.332,2.332,0,0,0,197.465,321.13Z" transform="translate(-161.141 -313.298)" fill="#82e2f5"/>
            </g>
            <g id="Grupo_1163978" data-name="Grupo 1163978" transform="translate(0 1.371)">
              <path id="Trazado_1016108" data-name="Trazado 1016108" d="M116.577,332.677l1.772.4,1.8-7.908-1.772-.4a1.644,1.644,0,0,0-1.968,1.239l-1.069,4.7A1.644,1.644,0,0,0,116.577,332.677Z" transform="translate(-115.297 -324.728)" fill="#365dca"/>
              <path id="Trazado_1016109" data-name="Trazado 1016109" d="M467.2,402.266l-1.772-.4-1.8,7.908,1.772.4a1.644,1.644,0,0,0,1.968-1.239l1.069-4.7A1.644,1.644,0,0,0,467.2,402.266Z" transform="translate(-421.845 -392.611)" fill="#365dca"/>
            </g>
          </g>
        </g>
      </g>
      <g id="Grupo_1163982" data-name="Grupo 1163982" transform="translate(0.434 0.001)">
        <path id="Trazado_1016110" data-name="Trazado 1016110" d="M61.352,48.854a2.737,2.737,0,0,0-1.589-1.125L58.744,47.5a3.294,3.294,0,0,0-2.51-2.963l-12.662-2.88c3.162-1.506,6.076-2.82,9.689-2.821,4.383,0,5.126-6.4.932-7.482l0-4.908a25.387,25.387,0,0,0-9.6-19.906,1.919,1.919,0,0,0-2.2-.036,23.9,23.9,0,0,0-7.837-3.531V2.115a.9.9,0,0,0-.484-.8,11.63,11.63,0,0,0-10.759,0,.9.9,0,0,0-.483.8v.857a23.888,23.888,0,0,0-7.834,3.538,1.918,1.918,0,0,0-2.2.037A25.724,25.724,0,0,0,8.309,11.17a.9.9,0,0,0,1.438,1.081,24.108,24.108,0,0,1,4.088-4.237.894.894,0,0,0,.087.232l.01,22.977H5.007l0-4.759A23.405,23.405,0,0,1,7.43,16.019a.9.9,0,0,0-1.614-.8,25.188,25.188,0,0,0-2.61,11.242l0,4.894c-4.191,1.132-3.438,7.5.946,7.5,3.7,0,6.651,1.416,9.9,2.912l-.675,2.966a2.625,2.625,0,0,0,1.916,3.045l1.195.272a9.039,9.039,0,0,0,2.836,5.119A15.664,15.664,0,0,0,26.583,57.3c4.108.934,7.065-.729,7.911-4.449l.333-1.466a1.83,1.83,0,0,1,3.566.811l-.333,1.466a5.582,5.582,0,0,0,1.275,5.409c1.459,1.514,4.011,2.347,6.916,2.347a16.345,16.345,0,0,0,3.032-.29.9.9,0,0,0-.335-1.768c-3.458.655-6.8.037-8.318-1.538a3.873,3.873,0,0,1-.816-3.761l.333-1.466c1.036-4.557-6.038-6.17-7.075-1.609l-.333,1.466c-.434,1.91-1.786,4-5.758,3.094-4.429-1.007-9.422-5.482-8.655-8.854l1.613-7.093h0a1.434,1.434,0,0,1,1.715-1.079l34.181,7.773A1.459,1.459,0,0,1,56.914,48L55.3,55.1a4.741,4.741,0,0,1-2.227,2.721.9.9,0,0,0,.962,1.521,7.438,7.438,0,0,0,2.329-2.221l1.2.273a2.6,2.6,0,0,0,3.045-1.917l1.069-4.7a2.528,2.528,0,0,0-.328-1.919ZM43.468,7.943a23.6,23.6,0,0,1,8.923,18.5l0,4.779H43.469L43.458,7.949s.011-.008.011-.006Zm-1.808.245.01,23.036H34.563L34.552,4.83A22.132,22.132,0,0,1,41.66,8.188ZM32.752,2.677l.012,28.547H24.637L24.625,2.68a9.831,9.831,0,0,1,8.127,0ZM15.721,8.2a22.115,22.115,0,0,1,7.105-3.363l.011,26.389H15.731Zm-.03,37.826a.745.745,0,0,1-.561-.891l1.069-4.7a.794.794,0,0,1,.891-.561l.895.2-1.4,6.154Zm2.819-7.676-1.02-.232a2.547,2.547,0,0,0-3.029,1.855c-3.325-1.621-6.521-2.915-10.307-2.915-2.625,0-2.562-4.031.067-4.032H53.181c2.611,0,2.715,4.01.078,4.012-4.489,0-8.829,1.926-12.778,3.918L22.053,36.761a3.237,3.237,0,0,0-3.544,1.586ZM59.925,50.375l-1.069,4.7a.746.746,0,0,1-.891.561l-.895-.2,1.119-4.921.28-1.232.895.2a.745.745,0,0,1,.561.891Z" transform="translate(-0.434 -0.001)"/>
        <path id="Trazado_1016111" data-name="Trazado 1016111" d="M173.467,349.171l3.626-2.282a.9.9,0,0,0-.958-1.523l-3.626,2.282C171.5,348.283,172.522,349.766,173.467,349.171Z" transform="translate(-151.502 -303.812)"/>
        <path id="Trazado_1016112" data-name="Trazado 1016112" d="M176.3,362.985a.9.9,0,0,0,.478-.138l8.759-5.513a.9.9,0,0,0-.959-1.523l-8.759,5.513A.913.913,0,0,0,176.3,362.985Z" transform="translate(-154.443 -313.004)"/>
        <path id="Trazado_1016113" data-name="Trazado 1016113" d="M351.208,389.592l3.626-2.282a.9.9,0,0,0-.958-1.523l-3.626,2.282C349.241,388.7,350.263,390.187,351.208,389.592Z" transform="translate(-307.923 -339.385)"/>
        <path id="Trazado_1016114" data-name="Trazado 1016114" d="M354.044,403.406a.9.9,0,0,0,.478-.138l8.759-5.513a.9.9,0,0,0-.958-1.523l-8.759,5.513A.913.913,0,0,0,354.044,403.406Z" transform="translate(-310.863 -348.577)"/>
      </g>
    </g>
  </g>
</svg>
