<svg xmlns="http://www.w3.org/2000/svg" xmlns:xlink="http://www.w3.org/1999/xlink" width="110" height="110" viewBox="0 0 110 110">
  <defs>
    <filter id="Trazado_982547" x="0" y="0" width="110" height="110" filterUnits="userSpaceOnUse">
      <feOffset dy="3" input="SourceAlpha"/>
      <feGaussianBlur stdDeviation="3" result="blur"/>
      <feFlood flood-opacity="0.161"/>
      <feComposite operator="in" in2="blur"/>
      <feComposite in="SourceGraphic"/>
    </filter>
  </defs>
  <g id="Grupo_1163987" data-name="Grupo 1163987" transform="translate(932 -2333)">
    <g id="Grupo_1161863" data-name="Grupo 1161863" transform="translate(-923 2339)">
      <g id="Grupo_1160931" data-name="Grupo 1160931" transform="translate(0 0)">
        <g id="Grupo_1160749" data-name="Grupo 1160749">
          <g id="Grupo_1158891" data-name="Grupo 1158891" transform="translate(0 0)">
            <g id="Grupo_1157406" data-name="Grupo 1157406" transform="translate(0 0)">
              <g id="Grupo_1155793" data-name="Grupo 1155793">
                <g id="Grupo_1154704" data-name="Grupo 1154704">
                  <g id="Grupo_1150790" data-name="Grupo 1150790">
                    <g id="Grupo_1154214" data-name="Grupo 1154214">
                      <g id="Grupo_1152583" data-name="Grupo 1152583">
                        <g id="Grupo_1146973" data-name="Grupo 1146973">
                          <g id="Grupo_1146954" data-name="Grupo 1146954">
                            <g transform="matrix(1, 0, 0, 1, -9, -6)" filter="url(#Trazado_982547)">
                              <g id="Trazado_982547-2" data-name="Trazado 982547" transform="translate(9 6)" fill="#fcebe9">
                                <path d="M 46 90.49987030029297 C 39.99187850952148 90.49987030029297 34.16426849365234 89.32350921630859 28.67905426025391 87.00345611572266 C 23.38019943237305 84.76224517822266 18.62104034423828 81.55341339111328 14.53374671936035 77.46613311767578 C 10.44646644592285 73.37885284423828 7.237639904022217 68.61969757080078 4.996413230895996 63.32085418701172 C 2.676359891891479 57.83565521240234 1.5 52.008056640625 1.5 45.99993515014648 C 1.5 39.99181365966797 2.676359891891479 34.16421508789062 4.996413230895996 28.67901420593262 C 7.237639904022217 23.38017463684082 10.44646644592285 18.62101554870605 14.53374671936035 14.53373527526855 C 18.62104034423828 10.44645500183105 23.38019943237305 7.23762845993042 28.67905426025391 4.996415138244629 C 34.16426849365234 2.676361799240112 39.99187850952148 1.500001788139343 46 1.500001788139343 C 52.00812149047852 1.500001788139343 57.83573150634766 2.676361799240112 63.32094573974609 4.996415138244629 C 68.61979675292969 7.23762845993042 73.37895965576172 10.44645500183105 77.46625518798828 14.53373527526855 C 81.55353546142578 18.62101554870605 84.76235961914062 23.38017463684082 87.00358581542969 28.67901420593262 C 89.32363891601562 34.16421508789062 90.5 39.99181365966797 90.5 45.99993515014648 C 90.5 52.008056640625 89.32363891601562 57.83565521240234 87.00358581542969 63.32085418701172 C 84.76235961914062 68.61969757080078 81.55353546142578 73.37885284423828 77.46625518798828 77.46613311767578 C 73.37895965576172 81.55341339111328 68.61979675292969 84.76224517822266 63.32094573974609 87.00345611572266 C 57.83573150634766 89.32350921630859 52.00812149047852 90.49987030029297 46 90.49987030029297 Z" stroke="none"/>
                                <path d="M 46 2.999992370605469 C 40.1937141418457 2.999992370605469 34.56269836425781 4.136489868164062 29.26337051391602 6.377906799316406 C 24.14332580566406 8.543502807617188 19.54441070556641 11.64437866210938 15.59439849853516 15.59437561035156 C 11.64440155029297 19.54439544677734 8.54351806640625 24.14329528808594 6.377914428710938 29.26333618164062 C 4.136497497558594 34.56264877319336 3 40.19366455078125 3 45.99993515014648 C 3 51.80620574951172 4.136497497558594 57.43720626831055 6.377914428710938 62.73651885986328 C 8.54351806640625 67.8565673828125 11.64440155029297 72.45545959472656 15.59439849853516 76.40547943115234 C 19.54441070556641 80.35547637939453 24.14332580566406 83.45635223388672 29.26337051391602 85.6219482421875 C 34.56269836425781 87.86336517333984 40.1937141418457 88.99986267089844 46 88.99986267089844 C 51.8062858581543 88.99986267089844 57.43730163574219 87.86336517333984 62.73661422729492 85.6219482421875 C 67.85667419433594 83.45635223388672 72.45557403564453 80.35547637939453 76.40558624267578 76.40547943115234 C 80.35559844970703 72.45545959472656 83.45647430419922 67.8565673828125 85.6220703125 62.73651885986328 C 87.86350250244141 57.43720626831055 89 51.80620574951172 89 45.99993515014648 C 89 40.19366455078125 87.86350250244141 34.56264877319336 85.6220703125 29.26333618164062 C 83.45647430419922 24.14329528808594 80.35559844970703 19.54439544677734 76.40558624267578 15.59437561035156 C 72.45557403564453 11.64437866210938 67.85667419433594 8.543502807617188 62.73661422729492 6.377906799316406 C 57.43730163574219 4.136489868164062 51.8062858581543 2.999992370605469 46 2.999992370605469 M 46 -7.62939453125e-06 C 71.40509033203125 -7.62939453125e-06 92 20.59486389160156 92 45.99993515014648 C 92 71.40499114990234 71.40509033203125 91.99986267089844 46 91.99986267089844 C 20.59490203857422 91.99986267089844 0 71.40499114990234 0 45.99993515014648 C 0 20.59486389160156 20.59490203857422 -7.62939453125e-06 46 -7.62939453125e-06 Z" stroke="none" fill="#e44b36"/>
                              </g>
                            </g>
                          </g>
                        </g>
                      </g>
                    </g>
                  </g>
                </g>
              </g>
            </g>
          </g>
        </g>
      </g>
    </g>
    <g id="equipo-medico" transform="translate(-909 2354)">
      <g id="Grupo_1163985" data-name="Grupo 1163985" transform="translate(0.921 0.921)">
        <path id="Trazado_1016115" data-name="Trazado 1016115" d="M19.986,325.275a.984.984,0,0,1-.673-.934v-4.212H13.406v4.212a.985.985,0,0,1-.673.934l-3.887,1.3A1.969,1.969,0,0,0,7.5,328.439v5.472Z" transform="translate(-7.5 -281.737)" fill="#e29a6c"/>
        <path id="Trazado_1016116" data-name="Trazado 1016116" d="M10.453,335.879v-6.731l3.216-1.071a3.934,3.934,0,0,0,2.454-2.386.993.993,0,0,1,.866-.655,8.627,8.627,0,0,0,2.353-.514.953.953,0,0,1-.029-.18v-4.212H13.406v4.212a.984.984,0,0,1-.673.934l-3.887,1.3A1.969,1.969,0,0,0,7.5,328.439v5.472a1.969,1.969,0,0,0,1.969,1.969h.984Z" transform="translate(-7.5 -281.737)" fill="#d48c64"/>
        <path id="Trazado_1016117" data-name="Trazado 1016117" d="M10.453,372.66H25.219V365.22a1.969,1.969,0,0,0-1.346-1.868l-3.879-1.293-3.044,2.283a.985.985,0,0,1-1.181,0l-3.044-2.283-3.879,1.293A1.969,1.969,0,0,0,7.5,365.22Z" transform="translate(-7.5 -318.518)" fill="#b3e1f8"/>
        <path id="Trazado_1016118" data-name="Trazado 1016118" d="M13.668,364.859a3.923,3.923,0,0,0,1.525-.948l-2.468-1.851-3.879,1.293A1.969,1.969,0,0,0,7.5,365.221v7.441h2.953v-6.023a.983.983,0,0,1,.672-.932Z" transform="translate(-7.5 -318.519)" fill="#7ad7ee"/>
        <path id="Trazado_1016119" data-name="Trazado 1016119" d="M37.454,244.749a5.906,5.906,0,0,1-5.906-5.906v-3.938a2.953,2.953,0,0,1,2.953-2.953h5.906a2.953,2.953,0,0,1,2.953,2.953v3.938A5.906,5.906,0,0,1,37.454,244.749Z" transform="translate(-28.595 -204.389)" fill="#f4aa73"/>
        <path id="Trazado_1016120" data-name="Trazado 1016120" d="M34.5,238.843v-6.891a2.953,2.953,0,0,0-2.953,2.953v3.529a6.317,6.317,0,0,0,3.891,5.929,5.551,5.551,0,0,0,3.492.193A5.9,5.9,0,0,1,34.5,238.843Z" transform="translate(-28.596 -204.389)" fill="#e29a6c"/>
        <path id="Trazado_1016121" data-name="Trazado 1016121" d="M406.379,326.571l-3.887-1.3a.984.984,0,0,1-.673-.934v-4.212h-5.906v4.212l-1.735,5.641,13.548-1.544A1.969,1.969,0,0,0,406.379,326.571Z" transform="translate(-346.692 -281.737)" fill="#e29a6c"/>
        <path id="Trazado_1016122" data-name="Trazado 1016122" d="M363.161,335.879v-6.731l3.216-1.071a3.934,3.934,0,0,0,2.454-2.386.993.993,0,0,1,.866-.655,8.626,8.626,0,0,0,2.353-.514.956.956,0,0,1-.029-.18v-4.212h-5.906v4.212a.984.984,0,0,1-.673.934l-3.887,1.3a1.969,1.969,0,0,0-1.346,1.868v5.472a1.969,1.969,0,0,0,1.969,1.969Z" transform="translate(-316.895 -281.737)" fill="#d48c64"/>
        <path id="Trazado_1016123" data-name="Trazado 1016123" d="M376.583,363.353,372.7,362.06l-3.044,2.283a.985.985,0,0,1-1.181,0l-3.044-2.283-5.225,3.161v7.441h17.719v-7.441A1.969,1.969,0,0,0,376.583,363.353Z" transform="translate(-316.896 -318.519)" fill="#b3e1f8"/>
        <path id="Trazado_1016124" data-name="Trazado 1016124" d="M366.379,364.859a3.923,3.923,0,0,0,1.525-.948l-2.468-1.851-3.879,1.293a1.969,1.969,0,0,0-1.346,1.868v5.472a1.969,1.969,0,0,0,1.969,1.969h.984V365.93Z" transform="translate(-316.897 -318.519)" fill="#7ad7ee"/>
        <circle id="Elipse_11866" data-name="Elipse 11866" cx="2.953" cy="2.953" r="2.953" transform="translate(36.423 55.127)" fill="#736572"/>
        <path id="Trazado_1016125" data-name="Trazado 1016125" d="M390.164,244.749a5.906,5.906,0,0,1-5.906-5.906V235.89a3.938,3.938,0,0,1,3.938-3.938h3.938a3.938,3.938,0,0,1,3.938,3.938v2.953A5.907,5.907,0,0,1,390.164,244.749Z" transform="translate(-337.991 -204.389)" fill="#f4aa73"/>
        <circle id="Elipse_11867" data-name="Elipse 11867" cx="1.969" cy="1.969" r="1.969" transform="translate(54.142 50.204)" fill="#736572"/>
        <path id="Trazado_1016126" data-name="Trazado 1016126" d="M43.362,237.857a12.031,12.031,0,0,1-7.313-2.473.977.977,0,0,0-1.191-.009l-3.309,2.482V234.9a2.953,2.953,0,0,1,2.953-2.953h5.906a2.953,2.953,0,0,1,2.953,2.953Z" transform="translate(-28.596 -204.388)" fill="#dbd8db"/>
        <path id="Trazado_1016127" data-name="Trazado 1016127" d="M387.211,239.838v-6.752a3.929,3.929,0,0,0-2.953,3.8v2.953a5.886,5.886,0,0,0,7.383,5.713A5.9,5.9,0,0,1,387.211,239.838Z" transform="translate(-337.991 -205.383)" fill="#e29a6c"/>
        <path id="Trazado_1016128" data-name="Trazado 1016128" d="M31.548,234.905v2.953l2.953-2.215v-3.691A2.953,2.953,0,0,0,31.548,234.905Z" transform="translate(-28.595 -204.389)" fill="#c9c5c9"/>
        <g id="Grupo_1163984" data-name="Grupo 1163984" transform="translate(11.813)">
          <path id="Trazado_1016129" data-name="Trazado 1016129" d="M138.117,308.585l-9.007-3.857a2.953,2.953,0,0,1-1.79-2.715v-5.931h-9.844v5.931a2.953,2.953,0,0,1-1.791,2.715l-9.007,3.857a4.922,4.922,0,0,0-2.984,4.525v6.6H141.1v-6.6A4.922,4.922,0,0,0,138.117,308.585Z" transform="translate(-103.694 -260.643)" fill="#fbbd80"/>
          <path id="Trazado_1016130" data-name="Trazado 1016130" d="M138.791,296.079v5.931a2.953,2.953,0,0,1-1.79,2.715l-9.007,3.857,1.162,2.715,9.008-3.858a5.883,5.883,0,0,0,3.34-3.794,2.208,2.208,0,0,1,2.135-1.66,13.509,13.509,0,0,0,5-.916v-4.991h-9.844Z" transform="translate(-125.01 -260.641)" fill="#f4aa73"/>
          <path id="Trazado_1016131" data-name="Trazado 1016131" d="M157.556,55.6a13.782,13.782,0,0,0-13.782,13.782V74.3h13.782Z" transform="translate(-138.852 -49.691)" fill="#ff744d"/>
          <path id="Trazado_1016132" data-name="Trazado 1016132" d="M256,55.6a13.782,13.782,0,0,1,13.782,13.782V74.3H256Z" transform="translate(-237.296 -49.691)" fill="#ffaa5a"/>
          <path id="Trazado_1016133" data-name="Trazado 1016133" d="M138.219,142.649H139.7a1.969,1.969,0,0,0,1.969-1.969V139.7a3.938,3.938,0,0,1,3.938-3.938h9.844a3.938,3.938,0,0,1,3.938,3.938v.984a1.969,1.969,0,0,0,1.969,1.969h1.336a2.558,2.558,0,0,1,2.589,2.207,2.461,2.461,0,0,1-2.448,2.715h-1.477a10.828,10.828,0,1,1-21.657,0H138.36a2.558,2.558,0,0,1-2.589-2.207A2.461,2.461,0,0,1,138.219,142.649Z" transform="translate(-131.821 -120.008)" fill="#ffd18d"/>
          <path id="Trazado_1016134" data-name="Trazado 1016134" d="M146.239,142.032a35.315,35.315,0,0,0,12.037-4.671l.216-.133a3.913,3.913,0,0,0-3.045-1.469H145.6a3.938,3.938,0,0,0-3.938,3.938v.984a1.969,1.969,0,0,1-1.969,1.969h-1.477a2.462,2.462,0,0,0-2.448,2.715,2.558,2.558,0,0,0,2.589,2.207H139.7A10.821,10.821,0,0,0,154.6,157.6l-1.931-.355a9.833,9.833,0,0,1-8.053-9.673v-3.61a1.975,1.975,0,0,1,1.621-1.93Z" transform="translate(-131.821 -120.008)" fill="#fbbd80"/>
          <circle id="Elipse_11868" data-name="Elipse 11868" cx="7.875" cy="7.875" r="7.875" transform="translate(10.828)" fill="#ffaa5a"/>
          <path id="Trazado_1016135" data-name="Trazado 1016135" d="M157.607,55.6a13.745,13.745,0,0,1,10.932,5.413,32.363,32.363,0,0,1-21.761,8.368c-.994,0-1.975-.052-2.946-.139A13.777,13.777,0,0,1,157.607,55.6Z" transform="translate(-138.903 -49.691)" fill="#ff8b57"/>
          <path id="Trazado_1016136" data-name="Trazado 1016136" d="M106.646,390.781H141.1v-8.566a4.922,4.922,0,0,0-2.984-4.525l-6.605-2.829-8.022,5.348a1.969,1.969,0,0,1-2.184,0l-8.022-5.348-6.606,2.829a4.922,4.922,0,0,0-2.984,4.525Z" transform="translate(-103.693 -329.748)" fill="#7ad7ee"/>
          <path id="Trazado_1016137" data-name="Trazado 1016137" d="M113.25,374.258l-6.573,2.9a4.922,4.922,0,0,0-2.984,4.525v8.566h2.953v-8.567a1.965,1.965,0,0,1,1.193-1.809l8.475-3.734Z" transform="translate(-103.693 -329.219)" fill="#4bc3ef"/>
        </g>
      </g>
      <g id="Grupo_1163986" data-name="Grupo 1163986" transform="translate(0 0)">
        <path id="Trazado_1016138" data-name="Trazado 1016138" d="M131.9,48.016l-9.007-3.857a2.03,2.03,0,0,1-1.232-1.868V38.675a11.767,11.767,0,0,0,5.871-9.27h.591a3.382,3.382,0,0,0,3.365-3.728,3.273,3.273,0,0,0-.975-2,.917.917,0,0,0,.008-.116V20.609a14.69,14.69,0,0,0-5.906-11.774,8.8,8.8,0,1,0-17.592-.008,14.8,14.8,0,0,0-1.248,1.044,14.644,14.644,0,0,0-4.622,9.688.921.921,0,0,0,1.837.13,12.861,12.861,0,0,1,25.689.92v2.1a3.6,3.6,0,0,0-.7-.068h-1.336a1.049,1.049,0,0,1-1.048-1.048v-.65a5.2,5.2,0,0,0-2.776-4.595c.848-.5,1.335-.847,1.406-.9a.921.921,0,0,0-1.07-1.5,37.35,37.35,0,0,1-15.341,5.631,2.035,2.035,0,0,0-1.78,2.009,1.049,1.049,0,0,1-1.048,1.048h-1.476a3.382,3.382,0,0,0-3.365,3.727,3.49,3.49,0,0,0,3.505,3.037h.45a11.662,11.662,0,0,0,3.406,7.387,11.816,11.816,0,0,0,2.465,1.891v3.608a2.03,2.03,0,0,1-1.232,1.868l-9.007,3.857a5.836,5.836,0,0,0-3.543,5.371v8.566a.921.921,0,1,0,1.842,0V53.387a4,4,0,0,1,2.426-3.678l5.576-2.388v5.836H103.02a2.893,2.893,0,0,0-2.89,2.89v3.938a2.893,2.893,0,0,0,2.89,2.89.921.921,0,1,0,0-1.842,1.049,1.049,0,0,1-1.048-1.048V56.047A1.049,1.049,0,0,1,103.02,55h7.875a1.049,1.049,0,0,1,1.048,1.048v3.938a1.049,1.049,0,0,1-1.048,1.048.921.921,0,1,0,0,1.842,2.893,2.893,0,0,0,2.89-2.89V56.047a2.893,2.893,0,0,0-2.89-2.89h-3.017V47.924l6.336,4.224a2.883,2.883,0,0,0,3.206,0l6.336-4.224v7.314a3.874,3.874,0,1,0,1.842,0V47.321l5.576,2.388a4,4,0,0,1,2.426,3.678v8.567a.921.921,0,0,0,1.842,0V53.387A5.837,5.837,0,0,0,131.9,48.016ZM108.968,7.6a6.952,6.952,0,0,1,13.7.007,14.7,14.7,0,0,0-13.7-.007ZM105.91,28.484a.921.921,0,0,0-.921-.921h-1.336a1.634,1.634,0,0,1-1.672-1.378,1.54,1.54,0,0,1,1.532-1.7h1.476a2.894,2.894,0,0,0,2.89-2.894.186.186,0,0,1,.173-.178,39.7,39.7,0,0,0,12.474-3.817,3.355,3.355,0,0,1,3.231,3.349v.65a2.893,2.893,0,0,0,2.89,2.89h1.336a1.634,1.634,0,0,1,1.672,1.378,1.54,1.54,0,0,1-1.532,1.7h-1.477a.921.921,0,0,0-.921.921,9.907,9.907,0,1,1-19.815,0ZM116.4,50.615a1.045,1.045,0,0,1-1.163,0l-6.607-4.4.838-.359a3.87,3.87,0,0,0,2.349-3.561V39.538a11.8,11.8,0,0,0,8-.006v2.759a3.87,3.87,0,0,0,2.349,3.561l.838.359ZM126.709,59a2.032,2.032,0,1,1-2.032-2.032A2.034,2.034,0,0,1,126.709,59Z" transform="translate(-84.379 0)"/>
        <path id="Trazado_1016139" data-name="Trazado 1016139" d="M209.34,200.4a.921.921,0,0,0-.921.921v.984a.921.921,0,0,0,1.842,0v-.984A.921.921,0,0,0,209.34,200.4Z" transform="translate(-182.825 -175.793)"/>
        <path id="Trazado_1016140" data-name="Trazado 1016140" d="M289.5,203.229a.921.921,0,0,0,.921-.921v-.984a.921.921,0,0,0-1.842,0v.984A.921.921,0,0,0,289.5,203.229Z" transform="translate(-253.143 -175.793)"/>
        <path id="Trazado_1016141" data-name="Trazado 1016141" d="M231.989,248.834a.921.921,0,0,0-1.3-.125,4.007,4.007,0,0,1-4.735,0,.921.921,0,1,0-1.172,1.421,5.839,5.839,0,0,0,7.078,0A.921.921,0,0,0,231.989,248.834Z" transform="translate(-196.888 -217.982)"/>
        <path id="Trazado_1016142" data-name="Trazado 1016142" d="M391.392,241.77l-3.887-1.3a.064.064,0,0,1-.043-.06v-2.533a6.824,6.824,0,0,0,2.953-5.617v-2.953a4.864,4.864,0,0,0-4.859-4.859h-3.938a4.864,4.864,0,0,0-4.859,4.859v2.953a6.824,6.824,0,0,0,2.953,5.617v2.533a.063.063,0,0,1-.043.06l-1.3.432a.921.921,0,1,0,.582,1.747l.83-.277,2.658,1.993a1.915,1.915,0,0,0,2.287,0l1.873-1.4v4.279a2.89,2.89,0,1,0,1.842,0v-4.515l2.364.788a1.046,1.046,0,0,1,.716.994v7.441a.921.921,0,1,0,1.842,0v-7.441a2.887,2.887,0,0,0-1.976-2.741Zm-12.79-9.506v-2.953a3.02,3.02,0,0,1,3.017-3.017h3.938a3.02,3.02,0,0,1,3.017,3.017v2.953a4.985,4.985,0,1,1-9.971,0Zm5.023,10.633a.064.064,0,0,1-.076,0l-2.19-1.642a1.9,1.9,0,0,0,.2-.841v-1.632a6.84,6.84,0,0,0,4.064,0v1.632a1.9,1.9,0,0,0,.2.841Zm3.9,8.134a1.048,1.048,0,1,1,1.048-1.048A1.049,1.049,0,0,1,387.525,251.031Z" transform="translate(-330.493 -196.889)"/>
        <path id="Trazado_1016143" data-name="Trazado 1016143" d="M8.637,244.369a1.915,1.915,0,0,0,2.287,0l2.658-1.993.83.276a.921.921,0,0,0,.582-1.747l-1.3-.432a.064.064,0,0,1-.043-.06V237.88a6.824,6.824,0,0,0,2.953-5.617v-3.938a3.879,3.879,0,0,0-3.874-3.874H6.827a3.879,3.879,0,0,0-3.874,3.874v3.938a6.824,6.824,0,0,0,2.953,5.617v2.533a.063.063,0,0,1-.043.06l-3.887,1.3A2.886,2.886,0,0,0,0,244.51v7.441a.921.921,0,1,0,1.842,0V244.51a1.046,1.046,0,0,1,.717-.994L5.906,242.4v4.692H4.859A1.908,1.908,0,0,0,2.953,249v1.969a1.907,1.907,0,0,0,1.905,1.905.921.921,0,0,0,0-1.842.063.063,0,0,1-.063-.063V249a.063.063,0,0,1,.063-.063H8.8A.063.063,0,0,1,8.86,249v1.969a.063.063,0,0,1-.063.063.921.921,0,0,0,0,1.842,1.908,1.908,0,0,0,1.906-1.905V249A1.908,1.908,0,0,0,8.8,247.092H7.748V243.7Zm-1.81-18.076h5.906a2.035,2.035,0,0,1,2.032,2.032v1.994a11.2,11.2,0,0,1-5.826-2.241,1.907,1.907,0,0,0-2.309-.018L4.8,229.437v-1.111a2.034,2.034,0,0,1,2.032-2.032ZM4.8,232.263v-.524l2.941-2.206a.057.057,0,0,1,.073,0,12.869,12.869,0,0,0,6.957,2.634v.1a4.985,4.985,0,1,1-9.971,0Zm4.985,6.827a6.8,6.8,0,0,0,2.032-.309v1.632a1.9,1.9,0,0,0,.2.841L9.819,242.9a.064.064,0,0,1-.076,0l-2.19-1.642a1.9,1.9,0,0,0,.2-.841v-1.632a6.8,6.8,0,0,0,2.032.309Z" transform="translate(0 -196.888)"/>
      </g>
    </g>
  </g>
</svg>
