<svg xmlns="http://www.w3.org/2000/svg" xmlns:xlink="http://www.w3.org/1999/xlink" width="108" height="108" viewBox="0 0 108 108">
  <defs>
    <filter id="Trazado_982547" x="0" y="0" width="108" height="108" filterUnits="userSpaceOnUse">
      <feOffset dy="3" input="SourceAlpha"/>
      <feGaussianBlur stdDeviation="3" result="blur"/>
      <feFlood flood-opacity="0.161"/>
      <feComposite operator="in" in2="blur"/>
      <feComposite in="SourceGraphic"/>
    </filter>
  </defs>
  <g id="Grupo_1163988" data-name="Grupo 1163988" transform="translate(-171 -3746)">
    <g id="Grupo_1162121" data-name="Grupo 1162121" transform="translate(0 -172)">
      <g id="Grupo_1161419" data-name="Grupo 1161419" transform="translate(0 -5495)">
        <g id="Grupo_1160581" data-name="Grupo 1160581" transform="translate(0 7864)">
          <g id="Grupo_1153955" data-name="Grupo 1153955" transform="translate(-83 1036)">
            <g id="Grupo_1149598" data-name="Grupo 1149598" transform="translate(80 315)">
              <g id="Grupo_1148770" data-name="Grupo 1148770" transform="translate(-27 -2583)">
                <g id="Grupo_1146954" data-name="Grupo 1146954" transform="translate(-415 -1202)">
                  <g transform="matrix(1, 0, 0, 1, 616, 3983)" filter="url(#Trazado_982547)">
                    <g id="Trazado_982547-2" data-name="Trazado 982547" transform="translate(9 6)" fill="#fcebe9">
                      <path d="M 45 88.5 C 39.12687683105469 88.5 33.43022537231445 87.35007476806641 28.06830024719238 85.08217620849609 C 22.88852500915527 82.89131164550781 18.23629951477051 79.75458526611328 14.2408504486084 75.75914764404297 C 10.24541282653809 71.76370239257812 7.108687400817871 67.11147308349609 4.917825222015381 61.93170166015625 C 2.649924993515015 56.56977462768555 1.5 50.87312316894531 1.5 45 C 1.5 39.12687683105469 2.649924993515015 33.43022537231445 4.917825222015381 28.06830024719238 C 7.108687400817871 22.88852500915527 10.24541282653809 18.23629951477051 14.2408504486084 14.2408504486084 C 18.23629951477051 10.24541282653809 22.88852500915527 7.108687400817871 28.06830024719238 4.917825222015381 C 33.43022537231445 2.649924993515015 39.12687683105469 1.5 45 1.5 C 50.87312316894531 1.5 56.56977462768555 2.649924993515015 61.93170166015625 4.917825222015381 C 67.11147308349609 7.108687400817871 71.76370239257812 10.24541282653809 75.75914764404297 14.2408504486084 C 79.75458526611328 18.23629951477051 82.89131164550781 22.88852500915527 85.08217620849609 28.06830024719238 C 87.35007476806641 33.43022537231445 88.5 39.12687683105469 88.5 45 C 88.5 50.87312316894531 87.35007476806641 56.56977462768555 85.08217620849609 61.93170166015625 C 82.89131164550781 67.11147308349609 79.75458526611328 71.76370239257812 75.75914764404297 75.75914764404297 C 71.76370239257812 79.75458526611328 67.11147308349609 82.89131164550781 61.93170166015625 85.08217620849609 C 56.56977462768555 87.35007476806641 50.87312316894531 88.5 45 88.5 Z" stroke="none"/>
                      <path d="M 45 3 C 39.32871246337891 3 33.82865524291992 4.110054016113281 28.65262985229492 6.299339294433594 C 23.65165710449219 8.414573669433594 19.15968322753906 11.44334411621094 15.301513671875 15.301513671875 C 11.44334411621094 19.15968322753906 8.414573669433594 23.65165710449219 6.299339294433594 28.65262985229492 C 4.110054016113281 33.82865524291992 3 39.32871246337891 3 45 C 3 50.67128753662109 4.110054016113281 56.17134475708008 6.299339294433594 61.34737396240234 C 8.414573669433594 66.34834289550781 11.44334411621094 70.84031677246094 15.301513671875 74.698486328125 C 19.15968322753906 78.55665588378906 23.65165710449219 81.58542633056641 28.65262985229492 83.70066070556641 C 33.82865524291992 85.88994598388672 39.32871246337891 87 45 87 C 50.67128753662109 87 56.17134475708008 85.88994598388672 61.34737396240234 83.70066070556641 C 66.34834289550781 81.58542633056641 70.84031677246094 78.55665588378906 74.698486328125 74.698486328125 C 78.55665588378906 70.84031677246094 81.58542633056641 66.34834289550781 83.70066070556641 61.34737396240234 C 85.88994598388672 56.17134475708008 87 50.67128753662109 87 45 C 87 39.32871246337891 85.88994598388672 33.82865524291992 83.70066070556641 28.65262985229492 C 81.58542633056641 23.65165710449219 78.55665588378906 19.15968322753906 74.698486328125 15.301513671875 C 70.84031677246094 11.44334411621094 66.34834289550781 8.414573669433594 61.34737396240234 6.299339294433594 C 56.17134475708008 4.110054016113281 50.67128753662109 3 45 3 M 45 0 C 69.85281372070312 0 90 20.14718627929688 90 45 C 90 69.85281372070312 69.85281372070312 90 45 90 C 20.14718627929688 90 0 69.85281372070312 0 45 C 0 20.14718627929688 20.14718627929688 0 45 0 Z" stroke="none" fill="#e44b36"/>
                    </g>
                  </g>
                </g>
              </g>
            </g>
          </g>
        </g>
      </g>
    </g>
    <g id="proteger_1_" data-name="proteger (1)" transform="translate(194 3766.5)">
      <path id="Trazado_1016144" data-name="Trazado 1016144" d="M93.835,284.592,81.565,292.8l-3.657-.205-.143-1.439a4.672,4.672,0,0,0-3.994-4.164L60.8,285.858c-1.271-.18-3.945-1.593-6.042-2.8a13.342,13.342,0,0,0-6.524-1.773l-6.6-.055v16.124l18.669,7.07a5.074,5.074,0,0,0,2.171.144l.013,0,18.8-2.709a8.319,8.319,0,0,0,3.945-1.768l12.148-10.925a2.9,2.9,0,0,0-3.544-4.576Zm0,0" transform="translate(-36.535 -246.336)" fill="#fae0c1"/>
      <path id="Trazado_1016145" data-name="Trazado 1016145" d="M97.851,312.573a2.893,2.893,0,0,0-.265-.334l-12.355,9.073a8.316,8.316,0,0,1-3.945,1.768l-18.8,2.71-.013,0a5.081,5.081,0,0,1-2.171-.145l-18.669-7.069v5.987l18.669,7.07a5.074,5.074,0,0,0,2.171.144l.013,0,18.8-2.709a8.319,8.319,0,0,0,3.945-1.768l12.148-10.925A2.9,2.9,0,0,0,97.851,312.573Zm0,0" transform="translate(-36.534 -273.541)" fill="#efd0af"/>
      <path id="Trazado_1016146" data-name="Trazado 1016146" d="M16.512,270.5H8.757a1.269,1.269,0,0,1-1.269-1.269V245.554a1.269,1.269,0,0,1,1.269-1.269h7.755a1.269,1.269,0,0,1,1.269,1.269v23.679A1.269,1.269,0,0,1,16.512,270.5Zm0,0" transform="translate(-6.57 -213.914)" fill="#f43b45"/>
      <path id="Trazado_1016147" data-name="Trazado 1016147" d="M47.426,244.285H42.719V270.5h4.707a1.269,1.269,0,0,0,1.269-1.269V245.554A1.269,1.269,0,0,0,47.426,244.285Zm0,0" transform="translate(-37.484 -213.914)" fill="#cf3735"/>
      <path id="Trazado_1016148" data-name="Trazado 1016148" d="M153.173,16.209a8.977,8.977,0,0,1-5.5-7.509.887.887,0,0,0-.891-.806l-9.319.055h-.189L127.956,8a.893.893,0,0,0-.883.829,8.978,8.978,0,0,1-5.417,7.563,1.281,1.281,0,0,0-.769,1.313c.428,4.09,2.919,18.02,16.5,24.285a.422.422,0,0,0,.181.039.429.429,0,0,0,.18-.041c13.507-6.423,15.835-20.38,16.215-24.476a1.287,1.287,0,0,0-.792-1.308Zm0,0" transform="translate(-106.068 -6.489)" fill="#75cff2"/>
      <path id="Trazado_1016149" data-name="Trazado 1016149" d="M250.978,16.209a8.977,8.977,0,0,1-5.5-7.509.887.887,0,0,0-.891-.806l-5.13.03a8.977,8.977,0,0,0,5.526,8.281,1.3,1.3,0,0,1,.8,1.311c-.352,3.8-2.381,16.071-13.44,22.958a27.957,27.957,0,0,0,2.85,1.52.43.43,0,0,0,.181.039.422.422,0,0,0,.18-.041c13.507-6.423,15.835-20.38,16.215-24.476a1.288,1.288,0,0,0-.793-1.308Zm0,0" transform="translate(-203.874 -6.489)" fill="#53b4e4"/>
      <path id="Trazado_1016150" data-name="Trazado 1016150" d="M163.509,62.947c-9.294-5.044-11.989-14.4-12.761-18.99a.491.491,0,0,1,.224-.5,12.012,12.012,0,0,0,5.2-6.831.494.494,0,0,1,.471-.353l13.895-.081a.493.493,0,0,1,.475.347,12.014,12.014,0,0,0,5.281,6.769.491.491,0,0,1,.23.5c-.718,4.6-3.3,13.987-12.537,19.139a.5.5,0,0,1-.477,0Zm0,0" transform="translate(-132.27 -31.319)" fill="#e1e0de"/>
      <path id="Trazado_1016151" data-name="Trazado 1016151" d="M247.757,43.308a12.015,12.015,0,0,1-5.281-6.769.493.493,0,0,0-.475-.347l-5.6.033a12.012,12.012,0,0,0,5.372,7.085.489.489,0,0,1,.229.5c-.642,4.111-2.776,12.048-9.817,17.366a23.5,23.5,0,0,0,2.789,1.776.5.5,0,0,0,.477,0c9.234-5.152,11.819-14.539,12.537-19.139a.49.49,0,0,0-.23-.5Zm0,0" transform="translate(-203.733 -31.318)" fill="#d6d6d6"/>
      <path id="Trazado_1016152" data-name="Trazado 1016152" d="M33.739,394a2.333,2.333,0,1,1-2.332-2.332A2.332,2.332,0,0,1,33.739,394Zm0,0" transform="translate(-25.511 -343.238)" fill="#ededed"/>
      <path id="Trazado_1016153" data-name="Trazado 1016153" d="M217.689,101.262a.928.928,0,0,0,1.4-.159l6.117-9.231a.919.919,0,1,0-1.532-1.016l-5.512,8.319L215.1,96.267a.919.919,0,1,0-1.266,1.333l3.857,3.662Zm0,0" transform="translate(-187.379 -78.924)"/>
      <path id="Trazado_1016154" data-name="Trazado 1016154" d="M130.435,36.355a1.362,1.362,0,0,0,.563.123h.008a1.345,1.345,0,0,0,.57-.13c13.974-6.646,16.343-20.985,16.735-25.221a2.2,2.2,0,0,0-1.355-2.241,8.031,8.031,0,0,1-4.935-6.74A1.815,1.815,0,0,0,140.219.5h-.011L121.382.61a1.8,1.8,0,0,0-1.793,1.678,8.033,8.033,0,0,1-4.863,6.789A2.189,2.189,0,0,0,113.4,11.33c.442,4.232,2.979,18.543,17.03,25.024ZM115.448,10.767a9.862,9.862,0,0,0,5.971-8.319l18.773-.11a9.864,9.864,0,0,0,6.059,8.244.37.37,0,0,1,.23.375c-.369,3.97-2.574,17.357-15.486,23.631-12.987-6.121-15.347-19.482-15.763-23.448a.362.362,0,0,1,.216-.373Zm0,0" transform="translate(-99.498)"/>
      <path id="Trazado_1016155" data-name="Trazado 1016155" d="M143.941,40.691a.969.969,0,0,0,1.128.646.92.92,0,0,0,.646-1.128c-.234-.863-.431-1.737-.585-2.6a12.925,12.925,0,0,0,5.258-6.891l13.272-.078A12.924,12.924,0,0,0,169,37.465c-.144.869-.331,1.746-.555,2.612a.919.919,0,1,0,1.78.461c.263-1.017.478-2.049.637-3.067a1.405,1.405,0,0,0-.662-1.425,11.091,11.091,0,0,1-4.877-6.252,1.421,1.421,0,0,0-1.351-1h-.009l-13.895.081a1.422,1.422,0,0,0-1.347,1.013,11.091,11.091,0,0,1-4.8,6.309,1.4,1.4,0,0,0-.646,1.433c.171,1.016.4,2.045.673,3.058Zm0,0" transform="translate(-125.696 -24.83)"/>
      <path id="Trazado_1016156" data-name="Trazado 1016156" d="M182.808,147.6a.918.918,0,0,0-1.2.5,23.148,23.148,0,0,1-10,11.636A23.157,23.157,0,0,1,161.474,148.2a.919.919,0,0,0-1.692.72,24.93,24.93,0,0,0,11.159,12.545,1.407,1.407,0,0,0,1.363-.008,24.922,24.922,0,0,0,11-12.656.918.918,0,0,0-.5-1.2Zm0,0" transform="translate(-140.139 -129.017)"/>
      <path id="Trazado_1016157" data-name="Trazado 1016157" d="M24.837,384.273a3.251,3.251,0,1,0,3.252,3.251A3.255,3.255,0,0,0,24.837,384.273Zm0,4.665a1.413,1.413,0,1,1,1.414-1.413A1.415,1.415,0,0,1,24.837,388.938Zm0,0" transform="translate(-18.941 -336.749)"/>
      <path id="Trazado_1016158" data-name="Trazado 1016158" d="M62.078,245.953a3.828,3.828,0,0,0-5.287-1.022l-12.014,8.041-2.565-.144-.066-.657a5.577,5.577,0,0,0-4.78-4.983l-.048-.006-12.945-1.134c-.438-.068-1.84-.471-5.692-2.68a14.3,14.3,0,0,0-6.55-1.884v-2.4a2.19,2.19,0,0,0-2.188-2.188H2.188A2.191,2.191,0,0,0,0,239.079v23.679a2.191,2.191,0,0,0,2.188,2.188H9.944a2.191,2.191,0,0,0,2.188-2.188v-.652l11.316,4.285a6.329,6.329,0,0,0,2.633.194l18.8-2.711.014,0a9.245,9.245,0,0,0,4.381-1.963l.034-.029,12.144-10.922a3.828,3.828,0,0,0,.622-5Zm-1.847,3.634L48.1,260.5a7.405,7.405,0,0,1-3.486,1.557l-18.789,2.709-.016,0H25.8a4.127,4.127,0,0,1-1.74-.111L12.131,260.14v-10.5a.919.919,0,0,0-1.838,0v13.113a.35.35,0,0,1-.35.35H2.188a.35.35,0,0,1-.35-.35V239.079a.35.35,0,0,1,.35-.35H9.944a.35.35,0,0,1,.35.35v6.415a.919.919,0,0,0,1.838,0v-2.171a12.448,12.448,0,0,1,5.635,1.639c4.646,2.665,5.944,2.848,6.37,2.909l.048.006,12.947,1.134a3.745,3.745,0,0,1,3.186,3.341l.049.49-17.333,1.07-.034,0a2.1,2.1,0,0,1-1.43-.748.919.919,0,1,0-1.412,1.177,3.979,3.979,0,0,0,2.678,1.4c.568.059,18.542-1.119,18.542-1.119l3.6.2a.916.916,0,0,0,.562-.154l12.271-8.212a1.981,1.981,0,0,1,2.416,3.13Zm0,0" transform="translate(0 -207.426)"/>
    </g>
  </g>
</svg>
