<svg xmlns="http://www.w3.org/2000/svg" xmlns:xlink="http://www.w3.org/1999/xlink" width="108" height="108" viewBox="0 0 108 108">
  <defs>
    <filter id="Trazado_982547" x="0" y="0" width="108" height="108" filterUnits="userSpaceOnUse">
      <feOffset dy="3" input="SourceAlpha"/>
      <feGaussianBlur stdDeviation="3" result="blur"/>
      <feFlood flood-opacity="0.161"/>
      <feComposite operator="in" in2="blur"/>
      <feComposite in="SourceGraphic"/>
    </filter>
  </defs>
  <g id="Grupo_1164050" data-name="Grupo 1164050" transform="translate(-196 -3683)">
    <g id="Grupo_1163928" data-name="Grupo 1163928" transform="translate(205 3689)">
      <g id="Grupo_1161476" data-name="Grupo 1161476" transform="translate(0)">
        <g id="Grupo_1153959" data-name="Grupo 1153959">
          <g id="Grupo_1153955" data-name="Grupo 1153955">
            <g id="Grupo_1149598" data-name="Grupo 1149598">
              <g id="Grupo_1148770" data-name="Grupo 1148770">
                <g id="Grupo_1146954" data-name="Grupo 1146954">
                  <g transform="matrix(1, 0, 0, 1, -9, -6)" filter="url(#Trazado_982547)">
                    <g id="Trazado_982547-2" data-name="Trazado 982547" transform="translate(9 6)" fill="#fcebe9">
                      <path d="M 45.00000381469727 88.5 C 39.12688064575195 88.5 33.43022918701172 87.35007476806641 28.06830406188965 85.08217620849609 C 22.88852882385254 82.89131164550781 18.23630332946777 79.75458526611328 14.24085426330566 75.75914764404297 C 10.24541664123535 71.76370239257812 7.108691215515137 67.11147308349609 4.917829036712646 61.93170166015625 C 2.64992880821228 56.56977462768555 1.500003814697266 50.87312316894531 1.500003814697266 45 C 1.500003814697266 39.12687683105469 2.64992880821228 33.43022537231445 4.917829036712646 28.06830024719238 C 7.108691215515137 22.88852500915527 10.24541664123535 18.23629951477051 14.24085426330566 14.2408504486084 C 18.23630332946777 10.24541282653809 22.88852882385254 7.108687400817871 28.06830406188965 4.917825222015381 C 33.43022918701172 2.649924993515015 39.12688064575195 1.5 45.00000381469727 1.5 C 50.87312698364258 1.5 56.56977844238281 2.649924993515015 61.93170547485352 4.917825222015381 C 67.11148071289062 7.108687400817871 71.76370239257812 10.24541282653809 75.7591552734375 14.2408504486084 C 79.75459289550781 18.23629951477051 82.89131927490234 22.88852500915527 85.08217620849609 28.06830024719238 C 87.35008239746094 33.43022537231445 88.5 39.12687683105469 88.5 45 C 88.5 50.87312316894531 87.35008239746094 56.56977462768555 85.08217620849609 61.93170166015625 C 82.89131927490234 67.11147308349609 79.75459289550781 71.76370239257812 75.7591552734375 75.75914764404297 C 71.76370239257812 79.75458526611328 67.11148071289062 82.89131164550781 61.93170547485352 85.08217620849609 C 56.56977844238281 87.35007476806641 50.87312698364258 88.5 45.00000381469727 88.5 Z" stroke="none"/>
                      <path d="M 45.00000381469727 3 C 39.32871627807617 3 33.82865905761719 4.110054016113281 28.65263366699219 6.299339294433594 C 23.65166473388672 8.414573669433594 19.15969085693359 11.44334411621094 15.30152130126953 15.301513671875 C 11.44334411621094 19.15968322753906 8.414573669433594 23.65165710449219 6.299346923828125 28.65262985229492 C 4.110061645507812 33.82865524291992 3.000007629394531 39.32871246337891 3.000007629394531 45 C 3.000007629394531 50.67128753662109 4.110061645507812 56.17134475708008 6.299346923828125 61.34737396240234 C 8.414573669433594 66.34834289550781 11.44334411621094 70.84031677246094 15.30152130126953 74.698486328125 C 19.15969085693359 78.55665588378906 23.65166473388672 81.58542633056641 28.65263366699219 83.70066070556641 C 33.82865905761719 85.88994598388672 39.32871627807617 87 45.00000381469727 87 C 50.67129135131836 87 56.17134857177734 85.88994598388672 61.34737396240234 83.70066070556641 C 66.34834289550781 81.58542633056641 70.84031677246094 78.55665588378906 74.698486328125 74.698486328125 C 78.55666351318359 70.84031677246094 81.58543395996094 66.34834289550781 83.70066070556641 61.34737396240234 C 85.88994598388672 56.17134475708008 87 50.67128753662109 87 45 C 87 39.32871246337891 85.88994598388672 33.82865524291992 83.70066070556641 28.65262985229492 C 81.58543395996094 23.65165710449219 78.55666351318359 19.15968322753906 74.698486328125 15.301513671875 C 70.84031677246094 11.44334411621094 66.34834289550781 8.414573669433594 61.34737396240234 6.299339294433594 C 56.17134857177734 4.110054016113281 50.67129135131836 3 45.00000381469727 3 M 45.00000381469727 0 C 69.85281372070312 0 90 20.14718627929688 90 45 C 90 69.85281372070312 69.85281372070312 90 45.00000381469727 90 C 20.14718627929688 90 7.62939453125e-06 69.85281372070312 7.62939453125e-06 45 C 7.62939453125e-06 20.14718627929688 20.14718627929688 0 45.00000381469727 0 Z" stroke="none" fill="#e44b36"/>
                    </g>
                  </g>
                </g>
              </g>
            </g>
          </g>
        </g>
      </g>
    </g>
    <g id="trabajador" transform="translate(218.854 3704)">
      <g id="Grupo_1164040" data-name="Grupo 1164040" transform="translate(13.306 2.226)">
        <path id="Trazado_1016302" data-name="Trazado 1016302" d="M106.493,31.528h8.43c1.74-4.167,1.849-7.279,1.852-12.3a13.164,13.164,0,0,0-10.553,12.31A2.457,2.457,0,0,1,106.493,31.528Z" transform="translate(-106.222 -19.231)" fill="#ffda8f" fill-rule="evenodd"/>
      </g>
      <g id="Grupo_1164041" data-name="Grupo 1164041" transform="translate(29.211 2.285)">
        <path id="Trazado_1016303" data-name="Trazado 1016303" d="M243.651,19.746c.007,4.981.119,8.083,1.855,12.237h8.159a2.443,2.443,0,0,1,.268.013A13.158,13.158,0,0,0,243.651,19.746Z" transform="translate(-243.651 -19.746)" fill="#ffda8f" fill-rule="evenodd"/>
      </g>
      <g id="Grupo_1164042" data-name="Grupo 1164042" transform="translate(10.905 14.522)">
        <path id="Trazado_1016304" data-name="Trazado 1016304" d="M88.147,130.826h25.647a2.671,2.671,0,0,0,.268-5.328,2.415,2.415,0,0,0-.268-.013H88.147a2.46,2.46,0,0,0-.271.013,2.67,2.67,0,0,0-.093,5.3A2.608,2.608,0,0,0,88.147,130.826Z" transform="translate(-85.475 -125.485)" fill="#ffda8f" fill-rule="evenodd"/>
      </g>
      <g id="Grupo_1164043" data-name="Grupo 1164043" transform="translate(22.007 1.157)">
        <path id="Trazado_1016305" data-name="Trazado 1016305" d="M181.408,23.366h9.058c-1.736-4.154-1.849-7.256-1.855-12.237V10.58a.582.582,0,0,0-.579-.579h-4.194a.582.582,0,0,0-.579.579v.49C183.257,16.086,183.148,19.2,181.408,23.366Z" transform="translate(-181.408 -10.001)" fill="#ffe6b4" fill-rule="evenodd"/>
      </g>
      <g id="Grupo_1164044" data-name="Grupo 1164044" transform="translate(13.214 19.837)">
        <path id="Trazado_1016306" data-name="Trazado 1016306" d="M118.6,187.527a9.393,9.393,0,0,0,3.287-.668,14.586,14.586,0,0,0,3.893-2.213c3.526-2.758,6.009-6.995,6.009-10.55v-2.686a2.653,2.653,0,0,1-.364.026H105.783a2.616,2.616,0,0,1-.364-.026V174.1c0,3.555,2.484,7.792,6.009,10.55a14.648,14.648,0,0,0,3.873,2.209A9.339,9.339,0,0,0,118.6,187.527Z" transform="translate(-105.419 -171.411)" fill="#f5c6af" fill-rule="evenodd"/>
      </g>
      <g id="Grupo_1164045" data-name="Grupo 1164045" transform="translate(2.302 33.88)">
        <path id="Trazado_1016307" data-name="Trazado 1016307" d="M15.088,314.585H54.827a26.615,26.615,0,0,1-2.976-4.247,18.247,18.247,0,0,1-2.322-10,12.4,12.4,0,0,0,4.514-1.409,19.783,19.783,0,0,0-8.8-6.171c1.151,4.521-1.115,7.312-2.679,9.2l-7.332-7.127L27.9,301.958c-1.568-1.888-3.83-4.68-2.682-9.2-8.8,3.142-12.435,10.772-13.814,17-.807,3.651.112,4.832,3.681,4.832Z" transform="translate(-11.135 -292.757)" fill="#ecf2f3" fill-rule="evenodd"/>
      </g>
      <g id="Grupo_1164046" data-name="Grupo 1164046" transform="translate(16.076 33.073)">
        <path id="Trazado_1016308" data-name="Trazado 1016308" d="M130.463,286.59c-1.148,4.521,1.115,7.312,2.682,9.2l7.329-7.127a9.34,9.34,0,0,1-3.3-.671,14.648,14.648,0,0,1-3.873-2.209A23.265,23.265,0,0,0,130.463,286.59Z" transform="translate(-130.15 -285.783)" fill="#b5cdcd" fill-rule="evenodd"/>
      </g>
      <g id="Grupo_1164047" data-name="Grupo 1164047" transform="translate(26.399 33.073)">
        <path id="Trazado_1016309" data-name="Trazado 1016309" d="M219.359,288.664l7.332,7.127c1.564-1.888,3.83-4.68,2.679-9.2a23.045,23.045,0,0,0-2.831-.807A14.587,14.587,0,0,1,222.646,288,9.4,9.4,0,0,1,219.359,288.664Z" transform="translate(-219.359 -285.783)" fill="#b5cdcd" fill-rule="evenodd"/>
      </g>
      <g id="Grupo_1164048" data-name="Grupo 1164048" transform="translate(40.688 36.393)">
        <path id="Trazado_1016310" data-name="Trazado 1016310" d="M342.834,319.543a18.245,18.245,0,0,0,2.322,10,26.6,26.6,0,0,0,2.976,4.247c1.336,1.544,2.847,2.854,4.071,2.854,2.431,0,6.009-5.166,7.048-7.1a18.3,18.3,0,0,0,2.322-10c-3.254-.284-6.849-2.418-9.369-5.067a18.652,18.652,0,0,1-4.855,3.658A12.4,12.4,0,0,1,342.834,319.543Z" transform="translate(-342.825 -314.476)" fill="#e0ef9b" fill-rule="evenodd"/>
      </g>
      <g id="Grupo_1164049" data-name="Grupo 1164049" transform="translate(1.146 0)">
        <path id="Trazado_1016311" data-name="Trazado 1016311" d="M394.431,389.254a1.157,1.157,0,1,0-1.405,1.839L395,392.6a1.157,1.157,0,0,0,1.56-.143l3.78-4.174a1.157,1.157,0,1,0-1.716-1.554l-3.065,3.385Z" transform="translate(-347.272 -341.643)"/>
        <path id="Trazado_1016312" data-name="Trazado 1016312" d="M60.592,41.434a1.157,1.157,0,0,0-1.056-1.127c-2.753-.241-6.141-2.09-8.631-4.711a1.158,1.158,0,0,0-.839-.36h0a1.157,1.157,0,0,0-.838.36,17.523,17.523,0,0,1-3.754,2.984,20.894,20.894,0,0,0-8.631-5.772c-.03-.012-.059-.023-.09-.032q-.4-.14-.8-.268c2.866-2.859,4.794-6.615,4.794-9.985V20.7a3.827,3.827,0,0,0-.163-7.089A14.277,14.277,0,0,0,30.331,1.379,1.739,1.739,0,0,0,28.632,0H24.438a1.737,1.737,0,0,0-1.677,1.3A14.313,14.313,0,0,0,12.217,13.615a3.826,3.826,0,0,0-.161,7.09v1.818c0,3.367,1.928,7.125,4.795,9.986q-.393.124-.778.259a1.15,1.15,0,0,0-.147.053,20.887,20.887,0,0,0-9.441,6.762,26.977,26.977,0,0,0-5.04,11.044C1.1,52.17.846,54.11,1.9,55.421c1.028,1.28,2.868,1.444,4.356,1.444h7.57a1.157,1.157,0,1,0,0-2.315H6.255c-1.384,0-2.243-.195-2.552-.579-.327-.407-.327-1.365,0-2.845,1.2-5.417,4.144-12.047,11.229-15.394-.218,3.91,1.9,6.465,3.247,8.087a1.157,1.157,0,0,0,1.7.091L26.4,37.567l6.525,6.343a1.158,1.158,0,0,0,.807.327l.062,0a1.157,1.157,0,0,0,.829-.417c1.345-1.623,3.46-4.18,3.244-8.082a18.449,18.449,0,0,1,5.434,3.9,10.008,10.008,0,0,1-2.7.666,1.157,1.157,0,0,0-1.056,1.126A19.418,19.418,0,0,0,42,52c.016.029.646,1.16,1.629,2.546H24.3a1.157,1.157,0,1,0,0,2.315H45.465c1.4,1.542,3.041,2.854,4.6,2.854,3.765,0,8.026-7.638,8.067-7.714a19.48,19.48,0,0,0,2.459-10.572ZM38.221,13.365H31.849A25.065,25.065,0,0,1,30.377,3.82a11.965,11.965,0,0,1,7.844,9.544Zm-13.2-11.05h3.037c.007,4.48.121,7.513,1.334,11.05h-5.7C24.9,9.828,25.009,6.794,25.016,2.315ZM22.695,3.729c-.038,3.857-.259,6.466-1.471,9.636H14.581a12.121,12.121,0,0,1,8.114-9.636Zm-9.117,11.95h7.742c.068.055.134.062.189,0H39.225a1.513,1.513,0,0,1,0,3.027H13.577a1.513,1.513,0,1,1,0-3.027Zm.793,6.843v-1.5h24.06v1.5c0,4.412-4.274,9.869-9.148,11.678a7.324,7.324,0,0,1-5.783,0c-4.863-1.816-9.13-7.272-9.13-11.675Zm4.8,18.844a7.873,7.873,0,0,1-1.8-6.6q.766-.247,1.585-.448a15.556,15.556,0,0,0,3.73,2.046c.42.156.824.285,1.219.392Zm14.454,0-4.741-4.608c.39-.106.789-.233,1.2-.387a15.545,15.545,0,0,0,3.749-2.049q.81.2,1.584.447a7.878,7.878,0,0,1-1.795,6.6Zm22.466,9.546C54.725,53.466,51.52,57.4,50.066,57.4s-4.659-3.939-6.028-6.495a16.717,16.717,0,0,1-2.191-8.444,14.528,14.528,0,0,0,3.826-1.354,1.154,1.154,0,0,0,.132-.068,19.5,19.5,0,0,0,4.261-3.022,17.408,17.408,0,0,0,8.219,4.445,16.772,16.772,0,0,1-2.191,8.445Z" transform="translate(-1.146 0)"/>
        <path id="Trazado_1016313" data-name="Trazado 1016313" d="M147.131,471.373a1.157,1.157,0,1,0,0,2.315h.007a1.157,1.157,0,0,0-.007-2.315Z" transform="translate(-129.214 -416.823)"/>
      </g>
    </g>
  </g>
</svg>
