<svg xmlns="http://www.w3.org/2000/svg" xmlns:xlink="http://www.w3.org/1999/xlink" width="108" height="108" viewBox="0 0 108 108">
  <defs>
    <filter id="Trazado_982547" x="0" y="0" width="108" height="108" filterUnits="userSpaceOnUse">
      <feOffset dy="3" input="SourceAlpha"/>
      <feGaussianBlur stdDeviation="3" result="blur"/>
      <feFlood flood-opacity="0.161"/>
      <feComposite operator="in" in2="blur"/>
      <feComposite in="SourceGraphic"/>
    </filter>
  </defs>
  <g id="Grupo_1163989" data-name="Grupo 1163989" transform="translate(-606 -311)">
    <g id="Grupo_1162172" data-name="Grupo 1162172" transform="translate(2 11)">
      <g id="Grupo_1161369" data-name="Grupo 1161369" transform="translate(613 306)">
        <g id="Grupo_1153959" data-name="Grupo 1153959" transform="translate(0)">
          <g id="Grupo_1153955" data-name="Grupo 1153955" transform="translate(0)">
            <g id="Grupo_1149598" data-name="Grupo 1149598" transform="translate(0)">
              <g id="Grupo_1148770" data-name="Grupo 1148770" transform="translate(0)">
                <g id="Grupo_1146954" data-name="Grupo 1146954" transform="translate(0)">
                  <g transform="matrix(1, 0, 0, 1, -9, -6)" filter="url(#Trazado_982547)">
                    <g id="Trazado_982547-2" data-name="Trazado 982547" transform="translate(9 6)" fill="#fef7ea">
                      <path d="M 45.00000381469727 88.5 C 39.12688064575195 88.5 33.43022918701172 87.35007476806641 28.06830406188965 85.08217620849609 C 22.88852882385254 82.89131164550781 18.23630332946777 79.75458526611328 14.24085426330566 75.75914764404297 C 10.24541664123535 71.76370239257812 7.108691215515137 67.11147308349609 4.917829036712646 61.93170166015625 C 2.64992880821228 56.56977462768555 1.500003814697266 50.87312316894531 1.500003814697266 45 C 1.500003814697266 39.12687683105469 2.64992880821228 33.43022537231445 4.917829036712646 28.06830024719238 C 7.108691215515137 22.88852500915527 10.24541664123535 18.23629951477051 14.24085426330566 14.2408504486084 C 18.23630332946777 10.24541282653809 22.88852882385254 7.108687400817871 28.06830406188965 4.917825222015381 C 33.43022918701172 2.649924993515015 39.12688064575195 1.5 45.00000381469727 1.5 C 50.87312698364258 1.5 56.56977844238281 2.649924993515015 61.93170547485352 4.917825222015381 C 67.11148071289062 7.108687400817871 71.76370239257812 10.24541282653809 75.7591552734375 14.2408504486084 C 79.75459289550781 18.23629951477051 82.89131927490234 22.88852500915527 85.08217620849609 28.06830024719238 C 87.35008239746094 33.43022537231445 88.5 39.12687683105469 88.5 45 C 88.5 50.87312316894531 87.35008239746094 56.56977462768555 85.08217620849609 61.93170166015625 C 82.89131927490234 67.11147308349609 79.75459289550781 71.76370239257812 75.7591552734375 75.75914764404297 C 71.76370239257812 79.75458526611328 67.11148071289062 82.89131164550781 61.93170547485352 85.08217620849609 C 56.56977844238281 87.35007476806641 50.87312698364258 88.5 45.00000381469727 88.5 Z" stroke="none"/>
                      <path d="M 45.00000381469727 3 C 39.32871627807617 3 33.82865905761719 4.110054016113281 28.65263366699219 6.299339294433594 C 23.65166473388672 8.414573669433594 19.15969085693359 11.44334411621094 15.30152130126953 15.301513671875 C 11.44334411621094 19.15968322753906 8.414573669433594 23.65165710449219 6.299346923828125 28.65262985229492 C 4.110061645507812 33.82865524291992 3.000007629394531 39.32871246337891 3.000007629394531 45 C 3.000007629394531 50.67128753662109 4.110061645507812 56.17134475708008 6.299346923828125 61.34737396240234 C 8.414573669433594 66.34834289550781 11.44334411621094 70.84031677246094 15.30152130126953 74.698486328125 C 19.15969085693359 78.55665588378906 23.65166473388672 81.58542633056641 28.65263366699219 83.70066070556641 C 33.82865905761719 85.88994598388672 39.32871627807617 87 45.00000381469727 87 C 50.67129135131836 87 56.17134857177734 85.88994598388672 61.34737396240234 83.70066070556641 C 66.34834289550781 81.58542633056641 70.84031677246094 78.55665588378906 74.698486328125 74.698486328125 C 78.55666351318359 70.84031677246094 81.58543395996094 66.34834289550781 83.70066070556641 61.34737396240234 C 85.88994598388672 56.17134475708008 87 50.67128753662109 87 45 C 87 39.32871246337891 85.88994598388672 33.82865524291992 83.70066070556641 28.65262985229492 C 81.58543395996094 23.65165710449219 78.55666351318359 19.15968322753906 74.698486328125 15.301513671875 C 70.84031677246094 11.44334411621094 66.34834289550781 8.414573669433594 61.34737396240234 6.299339294433594 C 56.17134857177734 4.110054016113281 50.67129135131836 3 45.00000381469727 3 M 45.00000381469727 0 C 69.85281372070312 0 90 20.14718627929688 90 45 C 90 69.85281372070312 69.85281372070312 90 45.00000381469727 90 C 20.14718627929688 90 7.62939453125e-06 69.85281372070312 7.62939453125e-06 45 C 7.62939453125e-06 20.14718627929688 20.14718627929688 0 45.00000381469727 0 Z" stroke="none" fill="#fcba3d"/>
                    </g>
                  </g>
                </g>
              </g>
            </g>
          </g>
        </g>
      </g>
    </g>
    <g id="Filled_outline" data-name="Filled outline" transform="translate(616.698 318.698)">
      <path id="Trazado_1016159" data-name="Trazado 1016159" d="M91.64,72h36.4a3.64,3.64,0,0,1,3.64,3.64v28.212a2.73,2.73,0,0,1-2.73,2.73H90.73a2.73,2.73,0,0,1-2.73-2.73V75.64A3.64,3.64,0,0,1,91.64,72Z" transform="translate(-63.809 -49.63)" fill="#4db7e5"/>
      <path id="Trazado_1016160" data-name="Trazado 1016160" d="M432.91,72H432v34.582h1.82V72.115A3.648,3.648,0,0,0,432.91,72Z" transform="translate(-368.677 -49.63)" fill="#48add9"/>
      <path id="Trazado_1016161" data-name="Trazado 1016161" d="M158.942,24h-27.3A3.64,3.64,0,0,0,128,27.64V65.863h34.582V27.64A3.64,3.64,0,0,0,158.942,24Z" transform="translate(-99.259 -7.09)" fill="#348fd9"/>
      <path id="Trazado_1016162" data-name="Trazado 1016162" d="M173.217,100,140,133.217h33.217Z" transform="translate(-109.894 -74.444)" fill="#3086cd"/>
      <path id="Trazado_1016163" data-name="Trazado 1016163" d="M199.662,131.831q0,.459-.034.91a11.816,11.816,0,0,1-10.149,10.806c-.243.035-.489.061-.737.081q-.45.034-.91.034t-.91-.034c-.248-.019-.494-.046-.737-.081a11.679,11.679,0,0,1-2.755-.731,11.83,11.83,0,0,1-7.394-10.074q-.034-.45-.034-.91t.034-.91a11.817,11.817,0,0,1,10.021-10.788q.428-.065.866-.1t.91-.034q.46,0,.91.034c.248.019.494.046.737.081a11.674,11.674,0,0,1,2.753.73,11.871,11.871,0,0,1,6.1,5.525,11.736,11.736,0,0,1,1.3,4.55Q199.662,131.371,199.662,131.831Z" transform="translate(-141.799 -92.169)" fill="#4db7e5"/>
      <path id="Trazado_1016164" data-name="Trazado 1016164" d="M199.628,132.741q.034-.45.034-.91t-.034-.91h-4.533a23.146,23.146,0,0,0-.623-4.55h3.858a11.761,11.761,0,0,0-1.172-1.82h-3.213a18.716,18.716,0,0,0-1.713-3.705,11.674,11.674,0,0,0-2.753-.73l.635.819a15.942,15.942,0,0,1,1.9,3.616h-3.271v-4.516q-.45-.034-.91-.034t-.91.034v4.516H183.65a15.883,15.883,0,0,1,1.909-3.63c.011-.015.02-.031.031-.045l.465-.742a11.716,11.716,0,0,0-2.624.712,18.658,18.658,0,0,0-1.713,3.705H178.5a11.761,11.761,0,0,0-1.172,1.82h3.858a23.123,23.123,0,0,0-.623,4.55h-4.533q-.034.45-.034.91t.034.91h4.534a22.806,22.806,0,0,0,.869,5.46h-3.579a11.876,11.876,0,0,0,1.436,1.82h2.76a17.707,17.707,0,0,0,1.374,2.794,11.68,11.68,0,0,0,2.755.731l-.635-.82a15.071,15.071,0,0,1-1.525-2.705h2.9v3.606q.451.034.91.034t.91-.034v-3.606h2.9a15.011,15.011,0,0,1-1.525,2.705l-.635.82a11.679,11.679,0,0,0,2.755-.731,17.605,17.605,0,0,0,1.374-2.794h2.76a11.878,11.878,0,0,0,1.436-1.82h-3.579a22.842,22.842,0,0,0,.869-5.46Zm-12.707,5.46h-3.58a20.806,20.806,0,0,1-.951-5.46h4.531Zm0-7.281h-4.532a21.148,21.148,0,0,1,.679-4.55h3.853Zm5.4,7.281h-3.58v-5.46h4.531a20.848,20.848,0,0,1-.951,5.46Zm-3.58-7.281v-4.55h3.853a21.18,21.18,0,0,1,.679,4.55Z" transform="translate(-141.799 -92.169)" fill="#60d1e0"/>
      <path id="Trazado_1016165" data-name="Trazado 1016165" d="M101.655,360.91a3.107,3.107,0,0,1-2.2.91H92.021a3.108,3.108,0,0,1-2.2-.91,3.107,3.107,0,0,0-2.2-.91H72v2.73a2.73,2.73,0,0,0,2.73,2.73h41.863a2.73,2.73,0,0,0,2.73-2.73V360H103.852a3.107,3.107,0,0,0-2.2.91Z" transform="translate(-49.63 -304.867)" fill="#e0e0de"/>
      <path id="Trazado_1016166" data-name="Trazado 1016166" d="M434.73,360v2.73a2.73,2.73,0,0,1-2.73,2.73h3.64a2.73,2.73,0,0,0,2.73-2.73V360Z" transform="translate(-368.677 -304.867)" fill="#d6d6d4"/>
      <path id="Trazado_1016167" data-name="Trazado 1016167" d="M49.482,354.048v11.376a2.023,2.023,0,0,1-.28,1.032,2.044,2.044,0,0,1-1.768,1.016H26.048a2.044,2.044,0,0,1-1.768-1.016,2.022,2.022,0,0,1-.28-1.032V354.048a2.023,2.023,0,0,1,.28-1.032A2.044,2.044,0,0,1,26.048,352H47.434a2.044,2.044,0,0,1,1.768,1.016A2.023,2.023,0,0,1,49.482,354.048Z" transform="translate(-7.09 -297.777)" fill="#ffb531"/>
      <path id="Trazado_1016168" data-name="Trazado 1016168" d="M51.382,353.016c-2.818,1.569-7.35,2.587-12.461,2.587s-9.643-1.018-12.461-2.587A2.044,2.044,0,0,1,28.228,352H49.614a2.044,2.044,0,0,1,1.768,1.016Z" transform="translate(-9.27 -297.777)" fill="#ffcb73"/>
      <path id="Trazado_1016169" data-name="Trazado 1016169" d="M51.382,458.917a2.044,2.044,0,0,1-1.768,1.016H28.228a2.044,2.044,0,0,1-1.768-1.016c2.818-1.569,7.35-2.587,12.461-2.587s9.643,1.018,12.461,2.587Z" transform="translate(-9.27 -390.239)" fill="#ffa912"/>
      <path id="Trazado_1016170" data-name="Trazado 1016170" d="M58.011,216A10.011,10.011,0,0,0,48,226.011v5.46h3.64v-5.46a6.37,6.37,0,0,1,12.741,0v5.46h3.64v-5.46A10.011,10.011,0,0,0,58.011,216Z" transform="translate(-28.36 -177.248)" fill="#e0e0de"/>
      <path id="Trazado_1016171" data-name="Trazado 1016171" d="M117.457,394.638a2.73,2.73,0,1,0-3.64,2.562v1.988h1.82V397.2A2.726,2.726,0,0,0,117.457,394.638Z" transform="translate(-85.076 -333.135)" fill="#95573a"/>
      <path id="Trazado_1016172" data-name="Trazado 1016172" d="M126.413,54.223h-.91V26.011a4.555,4.555,0,0,0-4.55-4.55v-.91A4.555,4.555,0,0,0,116.4,16H89.1a4.555,4.555,0,0,0-4.55,4.55v.91A4.555,4.555,0,0,0,80,26.011V36.931h1.82V26.011a2.733,2.733,0,0,1,2.73-2.73V36.021h1.82V20.55a2.733,2.733,0,0,1,2.73-2.73h27.3a2.733,2.733,0,0,1,2.73,2.73V51.492h1.82V23.281a2.733,2.733,0,0,1,2.73,2.73V54.223H110.942a3.986,3.986,0,0,0-2.837,1.177,2.189,2.189,0,0,1-1.559.644h-4.705v1.82h4.705a4,4,0,0,0,2.846-1.177,2.178,2.178,0,0,1,1.55-.644H125.5v1.82a1.822,1.822,0,0,1-1.82,1.82H101.842V61.5h21.842a3.644,3.644,0,0,0,3.64-3.64v-2.73A.91.91,0,0,0,126.413,54.223Z" transform="translate(-56.719)"/>
      <path id="Trazado_1016173" data-name="Trazado 1016173" d="M120,272h1.82v6.37H120Z" transform="translate(-92.169 -226.878)"/>
      <path id="Trazado_1016174" data-name="Trazado 1016174" d="M159.995,48h1.82v1.82h-1.82Z" transform="translate(-127.614 -28.36)"/>
      <path id="Trazado_1016175" data-name="Trazado 1016175" d="M191.995,48h1.82v1.82h-1.82Z" transform="translate(-155.974 -28.36)"/>
      <path id="Trazado_1016176" data-name="Trazado 1016176" d="M223.995,48h1.82v1.82h-1.82Z" transform="translate(-184.334 -28.36)"/>
      <path id="Trazado_1016177" data-name="Trazado 1016177" d="M160,80h27.3v1.82H160Z" transform="translate(-127.619 -56.719)"/>
      <path id="Trazado_1016178" data-name="Trazado 1016178" d="M180.614,135.3c-.192-.05-.387-.106-.577-.167l-.557,1.733c.224.072.453.138.674.2a12.74,12.74,0,1,0-7.486-19.182A12.581,12.581,0,0,0,171,121.8l1.771.419a10.756,10.756,0,0,1,1.174-2.94h2.815a23.25,23.25,0,0,0-.641,5.46c0,.63.025,1.267.075,1.893l1.814-.145c-.022-.277-.039-.557-.05-.837h4.531v5.46h-2.73v1.82h2.73v2.689A10.9,10.9,0,0,1,180.614,135.3Zm10-2.368a10.963,10.963,0,0,1-2.071,1.439c.229-.466.441-.944.633-1.439Zm1.651-1.82h-2.473a22.887,22.887,0,0,0,.87-5.46h3.622a10.729,10.729,0,0,1-2.018,5.46ZM180.944,114.1a10.871,10.871,0,0,1,1.546-.24v3.6h-3.268A16.092,16.092,0,0,1,180.944,114.1Zm3.366-.24a10.891,10.891,0,0,1,1.546.24,16.09,16.09,0,0,1,1.722,3.359H184.31Zm3.852,5.42a21.167,21.167,0,0,1,.679,4.55H184.31v-4.55Zm6.12,4.55h-3.619a23.093,23.093,0,0,0-.623-4.55h2.814a10.817,10.817,0,0,1,1.427,4.55Zm-2.747-6.37h-2.024a19.552,19.552,0,0,0-.977-2.362,10.819,10.819,0,0,1,3,2.362ZM178.265,115.1a19.552,19.552,0,0,0-.977,2.362h-2.023A10.818,10.818,0,0,1,178.265,115.1Zm-.306,8.732a21.161,21.161,0,0,1,.679-4.55h3.852v4.55Zm6.351,1.82h4.531a20.845,20.845,0,0,1-.952,5.46H184.31Zm2.9,7.281a15.176,15.176,0,0,1-1.347,2.448,10.857,10.857,0,0,1-1.548.241v-2.69Z" transform="translate(-137.368 -85.081)"/>
      <path id="Trazado_1016179" data-name="Trazado 1016179" d="M40.572,223.489v-4.568a10.921,10.921,0,0,0-21.842,0v4.568A3.064,3.064,0,0,0,16,226.531V237.7a3.064,3.064,0,0,0,3.06,3.06H40.242a3.064,3.064,0,0,0,3.06-3.06V226.531A3.064,3.064,0,0,0,40.572,223.489ZM29.651,209.82a9.111,9.111,0,0,1,9.1,9.1v4.55h-1.82v-4.55a7.281,7.281,0,1,0-14.561,0v4.55H20.55v-4.55A9.111,9.111,0,0,1,29.651,209.82Zm5.46,13.651H24.191v-4.55a5.46,5.46,0,1,1,10.921,0Zm6.37,14.231a1.241,1.241,0,0,1-1.24,1.24H19.06a1.241,1.241,0,0,1-1.24-1.24V226.531a1.241,1.241,0,0,1,1.24-1.24H40.242a1.241,1.241,0,0,1,1.24,1.24Z" transform="translate(0 -170.158)"/>
      <path id="Trazado_1016180" data-name="Trazado 1016180" d="M114.737,392a2.73,2.73,0,0,0-.91,5.3v1.977h1.82V397.3a2.73,2.73,0,0,0-.91-5.3Zm0,3.64a.91.91,0,1,1,.91-.91A.91.91,0,0,1,114.737,395.64Z" transform="translate(-85.086 -333.227)"/>
    </g>
  </g>
</svg>
