<svg xmlns="http://www.w3.org/2000/svg" xmlns:xlink="http://www.w3.org/1999/xlink" width="110" height="110" viewBox="0 0 110 110">
  <defs>
    <filter id="Trazado_982547" x="0" y="0" width="110" height="110" filterUnits="userSpaceOnUse">
      <feOffset dy="3" input="SourceAlpha"/>
      <feGaussianBlur stdDeviation="3" result="blur"/>
      <feFlood flood-opacity="0.161"/>
      <feComposite operator="in" in2="blur"/>
      <feComposite in="SourceGraphic"/>
    </filter>
  </defs>
  <g id="Grupo_1164018" data-name="Grupo 1164018" transform="translate(-693 -629)">
    <g id="Grupo_1162175" data-name="Grupo 1162175" transform="translate(0 -1338)">
      <g id="Grupo_1160931" data-name="Grupo 1160931" transform="translate(0 -678)">
        <g id="Grupo_1160749" data-name="Grupo 1160749" transform="translate(0 315)">
          <g id="Grupo_1158891" data-name="Grupo 1158891" transform="translate(-423 -1476)">
            <g id="Grupo_1157406" data-name="Grupo 1157406" transform="translate(1 3016)">
              <g id="Grupo_1155793" data-name="Grupo 1155793" transform="translate(-0.999 -3894)">
                <g id="Grupo_1154704" data-name="Grupo 1154704" transform="translate(0 1466)">
                  <g id="Grupo_1150790" data-name="Grupo 1150790" transform="translate(3 2320)">
                    <g id="Grupo_1154214" data-name="Grupo 1154214" transform="translate(79 -5809)">
                      <g id="Grupo_1152583" data-name="Grupo 1152583" transform="translate(1043 6713)">
                        <g id="Grupo_1146973" data-name="Grupo 1146973" transform="translate(0 0)">
                          <g id="Grupo_1146954" data-name="Grupo 1146954">
                            <g transform="matrix(1, 0, 0, 1, -9, -6)" filter="url(#Trazado_982547)">
                              <g id="Trazado_982547-2" data-name="Trazado 982547" transform="translate(9 6)" fill="#fcebe9">
                                <path d="M 46 90.49987030029297 C 39.99187850952148 90.49987030029297 34.16426849365234 89.32350921630859 28.67905426025391 87.00345611572266 C 23.38019943237305 84.76224517822266 18.62104034423828 81.55341339111328 14.53374671936035 77.46613311767578 C 10.44646644592285 73.37885284423828 7.237639904022217 68.61969757080078 4.996413230895996 63.32085418701172 C 2.676359891891479 57.83565521240234 1.5 52.008056640625 1.5 45.99993515014648 C 1.5 39.99181365966797 2.676359891891479 34.16421508789062 4.996413230895996 28.67901420593262 C 7.237639904022217 23.38017463684082 10.44646644592285 18.62101554870605 14.53374671936035 14.53373527526855 C 18.62104034423828 10.44645500183105 23.38019943237305 7.23762845993042 28.67905426025391 4.996415138244629 C 34.16426849365234 2.676361799240112 39.99187850952148 1.500001788139343 46 1.500001788139343 C 52.00812149047852 1.500001788139343 57.83573150634766 2.676361799240112 63.32094573974609 4.996415138244629 C 68.61979675292969 7.23762845993042 73.37895965576172 10.44645500183105 77.46625518798828 14.53373527526855 C 81.55353546142578 18.62101554870605 84.76235961914062 23.38017463684082 87.00358581542969 28.67901420593262 C 89.32363891601562 34.16421508789062 90.5 39.99181365966797 90.5 45.99993515014648 C 90.5 52.008056640625 89.32363891601562 57.83565521240234 87.00358581542969 63.32085418701172 C 84.76235961914062 68.61969757080078 81.55353546142578 73.37885284423828 77.46625518798828 77.46613311767578 C 73.37895965576172 81.55341339111328 68.61979675292969 84.76224517822266 63.32094573974609 87.00345611572266 C 57.83573150634766 89.32350921630859 52.00812149047852 90.49987030029297 46 90.49987030029297 Z" stroke="none"/>
                                <path d="M 46 2.999992370605469 C 40.1937141418457 2.999992370605469 34.56269836425781 4.136489868164062 29.26337051391602 6.377906799316406 C 24.14332580566406 8.543502807617188 19.54441070556641 11.64437866210938 15.59439849853516 15.59437561035156 C 11.64440155029297 19.54439544677734 8.54351806640625 24.14329528808594 6.377914428710938 29.26333618164062 C 4.136497497558594 34.56264877319336 3 40.19366455078125 3 45.99993515014648 C 3 51.80620574951172 4.136497497558594 57.43720626831055 6.377914428710938 62.73651885986328 C 8.54351806640625 67.8565673828125 11.64440155029297 72.45545959472656 15.59439849853516 76.40547943115234 C 19.54441070556641 80.35547637939453 24.14332580566406 83.45635223388672 29.26337051391602 85.6219482421875 C 34.56269836425781 87.86336517333984 40.1937141418457 88.99986267089844 46 88.99986267089844 C 51.8062858581543 88.99986267089844 57.43730163574219 87.86336517333984 62.73661422729492 85.6219482421875 C 67.85667419433594 83.45635223388672 72.45557403564453 80.35547637939453 76.40558624267578 76.40547943115234 C 80.35559844970703 72.45545959472656 83.45647430419922 67.8565673828125 85.6220703125 62.73651885986328 C 87.86350250244141 57.43720626831055 89 51.80620574951172 89 45.99993515014648 C 89 40.19366455078125 87.86350250244141 34.56264877319336 85.6220703125 29.26333618164062 C 83.45647430419922 24.14329528808594 80.35559844970703 19.54439544677734 76.40558624267578 15.59437561035156 C 72.45557403564453 11.64437866210938 67.85667419433594 8.543502807617188 62.73661422729492 6.377906799316406 C 57.43730163574219 4.136489868164062 51.8062858581543 2.999992370605469 46 2.999992370605469 M 46 -7.62939453125e-06 C 71.40509033203125 -7.62939453125e-06 92 20.59486389160156 92 45.99993515014648 C 92 71.40499114990234 71.40509033203125 91.99986267089844 46 91.99986267089844 C 20.59490203857422 91.99986267089844 0 71.40499114990234 0 45.99993515014648 C 0 20.59486389160156 20.59490203857422 -7.62939453125e-06 46 -7.62939453125e-06 Z" stroke="none" fill="#e44b36"/>
                              </g>
                            </g>
                          </g>
                        </g>
                      </g>
                    </g>
                  </g>
                </g>
              </g>
            </g>
          </g>
        </g>
      </g>
    </g>
    <g id="contratista_1_" data-name="contratista (1)" transform="translate(687.98 649)">
      <g id="Grupo_1164014" data-name="Grupo 1164014" transform="translate(33.938 0.918)">
        <g id="Grupo_1164013" data-name="Grupo 1164013" transform="translate(0)">
          <path id="Trazado_1016195" data-name="Trazado 1016195" d="M49.778,264.005V275.6H40.521V291.11a.611.611,0,0,0,.609.612H59.636V264.005Z" transform="translate(-40.521 -232.614)" fill="#e0d3ce"/>
          <path id="Trazado_1016196" data-name="Trazado 1016196" d="M158.471,264.005h4.68v27.717h-4.68Z" transform="translate(-144.036 -232.614)" fill="#b9acac"/>
          <g id="Grupo_1164012" data-name="Grupo 1164012" transform="translate(8.234)">
            <g id="Grupo_1163996" data-name="Grupo 1163996" transform="translate(0 29.456)">
              <g id="Grupo_1163991" data-name="Grupo 1163991" transform="translate(0 5.753)">
                <path id="Trazado_1016197" data-name="Trazado 1016197" d="M147.282,308.107c-4.748-11.981-13.741-12.619-14.673-12.9H127.5c-.932.281-9.926.919-14.673,12.9L107.8,320.82h11.806l10.436-.612,10.436.612h11.829Z" transform="translate(-107.8 -295.207)" fill="#64b9fc"/>
                <path id="Trazado_1016198" data-name="Trazado 1016198" d="M293.557,320.818h-5.188s-.333-.921-.669-1.771L283.376,308.1c-4.681-11.811-13.489-12.6-14.629-12.888l0-.012h5.11c.933.281,9.926.92,14.674,12.9l4.325,10.942Z" transform="translate(-249.05 -295.205)" fill="#31a7fb"/>
                <path id="Trazado_1016199" data-name="Trazado 1016199" d="M237.866,297.23a18.088,18.088,0,0,0-5.835-2.023h-5.11a18.089,18.089,0,0,0-5.835,2.023,8.9,8.9,0,0,0,16.78,0Z" transform="translate(-207.222 -295.207)" fill="#f69583"/>
              </g>
              <path id="Trazado_1016200" data-name="Trazado 1016200" d="M268.764,248.2h5.11v7.671h-5.11Z" transform="translate(-249.065 -248.197)" fill="#f69583"/>
              <g id="Grupo_1163994" data-name="Grupo 1163994" transform="translate(8.673 7.355)">
                <path id="Trazado_1016201" data-name="Trazado 1016201" d="M183.411,308.4a.563.563,0,0,0-.71.047l-3.851,3.571a.568.568,0,0,0-.056.774,15.011,15.011,0,0,1,3.008,9.47v10.046h10.436V314.655Z" transform="translate(-178.668 -308.294)" fill="#fb9927"/>
                <g id="Grupo_1163992" data-name="Grupo 1163992" transform="translate(13.569)">
                  <path id="Trazado_1016202" data-name="Trazado 1016202" d="M298.371,308.4a.563.563,0,0,1,.71.047l3.851,3.571a.568.568,0,0,1,.056.774,15.011,15.011,0,0,0-3.008,9.47v10.046H289.545V314.655Z" transform="translate(-289.545 -308.294)" fill="#fb9927"/>
                  <path id="Trazado_1016203" data-name="Trazado 1016203" d="M356.524,327.063a15.017,15.017,0,0,0-3.007,9.471v10.045h-2.971V335.606a15.98,15.98,0,0,1,4.054-11.048l1.868,1.731A.57.57,0,0,1,356.524,327.063Z" transform="translate(-343.082 -322.568)" fill="#f98824"/>
                </g>
                <g id="Grupo_1163993" data-name="Grupo 1163993" transform="translate(5.051 0.289)">
                  <path id="Trazado_1016204" data-name="Trazado 1016204" d="M220.755,310.76l7.726,5.966-7.335,1.115a.506.506,0,0,1-.578-.45l-.624-6.177A.505.505,0,0,1,220.755,310.76Z" transform="translate(-219.942 -310.654)" fill="#64b9fc"/>
                </g>
              </g>
              <g id="Grupo_1163995" data-name="Grupo 1163995" transform="translate(22.242 7.643)">
                <path id="Trazado_1016205" data-name="Trazado 1016205" d="M297.271,310.76l-7.726,5.966,7.335,1.115a.506.506,0,0,0,.578-.45l.624-6.177A.505.505,0,0,0,297.271,310.76Z" transform="translate(-289.545 -310.654)" fill="#64b9fc"/>
              </g>
            </g>
            <g id="Grupo_1164010" data-name="Grupo 1164010" transform="translate(7.316)">
              <g id="Grupo_1163997" data-name="Grupo 1163997" transform="translate(0.939 18.085)">
                <ellipse id="Elipse_11869" data-name="Elipse 11869" cx="3.316" cy="3.254" rx="3.316" ry="3.254" transform="translate(21.365)" fill="#f69583"/>
                <ellipse id="Elipse_11870" data-name="Elipse 11870" cx="3.316" cy="3.254" rx="3.316" ry="3.254" fill="#fdb0a0"/>
              </g>
              <g id="Grupo_1163998" data-name="Grupo 1163998" transform="translate(5.005 17.52)">
                <path id="Trazado_1016206" data-name="Trazado 1016206" d="M218.409,166.871a9.933,9.933,0,0,1-9.933-9.933v-6.274h19.866v6.274A9.933,9.933,0,0,1,218.409,166.871Z" transform="translate(-208.476 -150.664)" fill="#ffcec0"/>
              </g>
              <path id="Trazado_1016207" data-name="Trazado 1016207" d="M285.976,150.664v6.229a9.956,9.956,0,0,1-9.933,9.978,9.756,9.756,0,0,1-1.9-.184,9.966,9.966,0,0,0,8.035-9.794v-6.229Z" transform="translate(-261.104 -133.144)" fill="#fdb0a0"/>
              <g id="Grupo_1164009" data-name="Grupo 1164009">
                <g id="Grupo_1164008" data-name="Grupo 1164008">
                  <g id="Grupo_1164000" data-name="Grupo 1164000" transform="translate(3.048 0.574)">
                    <g id="Grupo_1163999" data-name="Grupo 1163999">
                      <path id="Trazado_1016208" data-name="Trazado 1016208" d="M192.483,28.456h23.78V23.969a11.778,11.778,0,0,0-11.779-11.778h-.223A11.779,11.779,0,0,0,192.483,23.97Z" transform="translate(-192.483 -12.191)" fill="#fdc83a"/>
                      <path id="Trazado_1016209" data-name="Trazado 1016209" d="M290.936,23.995a11.779,11.779,0,0,0-11.752-11.8h-.276a11.836,11.836,0,0,0-1.339.077,12.682,12.682,0,0,1,8.374,11.913v4.275h4.994Z" transform="translate(-267.155 -12.19)" fill="#fcb72d"/>
                    </g>
                  </g>
                  <g id="Grupo_1164003" data-name="Grupo 1164003" transform="translate(6.564)">
                    <g id="Grupo_1164001" data-name="Grupo 1164001" transform="translate(0 0)">
                      <path id="Trazado_1016210" data-name="Trazado 1016210" d="M237.962,21.994c-.908-.721-2.13-1.666-3.135-2.438a4.777,4.777,0,0,1-1.83-3.79V8.931a1.433,1.433,0,0,0-1.436-1.43h-3.946a1.433,1.433,0,0,0-1.436,1.43v6.835a4.776,4.776,0,0,1-1.83,3.79c-1,.773-2.227,1.718-3.135,2.439Z" transform="translate(-221.214 -7.5)" fill="#fb9927"/>
                    </g>
                    <g id="Grupo_1164002" data-name="Grupo 1164002" transform="translate(6.794)">
                      <path id="Trazado_1016211" data-name="Trazado 1016211" d="M286.684,21.993H283.01c-.907-.721-2.129-1.665-3.135-2.439a4.775,4.775,0,0,1-1.829-3.79V8.93a1.431,1.431,0,0,0-1.315-1.425,1.092,1.092,0,0,1,.119-.006h3.434a1.434,1.434,0,0,1,1.436,1.43v6.834a4.775,4.775,0,0,0,1.829,3.79C284.555,20.328,285.777,21.272,286.684,21.993Z" transform="translate(-276.731 -7.5)" fill="#f98824"/>
                    </g>
                  </g>
                  <g id="Grupo_1164007" data-name="Grupo 1164007" transform="translate(0 14.24)">
                    <g id="Grupo_1164006" data-name="Grupo 1164006">
                      <g id="Grupo_1164005" data-name="Grupo 1164005">
                        <g id="Grupo_1164004" data-name="Grupo 1164004">
                          <path id="Trazado_1016212" data-name="Trazado 1016212" d="M194.933,128.916H170.1a2.521,2.521,0,0,1-2.521-2.521v-.011a2.521,2.521,0,0,1,2.521-2.521h24.832a2.521,2.521,0,0,1,2.521,2.521v.011A2.521,2.521,0,0,1,194.933,128.916Z" transform="translate(-167.579 -123.862)" fill="#fddd45"/>
                          <path id="Trazado_1016213" data-name="Trazado 1016213" d="M358.2,126.392a2.53,2.53,0,0,1-2.537,2.527h-4.923a2.526,2.526,0,1,0,0-5.053h4.923A2.533,2.533,0,0,1,358.2,126.392Z" transform="translate(-328.328 -123.866)" fill="#fdc83a"/>
                        </g>
                      </g>
                    </g>
                  </g>
                </g>
              </g>
            </g>
            <g id="Grupo_1164011" data-name="Grupo 1164011" transform="translate(11.806 52.778)">
              <path id="Trazado_1016214" data-name="Trazado 1016214" d="M204.273,438.763H214.73v3.509H204.273Z" transform="translate(-204.273 -438.763)" fill="#f3eae6"/>
              <path id="Trazado_1016215" data-name="Trazado 1016215" d="M289.545,438.763H300v3.509H289.545Z" transform="translate(-279.109 -438.763)" fill="#f3eae6"/>
            </g>
          </g>
        </g>
      </g>
      <g id="Grupo_1164017" data-name="Grupo 1164017" transform="translate(33.02 0)">
        <path id="Trazado_1016216" data-name="Trazado 1016216" d="M283.059,193.971a.918.918,0,0,0,.918-.918v-1.366a.918.918,0,1,0-1.836,0v1.366A.918.918,0,0,0,283.059,193.971Z" transform="translate(-251.654 -167.423)"/>
        <path id="Trazado_1016217" data-name="Trazado 1016217" d="M267.944,227.659a.918.918,0,0,0-1.3-1.3,2.684,2.684,0,0,1-3.809,0,.918.918,0,0,0-1.3,1.3,4.52,4.52,0,0,0,6.41,0Z" transform="translate(-233.333 -198.424)"/>
        <path id="Trazado_1016218" data-name="Trazado 1016218" d="M244.639,181.639a.919.919,0,0,0-.952.883l-.01.259a.918.918,0,0,0,.883.952h.035a.918.918,0,0,0,.917-.884l.01-.259A.918.918,0,0,0,244.639,181.639Z" transform="translate(-217.897 -159.41)"/>
        <path id="Trazado_1016219" data-name="Trazado 1016219" d="M321.452,183.734h.035a.918.918,0,0,0,.883-.952l-.01-.259a.918.918,0,1,0-1.834.069l.01.259A.918.918,0,0,0,321.452,183.734Z" transform="translate(-285.34 -159.411)"/>
        <path id="Trazado_1016220" data-name="Trazado 1016220" d="M87.532,61.4,82.507,48.689a25.821,25.821,0,0,0-3.649-6.476,1.489,1.489,0,0,0-.434-1.435l-3.852-3.572a1.488,1.488,0,0,0-1.835-.141,17.838,17.838,0,0,0-4.84-1.687v-.385a10.885,10.885,0,0,0,7.242-8.563,4.208,4.208,0,0,0,4.2-4.172,4.116,4.116,0,0,0-.426-1.825,3.446,3.446,0,0,0-1.682-6.169V13.27A12.747,12.747,0,0,0,68.443,1.188,2.355,2.355,0,0,0,66.4,0H62.452a2.356,2.356,0,0,0-2.045,1.188,12.748,12.748,0,0,0-8.791,12.082v.992a3.44,3.44,0,0,0-3.048,3.423,3.445,3.445,0,0,0,1.365,2.747,4.116,4.116,0,0,0-.426,1.824,4.208,4.208,0,0,0,4.2,4.172,10.885,10.885,0,0,0,7.242,8.563v.385A17.805,17.805,0,0,0,56.1,37.071a1.487,1.487,0,0,0-1.844.136l-.283.263v-7.9a.918.918,0,1,0-1.836,0v1.824H44.113V29.567a.918.918,0,1,0-1.836,0v2.941H39.886V29.567a.918.918,0,1,0-1.836,0v2.941h-.513a.918.918,0,0,0,0,1.836h.513v1.779h-.513a.918.918,0,0,0,0,1.836h.513v1.779h-.513a.918.918,0,0,0,0,1.836h.513v1.41H34.856v-1.83a.918.918,0,0,0-1.836,0v8.7a.918.918,0,1,0,1.836,0v-5.03H43.2a.918.918,0,0,0,.918-.918V33.227h8.022v5.945L50.4,40.778a1.49,1.49,0,0,0-.428,1.456,25.845,25.845,0,0,0-3.631,6.456L42.225,59.108H34.856v-5.2a.918.918,0,1,0-1.836,0v5.506a1.53,1.53,0,0,0,1.527,1.53H41.5l-.181.459a.918.918,0,1,0,1.707.675L48.05,49.365a24.5,24.5,0,0,1,2.971-5.472,14.8,14.8,0,0,1,2.039,7.8V61.741a.918.918,0,0,0,1.836,0V58.122h8.6v3.618a.918.918,0,1,0,1.836,0V58.122h8.6v3.618a.918.918,0,1,0,1.836,0V51.695c0-.272.007-.546.02-.838a.918.918,0,1,0-1.834-.086c-.015.321-.022.623-.022.924v1.083H70.56V45.953l1.05.16a1.41,1.41,0,0,0,.211.016,1.423,1.423,0,0,0,1.418-1.282l.589-5.827,3.113,2.887a14.553,14.553,0,0,0-2.255,4.538.918.918,0,1,0,1.756.534,13.383,13.383,0,0,1,1.375-3.1A24.49,24.49,0,0,1,80.8,49.365l5.025,12.713a.918.918,0,1,0,1.707-.675ZM42.278,42.984H39.886v-1.41h2.391Zm0-3.246H39.886V37.959h2.391Zm0-3.615H39.886V34.344h2.391Zm33-11.537V21.13h1.571a3.441,3.441,0,0,0,.35-.018,2.283,2.283,0,0,1,.31,1.145,2.365,2.365,0,0,1-2.23,2.329ZM68.752,3.259A10.911,10.911,0,0,1,75.4,13.27v.971H72.8c-.86-.675-1.866-1.451-2.573-1.994a3.871,3.871,0,0,1-1.471-3.063ZM61.934,9.182V2.348a.516.516,0,0,1,.519-.513H66.4a.516.516,0,0,1,.519.513V9.183A5.717,5.717,0,0,0,69.1,13.7l.7.539H59.045l.7-.539a5.718,5.718,0,0,0,2.188-4.519Zm-8.481,4.089A10.912,10.912,0,0,1,60.1,3.259V9.182a3.871,3.871,0,0,1-1.471,3.063c-.92.706-1.84,1.419-2.574,2h-2.6v-.97Zm.122,11.315a2.365,2.365,0,0,1-2.23-2.329,2.283,2.283,0,0,1,.31-1.144A3.434,3.434,0,0,0,52,21.13h1.571v3.456Zm1.836.126V21.13h2.409a.918.918,0,1,0,0-1.836H52a1.612,1.612,0,0,1-1.128-2.749A1.581,1.581,0,0,1,52,16.076H76.847a1.609,1.609,0,0,1,0,3.218H61.859a.918.918,0,0,0,0,1.836H73.44v3.582a9.015,9.015,0,0,1-18.03,0ZM51.886,41.906,55.019,39l.591,5.845a1.423,1.423,0,0,0,1.418,1.282,1.412,1.412,0,0,0,.211-.016l1.052-.16v6.826H54.9V51.695A16.105,16.105,0,0,0,51.886,41.906Zm5.021-2.468L62.175,43.5l-4.783.727ZM63.5,56.287H54.9V54.614h8.6Zm0-3.509H60.126v-7.1l3.369-.512Zm.928-9.856L58.2,38.113a15.774,15.774,0,0,1,2.756-.861v.316a.918.918,0,1,0,1.836,0V35.44a10.924,10.924,0,0,0,3.274,0v2.129a.918.918,0,1,0,1.836,0v-.316a15.756,15.756,0,0,1,2.755.86Zm.907,2.236,3.393.516v7.1H65.331Zm8.621,9.456v1.673h-8.6V54.614Zm-2.5-10.381L66.673,43.5l5.268-4.067Z" transform="translate(-33.02 0)"/>
        <g id="Grupo_1164015" data-name="Grupo 1164015" transform="translate(4.474 48.256)">
          <path id="Trazado_1016221" data-name="Trazado 1016221" d="M71.294,396.148h-.8a.918.918,0,1,1,0-1.836h.8a.918.918,0,0,1,0,1.836Z" transform="translate(-69.575 -394.312)"/>
        </g>
        <g id="Grupo_1164016" data-name="Grupo 1164016" transform="translate(6.009 51.25)">
          <path id="Trazado_1016222" data-name="Trazado 1016222" d="M83.837,420.616h-.8a.918.918,0,0,1,0-1.836h.8a.918.918,0,0,1,0,1.836Z" transform="translate(-82.118 -418.78)"/>
        </g>
      </g>
    </g>
  </g>
</svg>
