<svg xmlns="http://www.w3.org/2000/svg" xmlns:xlink="http://www.w3.org/1999/xlink" width="777.88" height="770.807" viewBox="0 0 777.88 770.807">
  <defs>
    <filter id="Trazado_997308" x="235.642" y="275.196" width="276.673" height="236.174" filterUnits="userSpaceOnUse">
      <feOffset dy="3" input="SourceAlpha"/>
      <feGaussianBlur stdDeviation="3" result="blur"/>
      <feFlood flood-opacity="0.161"/>
      <feComposite operator="in" in2="blur"/>
      <feComposite in="SourceGraphic"/>
    </filter>
  </defs>
  <g id="Grupo_1164070" data-name="Grupo 1164070" transform="translate(-425 -1252.546)">
    <g id="Grupo_1164052" data-name="Grupo 1164052" transform="translate(425 1272)">
      <g id="OBJECTS" transform="translate(0 0)">
        <path id="Trazado_1016541" data-name="Trazado 1016541" d="M357.432,53.42l-117.4,336.433,27.052-6.129L603.765,269.335A375.6,375.6,0,0,0,357.432,53.42Z" transform="translate(116.376 -40.155)" fill="#9fc914"/>
        <path id="Trazado_1016542" data-name="Trazado 1016542" d="M276.409,302.561,575.461,495.12a375.575,375.575,0,0,0,15.964-324.278L254.75,285.233Z" transform="translate(128.717 58.336)" fill="#f9ad01"/>
        <path id="Trazado_1016543" data-name="Trazado 1016543" d="M266.505,270.216,305.072,624.7C417.7,603.756,512.633,532.465,565.6,435.035L266.549,242.476Z" transform="translate(138.577 118.422)" fill="#d83a51"/>
        <path id="Trazado_1016544" data-name="Trazado 1016544" d="M369.188,274.821,118.2,529.442A373.218,373.218,0,0,0,360.555,618.39a376.713,376.713,0,0,0,68.916-6.348L390.9,257.562Z" transform="translate(14.178 131.075)" fill="#b455ff"/>
        <path id="Trazado_1016545" data-name="Trazado 1016545" d="M402.54,279.6,46.348,244.458q-.135,5.081-.142,10.191c0,114.536,51.4,217.05,132.376,285.785L429.574,285.812Z" transform="translate(-46.206 120.084)" fill="#7054d3"/>
        <path id="Trazado_1016546" data-name="Trazado 1016546" d="M390.481,387.023,196.986,86.566C107.965,153,49.457,258.045,46.283,376.9l356.192,35.137Z" transform="translate(-46.141 -12.353)" fill="#4aadff"/>
        <path id="Trazado_1016547" data-name="Trazado 1016547" d="M333.811,395.9,451.2,59.471a375.342,375.342,0,0,0-322.964,60.948l193.5,300.457Z" transform="translate(22.603 -46.206)" fill="#179989"/>
        <path id="Trazado_1016548" data-name="Trazado 1016548" d="M289.336,397.493a153.775,153.775,0,0,0,44.848-6.662l-14.5-133.269-21.714,17.259L203.1,371.061A153.107,153.107,0,0,0,289.336,397.493Z" transform="translate(85.396 131.075)" fill="#7b37db"/>
        <path id="Trazado_1016549" data-name="Trazado 1016549" d="M301.555,269.641,166.6,256.328A153.7,153.7,0,0,0,233.72,372.1l94.868-96.24Z" transform="translate(54.779 130.04)" fill="#4734a5"/>
        <path id="Trazado_1016550" data-name="Trazado 1016550" d="M166.338,301.877c0,3.918.195,7.789.484,11.634l134.954,13.313-11.994-25.011-73.2-113.661A153.432,153.432,0,0,0,166.338,301.877Z" transform="translate(54.559 72.856)" fill="#2a62dd"/>
        <path id="Trazado_1016551" data-name="Trazado 1016551" d="M297.254,166.338a153.273,153.273,0,0,0-103.591,40.111l73.2,113.661,12.075-24.972L323.11,168.543A154.793,154.793,0,0,0,297.254,166.338Z" transform="translate(77.478 54.558)" fill="#18656d"/>
        <path id="Trazado_1016552" data-name="Trazado 1016552" d="M240.038,294.133,267.09,288l126.137-42.856a153.957,153.957,0,0,0-109.014-77.609Z" transform="translate(116.377 55.565)" fill="#5d9316"/>
        <path id="Trazado_1016553" data-name="Trazado 1016553" d="M276.41,269.931,388.4,342.039a153.935,153.935,0,0,0-7.51-132.293L254.749,252.6Z" transform="translate(128.716 90.968)" fill="#e88503"/>
        <path id="Trazado_1016554" data-name="Trazado 1016554" d="M378.536,314.584,266.55,242.476l-.044,27.738L281,403.483A154.2,154.2,0,0,0,378.536,314.584Z" transform="translate(138.578 118.422)" fill="#aa3073"/>
        <path id="Trazado_1016555" data-name="Trazado 1016555" d="M271.478,212.925A77.365,77.365,0,1,0,322.455,66.834Z" transform="translate(142.748 -28.904)" fill="#5d9316"/>
        <path id="Trazado_1016556" data-name="Trazado 1016556" d="M313.913,197.817a62.657,62.657,0,0,1-2.885-125.245c1.008-.048,2.008-.072,3.006-.072a62.657,62.657,0,0,1,2.885,125.245c-1.008.048-2,.072-3,.072Z" transform="translate(125.837 -24.151)" fill="#179989"/>
        <path id="Trazado_1016557" data-name="Trazado 1016557" d="M309.72,184.427a53.462,53.462,0,0,1-2.453-106.864c.864-.04,1.719-.061,2.572-.061a53.463,53.463,0,0,1,2.453,106.866c-.862.04-1.716.061-2.569.061h0Z" transform="translate(130.031 -19.956)" fill="none" stroke="#fff" stroke-miterlimit="10" stroke-width="1"/>
        <path id="Trazado_1016558" data-name="Trazado 1016558" d="M423.477,278.157A77.4,77.4,0,0,0,492.725,174.9l-146.5,49.776A77.383,77.383,0,0,0,423.477,278.157Z" transform="translate(205.445 61.742)" fill="#e88503"/>
        <path id="Trazado_1016559" data-name="Trazado 1016559" d="M414.781,280.269A62.657,62.657,0,0,1,411.9,155.024c1.008-.048,2.008-.072,3.006-.072A62.657,62.657,0,0,1,417.787,280.2c-1.006.048-2,.07-3,.07A.007.007,0,0,1,414.781,280.269Z" transform="translate(210.443 45.008)" fill="#9fc914"/>
        <path id="Trazado_1016560" data-name="Trazado 1016560" d="M410.587,266.88a53.463,53.463,0,0,1-2.451-106.866c.864-.04,1.719-.061,2.572-.061a53.464,53.464,0,0,1,2.451,106.868c-.862.04-1.716.061-2.567.061h-.006Z" transform="translate(214.637 49.203)" fill="none" stroke="#fff" stroke-miterlimit="10" stroke-width="1"/>
        <path id="Trazado_1016561" data-name="Trazado 1016561" d="M485.69,379.815,355.622,296.064A77.356,77.356,0,1,0,485.69,379.815Z" transform="translate(202.536 163.37)" fill="#aa3073"/>
        <path id="Trazado_1016562" data-name="Trazado 1016562" d="M413.356,410.526a62.656,62.656,0,0,1-2.885-125.243c1.01-.046,2.01-.072,3.008-.072a62.657,62.657,0,0,1,2.881,125.245c-1.006.046-2,.07-3,.07Z" transform="translate(209.246 154.267)" fill="#f9ad01"/>
        <path id="Trazado_1016563" data-name="Trazado 1016563" d="M409.162,397.138a53.463,53.463,0,0,1-2.453-106.866c.859-.04,1.719-.061,2.574-.061a53.463,53.463,0,0,1,2.449,106.866q-1.285.058-2.567.059h0Z" transform="translate(213.44 158.461)" fill="none" stroke="#fff" stroke-miterlimit="10" stroke-width="1"/>
        <path id="Trazado_1016564" data-name="Trazado 1016564" d="M308.665,357.814a77.356,77.356,0,0,0,12.491,154.119c1.425-.066,2.839-.178,4.242-.322Z" transform="translate(116.472 215.165)" fill="#7b37db"/>
        <path id="Trazado_1016565" data-name="Trazado 1016565" d="M310.75,490.841A62.656,62.656,0,0,1,307.863,365.6c1.009-.046,2.01-.072,3.008-.072a62.657,62.657,0,0,1,2.883,125.245c-1.006.046-2,.07-3,.07Z" transform="translate(123.182 221.634)" fill="#d83a51"/>
        <path id="Trazado_1016566" data-name="Trazado 1016566" d="M306.556,477.453A53.463,53.463,0,0,1,304.1,370.587c.859-.039,1.719-.061,2.574-.061a53.463,53.463,0,0,1,2.451,106.866q-1.285.061-2.567.059h0Z" transform="translate(127.376 225.828)" fill="none" stroke="#fff" stroke-miterlimit="10" stroke-width="1"/>
        <path id="Trazado_1016567" data-name="Trazado 1016567" d="M242.945,349.512a77.355,77.355,0,0,0-108.6,110.176Z" transform="translate(8.793 189.917)" fill="#4734a5"/>
        <path id="Trazado_1016568" data-name="Trazado 1016568" d="M182.371,461.028a62.657,62.657,0,0,1-2.883-125.245c1.008-.046,2.01-.072,3.008-.072a62.657,62.657,0,0,1,2.883,125.245c-1.006.046-2.006.072-3,.072Z" transform="translate(15.504 196.625)" fill="#b455ff"/>
        <path id="Trazado_1016569" data-name="Trazado 1016569" d="M178.177,447.639a53.463,53.463,0,0,1-2.451-106.866q1.288-.061,2.574-.061a53.463,53.463,0,0,1,2.451,106.866c-.859.039-1.716.061-2.571.061Z" transform="translate(19.698 200.82)" fill="none" stroke="#fff" stroke-miterlimit="10" stroke-width="1"/>
        <path id="Trazado_1016570" data-name="Trazado 1016570" d="M212.137,292.474a77.364,77.364,0,0,0-153.98-15.19Z" transform="translate(-36.182 89.411)" fill="#2a62dd"/>
        <path id="Trazado_1016571" data-name="Trazado 1016571" d="M128.53,341.206a62.657,62.657,0,0,1-2.881-125.245c1.008-.048,2.008-.072,3.006-.072a62.656,62.656,0,0,1,2.883,125.243c-1.006.046-2.006.072-3,.072A.007.007,0,0,1,128.53,341.206Z" transform="translate(-29.657 96.121)" fill="#7054d3"/>
        <path id="Trazado_1016572" data-name="Trazado 1016572" d="M124.336,327.817a53.463,53.463,0,0,1-2.451-106.866c.864-.04,1.719-.061,2.574-.061a53.463,53.463,0,0,1,2.453,106.866c-.857.039-1.716.061-2.571.061Z" transform="translate(-25.463 100.316)" fill="none" stroke="#fff" stroke-miterlimit="10" stroke-width="1"/>
        <path id="Trazado_1016573" data-name="Trazado 1016573" d="M174.033,91a76.993,76.993,0,0,0-38.594,12.465l83.768,130.074A77.358,77.358,0,0,0,174.033,91Z" transform="translate(28.641 -8.704)" fill="#18656d"/>
        <path id="Trazado_1016574" data-name="Trazado 1016574" d="M186.927,224.232a62.657,62.657,0,0,1-2.885-125.245c1.008-.048,2.008-.072,3.006-.072a62.657,62.657,0,0,1,2.883,125.245c-1.006.048-2,.072-3,.072Z" transform="translate(19.324 -1.995)" fill="#4aadff"/>
        <path id="Trazado_1016575" data-name="Trazado 1016575" d="M182.733,210.842a53.462,53.462,0,0,1-2.453-106.864c.864-.04,1.719-.061,2.574-.061a53.462,53.462,0,0,1,2.453,106.864q-1.294.061-2.569.061Z" transform="translate(23.518 2.201)" fill="none" stroke="#fff" stroke-miterlimit="10" stroke-width="1"/>
        <path id="Trazado_1016611" data-name="Trazado 1016611" d="M290.99,341.8a147.08,147.08,0,0,1-81.98-24.864l-7.877,7.991A158.782,158.782,0,0,0,336.4,346.215l-1.214-11.161A147.409,147.409,0,0,1,290.99,341.8Z" transform="translate(83.743 180.881)" fill="#c68aff"/>
        <path id="Trazado_1016612" data-name="Trazado 1016612" d="M274.037,366.112l1.214,11.161a159.748,159.748,0,0,0,101.355-91.266l-9.462-6.092A148.644,148.644,0,0,1,274.037,366.112Z" transform="translate(144.894 149.825)" fill="#ff6986"/>
        <path id="Trazado_1016613" data-name="Trazado 1016613" d="M174.935,257.149l-11.183-1.1A159.026,159.026,0,0,0,232.484,376.01l7.877-7.991A148.019,148.019,0,0,1,174.935,257.149Z" transform="translate(52.389 129.804)" fill="#b455ff"/>
        <path id="Trazado_1016614" data-name="Trazado 1016614" d="M298.524,174.57a148.184,148.184,0,0,1,24.443,2.056l3.746-10.586A158.923,158.923,0,0,0,192.15,204.474l6.066,9.418A147.358,147.358,0,0,1,298.524,174.57Z" transform="translate(76.209 52.209)" fill="#53e5cf"/>
        <path id="Trazado_1016615" data-name="Trazado 1016615" d="M367.994,249.306l10.641-3.615a159.465,159.465,0,0,0-111.6-80.792l-3.746,10.586A148.3,148.3,0,0,1,367.994,249.306Z" transform="translate(135.882 53.351)" fill="#ddf964"/>
        <path id="Trazado_1016616" data-name="Trazado 1016616" d="M330.874,208.837l-10.641,3.615A147.459,147.459,0,0,1,328.4,339.534l9.462,6.092a158.826,158.826,0,0,0-6.986-136.789Z" transform="translate(183.643 90.206)" fill="#fc6"/>
        <path id="Trazado_1016617" data-name="Trazado 1016617" d="M174.57,303.85a147.564,147.564,0,0,1,47.643-108.632l-6.066-9.418a158.615,158.615,0,0,0-52.609,118.05c0,3.738.14,7.443.4,11.117l11.183,1.1C174.785,312.036,174.57,307.969,174.57,303.85Z" transform="translate(52.209 70.883)" fill="#83cdff"/>
      </g>
      <g id="TEXTS" transform="translate(77.458 58.96)">
        <text id="_1" data-name="1" transform="translate(347.605 74)" fill="#fff" font-size="69" font-family="SegoeUI, Segoe UI"><tspan x="0" y="0">1</tspan></text>
        <text id="_2" data-name="2" transform="translate(528.117 222.371)" fill="#fff" font-size="69" font-family="SegoeUI, Segoe UI"><tspan x="0" y="0">2</tspan></text>
        <text id="_3" data-name="3" transform="translate(523.948 466.379)" fill="#fff" font-size="69" font-family="SegoeUI, Segoe UI"><tspan x="0" y="0">3</tspan></text>
        <text id="_4" data-name="4" transform="translate(333.806 611.847)" fill="#fff" font-size="69" font-family="SegoeUI, Segoe UI"><tspan x="0" y="0">4</tspan></text>
        <text id="_5" data-name="5" transform="translate(99.334 557.092)" fill="#fff" font-size="69" font-family="SegoeUI, Segoe UI"><tspan x="0" y="0">5</tspan></text>
        <text id="_6" data-name="6" transform="translate(0 335.652)" fill="#fff" font-size="69" font-family="SegoeUI, Segoe UI"><tspan x="0" y="0">6</tspan></text>
        <text id="_7" data-name="7" transform="translate(109.288 125.35)" fill="#fff" font-size="69" font-family="SegoeUI, Segoe UI"><tspan x="0" y="0">7</tspan></text>
      </g>
    </g>
    <path id="Trazado_1016666" data-name="Trazado 1016666" d="M-44.55,0H-47.7V-14h3.154Zm12.541,0h-3.076V-5.557q0-2.324-1.66-2.324a1.647,1.647,0,0,0-1.318.615A2.344,2.344,0,0,0-38.581-5.7V0h-3.086V-10h3.086v1.582h.039a3.536,3.536,0,0,1,3.213-1.826q3.32,0,3.32,4.121Zm8.488-.117a4.561,4.561,0,0,1-2.061.361q-3.262,0-3.262-3.389v-4.58h-1.621V-10h1.621v-2.158l3.076-.879V-10h2.246v2.275h-2.246v4.043q0,1.563,1.24,1.563A2.091,2.091,0,0,0-23.521-2.4Zm10.647-4H-19.4q.156,2.178,2.744,2.178a5.357,5.357,0,0,0,2.9-.781V-.5a7.619,7.619,0,0,1-3.6.742A5.073,5.073,0,0,1-21.116-1.1a5.073,5.073,0,0,1-1.338-3.745,5.352,5.352,0,0,1,1.445-3.945,4.815,4.815,0,0,1,3.555-1.455,4.37,4.37,0,0,1,3.384,1.3,5,5,0,0,1,1.2,3.525Zm-2.861-1.895q0-2.148-1.738-2.148a1.66,1.66,0,0,0-1.284.615,2.792,2.792,0,0,0-.659,1.533Zm14.5,4.873A5.658,5.658,0,0,1-2.843,3.169,6.53,6.53,0,0,1-7.511,4.7a7.4,7.4,0,0,1-3.2-.576v-2.6a6.134,6.134,0,0,0,3.115.9A3.355,3.355,0,0,0-5.177,1.6,2.961,2.961,0,0,0-4.317-.645v-.791h-.039A3.446,3.446,0,0,1-7.472.244,3.747,3.747,0,0,1-10.509-1.1a5.465,5.465,0,0,1-1.123-3.613,6.087,6.087,0,0,1,1.25-4.033,4.081,4.081,0,0,1,3.291-1.494A3.037,3.037,0,0,1-4.356-8.838h.039V-10h3.086ZM-4.278-4.8V-5.6A2.431,2.431,0,0,0-4.84-7.212,1.816,1.816,0,0,0-6.3-7.881a1.888,1.888,0,0,0-1.611.8A3.766,3.766,0,0,0-8.5-4.824,3.178,3.178,0,0,0-7.94-2.847a1.814,1.814,0,0,0,1.523.728,1.888,1.888,0,0,0,1.548-.737A3.023,3.023,0,0,0-4.278-4.8ZM7.872-7.217a2.677,2.677,0,0,0-1.3-.3A1.871,1.871,0,0,0,5-6.782a3.217,3.217,0,0,0-.566,2.007V0H1.349V-10H4.435v1.855h.039A2.67,2.67,0,0,1,7.11-10.176a1.987,1.987,0,0,1,.762.117Zm3.078-4.365a1.8,1.8,0,0,1-1.279-.464,1.5,1.5,0,0,1-.5-1.138,1.441,1.441,0,0,1,.5-1.133,1.862,1.862,0,0,1,1.279-.439,1.858,1.858,0,0,1,1.284.439,1.448,1.448,0,0,1,.493,1.133,1.489,1.489,0,0,1-.493,1.152A1.833,1.833,0,0,1,10.95-11.582ZM12.474,0H9.388V-10h3.086ZM24.859,0H21.773V-1.377h-.039a3.46,3.46,0,0,1-3.1,1.621A3.791,3.791,0,0,1,15.62-1.079a5.478,5.478,0,0,1-1.143-3.7,5.962,5.962,0,0,1,1.26-3.975,4.109,4.109,0,0,1,3.3-1.494,2.808,2.808,0,0,1,2.7,1.387h.039V-14.8h3.086ZM21.831-4.863v-.752a2.366,2.366,0,0,0-.566-1.621,1.871,1.871,0,0,0-1.475-.645,1.859,1.859,0,0,0-1.6.806,3.741,3.741,0,0,0-.576,2.212,3.237,3.237,0,0,0,.557,2.031,1.848,1.848,0,0,0,1.543.713,1.856,1.856,0,0,0,1.528-.752A3.134,3.134,0,0,0,21.831-4.863ZM35.778,0h-2.92V-1.436h-.039A3.259,3.259,0,0,1,29.841.244a3.116,3.116,0,0,1-2.29-.825,2.957,2.957,0,0,1-.835-2.2q0-2.91,3.447-3.359L32.878-6.5q0-1.641-1.777-1.641A6.067,6.067,0,0,0,27.7-7.08V-9.4a7.646,7.646,0,0,1,1.763-.586,9.266,9.266,0,0,1,2.036-.254q4.277,0,4.277,4.268Zm-2.9-4.062v-.674L31.062-4.5q-1.5.2-1.5,1.357a1.122,1.122,0,0,0,.366.864,1.407,1.407,0,0,0,.991.337,1.827,1.827,0,0,0,1.416-.6A2.169,2.169,0,0,0,32.878-4.062ZM48.007,0H44.921V-1.377h-.039a3.46,3.46,0,0,1-3.1,1.621,3.791,3.791,0,0,1-3.018-1.323,5.478,5.478,0,0,1-1.143-3.7,5.962,5.962,0,0,1,1.26-3.975,4.109,4.109,0,0,1,3.3-1.494,2.808,2.808,0,0,1,2.7,1.387h.039V-14.8h3.086ZM44.98-4.863v-.752a2.366,2.366,0,0,0-.566-1.621,1.871,1.871,0,0,0-1.475-.645,1.859,1.859,0,0,0-1.6.806,3.741,3.741,0,0,0-.576,2.212,3.237,3.237,0,0,0,.557,2.031,1.848,1.848,0,0,0,1.543.713,1.856,1.856,0,0,0,1.528-.752A3.134,3.134,0,0,0,44.98-4.863Z" transform="translate(997.699 1448.374)" fill="#fff"/>
    <path id="Trazado_1016667" data-name="Trazado 1016667" d="M-24.322,0h-3.623l-2.178-3.6q-.244-.41-.469-.732a4.069,4.069,0,0,0-.454-.552,1.806,1.806,0,0,0-.479-.352,1.215,1.215,0,0,0-.542-.122h-.85V0H-36.07V-14h5q5.1,0,5.1,3.809A3.944,3.944,0,0,1-26.2-8.843a3.757,3.757,0,0,1-.635,1.118,4.024,4.024,0,0,1-.991.859,5.112,5.112,0,0,1-1.294.566v.039a2.007,2.007,0,0,1,.605.317,4.336,4.336,0,0,1,.566.513,7.153,7.153,0,0,1,.522.63q.249.337.454.659Zm-8.594-11.641v3.9h1.367a2.267,2.267,0,0,0,1.631-.586A1.955,1.955,0,0,0-29.293-9.8q0-1.836-2.2-1.836Zm18.088,7.52h-6.523q.156,2.178,2.744,2.178a5.357,5.357,0,0,0,2.9-.781V-.5a7.619,7.619,0,0,1-3.6.742A5.073,5.073,0,0,1-23.07-1.1a5.073,5.073,0,0,1-1.338-3.745,5.352,5.352,0,0,1,1.445-3.945,4.815,4.815,0,0,1,3.555-1.455,4.37,4.37,0,0,1,3.384,1.3,5,5,0,0,1,1.2,3.525ZM-17.69-6.016q0-2.148-1.738-2.148a1.66,1.66,0,0,0-1.284.615,2.792,2.792,0,0,0-.659,1.533Zm4.045,5.752v-2.5a6.57,6.57,0,0,0,1.519.684,5.035,5.035,0,0,0,1.431.225A3.068,3.068,0,0,0-9.4-2.08a.726.726,0,0,0,.474-.684.632.632,0,0,0-.215-.488,2,2,0,0,0-.552-.342,6.261,6.261,0,0,0-.737-.264q-.4-.117-.771-.264a7.392,7.392,0,0,1-1.05-.483,3.034,3.034,0,0,1-.762-.6A2.361,2.361,0,0,1-13.483-6a3.157,3.157,0,0,1-.161-1.064,2.74,2.74,0,0,1,.366-1.445A2.991,2.991,0,0,1-12.3-9.5a4.462,4.462,0,0,1,1.4-.566,7.281,7.281,0,0,1,1.636-.181,9.076,9.076,0,0,1,1.348.1,10.059,10.059,0,0,1,1.348.3v2.383a4.87,4.87,0,0,0-1.255-.513,5.294,5.294,0,0,0-1.313-.171,2.91,2.91,0,0,0-.571.054,1.882,1.882,0,0,0-.474.156.87.87,0,0,0-.322.264.607.607,0,0,0-.117.366.677.677,0,0,0,.176.469,1.527,1.527,0,0,0,.459.337,4.531,4.531,0,0,0,.63.254q.347.112.688.229a8.951,8.951,0,0,1,1.113.469,3.56,3.56,0,0,1,.854.6,2.339,2.339,0,0,1,.547.8,2.846,2.846,0,0,1,.19,1.094,2.853,2.853,0,0,1-.386,1.519A3.088,3.088,0,0,1-7.38-.513,4.65,4.65,0,0,1-8.855.063a8.175,8.175,0,0,1-1.733.181A8.936,8.936,0,0,1-13.645-.264Zm12.58-.9H-1.1V4.6H-4.189V-10H-1.1v1.5h.039a3.628,3.628,0,0,1,3.213-1.748,3.615,3.615,0,0,1,3,1.333,5.676,5.676,0,0,1,1.06,3.628A6.152,6.152,0,0,1,4.976-1.27,4.028,4.028,0,0,1,1.689.244,3.114,3.114,0,0,1-1.064-1.162Zm-.088-4.1v.8A2.546,2.546,0,0,0-.605-2.773,1.78,1.78,0,0,0,.83-2.119a1.892,1.892,0,0,0,1.636-.815,3.937,3.937,0,0,0,.581-2.31Q3.047-7.881,1-7.881a1.926,1.926,0,0,0-1.548.718A2.863,2.863,0,0,0-1.152-5.264ZM17.2-4.121H10.676q.156,2.178,2.744,2.178a5.357,5.357,0,0,0,2.9-.781V-.5a7.619,7.619,0,0,1-3.6.742A5.073,5.073,0,0,1,8.957-1.1,5.073,5.073,0,0,1,7.619-4.844,5.352,5.352,0,0,1,9.064-8.789a4.815,4.815,0,0,1,3.555-1.455A4.37,4.37,0,0,1,16-8.945,5,5,0,0,1,17.2-5.42ZM14.338-6.016q0-2.148-1.738-2.148a1.66,1.66,0,0,0-1.284.615,2.792,2.792,0,0,0-.659,1.533Zm10.744,5.9a4.561,4.561,0,0,1-2.061.361q-3.262,0-3.262-3.389v-4.58H18.139V-10H19.76v-2.158l3.076-.879V-10h2.246v2.275H22.836v4.043q0,1.563,1.24,1.563A2.091,2.091,0,0,0,25.082-2.4ZM31.51.244a5.376,5.376,0,0,1-3.931-1.4,5.081,5.081,0,0,1-1.431-3.8,5.081,5.081,0,0,1,1.484-3.882,5.609,5.609,0,0,1,4.014-1.4,5.311,5.311,0,0,1,3.906,1.4,4.981,4.981,0,0,1,1.416,3.706A5.288,5.288,0,0,1,35.509-1.2,5.435,5.435,0,0,1,31.51.244Zm.078-8.125a2.058,2.058,0,0,0-1.7.752A3.316,3.316,0,0,0,29.283-5q0,2.881,2.324,2.881,2.217,0,2.217-2.959Q33.824-7.881,31.588-7.881Z" transform="translate(727.699 1897.591)" fill="#fff"/>
    <path id="Trazado_1016668" data-name="Trazado 1016668" d="M-63.388,0h-3.623l-2.178-3.6q-.244-.41-.469-.732a4.069,4.069,0,0,0-.454-.552,1.806,1.806,0,0,0-.479-.352,1.215,1.215,0,0,0-.542-.122h-.85V0h-3.154V-14h5q5.1,0,5.1,3.809a3.944,3.944,0,0,1-.225,1.353A3.757,3.757,0,0,1-65.9-7.725a4.024,4.024,0,0,1-.991.859,5.112,5.112,0,0,1-1.294.566v.039a2.007,2.007,0,0,1,.605.317,4.335,4.335,0,0,1,.566.513,7.153,7.153,0,0,1,.522.63q.249.337.454.659Zm-8.594-11.641v3.9h1.367a2.267,2.267,0,0,0,1.631-.586A1.955,1.955,0,0,0-68.359-9.8q0-1.836-2.2-1.836Zm18.088,7.52h-6.523q.156,2.178,2.744,2.178a5.357,5.357,0,0,0,2.9-.781V-.5a7.619,7.619,0,0,1-3.6.742A5.073,5.073,0,0,1-62.136-1.1a5.073,5.073,0,0,1-1.338-3.745,5.352,5.352,0,0,1,1.445-3.945,4.815,4.815,0,0,1,3.555-1.455,4.37,4.37,0,0,1,3.384,1.3,5,5,0,0,1,1.2,3.525Zm-2.861-1.895q0-2.148-1.738-2.148a1.66,1.66,0,0,0-1.284.615,2.792,2.792,0,0,0-.659,1.533ZM-52.71-.264v-2.5a6.57,6.57,0,0,0,1.519.684,5.035,5.035,0,0,0,1.431.225,3.068,3.068,0,0,0,1.294-.225.726.726,0,0,0,.474-.684.632.632,0,0,0-.215-.488,2,2,0,0,0-.552-.342,6.261,6.261,0,0,0-.737-.264q-.4-.117-.771-.264a7.392,7.392,0,0,1-1.05-.483,3.034,3.034,0,0,1-.762-.6A2.361,2.361,0,0,1-52.549-6a3.157,3.157,0,0,1-.161-1.064,2.74,2.74,0,0,1,.366-1.445,2.991,2.991,0,0,1,.977-.991,4.462,4.462,0,0,1,1.4-.566,7.281,7.281,0,0,1,1.636-.181,9.076,9.076,0,0,1,1.348.1,10.058,10.058,0,0,1,1.348.3v2.383a4.87,4.87,0,0,0-1.255-.513,5.294,5.294,0,0,0-1.313-.171,2.91,2.91,0,0,0-.571.054,1.882,1.882,0,0,0-.474.156.87.87,0,0,0-.322.264.607.607,0,0,0-.117.366.677.677,0,0,0,.176.469,1.527,1.527,0,0,0,.459.337,4.531,4.531,0,0,0,.63.254q.347.112.688.229a8.951,8.951,0,0,1,1.113.469,3.56,3.56,0,0,1,.854.6,2.339,2.339,0,0,1,.547.8,2.846,2.846,0,0,1,.19,1.094,2.853,2.853,0,0,1-.386,1.519A3.088,3.088,0,0,1-46.446-.513,4.65,4.65,0,0,1-47.92.063a8.175,8.175,0,0,1-1.733.181A8.936,8.936,0,0,1-52.71-.264Zm12.58-.9h-.039V4.6h-3.086V-10h3.086v1.5h.039a3.628,3.628,0,0,1,3.213-1.748,3.615,3.615,0,0,1,3,1.333,5.676,5.676,0,0,1,1.06,3.628A6.152,6.152,0,0,1-34.09-1.27,4.028,4.028,0,0,1-37.376.244,3.114,3.114,0,0,1-40.13-1.162Zm-.088-4.1v.8a2.546,2.546,0,0,0,.547,1.689,1.78,1.78,0,0,0,1.436.654A1.892,1.892,0,0,0-36.6-2.935a3.937,3.937,0,0,0,.581-2.31q0-2.637-2.051-2.637a1.926,1.926,0,0,0-1.548.718A2.863,2.863,0,0,0-40.218-5.264ZM-26.085.244a5.376,5.376,0,0,1-3.931-1.4,5.081,5.081,0,0,1-1.431-3.8,5.081,5.081,0,0,1,1.484-3.882,5.609,5.609,0,0,1,4.014-1.4,5.311,5.311,0,0,1,3.906,1.4,4.981,4.981,0,0,1,1.416,3.706A5.288,5.288,0,0,1-22.086-1.2,5.435,5.435,0,0,1-26.085.244Zm.078-8.125a2.058,2.058,0,0,0-1.7.752A3.316,3.316,0,0,0-28.312-5q0,2.881,2.324,2.881,2.217,0,2.217-2.959Q-23.771-7.881-26.007-7.881ZM-8.964,0H-12.04V-5.557q0-2.324-1.66-2.324a1.647,1.647,0,0,0-1.318.615A2.344,2.344,0,0,0-15.536-5.7V0h-3.086V-10h3.086v1.582h.039a3.536,3.536,0,0,1,3.213-1.826q3.32,0,3.32,4.121Zm1.789-.264v-2.5a6.57,6.57,0,0,0,1.519.684,5.035,5.035,0,0,0,1.431.225A3.068,3.068,0,0,0-2.932-2.08a.726.726,0,0,0,.474-.684.632.632,0,0,0-.215-.488,2,2,0,0,0-.552-.342,6.261,6.261,0,0,0-.737-.264q-.4-.117-.771-.264A7.392,7.392,0,0,1-5.783-4.6a3.034,3.034,0,0,1-.762-.6A2.361,2.361,0,0,1-7.014-6a3.157,3.157,0,0,1-.161-1.064,2.74,2.74,0,0,1,.366-1.445A2.991,2.991,0,0,1-5.832-9.5a4.462,4.462,0,0,1,1.4-.566A7.281,7.281,0,0,1-2.8-10.244a9.076,9.076,0,0,1,1.348.1,10.059,10.059,0,0,1,1.348.3v2.383a4.87,4.87,0,0,0-1.255-.513,5.294,5.294,0,0,0-1.313-.171,2.91,2.91,0,0,0-.571.054,1.882,1.882,0,0,0-.474.156.87.87,0,0,0-.322.264.607.607,0,0,0-.117.366.677.677,0,0,0,.176.469,1.527,1.527,0,0,0,.459.337,4.531,4.531,0,0,0,.63.254q.347.112.688.229a8.951,8.951,0,0,1,1.113.469,3.56,3.56,0,0,1,.854.6,2.339,2.339,0,0,1,.547.8A2.846,2.846,0,0,1,.5-3.057,2.853,2.853,0,0,1,.115-1.538,3.088,3.088,0,0,1-.91-.513,4.65,4.65,0,0,1-2.385.063,8.175,8.175,0,0,1-4.118.244,8.936,8.936,0,0,1-7.175-.264ZM10.6,0H7.681V-1.436H7.642A3.259,3.259,0,0,1,4.663.244a3.116,3.116,0,0,1-2.29-.825,2.957,2.957,0,0,1-.835-2.2q0-2.91,3.447-3.359L7.7-6.5q0-1.641-1.777-1.641a6.067,6.067,0,0,0-3.4,1.064V-9.4A7.646,7.646,0,0,1,4.287-9.99a9.266,9.266,0,0,1,2.036-.254q4.277,0,4.277,4.268ZM7.7-4.062v-.674L5.884-4.5q-1.5.2-1.5,1.357a1.122,1.122,0,0,0,.366.864,1.407,1.407,0,0,0,.991.337,1.827,1.827,0,0,0,1.416-.6A2.169,2.169,0,0,0,7.7-4.062Zm8.469,2.9H16.13V0H13.044V-14.8H16.13V-8.5h.039a3.662,3.662,0,0,1,3.252-1.748A3.568,3.568,0,0,1,22.4-8.916a5.727,5.727,0,0,1,1.045,3.633A6.2,6.2,0,0,1,22.224-1.27,3.976,3.976,0,0,1,18.962.244,3.151,3.151,0,0,1,16.169-1.162Zm-.088-4.219v1.025a2.341,2.341,0,0,0,.557,1.6,1.811,1.811,0,0,0,1.426.635A1.892,1.892,0,0,0,19.7-2.935a3.937,3.937,0,0,0,.581-2.31,3.132,3.132,0,0,0-.532-1.938,1.8,1.8,0,0,0-1.519-.7,1.962,1.962,0,0,0-1.538.693A2.634,2.634,0,0,0,16.081-5.381Zm10.93-6.2a1.8,1.8,0,0,1-1.279-.464,1.5,1.5,0,0,1-.5-1.138,1.441,1.441,0,0,1,.5-1.133,1.862,1.862,0,0,1,1.279-.439,1.858,1.858,0,0,1,1.284.439,1.448,1.448,0,0,1,.493,1.133,1.489,1.489,0,0,1-.493,1.152A1.833,1.833,0,0,1,27.011-11.582ZM28.534,0H25.448V-10h3.086ZM34.22,0H31.134V-14.8H34.22Zm4.162-11.582a1.8,1.8,0,0,1-1.279-.464,1.5,1.5,0,0,1-.5-1.138,1.441,1.441,0,0,1,.5-1.133,1.862,1.862,0,0,1,1.279-.439,1.858,1.858,0,0,1,1.284.439,1.448,1.448,0,0,1,.493,1.133,1.489,1.489,0,0,1-.493,1.152A1.833,1.833,0,0,1,38.382-11.582ZM39.905,0H36.82V-10h3.086ZM52.29,0H49.2V-1.377h-.039A3.46,3.46,0,0,1,46.07.244a3.791,3.791,0,0,1-3.018-1.323,5.478,5.478,0,0,1-1.143-3.7,5.962,5.962,0,0,1,1.26-3.975,4.109,4.109,0,0,1,3.3-1.494,2.808,2.808,0,0,1,2.7,1.387H49.2V-14.8H52.29ZM49.263-4.863v-.752A2.366,2.366,0,0,0,48.7-7.236a1.871,1.871,0,0,0-1.475-.645,1.859,1.859,0,0,0-1.6.806,3.741,3.741,0,0,0-.576,2.212A3.237,3.237,0,0,0,45.6-2.832a1.848,1.848,0,0,0,1.543.713,1.856,1.856,0,0,0,1.528-.752A3.134,3.134,0,0,0,49.263-4.863ZM63.21,0H60.29V-1.436h-.039A3.259,3.259,0,0,1,57.273.244a3.116,3.116,0,0,1-2.29-.825,2.957,2.957,0,0,1-.835-2.2q0-2.91,3.447-3.359L60.31-6.5q0-1.641-1.777-1.641a6.067,6.067,0,0,0-3.4,1.064V-9.4A7.646,7.646,0,0,1,56.9-9.99a9.266,9.266,0,0,1,2.036-.254q4.277,0,4.277,4.268Zm-2.9-4.062v-.674L58.493-4.5q-1.5.2-1.5,1.357a1.122,1.122,0,0,0,.366.864,1.407,1.407,0,0,0,.991.337,1.827,1.827,0,0,0,1.416-.6A2.169,2.169,0,0,0,60.31-4.062ZM75.439,0H72.353V-1.377h-.039a3.46,3.46,0,0,1-3.1,1.621A3.791,3.791,0,0,1,66.2-1.079a5.478,5.478,0,0,1-1.143-3.7,5.962,5.962,0,0,1,1.26-3.975,4.109,4.109,0,0,1,3.3-1.494,2.808,2.808,0,0,1,2.7,1.387h.039V-14.8h3.086ZM72.411-4.863v-.752a2.366,2.366,0,0,0-.566-1.621,1.871,1.871,0,0,0-1.475-.645,1.859,1.859,0,0,0-1.6.806,3.741,3.741,0,0,0-.576,2.212,3.237,3.237,0,0,0,.557,2.031,1.848,1.848,0,0,0,1.543.713,1.856,1.856,0,0,0,1.528-.752A3.134,3.134,0,0,0,72.411-4.863Z" transform="translate(1071.699 1666.733)" fill="#fff"/>
    <path id="Trazado_1016669" data-name="Trazado 1016669" d="M-67.574-.5a9.235,9.235,0,0,1-4,.742A6.749,6.749,0,0,1-76.646-1.65,6.925,6.925,0,0,1-78.492-6.7a7.4,7.4,0,0,1,2.075-5.449,7.259,7.259,0,0,1,5.386-2.09,10.072,10.072,0,0,1,3.457.518v3.037a6.126,6.126,0,0,0-3.2-.84,4.249,4.249,0,0,0-3.184,1.24,4.6,4.6,0,0,0-1.211,3.359,4.514,4.514,0,0,0,1.143,3.237A4.036,4.036,0,0,0-70.952-2.48a6.561,6.561,0,0,0,3.379-.9Zm6.906.742a5.376,5.376,0,0,1-3.931-1.4,5.081,5.081,0,0,1-1.431-3.8,5.081,5.081,0,0,1,1.484-3.882,5.609,5.609,0,0,1,4.014-1.4,5.311,5.311,0,0,1,3.906,1.4,4.981,4.981,0,0,1,1.416,3.706A5.288,5.288,0,0,1-56.668-1.2,5.435,5.435,0,0,1-60.667.244Zm.078-8.125a2.058,2.058,0,0,0-1.7.752A3.316,3.316,0,0,0-62.894-5q0,2.881,2.324,2.881,2.217,0,2.217-2.959Q-58.353-7.881-60.589-7.881ZM-43.546,0h-3.076V-5.557q0-2.324-1.66-2.324a1.647,1.647,0,0,0-1.318.615A2.344,2.344,0,0,0-50.118-5.7V0H-53.2V-10h3.086v1.582h.039a3.536,3.536,0,0,1,3.213-1.826q3.32,0,3.32,4.121Zm8.967-12.441a3.117,3.117,0,0,0-1.143-.234q-1.484,0-1.484,1.611V-10h2.285v2.275h-2.285V0h-3.076V-7.725h-1.68V-10h1.68v-1.24a3.6,3.6,0,0,1,1.113-2.754,4.246,4.246,0,0,1,3.027-1.045,5.317,5.317,0,0,1,1.563.2Zm2.707.859a1.8,1.8,0,0,1-1.279-.464,1.5,1.5,0,0,1-.5-1.138,1.441,1.441,0,0,1,.5-1.133,1.862,1.862,0,0,1,1.279-.439,1.858,1.858,0,0,1,1.284.439,1.448,1.448,0,0,1,.493,1.133,1.489,1.489,0,0,1-.493,1.152A1.833,1.833,0,0,1-31.872-11.582ZM-30.349,0h-3.086V-10h3.086Zm12.385,0H-21.05V-1.377h-.039a3.46,3.46,0,0,1-3.1,1.621A3.791,3.791,0,0,1-27.2-1.079a5.478,5.478,0,0,1-1.143-3.7,5.962,5.962,0,0,1,1.26-3.975,4.109,4.109,0,0,1,3.3-1.494,2.808,2.808,0,0,1,2.7,1.387h.039V-14.8h3.086Zm-3.027-4.863v-.752a2.366,2.366,0,0,0-.566-1.621,1.871,1.871,0,0,0-1.475-.645,1.859,1.859,0,0,0-1.6.806,3.741,3.741,0,0,0-.576,2.212,3.237,3.237,0,0,0,.557,2.031,1.848,1.848,0,0,0,1.543.713,1.856,1.856,0,0,0,1.528-.752A3.134,3.134,0,0,0-20.991-4.863Zm14.611.742H-12.9q.156,2.178,2.744,2.178a5.357,5.357,0,0,0,2.9-.781V-.5a7.619,7.619,0,0,1-3.6.742A5.073,5.073,0,0,1-14.622-1.1,5.073,5.073,0,0,1-15.96-4.844a5.352,5.352,0,0,1,1.445-3.945,4.815,4.815,0,0,1,3.555-1.455,4.37,4.37,0,0,1,3.384,1.3A5,5,0,0,1-6.38-5.42ZM-9.241-6.016q0-2.148-1.738-2.148a1.66,1.66,0,0,0-1.284.615,2.792,2.792,0,0,0-.659,1.533ZM5.116,0H2.04V-5.557q0-2.324-1.66-2.324a1.647,1.647,0,0,0-1.318.615A2.344,2.344,0,0,0-1.456-5.7V0H-4.542V-10h3.086v1.582h.039A3.536,3.536,0,0,1,1.8-10.244q3.32,0,3.32,4.121ZM15.138-.361A6.1,6.1,0,0,1,12.12.244a5.1,5.1,0,0,1-3.73-1.4,4.823,4.823,0,0,1-1.426-3.6A5.313,5.313,0,0,1,8.492-8.774a5.648,5.648,0,0,1,4.087-1.47,5.244,5.244,0,0,1,2.559.469v2.617a3.518,3.518,0,0,0-2.158-.723,2.844,2.844,0,0,0-2.1.776A2.9,2.9,0,0,0,10.1-4.961a2.85,2.85,0,0,0,.742,2.085,2.728,2.728,0,0,0,2.041.757,4.073,4.073,0,0,0,2.256-.723Zm3.586-11.221a1.8,1.8,0,0,1-1.279-.464,1.5,1.5,0,0,1-.5-1.138,1.441,1.441,0,0,1,.5-1.133,1.862,1.862,0,0,1,1.279-.439,1.858,1.858,0,0,1,1.284.439,1.448,1.448,0,0,1,.493,1.133,1.489,1.489,0,0,1-.493,1.152A1.833,1.833,0,0,1,18.724-11.582ZM20.247,0H17.161V-10h3.086Zm10.92,0h-2.92V-1.436h-.039A3.259,3.259,0,0,1,25.23.244a3.116,3.116,0,0,1-2.29-.825,2.957,2.957,0,0,1-.835-2.2q0-2.91,3.447-3.359L28.267-6.5q0-1.641-1.777-1.641a6.067,6.067,0,0,0-3.4,1.064V-9.4a7.646,7.646,0,0,1,1.763-.586,9.266,9.266,0,0,1,2.036-.254q4.277,0,4.277,4.268Zm-2.9-4.062v-.674L26.45-4.5q-1.5.2-1.5,1.357a1.122,1.122,0,0,0,.366.864,1.407,1.407,0,0,0,.991.337,1.827,1.827,0,0,0,1.416-.6A2.169,2.169,0,0,0,28.267-4.062ZM36.7,0H33.611V-14.8H36.7Zm4.162-11.582a1.8,1.8,0,0,1-1.279-.464,1.5,1.5,0,0,1-.5-1.138,1.441,1.441,0,0,1,.5-1.133,1.862,1.862,0,0,1,1.279-.439,1.858,1.858,0,0,1,1.284.439,1.448,1.448,0,0,1,.493,1.133,1.489,1.489,0,0,1-.493,1.152A1.833,1.833,0,0,1,40.859-11.582ZM42.382,0H39.3V-10h3.086ZM54.767,0H51.681V-1.377h-.039a3.46,3.46,0,0,1-3.1,1.621,3.791,3.791,0,0,1-3.018-1.323,5.478,5.478,0,0,1-1.143-3.7,5.962,5.962,0,0,1,1.26-3.975,4.109,4.109,0,0,1,3.3-1.494,2.808,2.808,0,0,1,2.7,1.387h.039V-14.8h3.086ZM51.74-4.863v-.752a2.366,2.366,0,0,0-.566-1.621A1.871,1.871,0,0,0,49.7-7.881a1.859,1.859,0,0,0-1.6.806,3.741,3.741,0,0,0-.576,2.212,3.237,3.237,0,0,0,.557,2.031,1.848,1.848,0,0,0,1.543.713,1.856,1.856,0,0,0,1.528-.752A3.134,3.134,0,0,0,51.74-4.863ZM65.687,0h-2.92V-1.436h-.039A3.259,3.259,0,0,1,59.749.244a3.116,3.116,0,0,1-2.29-.825,2.957,2.957,0,0,1-.835-2.2q0-2.91,3.447-3.359L62.786-6.5q0-1.641-1.777-1.641a6.067,6.067,0,0,0-3.4,1.064V-9.4a7.646,7.646,0,0,1,1.763-.586,9.266,9.266,0,0,1,2.036-.254q4.277,0,4.277,4.268Zm-2.9-4.062v-.674L60.97-4.5q-1.5.2-1.5,1.357a1.122,1.122,0,0,0,.366.864,1.407,1.407,0,0,0,.991.337,1.827,1.827,0,0,0,1.416-.6A2.169,2.169,0,0,0,62.786-4.062ZM77.915,0H74.829V-1.377H74.79a3.46,3.46,0,0,1-3.1,1.621,3.791,3.791,0,0,1-3.018-1.323,5.478,5.478,0,0,1-1.143-3.7,5.962,5.962,0,0,1,1.26-3.975,4.109,4.109,0,0,1,3.3-1.494,2.808,2.808,0,0,1,2.7,1.387h.039V-14.8h3.086ZM74.888-4.863v-.752a2.366,2.366,0,0,0-.566-1.621,1.871,1.871,0,0,0-1.475-.645,1.859,1.859,0,0,0-1.6.806,3.741,3.741,0,0,0-.576,2.212,3.237,3.237,0,0,0,.557,2.031,1.848,1.848,0,0,0,1.543.713A1.856,1.856,0,0,0,74.3-2.871,3.134,3.134,0,0,0,74.888-4.863Z" transform="translate(556.398 1754.963)" fill="#fff"/>
    <path id="Trazado_1016670" data-name="Trazado 1016670" d="M-49.829-.5a9.235,9.235,0,0,1-4,.742A6.749,6.749,0,0,1-58.9-1.65,6.925,6.925,0,0,1-60.747-6.7a7.4,7.4,0,0,1,2.075-5.449,7.259,7.259,0,0,1,5.386-2.09,10.072,10.072,0,0,1,3.457.518v3.037a6.126,6.126,0,0,0-3.2-.84,4.249,4.249,0,0,0-3.184,1.24,4.6,4.6,0,0,0-1.211,3.359,4.514,4.514,0,0,0,1.143,3.237A4.036,4.036,0,0,0-53.208-2.48a6.561,6.561,0,0,0,3.379-.9Zm6.906.742a5.376,5.376,0,0,1-3.931-1.4,5.081,5.081,0,0,1-1.431-3.8A5.081,5.081,0,0,1-46.8-8.843a5.609,5.609,0,0,1,4.014-1.4,5.311,5.311,0,0,1,3.906,1.4,4.981,4.981,0,0,1,1.416,3.706A5.288,5.288,0,0,1-38.924-1.2,5.435,5.435,0,0,1-42.923.244Zm.078-8.125a2.058,2.058,0,0,0-1.7.752A3.316,3.316,0,0,0-45.15-5q0,2.881,2.324,2.881,2.217,0,2.217-2.959Q-40.609-7.881-42.845-7.881ZM-19.581,0h-3.076V-5.7q0-2.178-1.6-2.178a1.471,1.471,0,0,0-1.24.654A2.689,2.689,0,0,0-25.978-5.6V0h-3.086V-5.762q0-2.119-1.572-2.119a1.507,1.507,0,0,0-1.265.625,2.75,2.75,0,0,0-.474,1.7V0H-35.46V-10h3.086v1.563h.039a3.69,3.69,0,0,1,1.343-1.3,3.69,3.69,0,0,1,1.89-.5,2.88,2.88,0,0,1,2.9,1.865,3.7,3.7,0,0,1,3.359-1.865q3.262,0,3.262,4.023Zm5.568-1.162h-.039V4.6h-3.086V-10h3.086v1.5h.039A3.628,3.628,0,0,1-10.8-10.244a3.615,3.615,0,0,1,3,1.333,5.676,5.676,0,0,1,1.06,3.628A6.152,6.152,0,0,1-7.973-1.27,4.028,4.028,0,0,1-11.259.244,3.114,3.114,0,0,1-14.013-1.162Zm-.088-4.1v.8a2.546,2.546,0,0,0,.547,1.689,1.78,1.78,0,0,0,1.436.654,1.892,1.892,0,0,0,1.636-.815A3.937,3.937,0,0,0-9.9-5.244q0-2.637-2.051-2.637a1.926,1.926,0,0,0-1.548.718A2.863,2.863,0,0,0-14.1-5.264ZM4.251-4.121H-2.273Q-2.116-1.943.472-1.943a5.357,5.357,0,0,0,2.9-.781V-.5a7.619,7.619,0,0,1-3.6.742A5.073,5.073,0,0,1-3.991-1.1,5.073,5.073,0,0,1-5.329-4.844,5.352,5.352,0,0,1-3.884-8.789,4.815,4.815,0,0,1-.329-10.244a4.37,4.37,0,0,1,3.384,1.3,5,5,0,0,1,1.2,3.525ZM1.39-6.016q0-2.148-1.738-2.148a1.66,1.66,0,0,0-1.284.615,2.792,2.792,0,0,0-.659,1.533Zm10.744,5.9a4.561,4.561,0,0,1-2.061.361q-3.262,0-3.262-3.389v-4.58H5.19V-10H6.812v-2.158l3.076-.879V-10h2.246v2.275H9.888v4.043q0,1.563,1.24,1.563A2.091,2.091,0,0,0,12.134-2.4Zm10.647-4H16.257Q16.413-1.943,19-1.943a5.357,5.357,0,0,0,2.9-.781V-.5a7.619,7.619,0,0,1-3.6.742A5.073,5.073,0,0,1,14.538-1.1,5.073,5.073,0,0,1,13.2-4.844a5.352,5.352,0,0,1,1.445-3.945A4.815,4.815,0,0,1,18.2-10.244a4.37,4.37,0,0,1,3.384,1.3,5,5,0,0,1,1.2,3.525ZM19.919-6.016q0-2.148-1.738-2.148a1.66,1.66,0,0,0-1.284.615,2.792,2.792,0,0,0-.659,1.533ZM34.276,0H31.2V-5.557q0-2.324-1.66-2.324a1.647,1.647,0,0,0-1.318.615A2.344,2.344,0,0,0,27.7-5.7V0H24.618V-10H27.7v1.582h.039a3.536,3.536,0,0,1,3.213-1.826q3.32,0,3.32,4.121ZM44.3-.361A6.1,6.1,0,0,1,41.28.244a5.1,5.1,0,0,1-3.73-1.4,4.823,4.823,0,0,1-1.426-3.6,5.313,5.313,0,0,1,1.528-4.019,5.648,5.648,0,0,1,4.087-1.47,5.244,5.244,0,0,1,2.559.469v2.617a3.518,3.518,0,0,0-2.158-.723,2.844,2.844,0,0,0-2.1.776,2.9,2.9,0,0,0-.776,2.144A2.85,2.85,0,0,0,40-2.876a2.728,2.728,0,0,0,2.041.757A4.073,4.073,0,0,0,44.3-2.842Zm3.586-11.221a1.8,1.8,0,0,1-1.279-.464,1.5,1.5,0,0,1-.5-1.138,1.441,1.441,0,0,1,.5-1.133,1.862,1.862,0,0,1,1.279-.439,1.858,1.858,0,0,1,1.284.439,1.448,1.448,0,0,1,.493,1.133,1.489,1.489,0,0,1-.493,1.152A1.833,1.833,0,0,1,47.884-11.582ZM49.407,0H46.321V-10h3.086Zm10.92,0h-2.92V-1.436h-.039A3.259,3.259,0,0,1,54.39.244,3.116,3.116,0,0,1,52.1-.581a2.957,2.957,0,0,1-.835-2.2q0-2.91,3.447-3.359L57.427-6.5q0-1.641-1.777-1.641a6.067,6.067,0,0,0-3.4,1.064V-9.4a7.646,7.646,0,0,1,1.763-.586,9.266,9.266,0,0,1,2.036-.254q4.277,0,4.277,4.268Zm-2.9-4.062v-.674L55.611-4.5q-1.5.2-1.5,1.357a1.122,1.122,0,0,0,.366.864,1.407,1.407,0,0,0,.991.337,1.827,1.827,0,0,0,1.416-.6A2.169,2.169,0,0,0,57.427-4.062ZM-45.8,34.838h-.039V40.6h-3.086V26h3.086v1.5h.039a3.628,3.628,0,0,1,3.213-1.748,3.615,3.615,0,0,1,3,1.333,5.676,5.676,0,0,1,1.06,3.628A6.152,6.152,0,0,1-39.76,34.73a4.028,4.028,0,0,1-3.286,1.514A3.114,3.114,0,0,1-45.8,34.838Zm-.088-4.1v.8a2.546,2.546,0,0,0,.547,1.689,1.78,1.78,0,0,0,1.436.654,1.892,1.892,0,0,0,1.636-.815,3.937,3.937,0,0,0,.581-2.31q0-2.637-2.051-2.637a1.926,1.926,0,0,0-1.548.718A2.863,2.863,0,0,0-45.888,30.736ZM-30,28.783a2.677,2.677,0,0,0-1.3-.3,1.871,1.871,0,0,0-1.572.737,3.217,3.217,0,0,0-.566,2.007V36h-3.086V26h3.086v1.855h.039a2.67,2.67,0,0,1,2.637-2.031,1.987,1.987,0,0,1,.762.117Zm6.125,7.461a5.376,5.376,0,0,1-3.931-1.4,5.081,5.081,0,0,1-1.431-3.8,5.081,5.081,0,0,1,1.484-3.882,5.609,5.609,0,0,1,4.014-1.4,5.311,5.311,0,0,1,3.906,1.4,4.981,4.981,0,0,1,1.416,3.706,5.288,5.288,0,0,1-1.46,3.936A5.435,5.435,0,0,1-23.872,36.244Zm.078-8.125a2.058,2.058,0,0,0-1.7.752A3.316,3.316,0,0,0-26.1,31q0,2.881,2.324,2.881,2.217,0,2.217-2.959Q-21.558,28.119-23.794,28.119Zm13.606-4.561a3.117,3.117,0,0,0-1.143-.234q-1.484,0-1.484,1.611V26h2.285v2.275h-2.285V36h-3.076V28.275h-1.68V26h1.68V24.76a3.6,3.6,0,0,1,1.113-2.754,4.246,4.246,0,0,1,3.027-1.045,5.316,5.316,0,0,1,1.563.2ZM-.06,31.879H-6.583q.156,2.178,2.744,2.178a5.357,5.357,0,0,0,2.9-.781V35.5a7.619,7.619,0,0,1-3.6.742A5.073,5.073,0,0,1-8.3,34.9,5.073,5.073,0,0,1-9.64,31.156a5.352,5.352,0,0,1,1.445-3.945A4.815,4.815,0,0,1-4.64,25.756a4.37,4.37,0,0,1,3.384,1.3A5,5,0,0,1-.06,30.58Zm-2.861-1.895q0-2.148-1.738-2.148a1.66,1.66,0,0,0-1.284.615A2.792,2.792,0,0,0-6.6,29.984Zm4.045,5.752v-2.5a6.57,6.57,0,0,0,1.519.684,5.035,5.035,0,0,0,1.431.225,3.068,3.068,0,0,0,1.294-.225.726.726,0,0,0,.474-.684.632.632,0,0,0-.215-.488,2,2,0,0,0-.552-.342,6.261,6.261,0,0,0-.737-.264q-.4-.117-.771-.264a7.392,7.392,0,0,1-1.05-.483,3.034,3.034,0,0,1-.762-.6A2.361,2.361,0,0,1,1.285,30a3.157,3.157,0,0,1-.161-1.064,2.74,2.74,0,0,1,.366-1.445,2.991,2.991,0,0,1,.977-.991,4.462,4.462,0,0,1,1.4-.566A7.281,7.281,0,0,1,5.5,25.756a9.076,9.076,0,0,1,1.348.1,10.058,10.058,0,0,1,1.348.3v2.383a4.87,4.87,0,0,0-1.255-.513,5.293,5.293,0,0,0-1.313-.171,2.91,2.91,0,0,0-.571.054,1.882,1.882,0,0,0-.474.156.87.87,0,0,0-.322.264.607.607,0,0,0-.117.366.677.677,0,0,0,.176.469,1.527,1.527,0,0,0,.459.337,4.531,4.531,0,0,0,.63.254q.347.112.688.229a8.951,8.951,0,0,1,1.113.469,3.56,3.56,0,0,1,.854.6,2.339,2.339,0,0,1,.547.8,3.2,3.2,0,0,1-.2,2.612,3.088,3.088,0,0,1-1.025,1.025,4.65,4.65,0,0,1-1.475.576,8.175,8.175,0,0,1-1.733.181A8.936,8.936,0,0,1,1.124,35.736ZM12.142,24.418a1.8,1.8,0,0,1-1.279-.464,1.5,1.5,0,0,1-.5-1.138,1.441,1.441,0,0,1,.5-1.133,1.862,1.862,0,0,1,1.279-.439,1.858,1.858,0,0,1,1.284.439,1.448,1.448,0,0,1,.493,1.133,1.489,1.489,0,0,1-.493,1.152A1.833,1.833,0,0,1,12.142,24.418ZM13.665,36H10.579V26h3.086Zm7.365.244a5.376,5.376,0,0,1-3.931-1.4,5.081,5.081,0,0,1-1.431-3.8,5.081,5.081,0,0,1,1.484-3.882,5.609,5.609,0,0,1,4.014-1.4,5.311,5.311,0,0,1,3.906,1.4,4.981,4.981,0,0,1,1.416,3.706,5.288,5.288,0,0,1-1.46,3.936A5.435,5.435,0,0,1,21.03,36.244Zm.078-8.125a2.058,2.058,0,0,0-1.7.752A3.316,3.316,0,0,0,18.8,31q0,2.881,2.324,2.881,2.217,0,2.217-2.959Q23.345,28.119,21.109,28.119ZM38.152,36H35.075V30.443q0-2.324-1.66-2.324a1.647,1.647,0,0,0-1.318.615,2.344,2.344,0,0,0-.518,1.563V36H28.493V26h3.086v1.582h.039a3.536,3.536,0,0,1,3.213-1.826q3.32,0,3.32,4.121Zm10.764,0H46V34.564h-.039a3.259,3.259,0,0,1-2.979,1.68,3.116,3.116,0,0,1-2.29-.825,2.957,2.957,0,0,1-.835-2.2q0-2.91,3.447-3.359l2.715-.361q0-1.641-1.777-1.641a6.067,6.067,0,0,0-3.4,1.064V26.6A7.646,7.646,0,0,1,42.6,26.01a9.266,9.266,0,0,1,2.036-.254q4.277,0,4.277,4.268Zm-2.9-4.062v-.674L44.2,31.5q-1.5.2-1.5,1.357a1.122,1.122,0,0,0,.366.864,1.407,1.407,0,0,0,.991.337,1.827,1.827,0,0,0,1.416-.6A2.169,2.169,0,0,0,46.015,31.938ZM54.445,36H51.359V21.2h3.086Z" transform="translate(967.398 1867.091)" fill="#fff"/>
    <path id="Trazado_1016671" data-name="Trazado 1016671" d="M-59.48,0h-3.154V-14h3.154Zm18.762,0h-3.076V-5.7q0-2.178-1.6-2.178a1.471,1.471,0,0,0-1.24.654A2.689,2.689,0,0,0-47.114-5.6V0H-50.2V-5.762q0-2.119-1.572-2.119a1.507,1.507,0,0,0-1.265.625,2.75,2.75,0,0,0-.474,1.7V0H-56.6V-10h3.086v1.563h.039a3.69,3.69,0,0,1,1.343-1.3,3.69,3.69,0,0,1,1.89-.5,2.88,2.88,0,0,1,2.9,1.865,3.7,3.7,0,0,1,3.359-1.865q3.262,0,3.262,4.023Zm5.568-1.162h-.039V4.6h-3.086V-10h3.086v1.5h.039a3.628,3.628,0,0,1,3.213-1.748,3.615,3.615,0,0,1,3,1.333,5.676,5.676,0,0,1,1.06,3.628A6.152,6.152,0,0,1-29.11-1.27,4.028,4.028,0,0,1-32.4.244,3.114,3.114,0,0,1-35.15-1.162Zm-.088-4.1v.8a2.546,2.546,0,0,0,.547,1.689,1.78,1.78,0,0,0,1.436.654,1.892,1.892,0,0,0,1.636-.815,3.937,3.937,0,0,0,.581-2.31q0-2.637-2.051-2.637a1.926,1.926,0,0,0-1.548.718A2.863,2.863,0,0,0-35.237-5.264ZM-17.745,0h-2.92V-1.436H-20.7A3.259,3.259,0,0,1-23.683.244a3.116,3.116,0,0,1-2.29-.825,2.957,2.957,0,0,1-.835-2.2q0-2.91,3.447-3.359l2.715-.361q0-1.641-1.777-1.641a6.067,6.067,0,0,0-3.4,1.064V-9.4a7.646,7.646,0,0,1,1.763-.586,9.266,9.266,0,0,1,2.036-.254q4.277,0,4.277,4.268Zm-2.9-4.062v-.674l-1.816.234q-1.5.2-1.5,1.357a1.122,1.122,0,0,0,.366.864,1.407,1.407,0,0,0,.991.337,1.827,1.827,0,0,0,1.416-.6A2.169,2.169,0,0,0-20.646-4.062ZM-8.778-7.217a2.677,2.677,0,0,0-1.3-.3,1.871,1.871,0,0,0-1.572.737,3.217,3.217,0,0,0-.566,2.007V0H-15.3V-10h3.086v1.855h.039A2.67,2.67,0,0,1-9.54-10.176a1.987,1.987,0,0,1,.762.117ZM.159-.361A6.1,6.1,0,0,1-2.858.244a5.1,5.1,0,0,1-3.73-1.4,4.823,4.823,0,0,1-1.426-3.6A5.313,5.313,0,0,1-6.486-8.774,5.648,5.648,0,0,1-2.4-10.244a5.244,5.244,0,0,1,2.559.469v2.617A3.518,3.518,0,0,0-2-7.881,2.844,2.844,0,0,0-4.1-7.1,2.9,2.9,0,0,0-4.88-4.961a2.85,2.85,0,0,0,.742,2.085A2.728,2.728,0,0,0-2.1-2.119,4.073,4.073,0,0,0,.159-2.842ZM3.745-11.582a1.8,1.8,0,0,1-1.279-.464,1.5,1.5,0,0,1-.5-1.138,1.441,1.441,0,0,1,.5-1.133,1.862,1.862,0,0,1,1.279-.439,1.858,1.858,0,0,1,1.284.439,1.448,1.448,0,0,1,.493,1.133,1.489,1.489,0,0,1-.493,1.152A1.833,1.833,0,0,1,3.745-11.582ZM5.269,0H2.183V-10H5.269Zm10.92,0h-2.92V-1.436H13.23A3.259,3.259,0,0,1,10.251.244a3.116,3.116,0,0,1-2.29-.825,2.957,2.957,0,0,1-.835-2.2q0-2.91,3.447-3.359L13.288-6.5q0-1.641-1.777-1.641a6.067,6.067,0,0,0-3.4,1.064V-9.4A7.646,7.646,0,0,1,9.875-9.99a9.266,9.266,0,0,1,2.036-.254q4.277,0,4.277,4.268Zm-2.9-4.062v-.674L11.472-4.5q-1.5.2-1.5,1.357a1.122,1.122,0,0,0,.366.864,1.407,1.407,0,0,0,.991.337,1.827,1.827,0,0,0,1.416-.6A2.169,2.169,0,0,0,13.288-4.062ZM21.718,0H18.632V-14.8h3.086ZM25.88-11.582a1.8,1.8,0,0,1-1.279-.464,1.5,1.5,0,0,1-.5-1.138,1.441,1.441,0,0,1,.5-1.133,1.862,1.862,0,0,1,1.279-.439,1.858,1.858,0,0,1,1.284.439,1.448,1.448,0,0,1,.493,1.133,1.489,1.489,0,0,1-.493,1.152A1.833,1.833,0,0,1,25.88-11.582ZM27.4,0H24.318V-10H27.4ZM39.788,0H36.7V-1.377h-.039a3.46,3.46,0,0,1-3.1,1.621A3.791,3.791,0,0,1,30.55-1.079a5.478,5.478,0,0,1-1.143-3.7,5.962,5.962,0,0,1,1.26-3.975,4.109,4.109,0,0,1,3.3-1.494,2.808,2.808,0,0,1,2.7,1.387H36.7V-14.8h3.086ZM36.761-4.863v-.752a2.366,2.366,0,0,0-.566-1.621,1.871,1.871,0,0,0-1.475-.645,1.859,1.859,0,0,0-1.6.806,3.741,3.741,0,0,0-.576,2.212A3.237,3.237,0,0,0,33.1-2.832a1.848,1.848,0,0,0,1.543.713,1.856,1.856,0,0,0,1.528-.752A3.134,3.134,0,0,0,36.761-4.863ZM50.708,0h-2.92V-1.436h-.039A3.259,3.259,0,0,1,44.771.244a3.116,3.116,0,0,1-2.29-.825,2.957,2.957,0,0,1-.835-2.2q0-2.91,3.447-3.359L47.808-6.5q0-1.641-1.777-1.641a6.067,6.067,0,0,0-3.4,1.064V-9.4a7.646,7.646,0,0,1,1.763-.586,9.266,9.266,0,0,1,2.036-.254q4.277,0,4.277,4.268Zm-2.9-4.062v-.674L45.991-4.5q-1.5.2-1.5,1.357a1.122,1.122,0,0,0,.366.864,1.407,1.407,0,0,0,.991.337,1.827,1.827,0,0,0,1.416-.6A2.169,2.169,0,0,0,47.808-4.062ZM62.937,0H59.851V-1.377h-.039a3.46,3.46,0,0,1-3.1,1.621A3.791,3.791,0,0,1,53.7-1.079a5.478,5.478,0,0,1-1.143-3.7,5.962,5.962,0,0,1,1.26-3.975,4.109,4.109,0,0,1,3.3-1.494,2.808,2.808,0,0,1,2.7,1.387h.039V-14.8h3.086ZM59.909-4.863v-.752a2.366,2.366,0,0,0-.566-1.621,1.871,1.871,0,0,0-1.475-.645,1.859,1.859,0,0,0-1.6.806,3.741,3.741,0,0,0-.576,2.212,3.237,3.237,0,0,0,.557,2.031,1.848,1.848,0,0,0,1.543.713,1.856,1.856,0,0,0,1.528-.752A3.134,3.134,0,0,0,59.909-4.863Z" transform="translate(562.398 1529.963)" fill="#fff"/>
    <path id="Trazado_1016672" data-name="Trazado 1016672" d="M-51.411-.5a9.235,9.235,0,0,1-4,.742A6.749,6.749,0,0,1-60.484-1.65,6.925,6.925,0,0,1-62.329-6.7a7.4,7.4,0,0,1,2.075-5.449,7.259,7.259,0,0,1,5.386-2.09,10.072,10.072,0,0,1,3.457.518v3.037a6.126,6.126,0,0,0-3.2-.84,4.249,4.249,0,0,0-3.184,1.24,4.6,4.6,0,0,0-1.211,3.359,4.514,4.514,0,0,0,1.143,3.237A4.036,4.036,0,0,0-54.79-2.48a6.561,6.561,0,0,0,3.379-.9Zm6.906.742a5.376,5.376,0,0,1-3.931-1.4,5.081,5.081,0,0,1-1.431-3.8,5.081,5.081,0,0,1,1.484-3.882,5.609,5.609,0,0,1,4.014-1.4,5.311,5.311,0,0,1,3.906,1.4,4.981,4.981,0,0,1,1.416,3.706A5.288,5.288,0,0,1-40.506-1.2,5.435,5.435,0,0,1-44.505.244Zm.078-8.125a2.058,2.058,0,0,0-1.7.752A3.316,3.316,0,0,0-46.732-5q0,2.881,2.324,2.881,2.217,0,2.217-2.959Q-42.191-7.881-44.427-7.881ZM-21.163,0h-3.076V-5.7q0-2.178-1.6-2.178a1.471,1.471,0,0,0-1.24.654A2.689,2.689,0,0,0-27.56-5.6V0h-3.086V-5.762q0-2.119-1.572-2.119a1.507,1.507,0,0,0-1.265.625,2.75,2.75,0,0,0-.474,1.7V0h-3.086V-10h3.086v1.563h.039a3.69,3.69,0,0,1,1.343-1.3,3.69,3.69,0,0,1,1.89-.5,2.88,2.88,0,0,1,2.9,1.865,3.7,3.7,0,0,1,3.359-1.865q3.262,0,3.262,4.023Zm5.568-1.162h-.039V4.6H-18.72V-10h3.086v1.5h.039a3.628,3.628,0,0,1,3.213-1.748,3.615,3.615,0,0,1,3,1.333,5.676,5.676,0,0,1,1.06,3.628A6.152,6.152,0,0,1-9.555-1.27,4.028,4.028,0,0,1-12.841.244,3.114,3.114,0,0,1-15.595-1.162Zm-.088-4.1v.8a2.546,2.546,0,0,0,.547,1.689,1.78,1.78,0,0,0,1.436.654,1.892,1.892,0,0,0,1.636-.815,3.937,3.937,0,0,0,.581-2.31q0-2.637-2.051-2.637a1.926,1.926,0,0,0-1.548.718A2.863,2.863,0,0,0-15.683-5.264ZM.208-7.217a2.677,2.677,0,0,0-1.3-.3,1.871,1.871,0,0,0-1.572.737A3.217,3.217,0,0,0-3.23-4.775V0H-6.315V-10H-3.23v1.855h.039A2.67,2.67,0,0,1-.554-10.176a1.987,1.987,0,0,1,.762.117ZM6.333.244A5.376,5.376,0,0,1,2.4-1.157a5.081,5.081,0,0,1-1.431-3.8A5.081,5.081,0,0,1,2.456-8.843a5.609,5.609,0,0,1,4.014-1.4,5.311,5.311,0,0,1,3.906,1.4,4.981,4.981,0,0,1,1.416,3.706A5.288,5.288,0,0,1,10.332-1.2,5.435,5.435,0,0,1,6.333.244Zm.078-8.125a2.058,2.058,0,0,0-1.7.752A3.316,3.316,0,0,0,4.106-5q0,2.881,2.324,2.881,2.217,0,2.217-2.959Q8.647-7.881,6.411-7.881ZM29.675,0H26.6V-5.7q0-2.178-1.6-2.178a1.471,1.471,0,0,0-1.24.654A2.689,2.689,0,0,0,23.278-5.6V0H20.192V-5.762q0-2.119-1.572-2.119a1.507,1.507,0,0,0-1.265.625,2.75,2.75,0,0,0-.474,1.7V0H13.8V-10h3.086v1.563h.039a3.69,3.69,0,0,1,1.343-1.3,3.69,3.69,0,0,1,1.89-.5,2.88,2.88,0,0,1,2.9,1.865,3.7,3.7,0,0,1,3.359-1.865q3.262,0,3.262,4.023Zm4.006-11.582a1.8,1.8,0,0,1-1.279-.464,1.5,1.5,0,0,1-.5-1.138,1.441,1.441,0,0,1,.5-1.133,1.862,1.862,0,0,1,1.279-.439,1.858,1.858,0,0,1,1.284.439,1.448,1.448,0,0,1,.493,1.133,1.489,1.489,0,0,1-.493,1.152A1.833,1.833,0,0,1,33.681-11.582ZM35.2,0H32.118V-10H35.2ZM37.15-.264v-2.5a6.57,6.57,0,0,0,1.519.684,5.035,5.035,0,0,0,1.431.225,3.068,3.068,0,0,0,1.294-.225.726.726,0,0,0,.474-.684.632.632,0,0,0-.215-.488,2,2,0,0,0-.552-.342,6.261,6.261,0,0,0-.737-.264q-.4-.117-.771-.264a7.392,7.392,0,0,1-1.05-.483,3.034,3.034,0,0,1-.762-.6A2.361,2.361,0,0,1,37.311-6a3.157,3.157,0,0,1-.161-1.064,2.74,2.74,0,0,1,.366-1.445,2.991,2.991,0,0,1,.977-.991,4.462,4.462,0,0,1,1.4-.566,7.281,7.281,0,0,1,1.636-.181,9.076,9.076,0,0,1,1.348.1,10.058,10.058,0,0,1,1.348.3v2.383a4.87,4.87,0,0,0-1.255-.513,5.294,5.294,0,0,0-1.313-.171,2.91,2.91,0,0,0-.571.054,1.882,1.882,0,0,0-.474.156.87.87,0,0,0-.322.264.607.607,0,0,0-.117.366.677.677,0,0,0,.176.469A1.527,1.527,0,0,0,40.8-6.5a4.531,4.531,0,0,0,.63.254q.347.112.688.229a8.951,8.951,0,0,1,1.113.469,3.56,3.56,0,0,1,.854.6,2.339,2.339,0,0,1,.547.8,2.846,2.846,0,0,1,.19,1.094,2.853,2.853,0,0,1-.386,1.519A3.088,3.088,0,0,1,43.414-.513,4.65,4.65,0,0,1,41.94.063a8.175,8.175,0,0,1-1.733.181A8.936,8.936,0,0,1,37.15-.264ZM51.37.244a5.376,5.376,0,0,1-3.931-1.4,5.081,5.081,0,0,1-1.431-3.8,5.081,5.081,0,0,1,1.484-3.882,5.609,5.609,0,0,1,4.014-1.4,5.311,5.311,0,0,1,3.906,1.4,4.981,4.981,0,0,1,1.416,3.706A5.288,5.288,0,0,1,55.369-1.2,5.435,5.435,0,0,1,51.37.244Zm.078-8.125a2.058,2.058,0,0,0-1.7.752A3.316,3.316,0,0,0,49.144-5q0,2.881,2.324,2.881,2.217,0,2.217-2.959Q53.685-7.881,51.448-7.881Zm-73.281,43.52a6.1,6.1,0,0,1-3.018.605,5.1,5.1,0,0,1-3.73-1.4,4.823,4.823,0,0,1-1.426-3.6,5.313,5.313,0,0,1,1.528-4.019,5.648,5.648,0,0,1,4.087-1.47,5.244,5.244,0,0,1,2.559.469v2.617a3.518,3.518,0,0,0-2.158-.723,2.844,2.844,0,0,0-2.1.776,2.9,2.9,0,0,0-.776,2.144,2.85,2.85,0,0,0,.742,2.085,2.728,2.728,0,0,0,2.041.757,4.073,4.073,0,0,0,2.256-.723Zm6.789.605a5.376,5.376,0,0,1-3.931-1.4,5.081,5.081,0,0,1-1.431-3.8,5.081,5.081,0,0,1,1.484-3.882,5.609,5.609,0,0,1,4.014-1.4A5.311,5.311,0,0,1-11,27.157a4.981,4.981,0,0,1,1.416,3.706,5.288,5.288,0,0,1-1.46,3.936A5.435,5.435,0,0,1-15.043,36.244Zm.078-8.125a2.058,2.058,0,0,0-1.7.752A3.316,3.316,0,0,0-17.27,31q0,2.881,2.324,2.881,2.217,0,2.217-2.959Q-12.729,28.119-14.965,28.119ZM2.078,36H-1V30.443q0-2.324-1.66-2.324a1.647,1.647,0,0,0-1.318.615A2.344,2.344,0,0,0-4.494,30.3V36H-7.58V26h3.086v1.582h.039a3.536,3.536,0,0,1,3.213-1.826q3.32,0,3.32,4.121Zm11.049,0H10.041V21.2h3.086Zm10.92,0h-2.92V34.564h-.039a3.259,3.259,0,0,1-2.979,1.68,3.116,3.116,0,0,1-2.29-.825,2.957,2.957,0,0,1-.835-2.2q0-2.91,3.447-3.359l2.715-.361q0-1.641-1.777-1.641a6.067,6.067,0,0,0-3.4,1.064V26.6a7.646,7.646,0,0,1,1.763-.586,9.266,9.266,0,0,1,2.036-.254q4.277,0,4.277,4.268Zm-2.9-4.062v-.674L19.33,31.5q-1.5.2-1.5,1.357a1.122,1.122,0,0,0,.366.864,1.407,1.407,0,0,0,.991.337,1.827,1.827,0,0,0,1.416-.6A2.169,2.169,0,0,0,21.147,31.938Zm-48.129,39.8v-2.5a6.57,6.57,0,0,0,1.519.684,5.035,5.035,0,0,0,1.431.225,3.068,3.068,0,0,0,1.294-.225.726.726,0,0,0,.474-.684.632.632,0,0,0-.215-.488,2,2,0,0,0-.552-.342,6.261,6.261,0,0,0-.737-.264q-.4-.117-.771-.264a7.392,7.392,0,0,1-1.05-.483,3.034,3.034,0,0,1-.762-.6A2.361,2.361,0,0,1-26.821,66a3.157,3.157,0,0,1-.161-1.064,2.74,2.74,0,0,1,.366-1.445,2.991,2.991,0,0,1,.977-.991,4.462,4.462,0,0,1,1.4-.566,7.281,7.281,0,0,1,1.636-.181,9.076,9.076,0,0,1,1.348.1,10.059,10.059,0,0,1,1.348.3v2.383a4.869,4.869,0,0,0-1.255-.513,5.293,5.293,0,0,0-1.313-.171,2.91,2.91,0,0,0-.571.054,1.882,1.882,0,0,0-.474.156.87.87,0,0,0-.322.264.607.607,0,0,0-.117.366.677.677,0,0,0,.176.469,1.527,1.527,0,0,0,.459.337,4.531,4.531,0,0,0,.63.254q.347.112.688.229a8.95,8.95,0,0,1,1.113.469,3.56,3.56,0,0,1,.854.6,2.339,2.339,0,0,1,.547.8,2.846,2.846,0,0,1,.19,1.094,2.853,2.853,0,0,1-.386,1.519,3.088,3.088,0,0,1-1.025,1.025,4.65,4.65,0,0,1-1.475.576,8.175,8.175,0,0,1-1.733.181A8.936,8.936,0,0,1-26.983,71.736ZM-9.207,72h-2.92V70.564h-.039a3.259,3.259,0,0,1-2.979,1.68,3.116,3.116,0,0,1-2.29-.825,2.957,2.957,0,0,1-.835-2.2q0-2.91,3.447-3.359l2.715-.361q0-1.641-1.777-1.641a6.067,6.067,0,0,0-3.4,1.064V62.6a7.645,7.645,0,0,1,1.763-.586,9.266,9.266,0,0,1,2.036-.254q4.277,0,4.277,4.268Zm-2.9-4.062v-.674l-1.816.234q-1.5.2-1.5,1.357a1.122,1.122,0,0,0,.366.864,1.407,1.407,0,0,0,.991.337,1.827,1.827,0,0,0,1.416-.6A2.169,2.169,0,0,0-12.107,67.938ZM-3.678,72H-6.764V57.2h3.086Zm12.1,0H5.348V70.477H5.3a3.49,3.49,0,0,1-3.057,1.768q-3.477,0-3.477-4.209V62H1.842v5.762q0,2.119,1.68,2.119A1.661,1.661,0,0,0,4.85,69.3a2.343,2.343,0,0,0,.5-1.577V62H8.424Zm12.385,0H17.723V70.623h-.039a3.46,3.46,0,0,1-3.1,1.621,3.791,3.791,0,0,1-3.018-1.323,5.478,5.478,0,0,1-1.143-3.7,5.962,5.962,0,0,1,1.26-3.975,4.109,4.109,0,0,1,3.3-1.494,2.808,2.808,0,0,1,2.7,1.387h.039V57.2h3.086Zm-3.027-4.863v-.752a2.366,2.366,0,0,0-.566-1.621,2,2,0,0,0-3.076.161,3.741,3.741,0,0,0-.576,2.212,3.237,3.237,0,0,0,.557,2.031,1.976,1.976,0,0,0,3.071-.039A3.134,3.134,0,0,0,17.781,67.137ZM-44,98l-4.062,10.8q-1.465,3.9-4.414,3.9a5.655,5.655,0,0,1-1.846-.254v-2.461a2.6,2.6,0,0,0,1.338.361,1.671,1.671,0,0,0,1.66-1.123l.527-1.24L-54.864,98h3.418l1.865,6.084a7.906,7.906,0,0,1,.273,1.338h.039a9.329,9.329,0,0,1,.322-1.318l1.885-6.1Zm6.108,9.736v-2.5a6.57,6.57,0,0,0,1.519.684,5.035,5.035,0,0,0,1.431.225,3.068,3.068,0,0,0,1.294-.225.726.726,0,0,0,.474-.684.632.632,0,0,0-.215-.488,2,2,0,0,0-.552-.342,6.261,6.261,0,0,0-.737-.264q-.4-.117-.771-.264a7.392,7.392,0,0,1-1.05-.483,3.034,3.034,0,0,1-.762-.6,2.361,2.361,0,0,1-.469-.791,3.157,3.157,0,0,1-.161-1.064,2.74,2.74,0,0,1,.366-1.445,2.991,2.991,0,0,1,.977-.991,4.462,4.462,0,0,1,1.4-.566,7.281,7.281,0,0,1,1.636-.181,9.076,9.076,0,0,1,1.348.1,10.058,10.058,0,0,1,1.348.3v2.383a4.869,4.869,0,0,0-1.255-.513,5.294,5.294,0,0,0-1.313-.171,2.91,2.91,0,0,0-.571.054,1.882,1.882,0,0,0-.474.156.87.87,0,0,0-.322.264.607.607,0,0,0-.117.366.677.677,0,0,0,.176.469,1.527,1.527,0,0,0,.459.337,4.531,4.531,0,0,0,.63.254q.347.112.688.229a8.95,8.95,0,0,1,1.113.469,3.56,3.56,0,0,1,.854.6,2.339,2.339,0,0,1,.547.8,2.846,2.846,0,0,1,.19,1.094,2.853,2.853,0,0,1-.386,1.519,3.088,3.088,0,0,1-1.025,1.025,4.65,4.65,0,0,1-1.475.576,8.175,8.175,0,0,1-1.733.181A8.936,8.936,0,0,1-37.9,107.736Zm18.439-3.857h-6.523q.156,2.178,2.744,2.178a5.357,5.357,0,0,0,2.9-.781V107.5a7.619,7.619,0,0,1-3.6.742A5.073,5.073,0,0,1-27.7,106.9a5.073,5.073,0,0,1-1.338-3.745,5.352,5.352,0,0,1,1.445-3.945,4.815,4.815,0,0,1,3.555-1.455,4.37,4.37,0,0,1,3.384,1.3,5,5,0,0,1,1.2,3.525Zm-2.861-1.895q0-2.148-1.738-2.148a1.66,1.66,0,0,0-1.284.615A2.792,2.792,0,0,0-26,101.984Zm14.5,4.873a5.658,5.658,0,0,1-1.611,4.312,6.53,6.53,0,0,1-4.668,1.528,7.4,7.4,0,0,1-3.2-.576v-2.6a6.134,6.134,0,0,0,3.115.9,3.355,3.355,0,0,0,2.422-.825,2.961,2.961,0,0,0,.859-2.241v-.791h-.039a3.446,3.446,0,0,1-3.115,1.68,3.747,3.747,0,0,1-3.037-1.348,5.465,5.465,0,0,1-1.123-3.613,6.087,6.087,0,0,1,1.25-4.033,4.081,4.081,0,0,1,3.291-1.494,3.037,3.037,0,0,1,2.734,1.406h.039V98h3.086Zm-3.047-3.662V102.4a2.431,2.431,0,0,0-.562-1.616,1.816,1.816,0,0,0-1.46-.669,1.888,1.888,0,0,0-1.611.8,3.766,3.766,0,0,0-.586,2.256,3.178,3.178,0,0,0,.557,1.978,1.814,1.814,0,0,0,1.523.728,1.888,1.888,0,0,0,1.548-.737A3.023,3.023,0,0,0-10.861,103.2ZM4.268,108H1.191v-1.523H1.143a3.49,3.49,0,0,1-3.057,1.768q-3.477,0-3.477-4.209V98h3.076v5.762q0,2.119,1.68,2.119A1.661,1.661,0,0,0,.693,105.3a2.343,2.343,0,0,0,.5-1.577V98H4.268Zm9.123-7.217a2.677,2.677,0,0,0-1.3-.3,1.871,1.871,0,0,0-1.572.737,3.217,3.217,0,0,0-.566,2.007V108H6.867V98H9.953v1.855h.039a2.67,2.67,0,0,1,2.637-2.031,1.987,1.987,0,0,1,.762.117Zm3.078-4.365a1.8,1.8,0,0,1-1.279-.464,1.5,1.5,0,0,1-.5-1.138,1.441,1.441,0,0,1,.5-1.133,2.089,2.089,0,0,1,2.563,0,1.448,1.448,0,0,1,.493,1.133,1.489,1.489,0,0,1-.493,1.152A1.833,1.833,0,0,1,16.469,96.418ZM17.992,108H14.906V98h3.086Zm12.385,0H27.291v-1.377h-.039a3.46,3.46,0,0,1-3.1,1.621,3.791,3.791,0,0,1-3.018-1.323,5.478,5.478,0,0,1-1.143-3.7,5.962,5.962,0,0,1,1.26-3.975,4.109,4.109,0,0,1,3.3-1.494,2.808,2.808,0,0,1,2.7,1.387h.039V93.2h3.086Zm-3.027-4.863v-.752a2.366,2.366,0,0,0-.566-1.621,2,2,0,0,0-3.076.161,3.741,3.741,0,0,0-.576,2.212,3.237,3.237,0,0,0,.557,2.031,1.976,1.976,0,0,0,3.071-.039A3.134,3.134,0,0,0,27.35,103.137ZM41.3,108h-2.92v-1.436h-.039a3.259,3.259,0,0,1-2.979,1.68,3.116,3.116,0,0,1-2.29-.825,2.957,2.957,0,0,1-.835-2.2q0-2.91,3.447-3.359L38.4,101.5q0-1.641-1.777-1.641a6.067,6.067,0,0,0-3.4,1.064V98.6a7.646,7.646,0,0,1,1.763-.586,9.266,9.266,0,0,1,2.036-.254q4.277,0,4.277,4.268Zm-2.9-4.062v-.674l-1.816.234q-1.5.2-1.5,1.357a1.122,1.122,0,0,0,.366.864,1.407,1.407,0,0,0,.991.337,1.827,1.827,0,0,0,1.416-.6A2.169,2.169,0,0,0,38.4,103.938ZM53.526,108H50.44v-1.377H50.4a3.46,3.46,0,0,1-3.1,1.621,3.791,3.791,0,0,1-3.018-1.323,5.478,5.478,0,0,1-1.143-3.7A5.962,5.962,0,0,1,44.4,99.25a4.109,4.109,0,0,1,3.3-1.494,2.808,2.808,0,0,1,2.7,1.387h.039V93.2h3.086ZM50.5,103.137v-.752a2.366,2.366,0,0,0-.566-1.621,2,2,0,0,0-3.076.161,3.741,3.741,0,0,0-.576,2.212,3.237,3.237,0,0,0,.557,2.031,1.976,1.976,0,0,0,3.071-.039A3.134,3.134,0,0,0,50.5,103.137Z" transform="translate(758.398 1363.374)" fill="#fff"/>
    <g id="Grupo_1160135" data-name="Grupo 1160135" transform="translate(646.147 1500.042)">
      <g transform="matrix(1, 0, 0, 1, -221.15, -247.5)" filter="url(#Trazado_997308)">
        <path id="Trazado_997308-2" data-name="Trazado 997308" d="M291.075,90.025a52.316,52.316,0,0,0-3.845-4.443c-30.738-31.688-86.145-26.231-124.254-14.3C120.753,84.5,71,118.207,52.876,165.8c-6.543,17.182-9.259,36.812-4.188,54.159,7.2,24.619,28.374,40.04,49.815,48.827,47.392,19.422,103.691,14.042,147.122-18.1,23.281-17.227,42.8-42.176,52.277-71.709C307.037,150.5,309.022,113.273,291.075,90.025Z" transform="translate(198.59 219.29)" fill="#fee6bf"/>
      </g>
      <g id="Grupo_1160134" data-name="Grupo 1160134" transform="translate(0 0)">
        <g id="Grupo_1160128" data-name="Grupo 1160128" transform="translate(101.68 250.629)">
          <path id="Trazado_997309" data-name="Trazado 997309" d="M107.96,213.839l-6.512,18.111c-1.2,4.188-.628,8.652,1.521,13.575,2.464,4.039,7.426,5.6,11.593,2.153,5.825-6.138,6.922-17.887,7.06-31Z" transform="translate(-100.808 -213.839)" fill="#ffb54a"/>
          <path id="Trazado_997310" data-name="Trazado 997310" d="M113.472,220.255a11.31,11.31,0,0,1-6.512-1.959l.4-.59a10.921,10.921,0,0,0,7.464,1.765l.073.71A13.9,13.9,0,0,1,113.472,220.255Z" transform="translate(-98.186 -212.185)" fill="#6b1869"/>
          <path id="Trazado_997311" data-name="Trazado 997311" d="M112.727,222.713a11.307,11.307,0,0,1-6.512-1.959l.4-.59a10.923,10.923,0,0,0,7.466,1.765l.073.71A13.915,13.915,0,0,1,112.727,222.713Z" transform="translate(-98.505 -211.133)" fill="#6b1869"/>
          <path id="Trazado_997312" data-name="Trazado 997312" d="M112.093,225.06a11.307,11.307,0,0,1-6.512-1.959l.4-.59a10.925,10.925,0,0,0,7.464,1.765l.073.71A13.9,13.9,0,0,1,112.093,225.06Z" transform="translate(-98.776 -210.129)" fill="#6b1869"/>
          <path id="Trazado_997313" data-name="Trazado 997313" d="M114.851,240.681a7.432,7.432,0,0,1-10.074-.079,9.152,9.152,0,0,1-2.352-3.778,19.819,19.819,0,0,1-1.117-9.872,19.24,19.24,0,0,0,.831,11.256,9.151,9.151,0,0,0,2.353,3.781,7.43,7.43,0,0,0,10.074.078c3-3.161,4.78-7.82,5.825-13.378C119.319,233.635,117.6,237.787,114.851,240.681Z" transform="translate(-100.815 -208.229)" fill="#6b1869"/>
        </g>
        <g id="Grupo_1160129" data-name="Grupo 1160129" transform="translate(176.589 249.233)">
          <path id="Trazado_997314" data-name="Trazado 997314" d="M166.466,212.861l9.319,16.839c1.853,3.943,2,8.441.665,13.645-1.788,4.382-6.438,6.71-11.1,3.975-6.73-5.13-9.842-16.763-12.069-29.68Z" transform="translate(-153.281 -212.861)" fill="#ffb54a"/>
          <path id="Trazado_997315" data-name="Trazado 997315" d="M156.809,220.55l-.041-.712a10.914,10.914,0,0,0,7.087-2.933l.493.517A11.619,11.619,0,0,1,156.809,220.55Z" transform="translate(-151.789 -211.131)" fill="#6b1869"/>
          <path id="Trazado_997316" data-name="Trazado 997316" d="M157.936,222.858l-.041-.712a10.914,10.914,0,0,0,7.087-2.934l.493.517A11.606,11.606,0,0,1,157.936,222.858Z" transform="translate(-151.307 -210.144)" fill="#6b1869"/>
          <path id="Trazado_997317" data-name="Trazado 997317" d="M158.937,225.073l-.041-.712a10.914,10.914,0,0,0,7.087-2.933l.493.517A11.612,11.612,0,0,1,158.937,225.073Z" transform="translate(-150.879 -209.196)" fill="#6b1869"/>
          <path id="Trazado_997318" data-name="Trazado 997318" d="M163.594,240.775a7.431,7.431,0,0,0,9.932-1.685,9.144,9.144,0,0,0,1.719-4.1,19.814,19.814,0,0,0-.473-9.923,19.224,19.224,0,0,1,.975,11.244,9.148,9.148,0,0,1-1.719,4.108A7.428,7.428,0,0,1,164.1,242.1c-3.467-2.643-5.968-6.956-7.886-12.277C158.06,234.532,160.42,238.357,163.594,240.775Z" transform="translate(-152.028 -207.641)" fill="#6b1869"/>
        </g>
        <path id="Trazado_997319" data-name="Trazado 997319" d="M197.155,178.92l-47.97,24.212h0L101.214,178.92c-3.862,8.21-.484,26.047,7.267,49.7,2.144,5.434,9.141,6.726,13.649,3.539l7.069-18.171c12.046,2.3,25.48,2.1,39.973,0l7.069,18.171c4.509,3.185,11.5,1.895,13.649-3.539C197.639,204.967,201.017,187.13,197.155,178.92Z" transform="translate(0.349 21.853)" fill="#6b1869"/>
        <path id="Trazado_997320" data-name="Trazado 997320" d="M111.494,106.64a192.111,192.111,0,0,0-38.517,39.65A101.336,101.336,0,0,1,72,134.343a45.54,45.54,0,0,1-30.961-4.323s-20,46.2.177,67.256c18.053,18.938,77.734-36.174,77.734-36.174Z" transform="translate(-28.483 -9.065)" fill="#aa6ee7"/>
        <path id="Trazado_997321" data-name="Trazado 997321" d="M229.059,116.859c-4.163-4.764-9.44-8.876-19.813-12.963a97.755,97.755,0,0,0-30.4-6.516l-16.257-.908.011-.261-2.6.117-2.089-.117,0,.21-23.958,1.074a95.369,95.369,0,0,0-32.336,7.047c-9.329,3.876-14.273,7.8-18.217,12.317,0,0,19.2,69.765,22.036,76.135s-1.151,10,3.569,24.278c7.216,14.48,24.2,21.352,47.122,21.239h0c22.926.113,40.117-6.759,47.333-21.239,4.72-14.278.738-17.906,3.569-24.278S229.059,116.859,229.059,116.859Z" transform="translate(-6.588 -13.526)" fill="#aa6ee7"/>
        <path id="Trazado_997322" data-name="Trazado 997322" d="M60.814,138.619l1.035,25.7,10.685-40.233A172.846,172.846,0,0,0,60.814,138.619Z" transform="translate(-16.246 -1.604)" fill="#6b1869"/>
        <path id="Trazado_997323" data-name="Trazado 997323" d="M94.615,149.833l-4.786-16.846L89.1,154.638S91.905,152.309,94.615,149.833Z" transform="translate(-4.145 2.205)" fill="#6b1869"/>
        <path id="Trazado_997324" data-name="Trazado 997324" d="M99.073,164.606s2.991,10.767,7.938,14.836a18.8,18.8,0,0,1-7.173-7.316C99.763,169.716,99.8,166.869,99.073,164.606Z" transform="translate(0.12 15.73)" fill="#6b1869"/>
        <path id="Trazado_997325" data-name="Trazado 997325" d="M172.108,164.649s-3.053,10.705-8,14.776a19.126,19.126,0,0,0,7.3-7.316C171.48,169.7,171.377,166.912,172.108,164.649Z" transform="translate(27.939 15.749)" fill="#6b1869"/>
        <g id="Grupo_1160130" data-name="Grupo 1160130" transform="translate(0 57.658)">
          <path id="Trazado_997326" data-name="Trazado 997326" d="M75.2,124.126c12.179-10.918,21.758-15.683,25.8-7.352l-11.992,9.506a116.435,116.435,0,0,1-5.561,10.286,37.792,37.792,0,0,1-8.781,9.306c-5.086,3.873-11.5,4.3-17.651,4.185-6.021-.111-12.589-3.205-15.671-8.511a44.54,44.54,0,0,1-5.677-19.822c-.053-.912-.094-1.833-.061-2.747-2.483-9.4-5.009-18.929-5.925-23.41-.848-4.109,4.7-6.212,6.282-1.2,1.855,5.453,3.989,12.414,6.252,20.074-1.919-10.3-3.7-20.15-4.356-26.282-.563-5.176,5.9-6.372,7.294-1.059,1.945,7.352,3.993,15.631,6.119,24.613-1.829-10.32-3.347-19.9-4.3-28.151-.854-5.38,6.749-7.115,7.92-1.077L60.523,109.9c-1.171-10.014-2.216-19.5-2.656-26.468-.117-4.924,6.394-5.908,7.5-.487C68.863,100.02,70.851,116.475,75.2,124.126Z" transform="translate(-29.599 -78.682)" fill="#d9607b"/>
          <path id="Trazado_997327" data-name="Trazado 997327" d="M37.3,106.994l-.313-.641a69.524,69.524,0,0,1,23.133-6.335l.077.71A68.808,68.808,0,0,0,37.3,106.994Z" transform="translate(-26.439 -69.556)" fill="#6b1869"/>
          <path id="Trazado_997328" data-name="Trazado 997328" d="M52.381,125.374l-.711-.067c1.124-11.886,13.882-15.009,14.011-15.04l.163.7C65.719,110.991,53.456,114,52.381,125.374Z" transform="translate(-20.157 -65.172)" fill="#6b1869"/>
          <path id="Trazado_997329" data-name="Trazado 997329" d="M80.993,106.058a3.837,3.837,0,0,0-1.315-1.466s-5.815,2.856-3.962,5.633Z" transform="translate(-10.027 -67.599)" fill="#6b1869"/>
        </g>
        <path id="Trazado_997330" data-name="Trazado 997330" d="M183.3,106.64a192.112,192.112,0,0,1,38.517,39.65,101.335,101.335,0,0,0,.974-11.948,45.54,45.54,0,0,0,30.961-4.323s20,46.2-.177,67.256c-18.053,18.938-77.734-36.174-77.734-36.174Z" transform="translate(32.958 -9.065)" fill="#aa6ee7"/>
        <path id="Trazado_997331" data-name="Trazado 997331" d="M211.5,138.619l-1.035,25.7-10.685-40.233A172.555,172.555,0,0,1,211.5,138.619Z" transform="translate(43.199 -1.604)" fill="#6b1869"/>
        <path id="Trazado_997332" data-name="Trazado 997332" d="M175.842,149.833l4.786-16.846.287,21.275C178.129,151.926,178.142,151.953,175.842,149.833Z" transform="translate(32.959 2.205)" fill="#6b1869"/>
        <circle id="Elipse_11732" data-name="Elipse 11732" cx="25.149" cy="25.149" r="25.149" transform="translate(117.686 103.732) rotate(-29.228)" fill="#fff"/>
        <g id="Grupo_1160131" data-name="Grupo 1160131" transform="translate(232.353 59.696)">
          <path id="Trazado_997333" data-name="Trazado 997333" d="M215.3,119.9c-8.884-13.734-16.875-20.847-22.965-13.871l9.073,12.323a116.329,116.329,0,0,0,2.664,11.385,37.81,37.81,0,0,0,6.028,11.286c3.889,5.073,9.964,7.167,15.932,8.674,5.84,1.473,12.99.213,17.357-4.1a44.521,44.521,0,0,0,10.684-17.636c.29-.867.573-1.743.781-2.634,4.863-8.414,9.8-16.949,11.866-21.031,1.9-3.742-2.908-7.23-5.748-2.8-3.222,4.774-7.11,10.931-11.305,17.727,4.556-9.43,8.865-18.47,11.107-24.215,1.9-4.847-4.018-7.7-6.759-2.938-3.808,6.583-7.958,14.033-12.37,22.14,4.476-9.476,8.457-18.324,11.545-26.032,2.237-4.967-4.643-8.638-7.359-3.12L233.2,110.035c3.761-9.355,7.259-18.232,9.515-24.842,1.406-4.72-4.616-7.38-7.11-2.44C227.754,98.31,221.513,113.665,215.3,119.9Z" transform="translate(-192.338 -80.109)" fill="#d9607b"/>
          <path id="Trazado_997334" data-name="Trazado 997334" d="M239.5,112.776a68.8,68.8,0,0,0-20.446-12.059l.26-.665a69.54,69.54,0,0,1,20.657,12.187Z" transform="translate(-180.908 -71.579)" fill="#6b1869"/>
          <path id="Trazado_997335" data-name="Trazado 997335" d="M218.211,125.953l-.7-.121c1.949-11.252-9.092-17.38-9.2-17.442l.34-.627C208.759,107.826,220.25,114.189,218.211,125.953Z" transform="translate(-185.508 -68.28)" fill="#6b1869"/>
          <path id="Trazado_997336" data-name="Trazado 997336" d="M192.569,98.916a3.834,3.834,0,0,1,1.653-1.069s4.862,4.283,2.344,6.475Z" transform="translate(-192.239 -72.522)" fill="#6b1869"/>
        </g>
        <g id="Grupo_1160133" data-name="Grupo 1160133" transform="translate(109.857)">
          <path id="Trazado_997337" data-name="Trazado 997337" d="M109.677,83.628c-2.857,4.242,1.6,15.249,8.344,16.158V81.406S112.536,79.386,109.677,83.628Z" transform="translate(-105.577 -20.065)" fill="#d9607b"/>
          <path id="Trazado_997338" data-name="Trazado 997338" d="M165.072,83.628c2.857,4.242-1.6,15.249-8.344,16.158V81.406S162.215,79.386,165.072,83.628Z" transform="translate(-85.074 -20.065)" fill="#d9607b"/>
          <path id="Trazado_997339" data-name="Trazado 997339" d="M142.961,157.653h0A23.325,23.325,0,0,1,119.7,134.4V93.308a23.325,23.325,0,0,1,23.257-23.257h0a23.325,23.325,0,0,1,23.257,23.257v41.087A23.325,23.325,0,0,1,142.961,157.653Z" transform="translate(-100.912 -24.717)" fill="#d9607b"/>
          <path id="Trazado_997340" data-name="Trazado 997340" d="M166.218,122.021v-24.4a23.257,23.257,0,0,0-46.514,0v35C152.048,147.282,166.218,122.021,166.218,122.021Z" transform="translate(-100.912 -22.87)" fill="#6b1869"/>
          <path id="Trazado_997341" data-name="Trazado 997341" d="M115.258,63.212V108.5a29.6,29.6,0,0,0,59.209,0V63.212Z" transform="translate(-102.814 -27.642)" fill="#d9607b"/>
          <path id="Trazado_997342" data-name="Trazado 997342" d="M112.933,99.834c-5.093-10.981-7.748-24.425-3.948-29.365C99.97,56.779,117.843,42.123,131.1,50.581c1.372-14.916,25.261-16.4,30.176-3.6,13.8-16.042,42.943-6.172,26.139,23.832,1.242,7.44-.133,19.823-3.729,28.789a8.421,8.421,0,0,0-5.494.041V80.8a90.131,90.131,0,0,1-59.209,0V99.643A8.152,8.152,0,0,0,112.933,99.834Z" transform="translate(-106.542 -38.299)" fill="#6b1869"/>
          <path id="Trazado_997343" data-name="Trazado 997343" d="M116.3,97.284V86.769l-3.475,9.082A7.8,7.8,0,0,0,116.3,97.284Z" transform="translate(-103.855 -17.565)" fill="#6b1869"/>
          <path id="Trazado_997344" data-name="Trazado 997344" d="M156.728,97.284V86.769l3.475,9.082A7.791,7.791,0,0,1,156.728,97.284Z" transform="translate(-85.075 -17.565)" fill="#6b1869"/>
          <g id="Grupo_1160132" data-name="Grupo 1160132" transform="translate(9.987 57.53)">
            <path id="Trazado_997345" data-name="Trazado 997345" d="M127.027,98.878c7.233,8.378,17.641,7.955,25.6-.041Q140.857,102.249,127.027,98.878Z" transform="translate(-107.766 -69.933)" fill="#fff"/>
            <path id="Trazado_997346" data-name="Trazado 997346" d="M130.124,103.827c5.2,4.078,11.462,3.791,16.952-.445C141.439,106.4,135.365,106.629,130.124,103.827Z" transform="translate(-106.442 -67.989)" fill="#6b1869"/>
            <path id="Trazado_997347" data-name="Trazado 997347" d="M125.556,89.636h0a2.178,2.178,0,0,1-2.172-2.172V85.707a2.178,2.178,0,0,1,2.172-2.172h0a2.178,2.178,0,0,1,2.172,2.172v1.758A2.178,2.178,0,0,1,125.556,89.636Z" transform="translate(-109.325 -76.479)" fill="#6b1869"/>
            <path id="Trazado_997348" data-name="Trazado 997348" d="M147.732,89.636h0a2.178,2.178,0,0,1-2.172-2.172V85.707a2.177,2.177,0,0,1,2.172-2.172h0a2.178,2.178,0,0,1,2.172,2.172v1.758A2.178,2.178,0,0,1,147.732,89.636Z" transform="translate(-99.839 -76.479)" fill="#6b1869"/>
            <path id="Trazado_997349" data-name="Trazado 997349" d="M120.141,81.664l13.6.557S129.9,75.783,120.141,81.664Z" transform="translate(-110.712 -78.339)" fill="#6b1869"/>
            <path id="Trazado_997350" data-name="Trazado 997350" d="M155.885,81.7l-13.6.664S146.079,75.9,155.885,81.7Z" transform="translate(-101.239 -78.298)" fill="#6b1869"/>
            <path id="Trazado_997351" data-name="Trazado 997351" d="M131.53,94.395q6.258,6.515,12.974,0A18.537,18.537,0,0,1,131.53,94.395Z" transform="translate(-105.84 -71.834)" fill="#6b1869"/>
            <path id="Trazado_997352" data-name="Trazado 997352" d="M128.154,102.854c-8.061,0-14.617-5.443-14.617-12.13s6.558-12.13,14.617-12.13,14.619,5.441,14.619,12.13S136.214,102.854,128.154,102.854Zm0-23.545c-7.667,0-13.9,5.121-13.9,11.416s6.238,11.416,13.9,11.416,13.9-5.121,13.9-11.416S135.821,79.308,128.154,79.308Z" transform="translate(-113.537 -78.593)" fill="#fff"/>
            <path id="Trazado_997353" data-name="Trazado 997353" d="M152.752,102.854c-8.061,0-14.619-5.443-14.619-12.13s6.558-12.13,14.619-12.13,14.617,5.441,14.617,12.13S160.812,102.854,152.752,102.854Zm0-23.545c-7.667,0-13.9,5.121-13.9,11.416s6.238,11.416,13.9,11.416,13.9-5.121,13.9-11.416S160.417,79.308,152.752,79.308Z" transform="translate(-103.016 -78.593)" fill="#fff"/>
            <path id="Trazado_997354" data-name="Trazado 997354" d="M141.419,85.042a5.759,5.759,0,0,0-8.008,0l-.465-.541a6.491,6.491,0,0,1,8.931,0Z" transform="translate(-105.235 -76.829)" fill="#fff"/>
          </g>
        </g>
      </g>
    </g>
    <g id="Trazado_987435" data-name="Trazado 987435" transform="translate(977.085 1303.693)" fill="#fff">
      <path d="M 28.4150390625 56.330078125 C 24.64630889892578 56.330078125 20.99057960510254 55.59207916259766 17.54939842224121 54.13657760620117 C 14.2253589630127 52.73062896728516 11.23995876312256 50.71778869628906 8.676129341125488 48.15395736694336 C 6.112298965454102 45.59012985229492 4.099449157714844 42.60472869873047 2.693499088287354 39.28067779541016 C 1.237999081611633 35.83950042724609 0.499999076128006 32.18376922607422 0.499999076128006 28.4150390625 C 0.499999076128006 24.64630889892578 1.237999081611633 20.9905891418457 2.693499088287354 17.54939842224121 C 4.099449157714844 14.2253589630127 6.112298965454102 11.23995876312256 8.676129341125488 8.676129341125488 C 11.23995876312256 6.112298965454102 14.2253589630127 4.099449157714844 17.54939842224121 2.693499088287354 C 20.9905891418457 1.237999081611633 24.64630889892578 0.499999076128006 28.4150390625 0.499999076128006 C 32.18376922607422 0.499999076128006 35.83950042724609 1.237999081611633 39.28067779541016 2.693499088287354 C 42.60472869873047 4.099449157714844 45.59012985229492 6.112298965454102 48.15395736694336 8.676129341125488 C 50.71778869628906 11.23995876312256 52.73062896728516 14.2253589630127 54.13657760620117 17.54939842224121 C 55.59207916259766 20.99057960510254 56.330078125 24.64630889892578 56.330078125 28.4150390625 C 56.330078125 32.18376922607422 55.59207916259766 35.83950042724609 54.13657760620117 39.28067779541016 C 52.73062896728516 42.60472869873047 50.71778869628906 45.59012985229492 48.15395736694336 48.15395736694336 C 45.59012985229492 50.71778869628906 42.60472869873047 52.73062896728516 39.28067779541016 54.13657760620117 C 35.83950042724609 55.59207916259766 32.18376922607422 56.330078125 28.4150390625 56.330078125 Z" stroke="none"/>
      <path d="M 28.4150390625 1 C 24.71358871459961 1 21.12339782714844 1.724708557128906 17.74417877197266 3.153999328613281 C 14.47972869873047 4.534740447998047 11.54774856567383 6.511608123779297 9.029678344726562 9.029678344726562 C 6.511608123779297 11.54774856567383 4.534740447998047 14.47972869873047 3.153999328613281 17.74417877197266 C 1.724708557128906 21.12339782714844 1 24.71358871459961 1 28.4150390625 C 1 32.11648941040039 1.724708557128906 35.70668029785156 3.153999328613281 39.08589935302734 C 4.534740447998047 42.35034942626953 6.511608123779297 45.28232955932617 9.029678344726562 47.80039978027344 C 11.54774856567383 50.3184700012207 14.47972869873047 52.29533767700195 17.74417877197266 53.67607879638672 C 21.12339782714844 55.10536956787109 24.71358871459961 55.830078125 28.4150390625 55.830078125 C 32.11648941040039 55.830078125 35.70668029785156 55.10536956787109 39.08589935302734 53.67607879638672 C 42.35034942626953 52.29533767700195 45.28232955932617 50.3184700012207 47.80039978027344 47.80039978027344 C 50.3184700012207 45.28232955932617 52.29533767700195 42.35034942626953 53.67607879638672 39.08589935302734 C 55.10536956787109 35.70668029785156 55.830078125 32.11648941040039 55.830078125 28.4150390625 C 55.830078125 24.71358871459961 55.10536956787109 21.12339782714844 53.67607879638672 17.74417877197266 C 52.29533767700195 14.47972869873047 50.3184700012207 11.54774856567383 47.80039978027344 9.029678344726562 C 45.28232955932617 6.511608123779297 42.35034942626953 4.534740447998047 39.08589935302734 3.153999328613281 C 35.70668029785156 1.724708557128906 32.11648941040039 1 28.4150390625 1 M 28.4150390625 0 C 44.10823059082031 0 56.830078125 12.72184753417969 56.830078125 28.4150390625 C 56.830078125 44.10823059082031 44.10823059082031 56.830078125 28.4150390625 56.830078125 C 12.72184753417969 56.830078125 0 44.10823059082031 0 28.4150390625 C 0 12.72184753417969 12.72184753417969 0 28.4150390625 0 Z" stroke="none" fill="#6f6e88"/>
    </g>
    <g id="Trazado_1016618" data-name="Trazado 1016618" transform="translate(1146.05 1630.693)" fill="#fff">
      <path d="M 28.4150390625 56.330078125 C 24.64630889892578 56.330078125 20.99057960510254 55.59207916259766 17.54939842224121 54.13657760620117 C 14.2253589630127 52.73062896728516 11.23995876312256 50.71778869628906 8.676129341125488 48.15395736694336 C 6.112298965454102 45.59012985229492 4.099449157714844 42.60472869873047 2.693499088287354 39.28067779541016 C 1.237999081611633 35.83950042724609 0.499999076128006 32.18376922607422 0.499999076128006 28.4150390625 C 0.499999076128006 24.64630889892578 1.237999081611633 20.9905891418457 2.693499088287354 17.54939842224121 C 4.099449157714844 14.2253589630127 6.112298965454102 11.23995876312256 8.676129341125488 8.676129341125488 C 11.23995876312256 6.112298965454102 14.2253589630127 4.099449157714844 17.54939842224121 2.693499088287354 C 20.9905891418457 1.237999081611633 24.64630889892578 0.499999076128006 28.4150390625 0.499999076128006 C 32.18376922607422 0.499999076128006 35.83950042724609 1.237999081611633 39.28067779541016 2.693499088287354 C 42.60472869873047 4.099449157714844 45.59012985229492 6.112298965454102 48.15395736694336 8.676129341125488 C 50.71778869628906 11.23995876312256 52.73062896728516 14.2253589630127 54.13657760620117 17.54939842224121 C 55.59207916259766 20.99057960510254 56.330078125 24.64630889892578 56.330078125 28.4150390625 C 56.330078125 32.18376922607422 55.59207916259766 35.83950042724609 54.13657760620117 39.28067779541016 C 52.73062896728516 42.60472869873047 50.71778869628906 45.59012985229492 48.15395736694336 48.15395736694336 C 45.59012985229492 50.71778869628906 42.60472869873047 52.73062896728516 39.28067779541016 54.13657760620117 C 35.83950042724609 55.59207916259766 32.18376922607422 56.330078125 28.4150390625 56.330078125 Z" stroke="none"/>
      <path d="M 28.4150390625 1 C 24.71358871459961 1 21.12339782714844 1.724708557128906 17.74417877197266 3.153999328613281 C 14.47972869873047 4.534740447998047 11.54774856567383 6.511608123779297 9.029678344726562 9.029678344726562 C 6.511608123779297 11.54774856567383 4.534740447998047 14.47972869873047 3.153999328613281 17.74417877197266 C 1.724708557128906 21.12339782714844 1 24.71358871459961 1 28.4150390625 C 1 32.11648941040039 1.724708557128906 35.70668029785156 3.153999328613281 39.08589935302734 C 4.534740447998047 42.35034942626953 6.511608123779297 45.28232955932617 9.029678344726562 47.80039978027344 C 11.54774856567383 50.3184700012207 14.47972869873047 52.29533767700195 17.74417877197266 53.67607879638672 C 21.12339782714844 55.10536956787109 24.71358871459961 55.830078125 28.4150390625 55.830078125 C 32.11648941040039 55.830078125 35.70668029785156 55.10536956787109 39.08589935302734 53.67607879638672 C 42.35034942626953 52.29533767700195 45.28232955932617 50.3184700012207 47.80039978027344 47.80039978027344 C 50.3184700012207 45.28232955932617 52.29533767700195 42.35034942626953 53.67607879638672 39.08589935302734 C 55.10536956787109 35.70668029785156 55.830078125 32.11648941040039 55.830078125 28.4150390625 C 55.830078125 24.71358871459961 55.10536956787109 21.12339782714844 53.67607879638672 17.74417877197266 C 52.29533767700195 14.47972869873047 50.3184700012207 11.54774856567383 47.80039978027344 9.029678344726562 C 45.28232955932617 6.511608123779297 42.35034942626953 4.534740447998047 39.08589935302734 3.153999328613281 C 35.70668029785156 1.724708557128906 32.11648941040039 1 28.4150390625 1 M 28.4150390625 0 C 44.10823059082031 0 56.830078125 12.72184753417969 56.830078125 28.4150390625 C 56.830078125 44.10823059082031 44.10823059082031 56.830078125 28.4150390625 56.830078125 C 12.72184753417969 56.830078125 0 44.10823059082031 0 28.4150390625 C 0 12.72184753417969 12.72184753417969 0 28.4150390625 0 Z" stroke="none" fill="#6f6e88"/>
    </g>
    <g id="Trazado_1016619" data-name="Trazado 1016619" transform="translate(997.61 1909.693)" fill="#fff">
      <path d="M 28.4150390625 56.330078125 C 24.64630889892578 56.330078125 20.99057960510254 55.59207916259766 17.54939842224121 54.13657760620117 C 14.2253589630127 52.73062896728516 11.23995876312256 50.71778869628906 8.676129341125488 48.15395736694336 C 6.112298965454102 45.59012985229492 4.099449157714844 42.60472869873047 2.693499088287354 39.28067779541016 C 1.237999081611633 35.83950042724609 0.499999076128006 32.18376922607422 0.499999076128006 28.4150390625 C 0.499999076128006 24.64630889892578 1.237999081611633 20.9905891418457 2.693499088287354 17.54939842224121 C 4.099449157714844 14.2253589630127 6.112298965454102 11.23995876312256 8.676129341125488 8.676129341125488 C 11.23995876312256 6.112298965454102 14.2253589630127 4.099449157714844 17.54939842224121 2.693499088287354 C 20.9905891418457 1.237999081611633 24.64630889892578 0.499999076128006 28.4150390625 0.499999076128006 C 32.18376922607422 0.499999076128006 35.83950042724609 1.237999081611633 39.28067779541016 2.693499088287354 C 42.60472869873047 4.099449157714844 45.59012985229492 6.112298965454102 48.15395736694336 8.676129341125488 C 50.71778869628906 11.23995876312256 52.73062896728516 14.2253589630127 54.13657760620117 17.54939842224121 C 55.59207916259766 20.99057960510254 56.330078125 24.64630889892578 56.330078125 28.4150390625 C 56.330078125 32.18376922607422 55.59207916259766 35.83950042724609 54.13657760620117 39.28067779541016 C 52.73062896728516 42.60472869873047 50.71778869628906 45.59012985229492 48.15395736694336 48.15395736694336 C 45.59012985229492 50.71778869628906 42.60472869873047 52.73062896728516 39.28067779541016 54.13657760620117 C 35.83950042724609 55.59207916259766 32.18376922607422 56.330078125 28.4150390625 56.330078125 Z" stroke="none"/>
      <path d="M 28.4150390625 1 C 24.71358871459961 1 21.12339782714844 1.724708557128906 17.74417877197266 3.153999328613281 C 14.47972869873047 4.534740447998047 11.54774856567383 6.511608123779297 9.029678344726562 9.029678344726562 C 6.511608123779297 11.54774856567383 4.534740447998047 14.47972869873047 3.153999328613281 17.74417877197266 C 1.724708557128906 21.12339782714844 1 24.71358871459961 1 28.4150390625 C 1 32.11648941040039 1.724708557128906 35.70668029785156 3.153999328613281 39.08589935302734 C 4.534740447998047 42.35034942626953 6.511608123779297 45.28232955932617 9.029678344726562 47.80039978027344 C 11.54774856567383 50.3184700012207 14.47972869873047 52.29533767700195 17.74417877197266 53.67607879638672 C 21.12339782714844 55.10536956787109 24.71358871459961 55.830078125 28.4150390625 55.830078125 C 32.11648941040039 55.830078125 35.70668029785156 55.10536956787109 39.08589935302734 53.67607879638672 C 42.35034942626953 52.29533767700195 45.28232955932617 50.3184700012207 47.80039978027344 47.80039978027344 C 50.3184700012207 45.28232955932617 52.29533767700195 42.35034942626953 53.67607879638672 39.08589935302734 C 55.10536956787109 35.70668029785156 55.830078125 32.11648941040039 55.830078125 28.4150390625 C 55.830078125 24.71358871459961 55.10536956787109 21.12339782714844 53.67607879638672 17.74417877197266 C 52.29533767700195 14.47972869873047 50.3184700012207 11.54774856567383 47.80039978027344 9.029678344726562 C 45.28232955932617 6.511608123779297 42.35034942626953 4.534740447998047 39.08589935302734 3.153999328613281 C 35.70668029785156 1.724708557128906 32.11648941040039 1 28.4150390625 1 M 28.4150390625 0 C 44.10823059082031 0 56.830078125 12.72184753417969 56.830078125 28.4150390625 C 56.830078125 44.10823059082031 44.10823059082031 56.830078125 28.4150390625 56.830078125 C 12.72184753417969 56.830078125 0 44.10823059082031 0 28.4150390625 C 0 12.72184753417969 12.72184753417969 0 28.4150390625 0 Z" stroke="none" fill="#6f6e88"/>
    </g>
    <g id="Trazado_1016620" data-name="Trazado 1016620" transform="translate(664.61 1966.523)" fill="#fff">
      <path d="M 28.4150390625 56.330078125 C 24.64630889892578 56.330078125 20.99057960510254 55.59207916259766 17.54939842224121 54.13657760620117 C 14.2253589630127 52.73062896728516 11.23995876312256 50.71778869628906 8.676129341125488 48.15395736694336 C 6.112298965454102 45.59012985229492 4.099449157714844 42.60472869873047 2.693499088287354 39.28067779541016 C 1.237999081611633 35.83950042724609 0.499999076128006 32.18376922607422 0.499999076128006 28.4150390625 C 0.499999076128006 24.64630889892578 1.237999081611633 20.9905891418457 2.693499088287354 17.54939842224121 C 4.099449157714844 14.2253589630127 6.112298965454102 11.23995876312256 8.676129341125488 8.676129341125488 C 11.23995876312256 6.112298965454102 14.2253589630127 4.099449157714844 17.54939842224121 2.693499088287354 C 20.9905891418457 1.237999081611633 24.64630889892578 0.499999076128006 28.4150390625 0.499999076128006 C 32.18376922607422 0.499999076128006 35.83950042724609 1.237999081611633 39.28067779541016 2.693499088287354 C 42.60472869873047 4.099449157714844 45.59012985229492 6.112298965454102 48.15395736694336 8.676129341125488 C 50.71778869628906 11.23995876312256 52.73062896728516 14.2253589630127 54.13657760620117 17.54939842224121 C 55.59207916259766 20.99057960510254 56.330078125 24.64630889892578 56.330078125 28.4150390625 C 56.330078125 32.18376922607422 55.59207916259766 35.83950042724609 54.13657760620117 39.28067779541016 C 52.73062896728516 42.60472869873047 50.71778869628906 45.59012985229492 48.15395736694336 48.15395736694336 C 45.59012985229492 50.71778869628906 42.60472869873047 52.73062896728516 39.28067779541016 54.13657760620117 C 35.83950042724609 55.59207916259766 32.18376922607422 56.330078125 28.4150390625 56.330078125 Z" stroke="none"/>
      <path d="M 28.4150390625 1 C 24.71358871459961 1 21.12339782714844 1.724708557128906 17.74417877197266 3.153999328613281 C 14.47972869873047 4.534740447998047 11.54774856567383 6.511608123779297 9.029678344726562 9.029678344726562 C 6.511608123779297 11.54774856567383 4.534740447998047 14.47972869873047 3.153999328613281 17.74417877197266 C 1.724708557128906 21.12339782714844 1 24.71358871459961 1 28.4150390625 C 1 32.11648941040039 1.724708557128906 35.70668029785156 3.153999328613281 39.08589935302734 C 4.534740447998047 42.35034942626953 6.511608123779297 45.28232955932617 9.029678344726562 47.80039978027344 C 11.54774856567383 50.3184700012207 14.47972869873047 52.29533767700195 17.74417877197266 53.67607879638672 C 21.12339782714844 55.10536956787109 24.71358871459961 55.830078125 28.4150390625 55.830078125 C 32.11648941040039 55.830078125 35.70668029785156 55.10536956787109 39.08589935302734 53.67607879638672 C 42.35034942626953 52.29533767700195 45.28232955932617 50.3184700012207 47.80039978027344 47.80039978027344 C 50.3184700012207 45.28232955932617 52.29533767700195 42.35034942626953 53.67607879638672 39.08589935302734 C 55.10536956787109 35.70668029785156 55.830078125 32.11648941040039 55.830078125 28.4150390625 C 55.830078125 24.71358871459961 55.10536956787109 21.12339782714844 53.67607879638672 17.74417877197266 C 52.29533767700195 14.47972869873047 50.3184700012207 11.54774856567383 47.80039978027344 9.029678344726562 C 45.28232955932617 6.511608123779297 42.35034942626953 4.534740447998047 39.08589935302734 3.153999328613281 C 35.70668029785156 1.724708557128906 32.11648941040039 1 28.4150390625 1 M 28.4150390625 0 C 44.10823059082031 0 56.830078125 12.72184753417969 56.830078125 28.4150390625 C 56.830078125 44.10823059082031 44.10823059082031 56.830078125 28.4150390625 56.830078125 C 12.72184753417969 56.830078125 0 44.10823059082031 0 28.4150390625 C 0 12.72184753417969 12.72184753417969 0 28.4150390625 0 Z" stroke="none" fill="#6f6e88"/>
    </g>
    <g id="Trazado_1016621" data-name="Trazado 1016621" transform="translate(425 1759.523)" fill="#fff">
      <path d="M 28.4150390625 56.330078125 C 24.64630889892578 56.330078125 20.99057960510254 55.59207916259766 17.54939842224121 54.13657760620117 C 14.2253589630127 52.73062896728516 11.23995876312256 50.71778869628906 8.676129341125488 48.15395736694336 C 6.112298965454102 45.59012985229492 4.099449157714844 42.60472869873047 2.693499088287354 39.28067779541016 C 1.237999081611633 35.83950042724609 0.499999076128006 32.18376922607422 0.499999076128006 28.4150390625 C 0.499999076128006 24.64630889892578 1.237999081611633 20.9905891418457 2.693499088287354 17.54939842224121 C 4.099449157714844 14.2253589630127 6.112298965454102 11.23995876312256 8.676129341125488 8.676129341125488 C 11.23995876312256 6.112298965454102 14.2253589630127 4.099449157714844 17.54939842224121 2.693499088287354 C 20.9905891418457 1.237999081611633 24.64630889892578 0.499999076128006 28.4150390625 0.499999076128006 C 32.18376922607422 0.499999076128006 35.83950042724609 1.237999081611633 39.28067779541016 2.693499088287354 C 42.60472869873047 4.099449157714844 45.59012985229492 6.112298965454102 48.15395736694336 8.676129341125488 C 50.71778869628906 11.23995876312256 52.73062896728516 14.2253589630127 54.13657760620117 17.54939842224121 C 55.59207916259766 20.99057960510254 56.330078125 24.64630889892578 56.330078125 28.4150390625 C 56.330078125 32.18376922607422 55.59207916259766 35.83950042724609 54.13657760620117 39.28067779541016 C 52.73062896728516 42.60472869873047 50.71778869628906 45.59012985229492 48.15395736694336 48.15395736694336 C 45.59012985229492 50.71778869628906 42.60472869873047 52.73062896728516 39.28067779541016 54.13657760620117 C 35.83950042724609 55.59207916259766 32.18376922607422 56.330078125 28.4150390625 56.330078125 Z" stroke="none"/>
      <path d="M 28.4150390625 1 C 24.71358871459961 1 21.12339782714844 1.724708557128906 17.74417877197266 3.153999328613281 C 14.47972869873047 4.534740447998047 11.54774856567383 6.511608123779297 9.029678344726562 9.029678344726562 C 6.511608123779297 11.54774856567383 4.534740447998047 14.47972869873047 3.153999328613281 17.74417877197266 C 1.724708557128906 21.12339782714844 1 24.71358871459961 1 28.4150390625 C 1 32.11648941040039 1.724708557128906 35.70668029785156 3.153999328613281 39.08589935302734 C 4.534740447998047 42.35034942626953 6.511608123779297 45.28232955932617 9.029678344726562 47.80039978027344 C 11.54774856567383 50.3184700012207 14.47972869873047 52.29533767700195 17.74417877197266 53.67607879638672 C 21.12339782714844 55.10536956787109 24.71358871459961 55.830078125 28.4150390625 55.830078125 C 32.11648941040039 55.830078125 35.70668029785156 55.10536956787109 39.08589935302734 53.67607879638672 C 42.35034942626953 52.29533767700195 45.28232955932617 50.3184700012207 47.80039978027344 47.80039978027344 C 50.3184700012207 45.28232955932617 52.29533767700195 42.35034942626953 53.67607879638672 39.08589935302734 C 55.10536956787109 35.70668029785156 55.830078125 32.11648941040039 55.830078125 28.4150390625 C 55.830078125 24.71358871459961 55.10536956787109 21.12339782714844 53.67607879638672 17.74417877197266 C 52.29533767700195 14.47972869873047 50.3184700012207 11.54774856567383 47.80039978027344 9.029678344726562 C 45.28232955932617 6.511608123779297 42.35034942626953 4.534740447998047 39.08589935302734 3.153999328613281 C 35.70668029785156 1.724708557128906 32.11648941040039 1 28.4150390625 1 M 28.4150390625 0 C 44.10823059082031 0 56.830078125 12.72184753417969 56.830078125 28.4150390625 C 56.830078125 44.10823059082031 44.10823059082031 56.830078125 28.4150390625 56.830078125 C 12.72184753417969 56.830078125 0 44.10823059082031 0 28.4150390625 C 0 12.72184753417969 12.72184753417969 0 28.4150390625 0 Z" stroke="none" fill="#6f6e88"/>
    </g>
    <g id="Trazado_1016622" data-name="Trazado 1016622" transform="translate(440 1442.523)" fill="#fff">
      <path d="M 28.4150390625 56.330078125 C 24.64630889892578 56.330078125 20.99057960510254 55.59207916259766 17.54939842224121 54.13657760620117 C 14.2253589630127 52.73062896728516 11.23995876312256 50.71778869628906 8.676129341125488 48.15395736694336 C 6.112298965454102 45.59012985229492 4.099449157714844 42.60472869873047 2.693499088287354 39.28067779541016 C 1.237999081611633 35.83950042724609 0.499999076128006 32.18376922607422 0.499999076128006 28.4150390625 C 0.499999076128006 24.64630889892578 1.237999081611633 20.9905891418457 2.693499088287354 17.54939842224121 C 4.099449157714844 14.2253589630127 6.112298965454102 11.23995876312256 8.676129341125488 8.676129341125488 C 11.23995876312256 6.112298965454102 14.2253589630127 4.099449157714844 17.54939842224121 2.693499088287354 C 20.9905891418457 1.237999081611633 24.64630889892578 0.499999076128006 28.4150390625 0.499999076128006 C 32.18376922607422 0.499999076128006 35.83950042724609 1.237999081611633 39.28067779541016 2.693499088287354 C 42.60472869873047 4.099449157714844 45.59012985229492 6.112298965454102 48.15395736694336 8.676129341125488 C 50.71778869628906 11.23995876312256 52.73062896728516 14.2253589630127 54.13657760620117 17.54939842224121 C 55.59207916259766 20.99057960510254 56.330078125 24.64630889892578 56.330078125 28.4150390625 C 56.330078125 32.18376922607422 55.59207916259766 35.83950042724609 54.13657760620117 39.28067779541016 C 52.73062896728516 42.60472869873047 50.71778869628906 45.59012985229492 48.15395736694336 48.15395736694336 C 45.59012985229492 50.71778869628906 42.60472869873047 52.73062896728516 39.28067779541016 54.13657760620117 C 35.83950042724609 55.59207916259766 32.18376922607422 56.330078125 28.4150390625 56.330078125 Z" stroke="none"/>
      <path d="M 28.4150390625 1 C 24.71358871459961 1 21.12339782714844 1.724708557128906 17.74417877197266 3.153999328613281 C 14.47972869873047 4.534740447998047 11.54774856567383 6.511608123779297 9.029678344726562 9.029678344726562 C 6.511608123779297 11.54774856567383 4.534740447998047 14.47972869873047 3.153999328613281 17.74417877197266 C 1.724708557128906 21.12339782714844 1 24.71358871459961 1 28.4150390625 C 1 32.11648941040039 1.724708557128906 35.70668029785156 3.153999328613281 39.08589935302734 C 4.534740447998047 42.35034942626953 6.511608123779297 45.28232955932617 9.029678344726562 47.80039978027344 C 11.54774856567383 50.3184700012207 14.47972869873047 52.29533767700195 17.74417877197266 53.67607879638672 C 21.12339782714844 55.10536956787109 24.71358871459961 55.830078125 28.4150390625 55.830078125 C 32.11648941040039 55.830078125 35.70668029785156 55.10536956787109 39.08589935302734 53.67607879638672 C 42.35034942626953 52.29533767700195 45.28232955932617 50.3184700012207 47.80039978027344 47.80039978027344 C 50.3184700012207 45.28232955932617 52.29533767700195 42.35034942626953 53.67607879638672 39.08589935302734 C 55.10536956787109 35.70668029785156 55.830078125 32.11648941040039 55.830078125 28.4150390625 C 55.830078125 24.71358871459961 55.10536956787109 21.12339782714844 53.67607879638672 17.74417877197266 C 52.29533767700195 14.47972869873047 50.3184700012207 11.54774856567383 47.80039978027344 9.029678344726562 C 45.28232955932617 6.511608123779297 42.35034942626953 4.534740447998047 39.08589935302734 3.153999328613281 C 35.70668029785156 1.724708557128906 32.11648941040039 1 28.4150390625 1 M 28.4150390625 0 C 44.10823059082031 0 56.830078125 12.72184753417969 56.830078125 28.4150390625 C 56.830078125 44.10823059082031 44.10823059082031 56.830078125 28.4150390625 56.830078125 C 12.72184753417969 56.830078125 0 44.10823059082031 0 28.4150390625 C 0 12.72184753417969 12.72184753417969 0 28.4150390625 0 Z" stroke="none" fill="#6f6e88"/>
    </g>
    <g id="Trazado_1016623" data-name="Trazado 1016623" transform="translate(710 1252.546)" fill="#fff">
      <path d="M 28.4150390625 56.330078125 C 24.64630889892578 56.330078125 20.99057960510254 55.59207916259766 17.54939842224121 54.13657760620117 C 14.2253589630127 52.73062896728516 11.23995876312256 50.71778869628906 8.676129341125488 48.15395736694336 C 6.112298965454102 45.59012985229492 4.099449157714844 42.60472869873047 2.693499088287354 39.28067779541016 C 1.237999081611633 35.83950042724609 0.499999076128006 32.18376922607422 0.499999076128006 28.4150390625 C 0.499999076128006 24.64630889892578 1.237999081611633 20.9905891418457 2.693499088287354 17.54939842224121 C 4.099449157714844 14.2253589630127 6.112298965454102 11.23995876312256 8.676129341125488 8.676129341125488 C 11.23995876312256 6.112298965454102 14.2253589630127 4.099449157714844 17.54939842224121 2.693499088287354 C 20.9905891418457 1.237999081611633 24.64630889892578 0.499999076128006 28.4150390625 0.499999076128006 C 32.18376922607422 0.499999076128006 35.83950042724609 1.237999081611633 39.28067779541016 2.693499088287354 C 42.60472869873047 4.099449157714844 45.59012985229492 6.112298965454102 48.15395736694336 8.676129341125488 C 50.71778869628906 11.23995876312256 52.73062896728516 14.2253589630127 54.13657760620117 17.54939842224121 C 55.59207916259766 20.99057960510254 56.330078125 24.64630889892578 56.330078125 28.4150390625 C 56.330078125 32.18376922607422 55.59207916259766 35.83950042724609 54.13657760620117 39.28067779541016 C 52.73062896728516 42.60472869873047 50.71778869628906 45.59012985229492 48.15395736694336 48.15395736694336 C 45.59012985229492 50.71778869628906 42.60472869873047 52.73062896728516 39.28067779541016 54.13657760620117 C 35.83950042724609 55.59207916259766 32.18376922607422 56.330078125 28.4150390625 56.330078125 Z" stroke="none"/>
      <path d="M 28.4150390625 1 C 24.71358871459961 1 21.12339782714844 1.724708557128906 17.74417877197266 3.153999328613281 C 14.47972869873047 4.534740447998047 11.54774856567383 6.511608123779297 9.029678344726562 9.029678344726562 C 6.511608123779297 11.54774856567383 4.534740447998047 14.47972869873047 3.153999328613281 17.74417877197266 C 1.724708557128906 21.12339782714844 1 24.71358871459961 1 28.4150390625 C 1 32.11648941040039 1.724708557128906 35.70668029785156 3.153999328613281 39.08589935302734 C 4.534740447998047 42.35034942626953 6.511608123779297 45.28232955932617 9.029678344726562 47.80039978027344 C 11.54774856567383 50.3184700012207 14.47972869873047 52.29533767700195 17.74417877197266 53.67607879638672 C 21.12339782714844 55.10536956787109 24.71358871459961 55.830078125 28.4150390625 55.830078125 C 32.11648941040039 55.830078125 35.70668029785156 55.10536956787109 39.08589935302734 53.67607879638672 C 42.35034942626953 52.29533767700195 45.28232955932617 50.3184700012207 47.80039978027344 47.80039978027344 C 50.3184700012207 45.28232955932617 52.29533767700195 42.35034942626953 53.67607879638672 39.08589935302734 C 55.10536956787109 35.70668029785156 55.830078125 32.11648941040039 55.830078125 28.4150390625 C 55.830078125 24.71358871459961 55.10536956787109 21.12339782714844 53.67607879638672 17.74417877197266 C 52.29533767700195 14.47972869873047 50.3184700012207 11.54774856567383 47.80039978027344 9.029678344726562 C 45.28232955932617 6.511608123779297 42.35034942626953 4.534740447998047 39.08589935302734 3.153999328613281 C 35.70668029785156 1.724708557128906 32.11648941040039 1 28.4150390625 1 M 28.4150390625 0 C 44.10823059082031 0 56.830078125 12.72184753417969 56.830078125 28.4150390625 C 56.830078125 44.10823059082031 44.10823059082031 56.830078125 28.4150390625 56.830078125 C 12.72184753417969 56.830078125 0 44.10823059082031 0 28.4150390625 C 0 12.72184753417969 12.72184753417969 0 28.4150390625 0 Z" stroke="none" fill="#6f6e88"/>
    </g>
  </g>
</svg>
