<svg xmlns="http://www.w3.org/2000/svg" xmlns:xlink="http://www.w3.org/1999/xlink" width="110" height="110" viewBox="0 0 110 110">
  <defs>
    <filter id="Trazado_982547" x="0" y="0" width="110" height="110" filterUnits="userSpaceOnUse">
      <feOffset dy="3" input="SourceAlpha"/>
      <feGaussianBlur stdDeviation="3" result="blur"/>
      <feFlood flood-opacity="0.161"/>
      <feComposite operator="in" in2="blur"/>
      <feComposite in="SourceGraphic"/>
    </filter>
  </defs>
  <g id="Grupo_1164038" data-name="Grupo 1164038" transform="translate(-4367 -978)">
    <g id="Grupo_1162178" data-name="Grupo 1162178" transform="translate(3989 -988)">
      <g id="Grupo_1160920" data-name="Grupo 1160920" transform="translate(0 -678)">
        <g id="Grupo_1160748" data-name="Grupo 1160748" transform="translate(0 315)">
          <g id="Grupo_1158890" data-name="Grupo 1158890" transform="translate(-423 -1476)">
            <g id="Grupo_1157405" data-name="Grupo 1157405" transform="translate(1 3016)">
              <g id="Grupo_1155792" data-name="Grupo 1155792" transform="translate(-1 -3894.666)">
                <g id="Grupo_1154703" data-name="Grupo 1154703" transform="translate(0 1465.666)">
                  <g id="Grupo_1150789" data-name="Grupo 1150789" transform="translate(3 2320)">
                    <g id="Grupo_1154212" data-name="Grupo 1154212" transform="translate(-236 -5809)">
                      <g id="Grupo_1152583" data-name="Grupo 1152583" transform="translate(1043 6713)">
                        <g id="Grupo_1146973" data-name="Grupo 1146973" transform="translate(0 0)">
                          <g id="Grupo_1146954" data-name="Grupo 1146954">
                            <g transform="matrix(1, 0, 0, 1, -9, -6)" filter="url(#Trazado_982547)">
                              <g id="Trazado_982547-2" data-name="Trazado 982547" transform="translate(9 6)" fill="#fcebe9">
                                <path d="M 46 90.49987030029297 C 39.99187850952148 90.49987030029297 34.16426849365234 89.32350921630859 28.67905426025391 87.00345611572266 C 23.38019943237305 84.76224517822266 18.62104034423828 81.55341339111328 14.53374671936035 77.46613311767578 C 10.44646644592285 73.37885284423828 7.237639904022217 68.61969757080078 4.996413230895996 63.32085418701172 C 2.676359891891479 57.83565521240234 1.5 52.008056640625 1.5 45.99993515014648 C 1.5 39.99181365966797 2.676359891891479 34.16421508789062 4.996413230895996 28.67901420593262 C 7.237639904022217 23.38017463684082 10.44646644592285 18.62101554870605 14.53374671936035 14.53373527526855 C 18.62104034423828 10.44645500183105 23.38019943237305 7.23762845993042 28.67905426025391 4.996415138244629 C 34.16426849365234 2.676361799240112 39.99187850952148 1.500001788139343 46 1.500001788139343 C 52.00812149047852 1.500001788139343 57.83573150634766 2.676361799240112 63.32094573974609 4.996415138244629 C 68.61979675292969 7.23762845993042 73.37895965576172 10.44645500183105 77.46625518798828 14.53373527526855 C 81.55353546142578 18.62101554870605 84.76235961914062 23.38017463684082 87.00358581542969 28.67901420593262 C 89.32363891601562 34.16421508789062 90.5 39.99181365966797 90.5 45.99993515014648 C 90.5 52.008056640625 89.32363891601562 57.83565521240234 87.00358581542969 63.32085418701172 C 84.76235961914062 68.61969757080078 81.55353546142578 73.37885284423828 77.46625518798828 77.46613311767578 C 73.37895965576172 81.55341339111328 68.61979675292969 84.76224517822266 63.32094573974609 87.00345611572266 C 57.83573150634766 89.32350921630859 52.00812149047852 90.49987030029297 46 90.49987030029297 Z" stroke="none"/>
                                <path d="M 46 2.999992370605469 C 40.1937141418457 2.999992370605469 34.56269836425781 4.136489868164062 29.26337051391602 6.377906799316406 C 24.14332580566406 8.543502807617188 19.54441070556641 11.64437866210938 15.59439849853516 15.59437561035156 C 11.64440155029297 19.54439544677734 8.54351806640625 24.14329528808594 6.377914428710938 29.26333618164062 C 4.136497497558594 34.56264877319336 3 40.19366455078125 3 45.99993515014648 C 3 51.80620574951172 4.136497497558594 57.43720626831055 6.377914428710938 62.73651885986328 C 8.54351806640625 67.8565673828125 11.64440155029297 72.45545959472656 15.59439849853516 76.40547943115234 C 19.54441070556641 80.35547637939453 24.14332580566406 83.45635223388672 29.26337051391602 85.6219482421875 C 34.56269836425781 87.86336517333984 40.1937141418457 88.99986267089844 46 88.99986267089844 C 51.8062858581543 88.99986267089844 57.43730163574219 87.86336517333984 62.73661422729492 85.6219482421875 C 67.85667419433594 83.45635223388672 72.45557403564453 80.35547637939453 76.40558624267578 76.40547943115234 C 80.35559844970703 72.45545959472656 83.45647430419922 67.8565673828125 85.6220703125 62.73651885986328 C 87.86350250244141 57.43720626831055 89 51.80620574951172 89 45.99993515014648 C 89 40.19366455078125 87.86350250244141 34.56264877319336 85.6220703125 29.26333618164062 C 83.45647430419922 24.14329528808594 80.35559844970703 19.54439544677734 76.40558624267578 15.59437561035156 C 72.45557403564453 11.64437866210938 67.85667419433594 8.543502807617188 62.73661422729492 6.377906799316406 C 57.43730163574219 4.136489868164062 51.8062858581543 2.999992370605469 46 2.999992370605469 M 46 -7.62939453125e-06 C 71.40509033203125 -7.62939453125e-06 92 20.59486389160156 92 45.99993515014648 C 92 71.40499114990234 71.40509033203125 91.99986267089844 46 91.99986267089844 C 20.59490203857422 91.99986267089844 0 71.40499114990234 0 45.99993515014648 C 0 20.59486389160156 20.59490203857422 -7.62939453125e-06 46 -7.62939453125e-06 Z" stroke="none" fill="#e44b36"/>
                              </g>
                            </g>
                          </g>
                        </g>
                      </g>
                    </g>
                  </g>
                </g>
              </g>
            </g>
          </g>
        </g>
      </g>
    </g>
    <g id="crisis" transform="translate(4389.17 999)">
      <path id="Trazado_1016284" data-name="Trazado 1016284" d="M27.4,7.822,4.59,47.324a5.643,5.643,0,0,0,4.887,8.465H55.091a5.643,5.643,0,0,0,4.887-8.465L37.171,7.822a5.643,5.643,0,0,0-9.774,0Z" transform="translate(0.412 0.411)" fill="#fac100"/>
      <path id="Trazado_1016285" data-name="Trazado 1016285" d="M47.8,42.993A36.682,36.682,0,0,1,14.841,22.412L4.59,40.171a5.643,5.643,0,0,0,4.887,8.465H55.091a5.643,5.643,0,0,0,5.2-7.827A36.593,36.593,0,0,1,47.8,42.993Z" transform="translate(0.412 7.563)" fill="#ff9500"/>
      <path id="Trazado_1016286" data-name="Trazado 1016286" d="M23.873,14h2.218a2.257,2.257,0,0,1,2.257,2.412L27.239,33.046a2.262,2.262,0,0,1-4.515,0L21.616,16.412A2.257,2.257,0,0,1,23.873,14Z" transform="translate(7.715 4.108)" fill="#2d4a60"/>
      <circle id="Elipse_11886" data-name="Elipse 11886" cx="3.527" cy="3.527" r="3.527" transform="translate(29.17 43.502)" fill="#2d4a60"/>
      <path id="Trazado_1016287" data-name="Trazado 1016287" d="M25.027,38.49a3.527,3.527,0,0,0,3.235-2.126A36.346,36.346,0,0,1,21.9,33.373a3.489,3.489,0,0,0-.4,1.59A3.527,3.527,0,0,0,25.027,38.49Z" transform="translate(7.67 12.066)" fill="#263f52"/>
      <path id="Trazado_1016288" data-name="Trazado 1016288" d="M55.5,57.61H9.89A7.054,7.054,0,0,1,3.775,47.029l22.813-39.5a7.054,7.054,0,0,1,12.218,0l22.813,39.5A7.054,7.054,0,0,1,55.509,57.61ZM29.028,8.938l-22.8,39.5a4.232,4.232,0,0,0,3.668,6.349H55.5a4.232,4.232,0,0,0,3.668-6.349L36.365,8.938a4.232,4.232,0,0,0-7.336,0Z"/>
      <path id="Trazado_1016289" data-name="Trazado 1016289" d="M25.394,36.984a3.681,3.681,0,0,1-3.668-3.428l-1.11-16.639A3.668,3.668,0,0,1,24.285,13H26.5a3.668,3.668,0,0,1,3.668,3.916L29.062,33.555A3.681,3.681,0,0,1,25.394,36.984ZM24.285,15.822a.846.846,0,0,0-.846.909l1.109,16.638a.846.846,0,0,0,1.693,0l1.11-16.638a.846.846,0,0,0-.846-.909Z" transform="translate(7.303 3.697)"/>
      <path id="Trazado_1016290" data-name="Trazado 1016290" d="M25.438,40.876a4.938,4.938,0,1,1,4.938-4.938,4.938,4.938,0,0,1-4.938,4.938Zm0-7.054a2.116,2.116,0,1,0,2.116,2.116A2.116,2.116,0,0,0,25.438,33.822Z" transform="translate(7.259 11.091)"/>
    </g>
  </g>
</svg>
